<?xml version="1.0" encoding="UTF-8" standalone="no"?>
<!-- Created with Inkscape (http://www.inkscape.org/) -->

<svg
   xmlns:dc="http://purl.org/dc/elements/1.1/"
   xmlns:cc="http://creativecommons.org/ns#"
   xmlns:rdf="http://www.w3.org/1999/02/22-rdf-syntax-ns#"
   xmlns:svg="http://www.w3.org/2000/svg"
   xmlns="http://www.w3.org/2000/svg"
   xmlns:sodipodi="http://sodipodi.sourceforge.net/DTD/sodipodi-0.dtd"
   xmlns:inkscape="http://www.inkscape.org/namespaces/inkscape"
   id="svg2"
   version="1.1"
   inkscape:version="0.91 r13725"
   width="512"
   height="512"
   viewBox="0 0 512 512"
   sodipodi:docname="clementine.svg">
  <metadata
     id="metadata8">
    <rdf:RDF>
      <cc:Work
         rdf:about="">
        <dc:format>image/svg+xml</dc:format>
        <dc:type
           rdf:resource="http://purl.org/dc/dcmitype/StillImage" />
        <dc:title />
      </cc:Work>
    </rdf:RDF>
  </metadata>
  <defs
     id="defs6">
    <linearGradient
       y2="160"
       x2="160"
       y1="120"
       x1="135"
       gradientTransform="matrix(0.05622958,0,0,0.05622958,0.07160145,-0.0527796)"
       gradientUnits="userSpaceOnUse"
       id="linearGradient3102-2">
      <stop
         style="stop-color:#eff7fc"
         id="stop12" />
      <stop
         offset="1"
         style="stop-color:#fff"
         id="stop14" />
    </linearGradient>
  </defs>
  <sodipodi:namedview
     pagecolor="#ffffff"
     bordercolor="#666666"
     borderopacity="1"
     objecttolerance="10"
     gridtolerance="10"
     guidetolerance="10"
     inkscape:pageopacity="0"
     inkscape:pageshadow="2"
     inkscape:window-width="1366"
     inkscape:window-height="713"
     id="namedview4"
     showgrid="false"
     inkscape:zoom="0.29667057"
     inkscape:cx="-658.25683"
     inkscape:cy="373.12272"
     inkscape:window-x="0"
     inkscape:window-y="26"
     inkscape:window-maximized="1"
     inkscape:current-layer="layer2"
     showguides="true"
     inkscape:guide-bbox="true" />
  <g
     inkscape:groupmode="layer"
     id="layer3"
     inkscape:label="Layer 3"
     transform="translate(0,230.75)"
     style="display:inline">
    <path
       style="display:inline;fill:#fc9045;fill-opacity:1;fill-rule:evenodd;stroke:none;stroke-width:0.9919042px;stroke-linecap:butt;stroke-linejoin:miter;stroke-opacity:1"
       d="m 99.367206,-177.82054 c 92.460144,-30.57262 219.305284,-30.57262 312.736244,0 22.10299,7.23266 42.46686,26.89673 49.37941,48.91535 27.0337,86.111267 27.67678,230.05443 0,309.79655 -7.56841,21.80598 -27.12464,42.15474 -49.37941,48.91515 -93.43096,28.38212 -220.2761,28.79975 -312.736244,0 -22.205792,-6.91663 -42.155174,-26.99494 -49.379408,-48.91515 -26.2805,-79.74212 -27.017745,-223.685283 0,-309.79655 6.908802,-22.01975 27.29934,-41.61423 49.379408,-48.91535 z"
       id="path4152"
       inkscape:connector-curvature="0"
       sodipodi:nodetypes="sssssssss" />
  </g>
  <g
     inkscape:groupmode="layer"
     id="layer2"
     inkscape:label="Layer 2"
     transform="translate(0,230.75)">
    <path
       style="fill:#ffffff;fill-opacity:1"
       d="m 258.73428,144.80791 c -6.53776,-0.28155 -17.15298,-1.99915 -24.79187,-4.01093 -28.96667,-7.62891 -53.45054,-25.05822 -70.37,-50.094027 -8.25318,-12.21238 -14.5964,-26.91641 -17.91701,-41.532865 -2.19604,-9.666397 -2.9148,-16.514667 -2.92729,-27.890754 -0.0424,-38.498157 18.11134,-74.520201 49.2434,-97.713827 6.6774,-4.974637 10.33162,-7.219005 20.7508,-12.744893 l 6.98065,-3.702257 1.55173,3.508744 c 0.85343,1.929852 2.24566,4.878116 3.09379,6.551834 l 1.54206,3.04309 -6.58842,3.107689 c -41.04325,19.360101 -66.45377,62.685241 -62.88296,107.216091 2.23666,27.893107 13.23585,51.741478 32.66414,70.822655 21.03485,20.65903 47.68373,31.56777 77.08853,31.55647 27.36263,-0.009 51.49329,-9.00685 72.5371,-27.04335 10.77043,-9.231247 21.77468,-23.707397 26.99567,-35.513067 l 1.47568,-3.336704 2.33347,1.397904 c 5.37403,3.21984 6.20712,4.85589 4.8499,9.52458 -1.03421,3.55752 -6.03463,11.86632 -11.39331,18.93127 -13.86536,18.280567 -35.11356,33.568907 -57.44139,41.329747 -13.23122,4.599 -31.92889,7.23322 -46.79467,6.5926 z m 0.92971,-17.79966 c -5.44956,-1.25402 -9.58102,-2.96766 -13.62329,-5.65075 l -3.58282,-2.37818 0.36593,-4.3796 c 0.78451,-9.38861 8.92262,-39.416187 20.9443,-77.279471 l 2.48326,-7.821295 3.25027,-0.02825 3.25026,-0.02825 3.20967,8.470292 c 8.22669,21.71003 21.67141,64.029184 23.7323,74.700814 l 0.82095,4.25087 -2.14143,1.76939 c -3.00992,2.48713 -10.03783,5.94653 -15.15713,7.46082 -5.6319,1.66591 -18.17269,2.15341 -23.55228,0.9153 z m -33.77895,-12.53189 c -20.68755,-5.4579 -33.43989,-14.4043 -40.79161,-28.617057 -2.32119,-4.48751 -5.69315,-13.95154 -5.69315,-15.978764 0,-2.511237 34.15877,-22.527491 67.07488,-39.304318 l 12.76839,-6.507952 1.75969,1.711949 c 0.96784,0.941667 2.21796,2.056977 2.77802,2.479032 0.92754,0.699658 0.75663,1.595842 -1.91899,10.064345 -9.5369,30.185595 -24.45284,68.627625 -29.27945,75.460355 -1.3501,1.9113 -1.87311,1.96536 -6.69778,0.69213 z m 81.24628,-5.51487 c -5.06615,-7.0545 -17.34286,-36.507287 -30.37264,-72.866067 l -2.57546,-7.1868 2.50331,-2.503326 c 1.3878,-1.387734 2.67658,-3.36966 2.89215,-4.447398 0.21376,-1.069168 0.6216,-2.087863 0.90598,-2.263672 0.53835,-0.332408 34.74211,16.585386 44.73463,22.126906 9.42215,5.225214 20.87392,12.221138 26.6136,16.258345 6.10383,4.293435 6.15817,4.430259 4.51851,11.384373 -4.12429,17.492022 -22.09763,36.042099 -39.83695,41.115049 -6.24301,1.7853 -7.03788,1.64838 -9.38314,-1.61741 z M 171.3095,57.083007 C 162.42112,44.812996 159.51792,23.8127 164.18094,5.5186598 c 1.89088,-7.418167 6.55511,-17.4051068 8.34773,-17.8739628 2.63317,-0.688358 14.62373,2.080424 30.73377,7.0975298 10.78816,3.359584 37.11167,12.618804 47.12475,16.5758752 l 8.0775,3.19225 -0.0857,4.159153 -0.0857,4.159248 -7.992,4.227518 c -4.39559,2.325257 -16.49872,8.367273 -26.89579,13.426754 -27.00144,13.139545 -42.1253,19.223653 -47.78578,19.223653 -2.12127,0 -2.63769,-0.314517 -4.31058,-2.623671 z M 252.84621,10.918176 C 243.41168,7.2011358 216.60483,-3.8613762 210.45303,-6.5764832 199.46279,-11.426914 183.76277,-19.688061 181.52633,-21.797206 c -2.60734,-2.459068 -2.57359,-3.285757 0.43185,-10.582638 4.71032,-11.436164 14.01895,-22.46148 23.9756,-28.397181 9.23357,-5.504607 23.47957,-9.767155 25.9166,-7.754437 4.17205,3.445559 18.47691,31.035072 29.50918,56.913955 3.97743,9.3299388 7.5111,18.7127988 7.13521,18.9460498 -0.0847,0.0565 -1.49057,0.591367 -3.12459,1.196482 -1.68214,0.623383 -3.54763,1.8811672 -4.3002,2.8991092 -0.73101,0.98875 -1.62537,1.773912 -1.98739,1.74472 -0.36197,-0.02825 -3.16837,-1.041954 -6.23635,-2.250678 z"
       id="path4138"
       inkscape:connector-curvature="0" />
  </g>
</svg>
