<?xml version="1.0" encoding="UTF-8" standalone="no"?>
<!-- Created with Inkscape (http://www.inkscape.org/) -->

<svg
   xmlns:dc="http://purl.org/dc/elements/1.1/"
   xmlns:cc="http://creativecommons.org/ns#"
   xmlns:rdf="http://www.w3.org/1999/02/22-rdf-syntax-ns#"
   xmlns:svg="http://www.w3.org/2000/svg"
   xmlns="http://www.w3.org/2000/svg"
   xmlns:sodipodi="http://sodipodi.sourceforge.net/DTD/sodipodi-0.dtd"
   xmlns:inkscape="http://www.inkscape.org/namespaces/inkscape"
   id="svg2"
   version="1.1"
   inkscape:version="0.91 r13725"
   width="512"
   height="512"
   viewBox="0 0 512 512"
   sodipodi:docname="docky.svg">
  <metadata
     id="metadata8">
    <rdf:RDF>
      <cc:Work
         rdf:about="">
        <dc:format>image/svg+xml</dc:format>
        <dc:type
           rdf:resource="http://purl.org/dc/dcmitype/StillImage" />
        <dc:title></dc:title>
      </cc:Work>
    </rdf:RDF>
  </metadata>
  <defs
     id="defs6">
    <linearGradient
       y2="160"
       x2="160"
       y1="120"
       x1="135"
       gradientTransform="matrix(0.05622958,0,0,0.05622958,0.07160145,-0.0527796)"
       gradientUnits="userSpaceOnUse"
       id="linearGradient3102-2">
      <stop
         style="stop-color:#eff7fc"
         id="stop12" />
      <stop
         offset="1"
         style="stop-color:#fff"
         id="stop14" />
    </linearGradient>
  </defs>
  <sodipodi:namedview
     pagecolor="#ffffff"
     bordercolor="#666666"
     borderopacity="1"
     objecttolerance="10"
     gridtolerance="10"
     guidetolerance="10"
     inkscape:pageopacity="0"
     inkscape:pageshadow="2"
     inkscape:window-width="1366"
     inkscape:window-height="713"
     id="namedview4"
     showgrid="false"
     inkscape:zoom="3.3564444"
     inkscape:cx="-17.134817"
     inkscape:cy="58.939797"
     inkscape:window-x="0"
     inkscape:window-y="26"
     inkscape:window-maximized="1"
     inkscape:current-layer="layer3"
     showguides="true"
     inkscape:guide-bbox="true" />
  <g
     inkscape:groupmode="layer"
     id="layer3"
     inkscape:label="Layer 3"
     transform="translate(0,230.75)"
     style="display:inline">
    <path
       style="display:inline;fill:#78c13b;fill-opacity:1;fill-rule:evenodd;stroke:none;stroke-width:0.9919042px;stroke-linecap:butt;stroke-linejoin:miter;stroke-opacity:1"
       d="m 99.367208,-177.82053 c 92.460142,-30.57262 219.305282,-30.57262 312.736242,0 22.10299,7.23266 42.46686,26.89673 49.37941,48.91534 27.0337,86.111274 27.67678,230.05444 0,309.79656 -7.56841,21.80598 -27.12464,42.15474 -49.37941,48.91515 -93.43096,28.38212 -220.2761,28.79975 -312.736242,0 -22.20579,-6.91663 -42.155178,-26.99494 -49.379409,-48.91515 -26.280504,-79.74212 -27.017744,-223.685286 0,-309.79656 6.908801,-22.01974 27.299341,-41.61422 49.379409,-48.91534 z"
       id="path4152"
       inkscape:connector-curvature="0"
       sodipodi:nodetypes="sssssssss" />
  </g>
  <g
     inkscape:groupmode="layer"
     id="layer2"
     inkscape:label="Layer 2"
     transform="translate(0,230.75)">
    <path
       style="fill:#2f2c2c;fill-opacity:1"
       d="m 198.43849,122.24305 c -19.46993,-13.86388 -37.43845,-41.410733 -40.99982,-62.855307 -1.44325,-8.690548 -2.37827,-9.587956 -10.73183,-10.300892 -5.03295,-0.4294 -9.53407,-1.951604 -10.00249,-3.38256 -1.20546,-3.682388 24.41914,-34.739118 28.66286,-34.739118 4.57681,0 30.41253,32.870663 28.39785,36.13043 -0.8491,1.373892 -5.53137,2.497959 -10.40509,2.497959 -10.97756,0 -11.32536,3.588127 -2.24657,23.177053 8.72637,18.828436 20.43079,34.557285 39.6302,43.252915 23.64821,12.86091 25.86137,13.04914 25.86137,-43.252915 l 0,-48.929375 -9.18258,0 c -11.74184,0 -19.1449,-3.98325 -19.1449,-10.300797 0,-6.3177361 7.40306,-10.300986 19.1449,-10.300986 l 9.18258,0 0,-13.259796 c 0,-11.769797 -1.01277,-14.243367 -9.01328,-22.013341 -7.87122,-7.64445 -9.01329,-10.344302 -9.01329,-21.307656 0,-10.585086 1.24276,-13.796923 7.92376,-20.477859 6.66813,-6.66813 9.90141,-7.923748 20.40372,-7.923748 10.50228,0 13.73558,1.255618 20.40371,7.923748 6.68098,6.680936 7.92376,9.892773 7.92376,20.477859 0,10.963354 -1.14208,13.663206 -9.01329,21.307656 -8.00052,7.769974 -9.01328,10.243544 -9.01328,22.013341 l 0,13.259796 9.18258,0 c 11.74184,0 19.14489,3.9832499 19.14489,10.300986 0,6.317547 -7.40305,10.300797 -19.14489,10.300797 l -9.18258,0 0,48.929375 c 0,55.997145 -1.2847,53.651735 23.17702,42.314445 17.78093,-7.67882 32.47598,-22.215983 41.50706,-41.026905 9.96449,-20.75518 9.74629,-24.464593 -1.43908,-24.464593 -4.87372,0 -9.55602,-1.124067 -10.40511,-2.497959 -2.01466,-3.259767 23.82105,-36.13043 28.39785,-36.13043 4.0573,0 29.49695,30.506703 29.49695,35.372106 0,2.064227 -3.65031,3.256283 -9.97176,3.256283 -9.55487,0 -10.03721,0.408683 -11.53656,9.785517 -2.56229,16.023588 -16.26711,40.216322 -30.12519,53.178931 -20.13815,18.83691 -38.88465,26.68777 -68.30832,27.5526 -23.77253,-0.0377 -40.25358,-4.42659 -59.56115,-17.86756 z m 67.48067,-175.658495 c 0,-8.584139 -0.42921,-9.013351 -9.01328,-9.013351 -7.47069,0 -9.15834,1.023686 -9.86075,5.981561 -1.45829,10.292887 1.34918,13.733925 10.48684,12.853279 7.71459,-0.743917 8.38719,-1.531056 8.38719,-9.821489 z"
       id="path4138"
       inkscape:connector-curvature="0"
       sodipodi:nodetypes="cssssssscccssscssssssssscssscccssssssssccsssss" />
  </g>
</svg>
