<?xml version="1.0" encoding="UTF-8" standalone="no"?>
<!-- Created with Inkscape (http://www.inkscape.org/) -->

<svg
   xmlns:dc="http://purl.org/dc/elements/1.1/"
   xmlns:cc="http://creativecommons.org/ns#"
   xmlns:rdf="http://www.w3.org/1999/02/22-rdf-syntax-ns#"
   xmlns:svg="http://www.w3.org/2000/svg"
   xmlns="http://www.w3.org/2000/svg"
   xmlns:sodipodi="http://sodipodi.sourceforge.net/DTD/sodipodi-0.dtd"
   xmlns:inkscape="http://www.inkscape.org/namespaces/inkscape"
   id="svg2"
   version="1.1"
   inkscape:version="0.91 r13725"
   width="512"
   height="512"
   viewBox="0 0 512 512"
   sodipodi:docname="firefox.svg">
  <metadata
     id="metadata8">
    <rdf:RDF>
      <cc:Work
         rdf:about="">
        <dc:format>image/svg+xml</dc:format>
        <dc:type
           rdf:resource="http://purl.org/dc/dcmitype/StillImage" />
        <dc:title />
      </cc:Work>
    </rdf:RDF>
  </metadata>
  <defs
     id="defs6">
    <linearGradient
       y2="160"
       x2="160"
       y1="120"
       x1="135"
       gradientTransform="matrix(0.05622958,0,0,0.05622958,0.07160145,-0.0527796)"
       gradientUnits="userSpaceOnUse"
       id="linearGradient3102-2">
      <stop
         style="stop-color:#eff7fc"
         id="stop12" />
      <stop
         offset="1"
         style="stop-color:#fff"
         id="stop14" />
    </linearGradient>
  </defs>
  <sodipodi:namedview
     pagecolor="#ffffff"
     bordercolor="#666666"
     borderopacity="1"
     objecttolerance="10"
     gridtolerance="10"
     guidetolerance="10"
     inkscape:pageopacity="0"
     inkscape:pageshadow="2"
     inkscape:window-width="1366"
     inkscape:window-height="713"
     id="namedview4"
     showgrid="false"
     inkscape:zoom="0.59334116"
     inkscape:cx="-37.891322"
     inkscape:cy="342.19468"
     inkscape:window-x="0"
     inkscape:window-y="26"
     inkscape:window-maximized="1"
     inkscape:current-layer="layer3"
     showguides="true"
     inkscape:guide-bbox="true" />
  <g
     inkscape:groupmode="layer"
     id="layer3"
     inkscape:label="Layer 3"
     transform="translate(0,230.75)"
     style="display:inline">
    <path
       style="display:inline;fill:#e6e6e6;fill-opacity:1;fill-rule:evenodd;stroke:none;stroke-width:0.9919042px;stroke-linecap:butt;stroke-linejoin:miter;stroke-opacity:1"
       d="m 99.367206,-177.82054 c 92.460144,-30.57262 219.305284,-30.57262 312.736244,0 22.10299,7.23266 42.46686,26.89673 49.37941,48.91535 27.0337,86.111267 27.67678,230.05443 0,309.79655 -7.56841,21.80598 -27.12464,42.15474 -49.37941,48.91515 -93.43096,28.38212 -220.2761,28.79975 -312.736244,0 -22.205792,-6.91663 -42.155174,-26.99494 -49.379408,-48.91515 -26.2805,-79.74212 -27.017745,-223.685283 0,-309.79655 6.908802,-22.01975 27.29934,-41.61423 49.379408,-48.91535 z"
       id="path4152"
       inkscape:connector-curvature="0"
       sodipodi:nodetypes="sssssssss" />
  </g>
  <g
     inkscape:groupmode="layer"
     id="layer2"
     inkscape:label="Layer 2"
     transform="translate(0,230.75)">
    <path
       style="fill:#fc9045;fill-opacity:1"
       d="m 259.00875,167.89636 c -6.72415,-0.9848 -14.15535,-2.88009 -22.82644,-5.82327 -2.61181,-0.88611 -2.6129,-0.86916 -0.0772,1.19582 3.74764,3.05354 0.42318,2.73121 -10.61725,-1.02924 C 203.13887,154.62658 181.66407,140.92392 163.9971,123.00372 145.90705,104.6544 134.09581,81.790363 128.77992,54.831105 l -2.33793,-11.856995 -1.65167,4.572074 -1.65162,4.572168 -0.065,-7.284828 c -0.081,-8.999131 1.95367,-30.191339 3.24141,-33.775039 0.95188,-2.6490032 0.95188,-2.6490032 -1.17095,0 -1.16754,1.456946 -2.14181,2.268663 -2.16499,1.803762 -0.14144,-2.836676 7.41263,-25.632919 11.23642,-33.909039 6.16886,-13.351703 20.41708,-27.806191 31.46439,-31.919862 9.05681,-3.372296 20.0766,-4.872654 26.68537,-3.632856 4.74738,0.890817 4.7546,0.903059 3.88695,6.460399 l -0.86925,5.56798 5.26932,-6.622459 c 9.64371,-12.120285 21.60219,-19.126285 32.73169,-19.176382 l 6.47269,-0.02825 -6.22766,6.657866 c -9.02619,9.649729 -14.32281,21.770768 -15.05724,34.457842 -0.67395,11.642672 0.51763,16.213899 7.05742,27.0743278 3.55107,5.897188 4.59339,9.076725 4.59339,14.0120942 0,3.511098 -0.59608,6.752221 -1.32451,7.202432 -0.72848,0.450116 -1.32452,0.243891 -1.32452,-0.458592 0,-2.22836 -11.85433,-9.2305932 -17.13837,-10.1232932 -10.93009,-1.846608 -23.40294,5.3634512 -29.60729,17.1147912 -4.59957,8.711923 -4.06465,21.669444 1.34853,32.665097 2.34966,4.772838 5.57047,9.826574 7.15745,11.230599 1.93701,1.713641 1.501,0.621501 -1.32663,-3.323236 C 179.9867,54.922823 177.76309,38.135073 182.96841,28.069033 189.12828,16.157139 203.26828,9.8745268 213.4633,14.519675 l 3.23287,1.473143 -3.01113,4.437039 c -3.94278,5.809989 -6.55424,19.919451 -5.45602,29.477838 1.2031,10.470768 5.99917,19.491558 14.98094,28.177208 9.05007,8.75166 10.92543,9.82337 19.3247,11.04227 3.49344,0.50661 8.55971,1.73313 11.25837,2.72499 l 4.90669,1.8032 -4.30467,0.0951 c -2.36757,0.0565 -4.30467,0.63374 -4.30467,1.29338 0,1.87372 11.78043,5.422487 18.00036,5.422487 5.29295,0 22.98315,-2.929997 28.7598,-4.763417 2.07318,-0.65823 2.46686,-0.37008 1.81478,1.32991 -1.31829,3.435387 2.94155,0.61209 8.61336,-5.70885 4.84656,-5.40112 8.68722,-7.22786 7.2339,-3.44047 -1.31054,3.41514 2.69468,2.21621 7.00898,-2.09804 2.24665,-2.24662 5.53296,-6.56793 7.30287,-9.60274 3.54541,-6.0793 8.68385,-23.24014 8.68385,-29.001445 0,-4.418771 2.29738,-4.829149 3.85697,-0.6893 1.02173,2.712376 1.24642,2.504174 2.50066,-2.317913 2.63821,-10.142503 2.94152,-18.63643 1.19428,-33.443949 -0.96703,-8.1954192 -1.32438,-14.9007452 -0.79411,-14.9007452 0.53035,0 3.39895,2.766052 6.37477,6.146729 2.97584,3.380866 5.4106,5.443398 5.4106,4.583562 0,-7.089902 -3.30376,-28.3193048 -5.17254,-33.2374418 -2.79159,-7.346883 -11.94406,-21.309916 -18.45544,-28.155456 -2.59841,-2.731869 -4.08236,-4.966914 -3.29761,-4.966914 3.18525,0 13.10438,4.229966 17.14357,7.310817 6.52724,4.978591 6.53682,4.022988 0.0433,-4.330725 -7.09007,-9.121171 -19.19311,-20.979297 -27.21523,-26.664703 -7.43829,-5.271544 -4.8691,-5.203838 8.47694,0.224116 14.31104,5.819594 20.12806,10.107379 36.31518,26.76857 7.58913,7.811407 12.54891,12.229142 11.02173,9.817157 -4.04675,-6.391468 -20.1232,-25.044849 -21.58486,-25.044849 -0.68667,0 -1.24855,-1.510998 -1.24855,-3.357889 0,-2.97124 0.3115,-3.191025 2.70649,-1.909417 1.48859,0.797592 5.35098,3.982402 8.58304,7.079261 3.2321,3.096859 6.06121,5.076713 6.28694,4.399467 0.73629,-2.208962 14.27062,13.848244 18.15002,21.533373 6.04269,11.970372 8.37978,21.896104 8.51881,36.1791148 0.10387,10.68415 0.41358,12.538291 1.78151,10.674074 0.91069,-1.240834 1.65564,-3.036122 1.65564,-3.989559 0,-0.954003 0.53487,-1.733609 1.18856,-1.733609 1.79411,0 4.10949,15.4105632 4.10949,27.3516492 0,11.901631 -1.89396,19.410292 -8.61769,34.164419 -4.32795,9.497085 -4.57556,10.764662 -3.7783,19.342586 0.79552,8.55956 0.56076,9.77365 -3.47748,17.97632 -5.2834,10.731987 -19.89129,26.522607 -30.71862,33.205617 -4.25695,2.62743 -8.93888,6.71728 -10.40434,9.08849 -4.27543,6.91777 -12.26452,13.29417 -20.6454,16.47766 -12.11231,4.6008 -36.89817,9.25225 -49.3856,9.26798 -11.04826,0.009 -11.11436,0.0283 -8.73516,2.66284 2.80998,3.10496 2.73365,3.114 -10.28635,1.20797 z M 226.34742,73.242003 c -6.83437,-6.174411 -10.49396,-13.074662 -12.06999,-22.758196 -1.70467,-10.47397 -0.55322,-11.68081 6.5764,-6.892435 6.34367,4.260477 16.86652,7.864329 22.96282,7.864329 2.11324,0 7.91627,-1.788131 12.89562,-3.973457 10.66525,-4.681024 19.20121,-5.120124 27.37679,-1.40798 6.00276,2.725278 8.78639,6.515392 8.13712,11.078991 -0.34606,2.431854 -1.30566,2.931785 -5.82251,3.033202 -4.14228,0.09511 -7.08757,1.375587 -12.58288,5.480029 -12.0721,9.016557 -17.75169,11.248677 -30.46636,11.973667 l -11.41821,0.65069 -5.5888,-5.04912 z m 3.17848,-79.8783762 c -5.25067,-7.9343888 -7.64779,-20.6499958 -5.12982,-27.2116228 0.70917,-1.847927 1.10536,-1.85998 3.60603,-0.108292 1.94574,1.362874 6.28117,1.973262 14.10408,1.985881 18.06214,0.02825 20.51538,1.71581 16.62526,11.432115 -1.61891,4.043423 -3.60762,5.924119 -9.55492,9.035763 -4.13077,2.1613128 -9.49173,5.2739918 -11.91326,6.9172938 l -4.40276,2.987814 -3.33461,-5.038858 z M 140.53653,-47.882878 c 0.43043,-4.006509 1.69228,-10.26492 2.80436,-13.907286 1.97521,-6.469627 8.47572,-17.880932 10.18601,-17.880932 0.47253,0 1.22418,2.281847 1.67014,5.070781 0.44597,2.788934 2.60455,7.546893 4.79689,10.573316 l 3.98609,5.502629 -5.47806,2.794678 c -3.01286,1.537082 -8.4637,5.570429 -12.11289,8.96316 l -6.63496,6.168575 0.78234,-7.284921 z m 24.66191,-16.703754 c -1.5396,-1.855177 -0.99788,-2.811251 4.1425,-7.30997 42.96105,-37.599618 101.04638,-45.898998 151.61019,-21.662476 14.83827,7.112314 16.17991,8.91231 3.97355,5.330775 -27.0592,-7.939474 -34.93865,-10.083649 -41.57182,-11.3129 -10.8025,-2.001797 -36.00373,-1.599897 -47.41016,0.756158 -22.63308,4.674904 -45.16382,15.7522 -60.44372,29.71721 -3.98102,3.638412 -7.52872,6.615396 -7.88378,6.615396 -0.35482,0 -1.44255,-0.960311 -2.41676,-2.134287 z"
       id="path4228"
       inkscape:connector-curvature="0" />
  </g>
</svg>
