<?xml version="1.0" encoding="UTF-8" standalone="no"?>
<!-- Created with Inkscape (http://www.inkscape.org/) -->

<svg
   xmlns:dc="http://purl.org/dc/elements/1.1/"
   xmlns:cc="http://creativecommons.org/ns#"
   xmlns:rdf="http://www.w3.org/1999/02/22-rdf-syntax-ns#"
   xmlns:svg="http://www.w3.org/2000/svg"
   xmlns="http://www.w3.org/2000/svg"
   xmlns:xlink="http://www.w3.org/1999/xlink"
   xmlns:sodipodi="http://sodipodi.sourceforge.net/DTD/sodipodi-0.dtd"
   xmlns:inkscape="http://www.inkscape.org/namespaces/inkscape"
   id="svg2"
   version="1.1"
   inkscape:version="0.91 r13725"
   width="512"
   height="512"
   viewBox="0 0 512 512"
   sodipodi:docname="hexchat.svg">
  <metadata
     id="metadata8">
    <rdf:RDF>
      <cc:Work
         rdf:about="">
        <dc:format>image/svg+xml</dc:format>
        <dc:type
           rdf:resource="http://purl.org/dc/dcmitype/StillImage" />
        <dc:title></dc:title>
      </cc:Work>
    </rdf:RDF>
  </metadata>
  <defs
     id="defs6">
    <linearGradient
       y2="160"
       x2="160"
       y1="120"
       x1="135"
       gradientTransform="matrix(0.05622958,0,0,0.05622958,0.07160145,-0.0527796)"
       gradientUnits="userSpaceOnUse"
       id="linearGradient3102-2">
      <stop
         style="stop-color:#eff7fc"
         id="stop12" />
      <stop
         offset="1"
         style="stop-color:#fff"
         id="stop14" />
    </linearGradient>
    <linearGradient
       id="linearGradient4910"
       x1="1"
       x2="47"
       gradientUnits="userSpaceOnUse"
       gradientTransform="matrix(0,0.54990985,-0.54990985,0,37.847987,244.26246)">
      <stop
         style="stop-color:#8a8a8a;stop-opacity:1"
         id="stop24" />
      <stop
         offset="1"
         style="stop-color:#808080;stop-opacity:1"
         id="stop26" />
    </linearGradient>
    <linearGradient
       gradientTransform="matrix(0.54990985,0,0,0.54990985,11.452315,244.26246)"
       xlink:href="#linearGradient4389"
       id="linearGradient4363"
       y1="47"
       x2="0"
       y2="1"
       gradientUnits="userSpaceOnUse" />
    <linearGradient
       id="linearGradient4389">
      <stop
         style="stop-color:#666;stop-opacity:1"
         id="stop12-7" />
      <stop
         offset="1"
         style="stop-color:#707070;stop-opacity:1"
         id="stop14-5" />
    </linearGradient>
    <linearGradient
       gradientTransform="matrix(0.54990985,0,0,0.54990985,11.452315,244.26246)"
       xlink:href="#linearGradient4397"
       id="linearGradient4403"
       y1="47"
       x2="0"
       y2="1"
       gradientUnits="userSpaceOnUse" />
    <linearGradient
       id="linearGradient4397">
      <stop
         style="stop-color:#5c5c5c;stop-opacity:1"
         id="stop7" />
      <stop
         offset="1"
         style="stop-color:#666;stop-opacity:1"
         id="stop9" />
    </linearGradient>
    <linearGradient
       gradientTransform="matrix(0.54990985,0,0,0.54990985,11.452315,244.26246)"
       xlink:href="#linearGradient4389"
       id="linearGradient4395"
       y1="47"
       x2="0"
       y2="1"
       gradientUnits="userSpaceOnUse" />
    <linearGradient
       gradientTransform="matrix(0.54990985,0,0,0.54990985,11.452315,244.26246)"
       xlink:href="#linearGradient4397"
       id="linearGradient4387"
       y1="47"
       x2="0"
       y2="1"
       gradientUnits="userSpaceOnUse" />
    <linearGradient
       gradientTransform="matrix(0.54990985,0,0,0.54990985,11.452315,244.26246)"
       xlink:href="#linearGradient4389"
       id="linearGradient4379"
       y1="47"
       x2="0"
       y2="1"
       gradientUnits="userSpaceOnUse" />
    <radialGradient
       xlink:href="#radial0"
       id="radialGradient3427"
       gradientUnits="userSpaceOnUse"
       gradientTransform="matrix(1.2459588,0,0,1.2459588,16.210857,249.02114)"
       cx="6.7729998"
       cy="5.927"
       r="0.56400001" />
    <radialGradient
       id="radial0"
       gradientUnits="userSpaceOnUse"
       cx="6.7729998"
       cy="5.927"
       r="0.56400001"
       gradientTransform="matrix(3.543307,0,0,3.543307,1.47638e-7,3.77575e-4)">
      <stop
         style="stop-color:#8eb0c7;stop-opacity:1"
         id="stop17" />
      <stop
         offset="1"
         style="stop-color:#8eb0c7;stop-opacity:0"
         id="stop19" />
    </radialGradient>
    <radialGradient
       id="radial1"
       gradientUnits="userSpaceOnUse"
       cx="6"
       cy="17.292"
       r="1"
       gradientTransform="matrix(0.35163727,0,0,0.35163727,22.540326,252.08305)"
       xlink:href="#radial0" />
    <radialGradient
       id="radialGradient4251"
       gradientUnits="userSpaceOnUse"
       cx="6.7729998"
       cy="5.927"
       r="0.56400001"
       gradientTransform="matrix(3.543307,0,0,3.543307,1.47638e-7,3.77575e-4)">
      <stop
         style="stop-color:#8eb0c7;stop-opacity:1"
         id="stop4253" />
      <stop
         offset="1"
         style="stop-color:#8eb0c7;stop-opacity:0"
         id="stop4255" />
    </radialGradient>
    <linearGradient
       gradientTransform="matrix(0.54990985,0,0,0.54990985,11.452315,244.26246)"
       xlink:href="#linearGradient4397"
       id="linearGradient4355"
       y1="47"
       x2="0"
       y2="1"
       gradientUnits="userSpaceOnUse" />
  </defs>
  <sodipodi:namedview
     pagecolor="#ffffff"
     bordercolor="#666666"
     borderopacity="1"
     objecttolerance="10"
     gridtolerance="10"
     guidetolerance="10"
     inkscape:pageopacity="0"
     inkscape:pageshadow="2"
     inkscape:window-width="1366"
     inkscape:window-height="713"
     id="namedview4"
     showgrid="false"
     inkscape:zoom="0.59334117"
     inkscape:cx="-3.4901912"
     inkscape:cy="257.39656"
     inkscape:window-x="0"
     inkscape:window-y="26"
     inkscape:window-maximized="1"
     inkscape:current-layer="layer3"
     showguides="true"
     inkscape:guide-bbox="true" />
  <g
     inkscape:groupmode="layer"
     id="layer3"
     inkscape:label="Layer 3"
     transform="translate(0,230.75)"
     style="display:inline">
    <path
       style="display:inline;fill:#ff7a00;fill-opacity:1;fill-rule:evenodd;stroke:none;stroke-width:0.9919042px;stroke-linecap:butt;stroke-linejoin:miter;stroke-opacity:1"
       d="m 100.90188,-187.31324 c 94.50572,-31.24901 224.15717,-31.24901 319.65518,0 22.592,7.39267 43.4064,27.49179 50.47188,49.99754 27.63179,88.016387 28.2891,235.144132 0,316.65046 -7.73585,22.28842 -27.72474,43.08737 -50.47188,49.99735 -95.49801,29.01004 -225.14946,29.4369 -319.65518,0 -22.697068,-7.06966 -43.087814,-27.59218 -50.471873,-49.99735 -26.861931,-81.506328 -27.615482,-228.634073 0,-316.65046 7.061651,-22.50691 27.903308,-42.53489 50.471873,-49.99754 z"
       id="path4152"
       inkscape:connector-curvature="0"
       sodipodi:nodetypes="sssssssss" />
  </g>
  <g
     inkscape:groupmode="layer"
     id="layer2"
     inkscape:label="Layer 2"
     transform="translate(0,230.75)"
     style="display:inline">
    <g
       transform="matrix(9.1438798,0,0,9.1438798,50.017502,-191.16643)"
       id="g35">
      <g
         id="g37">
        <!-- color: #edb020 -->
        <g
           id="g39">
          <path
             inkscape:connector-curvature="0"
             d="m 23.398,13.01 c -2.883,0.02 -5.66,0.203 -6.203,0.504 -1.086,0.602 -6.207,9.352 -6.195,10.555 0.012,1.195 5.32,9.688 6.418,10.277 1.098,0.586 11.531,0.488 12.617,-0.121 1.086,-0.605 6.313,-9.199 6.301,-10.398 -0.012,-1.188 -5.453,-9.938 -6.551,-10.52 -0.551,-0.293 -3.508,-0.328 -6.387,-0.301 m 0.078,2.508 c 2.25,-0.023 4.441,0.137 4.871,0.371 0.859,0.473 4.906,7.05 4.918,8.01 0.008,0.961 -4,7.758 -4.852,8.246 -0.848,0.488 -8.73,0.324 -9.59,-0.148 -0.859,-0.473 -5.05,-6.957 -5.05,-7.918 -0.012,-0.961 4.391,-7.656 5.242,-8.145 0.422,-0.246 2.211,-0.391 4.465,-0.414 m 0,0"
             style="fill:#ffffff;fill-opacity:1;fill-rule:nonzero;stroke:none"
             id="path41" />
          <path
             inkscape:connector-curvature="0"
             d="m 26.977,32.512 c -1.034,-2.086 -2.177,-4.118 -3.406,-5.871 -1.343,1.861 -2.443,3.79 -3.499,5.871 l -4.242,0 c 1.682,-3.159 3.676,-6.119 5.551,-8.821 l -5.313,-8.203 4.504,0 3.215,5.305 3.148,-5.305 4.234,0 -5.234,8.254 c 1.332,1.785 2.453,3.438 3.352,4.961 0.906,1.508 1.621,2.777 2.148,3.809 l -4.453,0"
             style="fill:#ffffff;fill-opacity:1;fill-rule:nonzero;stroke:none"
             id="path43" />
        </g>
      </g>
    </g>
  </g>
</svg>
