<?xml version="1.0" encoding="UTF-8" standalone="no"?>
<!-- Created with Inkscape (http://www.inkscape.org/) -->

<svg
   xmlns:dc="http://purl.org/dc/elements/1.1/"
   xmlns:cc="http://creativecommons.org/ns#"
   xmlns:rdf="http://www.w3.org/1999/02/22-rdf-syntax-ns#"
   xmlns:svg="http://www.w3.org/2000/svg"
   xmlns="http://www.w3.org/2000/svg"
   xmlns:xlink="http://www.w3.org/1999/xlink"
   xmlns:sodipodi="http://sodipodi.sourceforge.net/DTD/sodipodi-0.dtd"
   xmlns:inkscape="http://www.inkscape.org/namespaces/inkscape"
   id="svg2"
   version="1.1"
   inkscape:version="0.91 r13725"
   width="512"
   height="512"
   viewBox="0 0 512 512"
   sodipodi:docname="konquer.svg">
  <metadata
     id="metadata8">
    <rdf:RDF>
      <cc:Work
         rdf:about="">
        <dc:format>image/svg+xml</dc:format>
        <dc:type
           rdf:resource="http://purl.org/dc/dcmitype/StillImage" />
        <dc:title></dc:title>
      </cc:Work>
    </rdf:RDF>
  </metadata>
  <defs
     id="defs6">
    <linearGradient
       y2="160"
       x2="160"
       y1="120"
       x1="135"
       gradientTransform="matrix(0.05622958,0,0,0.05622958,0.07160145,-0.0527796)"
       gradientUnits="userSpaceOnUse"
       id="linearGradient3102-2">
      <stop
         style="stop-color:#eff7fc"
         id="stop12" />
      <stop
         offset="1"
         style="stop-color:#fff"
         id="stop14" />
    </linearGradient>
    <linearGradient
       id="linearGradient4910"
       x1="1"
       x2="47"
       gradientUnits="userSpaceOnUse"
       gradientTransform="matrix(0,0.54990985,-0.54990985,0,37.847987,244.26246)">
      <stop
         style="stop-color:#8a8a8a;stop-opacity:1"
         id="stop24" />
      <stop
         offset="1"
         style="stop-color:#808080;stop-opacity:1"
         id="stop26" />
    </linearGradient>
    <linearGradient
       gradientTransform="matrix(0.54990985,0,0,0.54990985,11.452315,244.26246)"
       xlink:href="#linearGradient4389"
       id="linearGradient4363"
       y1="47"
       x2="0"
       y2="1"
       gradientUnits="userSpaceOnUse" />
    <linearGradient
       id="linearGradient4389">
      <stop
         style="stop-color:#666;stop-opacity:1"
         id="stop12-7" />
      <stop
         offset="1"
         style="stop-color:#707070;stop-opacity:1"
         id="stop14-5" />
    </linearGradient>
    <linearGradient
       gradientTransform="matrix(0.54990985,0,0,0.54990985,11.452315,244.26246)"
       xlink:href="#linearGradient4397"
       id="linearGradient4403"
       y1="47"
       x2="0"
       y2="1"
       gradientUnits="userSpaceOnUse" />
    <linearGradient
       id="linearGradient4397">
      <stop
         style="stop-color:#5c5c5c;stop-opacity:1"
         id="stop7" />
      <stop
         offset="1"
         style="stop-color:#666;stop-opacity:1"
         id="stop9" />
    </linearGradient>
    <linearGradient
       gradientTransform="matrix(0.54990985,0,0,0.54990985,11.452315,244.26246)"
       xlink:href="#linearGradient4389"
       id="linearGradient4395"
       y1="47"
       x2="0"
       y2="1"
       gradientUnits="userSpaceOnUse" />
    <linearGradient
       gradientTransform="matrix(0.54990985,0,0,0.54990985,11.452315,244.26246)"
       xlink:href="#linearGradient4397"
       id="linearGradient4387"
       y1="47"
       x2="0"
       y2="1"
       gradientUnits="userSpaceOnUse" />
    <linearGradient
       gradientTransform="matrix(0.54990985,0,0,0.54990985,11.452315,244.26246)"
       xlink:href="#linearGradient4389"
       id="linearGradient4379"
       y1="47"
       x2="0"
       y2="1"
       gradientUnits="userSpaceOnUse" />
    <radialGradient
       xlink:href="#radial0"
       id="radialGradient3427"
       gradientUnits="userSpaceOnUse"
       gradientTransform="matrix(1.2459588,0,0,1.2459588,16.210857,249.02114)"
       cx="6.7729998"
       cy="5.927"
       r="0.56400001" />
    <radialGradient
       id="radial0"
       gradientUnits="userSpaceOnUse"
       cx="6.7729998"
       cy="5.927"
       r="0.56400001"
       gradientTransform="matrix(3.543307,0,0,3.543307,1.47638e-7,3.77575e-4)">
      <stop
         style="stop-color:#8eb0c7;stop-opacity:1"
         id="stop17" />
      <stop
         offset="1"
         style="stop-color:#8eb0c7;stop-opacity:0"
         id="stop19" />
    </radialGradient>
    <radialGradient
       id="radial1"
       gradientUnits="userSpaceOnUse"
       cx="6"
       cy="17.292"
       r="1"
       gradientTransform="matrix(0.35163727,0,0,0.35163727,22.540326,252.08305)"
       xlink:href="#radial0" />
    <radialGradient
       id="radialGradient4251"
       gradientUnits="userSpaceOnUse"
       cx="6.7729998"
       cy="5.927"
       r="0.56400001"
       gradientTransform="matrix(3.543307,0,0,3.543307,1.47638e-7,3.77575e-4)">
      <stop
         style="stop-color:#8eb0c7;stop-opacity:1"
         id="stop4253" />
      <stop
         offset="1"
         style="stop-color:#8eb0c7;stop-opacity:0"
         id="stop4255" />
    </radialGradient>
    <linearGradient
       gradientTransform="matrix(0.54990985,0,0,0.54990985,11.452315,244.26246)"
       xlink:href="#linearGradient4397"
       id="linearGradient4355"
       y1="47"
       x2="0"
       y2="1"
       gradientUnits="userSpaceOnUse" />
    <radialGradient
       cx="23"
       cy="33.9375"
       r="18.25"
       fx="23"
       fy="33.9375"
       id="radialGradient6498"
       xlink:href="#linearGradient6492"
       gradientUnits="userSpaceOnUse"
       gradientTransform="matrix(1,0,0,0.43493202,0.125,17.177001)" />
    <linearGradient
       id="linearGradient6492">
      <stop
         style="stop-color:black;stop-opacity:1"
         offset="0"
         id="stop6494" />
      <stop
         style="stop-color:black;stop-opacity:0"
         offset="1"
         id="stop6496" />
    </linearGradient>
    <radialGradient
       cx="18.557627"
       cy="22.300018"
       r="19.2292"
       fx="18.557627"
       fy="22.300018"
       id="radialGradient4354"
       xlink:href="#linearGradient6500"
       gradientUnits="userSpaceOnUse"
       gradientTransform="matrix(1.77275,0,0,1.29668,-16.3404,-6.615959)" />
    <linearGradient
       id="linearGradient6500">
      <stop
         style="stop-color:#857c63;stop-opacity:1"
         offset="0"
         id="stop6502" />
      <stop
         style="stop-color:#221f19;stop-opacity:1"
         offset="1"
         id="stop6504" />
    </linearGradient>
    <linearGradient
       x1="32.350136"
       y1="28.083355"
       x2="21.213203"
       y2="30.293064"
       id="linearGradient4351"
       xlink:href="#linearGradient6492"
       gradientUnits="userSpaceOnUse"
       gradientTransform="translate(-3.836549,0.345971)" />
    <linearGradient
       x1="14.96875"
       y1="19.110678"
       x2="39.524544"
       y2="46.98568"
       id="linearGradient8530"
       xlink:href="#linearGradient8524"
       gradientUnits="userSpaceOnUse" />
    <linearGradient
       id="linearGradient8524">
      <stop
         style="stop-color:white;stop-opacity:1"
         offset="0"
         id="stop8526" />
      <stop
         style="stop-color:white;stop-opacity:0"
         offset="1"
         id="stop8528" />
    </linearGradient>
    <radialGradient
       cx="69.473244"
       cy="19.597878"
       r="3.5153139"
       fx="69.473244"
       fy="19.597878"
       id="radialGradient4363"
       xlink:href="#linearGradient6468"
       gradientUnits="userSpaceOnUse"
       gradientTransform="matrix(1.684735,0,0,1.684735,-103.39924,-14.483279)" />
    <linearGradient
       id="linearGradient6468">
      <stop
         style="stop-color:white;stop-opacity:1"
         offset="0"
         id="stop6470" />
      <stop
         style="stop-color:#b9b9b0;stop-opacity:1"
         offset="1"
         id="stop6472" />
    </linearGradient>
    <radialGradient
       cx="6.0242186"
       cy="25.271027"
       r="4.8310289"
       fx="6.0242186"
       fy="25.271027"
       id="radialGradient8548"
       xlink:href="#linearGradient8542"
       gradientUnits="userSpaceOnUse"
       gradientTransform="matrix(0.79751102,-0.46044319,0.53741287,0.93082752,-13.91157,2.5868096)" />
    <linearGradient
       id="linearGradient8542">
      <stop
         style="stop-color:#5b676b;stop-opacity:1"
         offset="0"
         id="stop8544" />
      <stop
         style="stop-color:#141718;stop-opacity:1"
         offset="1"
         id="stop8546" />
    </linearGradient>
    <linearGradient
       x1="6.3051529"
       y1="23.362427"
       x2="5.9846287"
       y2="31.57"
       id="linearGradient6458"
       xlink:href="#linearGradient8524"
       gradientUnits="userSpaceOnUse"
       gradientTransform="matrix(0.800389,-0.599481,0.599481,0.800389,-15.2744,7.32784)" />
    <radialGradient
       cx="69.473244"
       cy="19.597878"
       r="3.5153139"
       fx="69.473244"
       fy="19.597878"
       id="radialGradient6474"
       xlink:href="#linearGradient6468"
       gradientUnits="userSpaceOnUse"
       gradientTransform="matrix(1.977732,0,0,1.977732,-115.35781,-20.281056)" />
    <linearGradient
       x1="37.017639"
       y1="19.239889"
       x2="27.753893"
       y2="11.182488"
       id="linearGradient6957"
       xlink:href="#linearGradient6951"
       gradientUnits="userSpaceOnUse"
       gradientTransform="translate(-49.30496,1.877723)" />
    <linearGradient
       id="linearGradient6951">
      <stop
         style="stop-color:#6e3d09;stop-opacity:1"
         offset="0"
         id="stop6953" />
      <stop
         style="stop-color:#ea8113;stop-opacity:1"
         offset="0.24242425"
         id="stop6959" />
      <stop
         style="stop-color:#5c3307;stop-opacity:1"
         offset="0.62121212"
         id="stop6961" />
      <stop
         style="stop-color:#e07c12;stop-opacity:1"
         offset="1"
         id="stop6955" />
    </linearGradient>
    <linearGradient
       x1="19.394735"
       y1="30.001331"
       x2="23.109331"
       y2="33.438831"
       id="linearGradient6945"
       xlink:href="#linearGradient6939"
       gradientUnits="userSpaceOnUse"
       gradientTransform="translate(-46.40695,-1.802856)" />
    <linearGradient
       id="linearGradient6939">
      <stop
         style="stop-color:#bdbdbd;stop-opacity:1"
         offset="0"
         id="stop6941" />
      <stop
         style="stop-color:#e2e2e2;stop-opacity:1"
         offset="0.33333334"
         id="stop6947" />
      <stop
         style="stop-color:#a3a3a3;stop-opacity:1"
         offset="0.66666669"
         id="stop6949" />
      <stop
         style="stop-color:#ddd;stop-opacity:1"
         offset="1"
         id="stop6943" />
    </linearGradient>
    <radialGradient
       cx="15.415101"
       cy="35.356506"
       r="7.5791559"
       fx="15.415101"
       fy="35.356506"
       id="radialGradient6969"
       xlink:href="#linearGradient6963"
       gradientUnits="userSpaceOnUse"
       gradientTransform="matrix(1.572694,0,0,1.532639,-55.36682,-21.35823)" />
    <linearGradient
       id="linearGradient6963">
      <stop
         style="stop-color:#696969;stop-opacity:1"
         offset="0"
         id="stop6965" />
      <stop
         style="stop-color:black;stop-opacity:1"
         offset="1"
         id="stop6967" />
    </linearGradient>
    <linearGradient
       x1="13.236155"
       y1="37.752247"
       x2="7.7521091"
       y2="42.282146"
       id="linearGradient2452"
       xlink:href="#linearGradient8524"
       gradientUnits="userSpaceOnUse"
       gradientTransform="matrix(0.755165,0.395143,-0.395143,0.755165,-25.91245,6.532586)" />
    <linearGradient
       x1="26.162951"
       y1="30.543303"
       x2="24.328892"
       y2="30.985245"
       id="linearGradient4330"
       xlink:href="#linearGradient6492"
       gradientUnits="userSpaceOnUse" />
    <linearGradient
       gradientTransform="matrix(0.32194935,0,0,0.32254306,154.15192,-65.549482)"
       gradientUnits="userSpaceOnUse"
       xlink:href="#linearGradient619"
       id="linearGradient664"
       x1="34.350778"
       y1="-72.169076"
       x2="332.64537"
       y2="598.45589" />
    <linearGradient
       id="linearGradient619">
      <stop
         style="stop-color:#66b8ff;stop-opacity:1;"
         offset="0.00000000"
         id="stop620" />
      <stop
         style="stop-color:#00507a;stop-opacity:1;"
         offset="1.00000000"
         id="stop621" />
    </linearGradient>
    <linearGradient
       xlink:href="#linearGradient619"
       id="linearGradient4187"
       x1="0.085271321"
       y1="0.054687489"
       x2="0.48837212"
       y2="0.96093744" />
    <linearGradient
       gradientUnits="userSpaceOnUse"
       gradientTransform="matrix(0.27716606,0,0,0.53169282,126.43446,-128.97604)"
       xlink:href="#linearGradient624"
       id="linearGradient623"
       x1="273.65717"
       y1="74.221018"
       x2="411.61445"
       y2="425.86215" />
    <linearGradient
       id="linearGradient624">
      <stop
         style="stop-color:#b9e5ff;stop-opacity:0.419643;"
         offset="0.00000000"
         id="stop625" />
      <stop
         style="stop-color:#ffffff;stop-opacity:1;"
         offset="1.00000000"
         id="stop626" />
    </linearGradient>
    <linearGradient
       gradientUnits="userSpaceOnUse"
       gradientTransform="matrix(0.31073651,0,0,0.47425136,126.43446,-128.97604)"
       xlink:href="#linearGradient578"
       id="linearGradient581"
       x1="596.05675"
       y1="231.00583"
       x2="656.45555"
       y2="279.76099" />
    <linearGradient
       id="linearGradient578">
      <stop
         style="stop-color:#fff2bc;stop-opacity:1;"
         offset="0.00000000"
         id="stop579" />
      <stop
         style="stop-color:#83560b;stop-opacity:1;"
         offset="1.00000000"
         id="stop580" />
    </linearGradient>
    <linearGradient
       gradientUnits="userSpaceOnUse"
       gradientTransform="matrix(0.28707403,0,0,0.51334219,126.43446,-128.97605)"
       xlink:href="#linearGradient593"
       id="linearGradient590"
       x1="779.71681"
       y1="160.6253"
       x2="908.4478"
       y2="264.66051" />
    <linearGradient
       id="linearGradient593">
      <stop
         style="stop-color:#fff9db;stop-opacity:0.732143;"
         offset="0.00000000"
         id="stop594" />
      <stop
         style="stop-color:#2c2c2c;stop-opacity:1;"
         offset="1.00000000"
         id="stop595" />
    </linearGradient>
    <linearGradient
       id="linearGradient3902"
       x1="48.32"
       y1="48"
       x2="20"
       y2="18"
       gradientUnits="userSpaceOnUse"
       gradientTransform="matrix(7.0453524,0,0,7.0453524,96.357471,-151.59902)">
      <stop
         style="stop-color:#dbe34a;stop-opacity:1"
         id="stop12-75" />
      <stop
         offset="1"
         style="stop-color:#8edbce;stop-opacity:0"
         id="stop14-3" />
    </linearGradient>
    <linearGradient
       id="linearGradient3109"
       gradientUnits="userSpaceOnUse"
       gradientTransform="matrix(5.4298461,0,0,5.2336753,462.66471,-85.55292)"
       x1="-22.764"
       y1="59.630001"
       x2="-40.638"
       y2="18.26">
      <stop
         style="stop-color:#868ecf;stop-opacity:1"
         id="stop7-5" />
      <stop
         offset="1"
         style="stop-color:#2f5fcd;stop-opacity:0"
         id="stop9-6" />
    </linearGradient>
    <linearGradient
       id="linearGradient3919"
       x1="0"
       x2="48"
       gradientUnits="userSpaceOnUse"
       gradientTransform="matrix(0,5.6700924,-5.6700924,0,398.01285,-111.28147)">
      <stop
         style="stop-color:#c862c0;stop-opacity:1"
         id="stop17-8" />
      <stop
         offset="1"
         style="stop-color:#8edbce;stop-opacity:1"
         id="stop19-7" />
    </linearGradient>
    <linearGradient
       id="linearGradient3109-9"
       gradientUnits="userSpaceOnUse"
       gradientTransform="matrix(4.3699345,0,0,4.2120565,421.24373,-59.344185)"
       x1="-22.764"
       y1="59.630001"
       x2="-40.638"
       y2="18.26">
      <stop
         style="stop-color:#868ecf;stop-opacity:1"
         id="stop7-2" />
      <stop
         offset="1"
         style="stop-color:#2f5fcd;stop-opacity:0"
         id="stop9-0" />
    </linearGradient>
    <linearGradient
       id="linearGradient3902-2"
       x1="48.32"
       y1="48"
       x2="20"
       y2="18"
       gradientUnits="userSpaceOnUse"
       gradientTransform="matrix(5.6700924,0,0,5.6700924,126.44009,-112.49802)">
      <stop
         style="stop-color:#dbe34a;stop-opacity:1"
         id="stop12-3" />
      <stop
         offset="1"
         style="stop-color:#8edbce;stop-opacity:0"
         id="stop14-7" />
    </linearGradient>
    <linearGradient
       id="linearGradient4622-0">
      <stop
         style="stop-color:#c934a4;stop-opacity:1;"
         offset="0"
         id="stop4624-4" />
      <stop
         id="stop4996-2"
         offset="0.54491889"
         style="stop-color:#c934a4;stop-opacity:0.49803922;" />
      <stop
         style="stop-color:#c934a4;stop-opacity:0;"
         offset="1"
         id="stop4626-7" />
    </linearGradient>
    <filter
       style="color-interpolation-filters:sRGB"
       id="filter5042"
       inkscape:label="Noisy blur"
       inkscape:menu="Blurs"
       inkscape:menu-tooltip="Small-scale roughening and blurring to edges and content"
       x="-0.25"
       width="1.5"
       y="-0.25"
       height="1.5">
      <feGaussianBlur
         id="feGaussianBlur5044"
         stdDeviation="5"
         result="result1" />
      <feTurbulence
         id="feTurbulence5046"
         numOctaves="1"
         seed="0"
         type="fractalNoise"
         baseFrequency="0.1"
         result="result2" />
      <feDisplacementMap
         id="feDisplacementMap5048"
         in2="result2"
         scale="5"
         yChannelSelector="G"
         xChannelSelector="R"
         result="result3"
         in="result1" />
      <feComposite
         id="feComposite5050"
         in2="result3"
         operator="atop" />
    </filter>
    <linearGradient
       id="linearGradient3942-4-5">
      <stop
         style="stop-color:#ffffff;stop-opacity:1;"
         offset="0"
         id="stop3944-0-1" />
      <stop
         style="stop-color:#4b0909;stop-opacity:0;"
         offset="1"
         id="stop3946-5-4" />
    </linearGradient>
    <linearGradient
       id="linearGradient4037-89-0">
      <stop
         style="stop-color:#d4d4d4;stop-opacity:1;"
         offset="0"
         id="stop4039-39-1" />
      <stop
         style="stop-color:#7e7e7e;stop-opacity:0;"
         offset="1"
         id="stop4041-8-8" />
    </linearGradient>
    <linearGradient
       id="linearGradient4079-3-0">
      <stop
         id="stop4081-10-9"
         offset="0"
         style="stop-color:#383838;stop-opacity:1;" />
      <stop
         id="stop4083-59-0"
         offset="1"
         style="stop-color:#7e7e7e;stop-opacity:0;" />
    </linearGradient>
    <mask
       maskUnits="userSpaceOnUse"
       id="mask4175-30-9">
      <g
         id="g4177-9-3">
        <path
           sodipodi:nodetypes="zccz"
           inkscape:connector-curvature="0"
           id="path4179-89-4"
           d="m 243,40 c -2,0 0,119 0,119 l 1,0 c 0,0 1,-119 -1,-119 z"
           style="fill:url(#linearGradient4183-5-9);fill-opacity:1;stroke:none;filter:url(#filter4109-04-1)" />
        <path
           sodipodi:nodetypes="zccz"
           inkscape:connector-curvature="0"
           id="path4181-1-2"
           d="M 237,39.999997 C 235,39.999997 237,159 237,159 l 1,0 c 0,0 1,-119.000003 -1,-119.000003 z"
           style="opacity:0.23000004;fill:url(#linearGradient4185-68-7);fill-opacity:1;stroke:none;filter:url(#filter4109-8-1-9)" />
      </g>
    </mask>
    <linearGradient
       inkscape:collect="always"
       xlink:href="#linearGradient3942-4-5"
       id="linearGradient4183-5-9"
       gradientUnits="userSpaceOnUse"
       x1="243"
       y1="152"
       x2="246"
       y2="152" />
    <filter
       style="color-interpolation-filters:sRGB"
       inkscape:collect="always"
       id="filter4109-04-1"
       x="-0.67963636"
       width="2.3592727"
       y="-0.012215686"
       height="1.0244313">
      <feGaussianBlur
         inkscape:collect="always"
         stdDeviation="0.60569444"
         id="feGaussianBlur4111-10-8" />
    </filter>
    <linearGradient
       inkscape:collect="always"
       xlink:href="#linearGradient3942-4-5"
       id="linearGradient4185-68-7"
       gradientUnits="userSpaceOnUse"
       gradientTransform="translate(-6,-3.0083557e-6)"
       x1="243"
       y1="152"
       x2="246"
       y2="152" />
    <filter
       style="color-interpolation-filters:sRGB"
       inkscape:collect="always"
       id="filter4109-8-1-9"
       x="-0.67963636"
       width="2.3592727"
       y="-0.012215686"
       height="1.0244313">
      <feGaussianBlur
         inkscape:collect="always"
         stdDeviation="0.60569444"
         id="feGaussianBlur4111-0-3-9" />
    </filter>
    <linearGradient
       id="linearGradient4663-8-4">
      <stop
         style="stop-color:#c934a4;stop-opacity:1;"
         offset="0"
         id="stop4665-6-3" />
      <stop
         style="stop-color:#d61ad2;stop-opacity:0;"
         offset="1"
         id="stop4667-8-0" />
    </linearGradient>
    <linearGradient
       id="linearGradient4250-3-3">
      <stop
         style="stop-color:#f3e8d9;stop-opacity:1;"
         offset="0"
         id="stop4252-7-2" />
      <stop
         style="stop-color:#000000;stop-opacity:0;"
         offset="1"
         id="stop4254-0-3" />
    </linearGradient>
    <filter
       style="color-interpolation-filters:sRGB"
       id="filter5042-2"
       inkscape:label="Noisy blur"
       inkscape:menu="Blurs"
       inkscape:menu-tooltip="Small-scale roughening and blurring to edges and content"
       x="-0.25"
       width="1.5"
       y="-0.25"
       height="1.5">
      <feGaussianBlur
         id="feGaussianBlur5044-8"
         stdDeviation="5"
         result="result1" />
      <feTurbulence
         id="feTurbulence5046-9"
         numOctaves="1"
         seed="0"
         type="fractalNoise"
         baseFrequency="0.1"
         result="result2" />
      <feDisplacementMap
         id="feDisplacementMap5048-7"
         in2="result2"
         scale="5"
         yChannelSelector="G"
         xChannelSelector="R"
         result="result3"
         in="result1" />
      <feComposite
         id="feComposite5050-3"
         in2="result3"
         operator="atop" />
    </filter>
    <mask
       maskUnits="userSpaceOnUse"
       id="mask4175-30-9-9">
      <g
         id="g4177-9-3-4">
        <path
           sodipodi:nodetypes="zccz"
           inkscape:connector-curvature="0"
           id="path4179-89-4-7"
           d="m 243,40 c -2,0 0,119 0,119 l 1,0 c 0,0 1,-119 -1,-119 z"
           style="fill:url(#linearGradient4183-5-9);fill-opacity:1;stroke:none;filter:url(#filter4109-04-1-4)" />
        <path
           sodipodi:nodetypes="zccz"
           inkscape:connector-curvature="0"
           id="path4181-1-2-8"
           d="M 237,39.999997 C 235,39.999997 237,159 237,159 l 1,0 c 0,0 1,-119.000003 -1,-119.000003 z"
           style="opacity:0.23000004;fill:url(#linearGradient4185-68-7);fill-opacity:1;stroke:none;filter:url(#filter4109-8-1-9-0)" />
      </g>
    </mask>
    <filter
       style="color-interpolation-filters:sRGB"
       inkscape:collect="always"
       id="filter4109-04-1-4"
       x="-0.67963636"
       width="2.3592727"
       y="-0.012215686"
       height="1.0244313">
      <feGaussianBlur
         inkscape:collect="always"
         stdDeviation="0.60569444"
         id="feGaussianBlur4111-10-8-5" />
    </filter>
    <filter
       style="color-interpolation-filters:sRGB"
       inkscape:collect="always"
       id="filter4109-8-1-9-0"
       x="-0.67963636"
       width="2.3592727"
       y="-0.012215686"
       height="1.0244313">
      <feGaussianBlur
         inkscape:collect="always"
         stdDeviation="0.60569444"
         id="feGaussianBlur4111-0-3-9-3" />
    </filter>
  </defs>
  <sodipodi:namedview
     pagecolor="#ffffff"
     bordercolor="#666666"
     borderopacity="1"
     objecttolerance="10"
     gridtolerance="10"
     guidetolerance="10"
     inkscape:pageopacity="0"
     inkscape:pageshadow="2"
     inkscape:window-width="1366"
     inkscape:window-height="713"
     id="namedview4"
     showgrid="false"
     inkscape:zoom="0.59334118"
     inkscape:cx="-88.642032"
     inkscape:cy="363.56898"
     inkscape:window-x="0"
     inkscape:window-y="26"
     inkscape:window-maximized="1"
     inkscape:current-layer="layer3"
     showguides="true"
     inkscape:guide-bbox="true" />
  <g
     inkscape:groupmode="layer"
     id="layer3"
     inkscape:label="Layer 3"
     transform="translate(0,230.75)"
     style="display:inline">
    <path
       style="display:inline;fill:#273f8b;fill-opacity:1;fill-rule:evenodd;stroke:none;stroke-width:0.9919042px;stroke-linecap:butt;stroke-linejoin:miter;stroke-opacity:1"
       d="m 100.90188,-187.31324 c 94.50572,-31.24901 224.15717,-31.24901 319.65518,0 22.592,7.39267 43.4064,27.49179 50.47188,49.99754 27.63179,88.016387 28.2891,235.144132 0,316.65046 -7.73585,22.28842 -27.72474,43.08737 -50.47188,49.99735 -95.49801,29.01004 -225.14946,29.4369 -319.65518,0 -22.697068,-7.06966 -43.087814,-27.59218 -50.471873,-49.99735 -26.861931,-81.506328 -27.615482,-228.634073 0,-316.65046 7.061651,-22.50691 27.903308,-42.53489 50.471873,-49.99754 z"
       id="path4152"
       inkscape:connector-curvature="0"
       sodipodi:nodetypes="sssssssss" />
    <g
       transform="matrix(10.056133,0,0,10.056133,17.330848,-217.21724)"
       id="g35">
      <g
         id="g37">
        <!-- color: #43a2f4 -->
        <g
           id="g39">
          <path
             inkscape:connector-curvature="0"
             d="m 15,12 c -0.031,0 -0.07,0.008 -0.094,0.031 l -0.875,0.875 c -0.047,0.047 -0.047,0.141 0,0.188 l 1.219,1.219 -0.344,0.344 c -0.078,0.078 -0.09,0.188 -0.031,0.281 l 2.156,3.563 c -0.363,0.621 -0.637,1.277 -0.844,1.969 l -4,0.844 c -0.109,0.023 -0.188,0.109 -0.188,0.219 l 0,2.605 c 0,0.102 0.082,0.188 0.188,0.219 l 3.875,0.938 c 0.199,0.805 0.508,1.574 0.906,2.281 l -2.25,3.406 c -0.063,0.09 -0.047,0.227 0.031,0.313 l 1.813,1.813 c 0.078,0.078 0.219,0.086 0.313,0.031 l 3.5,-2.125 c 0.66,0.383 1.371,0.695 2.125,0.906 l 0.813,3.906 c 0.023,0.109 0.109,0.188 0.219,0.188 l 2.594,0 c 0.109,0 0.195,-0.082 0.219,-0.188 l 0.969,-3.875 c 0.801,-0.211 1.543,-0.5 2.25,-0.906 l 3.406,2.188 c 0.094,0.059 0.203,0.047 0.281,-0.031 l 0.469,-0.469 1.188,1.188 c 0.047,0.047 0.148,0.047 0.191,0 l 0.875,-0.875 c 0.043,-0.047 0.043,-0.109 0,-0.156 l -1.191,-1.188 0.281,-0.313 c 0.078,-0.078 0.121,-0.191 0.066,-0.281 l -2.156,-3.5 c 0.234,-0.422 0.453,-0.883 0.625,-1.344 0.008,-0.031 0.012,-0.066 0,-0.094 -0.016,-0.031 -0.063,-0.055 -0.094,-0.063 l -1.098,-0.281 c -0.004,-0.004 -0.023,0 -0.027,0 0.309,-0.848 0.5,-1.766 0.5,-2.719 0,-4.316 -3.516,-7.844 -7.848,-7.844 -0.969,0 -1.918,0.172 -2.777,0.5 -0.066,-0.389 -0.165,-0.795 -0.25,-1.187 -0.008,-0.035 -0.035,-0.047 -0.066,-0.063 -0.027,-0.023 -0.059,-0.02 -0.094,0 -0.457,0.164 -0.891,0.352 -1.313,0.594 -1.097,-0.782 -2.34,-1.556 -3.5,-2.312 -0.094,-0.063 -0.23,-0.051 -0.313,0.031 l -0.406,0.438 -1.25,-1.219 C 15.04,12.022 15.032,12.014 15,12.014 m 10.406,3.809 c 1.359,0.09 2.625,0.551 3.688,1.281 -0.258,-0.031 -0.531,-0.074 -0.688,-0.219 l -0.063,0 c -0.137,0.113 -0.387,0.16 -0.563,0.188 l -0.313,0.438 -0.375,0.313 c -0.066,0.145 0.023,0.359 0.063,0.5 l 0.406,-0.188 c 0.055,0.195 0.199,0.238 0.344,0.344 0.23,-0.438 0.039,-0.859 0.594,-1.094 l -0.25,0.344 0.063,0.25 0.031,-0.313 c 0.102,0.352 -0.023,0.836 -0.406,0.969 l -0.375,-0.031 0,-0.25 c -0.223,0.047 -0.215,0.184 -0.156,0.375 -0.148,-0.043 -0.234,-0.051 -0.344,0.063 -0.121,-0.121 -0.234,-0.199 -0.25,-0.375 -0.078,-0.074 -0.117,-0.141 -0.125,-0.25 l -0.25,-0.027 0.094,0.625 c -0.027,-0.055 -0.063,-0.063 -0.094,-0.098 l 0.063,0.441 0.344,-0.066 c -0.098,0.098 -0.176,0.098 -0.313,0.098 l 0.063,0.125 -0.219,0 0.281,0.469 c -0.637,0.004 -0.648,0.316 -0.625,0.844 0.125,0.012 0.195,0.035 0.281,0.125 0.516,-0.27 0.637,-0.777 1.25,-0.938 0.098,0.309 0.406,0.313 0.313,0.688 0.301,-0.063 0.379,-0.332 0.188,-0.563 0.258,0.152 0.324,0.449 0.5,0.688 0.125,-0.164 0.086,-0.313 0.281,-0.438 l 0,0.094 c 0.332,0.293 0.551,0.355 0.969,0.5 -0.141,0.203 -0.293,0.422 -0.563,0.406 -0.328,-0.023 -0.773,-0.355 -1,0.027 l -0.625,-0.5 c -0.348,-0.145 -0.672,0.012 -1.031,-0.027 l -0.156,0.063 0.063,0.031 c -0.715,0.32 -1.113,1.172 -1.188,1.875 l -0.125,0.469 c 0.078,0.457 0.457,0.941 0.781,1.25 0.23,0.223 0.406,-0.219 0.625,0 0.289,-0.102 0.707,-0.305 0.969,0 0.176,0.199 0.004,0.379 0.063,0.598 0.105,0.363 0.344,0.813 0.344,1.223 l -0.094,0.969 c 0.086,0.594 0.434,1.098 0.438,1.719 0.48,-0.051 1.016,-0.309 1.281,-0.719 l 0.094,-0.344 0.191,-0.25 -0.066,-0.375 c 0.113,-0.273 0.559,-0.301 0.625,-0.598 0.094,-0.398 -0.141,-0.863 0,-1.277 0.223,-0.648 0.859,-1.09 0.875,-1.816 l -0.469,0.031 c 0.422,-0.52 1.301,-0.781 0.844,-1.566 l -0.188,0.227 -0.094,0 c -0.148,-0.316 -0.375,-0.328 -0.375,-0.727 0.367,0.316 0.746,0.316 1.094,0.691 0.066,-0.039 0.102,-0.086 0.125,-0.156 0.086,0.449 0.125,0.934 0.125,1.406 -0.008,4.168 -3.355,7.539 -7.469,7.531 -2.828,-0.008 -5.305,-1.613 -6.563,-3.977 -0.226,-0.44 -0.44,-0.933 -0.626,-1.345 -0.414,-1.191 -0.313,-2.641 -0.313,-2.75 0,-0.059 0.047,-0.137 0.094,-0.219 0.027,-0.297 0.094,-0.586 0.156,-0.875 -0.016,-0.016 -0.031,-0.043 -0.031,-0.063 0,-0.012 0.059,-0.172 0.094,-0.281 -0.027,0.113 -0.047,0.227 -0.063,0.344 -0.035,0.207 -0.055,0.418 -0.063,0.625 -0.02,0.305 0.246,0.426 0.375,0.656 l 0.02,0.438 0.105,-0.406 0.844,0.344 0.594,0.563 0.5,0.066 c -0.184,0.406 -0.535,1.074 -0.469,1.527 0.039,0.266 0.313,0.629 0.469,0.848 0.215,0.301 0.609,0.492 0.719,0.875 l 0.031,0.625 0.125,0.469 c -0.023,0.195 -0.219,0.535 -0.094,0.719 0.133,0.199 0.641,0.438 0.875,0.5 0.219,0.063 0.246,-0.141 0.156,-0.277 l 0.27,-0.406 0.375,-0.281 0.25,-0.875 0.566,-0.375 c 0.227,-0.34 0.039,-0.621 0.125,-0.969 l 0.375,-1.031 c -0.422,-0.16 -1.016,-0.371 -1.316,-0.719 l -0.094,0.031 -0.063,-0.348 -0.469,-0.219 -0.094,0.066 -0.094,-0.531 -0.625,-0.066 -0.469,-0.25 c -0.203,-0.027 -0.488,0.313 -0.563,0.473 l -0.25,-0.066 0.063,-0.066 -0.219,-0.148 0.031,0.148 c -0.168,-0.172 -0.199,-0.391 -0.156,-0.625 l -0.281,-0.125 -0.031,0.125 c -0.047,-0.188 -0.02,-0.445 0.125,-0.594 -0.215,-0.145 -0.383,-0.008 -0.531,0.156 l -0.313,-0.625 c -0.086,0.191 -0.047,0.391 -0.031,0.594 l -0.063,0 c -0.016,-0.215 -0.078,-0.449 0.031,-0.656 0.207,-0.383 0.836,-0.547 1.219,-0.469 l -0.063,0.066 0.375,0.313 c 0,-0.598 0.23,-0.66 0.563,-1.094 l 0.219,-0.406 c 0.258,-0.277 0.656,-0.469 1,-0.594 l 0.438,-0.281 c -0.137,-0.238 -0.516,-0.172 -0.75,-0.152 0.422,-0.242 0.992,-0.102 1.281,-0.531 -0.316,-0.23 -0.309,-0.84 -0.813,-0.594 l 0.063,-0.223 -0.406,-0.219 -0.313,0.656 -0.438,0.527 -0.031,-0.277 c -0.164,-0.078 -0.617,-0.223 -0.625,-0.441 -0.012,-0.23 0.699,-0.574 0.875,-0.719 l -0.063,0.188 0.313,-0.023 c 0.063,-0.043 0.672,-0.883 0.75,-0.352 0.422,0.16 0.449,0.328 0.875,0.066 l -0.25,-0.125 c -0.043,-0.387 -0.398,-0.375 -0.719,-0.375 l 1.031,-0.469 c 0.113,0.273 0.449,0.336 0.563,0.594 0.082,0.18 -0.16,0.262 -0.156,0.441 0.008,0.211 0.215,0.5 0.313,0.688 l 0.594,-0.656 c 0.324,-0.172 0.836,-0.188 1.094,-0.469 0.301,-0.324 0.133,-0.844 0.688,-0.844 -0.113,-0.047 -0.277,-0.082 -0.375,0 l -0.125,-0.094 0.156,0 m 0.754,2.617 C 26.346,18.583 26.272,18.54 26.115,18.575 l 0.125,0.469 0.125,-0.063 -0.094,-0.031"
             style="fill:#f9f9f9;fill-opacity:1;fill-rule:nonzero;stroke:none"
             id="path41" />
        </g>
      </g>
    </g>
  </g>
  <g
     inkscape:groupmode="layer"
     id="layer2"
     inkscape:label="Layer 2"
     transform="translate(0,230.75)"
     style="display:inline" />
</svg>
