<?xml version="1.0" encoding="UTF-8" standalone="no"?>
<!-- Created with Inkscape (http://www.inkscape.org/) -->

<svg
   xmlns:dc="http://purl.org/dc/elements/1.1/"
   xmlns:cc="http://creativecommons.org/ns#"
   xmlns:rdf="http://www.w3.org/1999/02/22-rdf-syntax-ns#"
   xmlns:svg="http://www.w3.org/2000/svg"
   xmlns="http://www.w3.org/2000/svg"
   xmlns:xlink="http://www.w3.org/1999/xlink"
   xmlns:sodipodi="http://sodipodi.sourceforge.net/DTD/sodipodi-0.dtd"
   xmlns:inkscape="http://www.inkscape.org/namespaces/inkscape"
   id="svg2"
   version="1.1"
   inkscape:version="0.91 r13725"
   width="512"
   height="512"
   viewBox="0 0 512 512"
   sodipodi:docname="libreoffice-math.svg">
  <metadata
     id="metadata8">
    <rdf:RDF>
      <cc:Work
         rdf:about="">
        <dc:format>image/svg+xml</dc:format>
        <dc:type
           rdf:resource="http://purl.org/dc/dcmitype/StillImage" />
        <dc:title></dc:title>
      </cc:Work>
    </rdf:RDF>
  </metadata>
  <defs
     id="defs6">
    <linearGradient
       y2="160"
       x2="160"
       y1="120"
       x1="135"
       gradientTransform="matrix(0.05622958,0,0,0.05622958,0.07160145,-0.0527796)"
       gradientUnits="userSpaceOnUse"
       id="linearGradient3102-2">
      <stop
         style="stop-color:#eff7fc"
         id="stop12" />
      <stop
         offset="1"
         style="stop-color:#fff"
         id="stop14" />
    </linearGradient>
    <linearGradient
       id="linearGradient4910"
       x1="1"
       x2="47"
       gradientUnits="userSpaceOnUse"
       gradientTransform="matrix(0,0.54990985,-0.54990985,0,37.847987,244.26246)">
      <stop
         style="stop-color:#8a8a8a;stop-opacity:1"
         id="stop24" />
      <stop
         offset="1"
         style="stop-color:#808080;stop-opacity:1"
         id="stop26" />
    </linearGradient>
    <linearGradient
       gradientTransform="matrix(0.54990985,0,0,0.54990985,11.452315,244.26246)"
       xlink:href="#linearGradient4389"
       id="linearGradient4363"
       y1="47"
       x2="0"
       y2="1"
       gradientUnits="userSpaceOnUse" />
    <linearGradient
       id="linearGradient4389">
      <stop
         style="stop-color:#666;stop-opacity:1"
         id="stop12-7" />
      <stop
         offset="1"
         style="stop-color:#707070;stop-opacity:1"
         id="stop14-5" />
    </linearGradient>
    <linearGradient
       gradientTransform="matrix(0.54990985,0,0,0.54990985,11.452315,244.26246)"
       xlink:href="#linearGradient4397"
       id="linearGradient4403"
       y1="47"
       x2="0"
       y2="1"
       gradientUnits="userSpaceOnUse" />
    <linearGradient
       id="linearGradient4397">
      <stop
         style="stop-color:#5c5c5c;stop-opacity:1"
         id="stop7" />
      <stop
         offset="1"
         style="stop-color:#666;stop-opacity:1"
         id="stop9" />
    </linearGradient>
    <linearGradient
       gradientTransform="matrix(0.54990985,0,0,0.54990985,11.452315,244.26246)"
       xlink:href="#linearGradient4389"
       id="linearGradient4395"
       y1="47"
       x2="0"
       y2="1"
       gradientUnits="userSpaceOnUse" />
    <linearGradient
       gradientTransform="matrix(0.54990985,0,0,0.54990985,11.452315,244.26246)"
       xlink:href="#linearGradient4397"
       id="linearGradient4387"
       y1="47"
       x2="0"
       y2="1"
       gradientUnits="userSpaceOnUse" />
    <linearGradient
       gradientTransform="matrix(0.54990985,0,0,0.54990985,11.452315,244.26246)"
       xlink:href="#linearGradient4389"
       id="linearGradient4379"
       y1="47"
       x2="0"
       y2="1"
       gradientUnits="userSpaceOnUse" />
    <radialGradient
       xlink:href="#radial0"
       id="radialGradient3427"
       gradientUnits="userSpaceOnUse"
       gradientTransform="matrix(1.2459588,0,0,1.2459588,16.210857,249.02114)"
       cx="6.7729998"
       cy="5.927"
       r="0.56400001" />
    <radialGradient
       id="radial0"
       gradientUnits="userSpaceOnUse"
       cx="6.7729998"
       cy="5.927"
       r="0.56400001"
       gradientTransform="matrix(3.543307,0,0,3.543307,1.47638e-7,3.77575e-4)">
      <stop
         style="stop-color:#8eb0c7;stop-opacity:1"
         id="stop17" />
      <stop
         offset="1"
         style="stop-color:#8eb0c7;stop-opacity:0"
         id="stop19" />
    </radialGradient>
    <radialGradient
       id="radial1"
       gradientUnits="userSpaceOnUse"
       cx="6"
       cy="17.292"
       r="1"
       gradientTransform="matrix(0.35163727,0,0,0.35163727,22.540326,252.08305)"
       xlink:href="#radial0" />
    <radialGradient
       id="radialGradient4251"
       gradientUnits="userSpaceOnUse"
       cx="6.7729998"
       cy="5.927"
       r="0.56400001"
       gradientTransform="matrix(3.543307,0,0,3.543307,1.47638e-7,3.77575e-4)">
      <stop
         style="stop-color:#8eb0c7;stop-opacity:1"
         id="stop4253" />
      <stop
         offset="1"
         style="stop-color:#8eb0c7;stop-opacity:0"
         id="stop4255" />
    </radialGradient>
    <linearGradient
       gradientTransform="matrix(0.54990985,0,0,0.54990985,11.452315,244.26246)"
       xlink:href="#linearGradient4397"
       id="linearGradient4355"
       y1="47"
       x2="0"
       y2="1"
       gradientUnits="userSpaceOnUse" />
  </defs>
  <sodipodi:namedview
     pagecolor="#ffffff"
     bordercolor="#666666"
     borderopacity="1"
     objecttolerance="10"
     gridtolerance="10"
     guidetolerance="10"
     inkscape:pageopacity="0"
     inkscape:pageshadow="2"
     inkscape:window-width="1366"
     inkscape:window-height="713"
     id="namedview4"
     showgrid="false"
     inkscape:zoom="0.29667059"
     inkscape:cx="-19.076235"
     inkscape:cy="430.46873"
     inkscape:window-x="0"
     inkscape:window-y="26"
     inkscape:window-maximized="1"
     inkscape:current-layer="layer3"
     showguides="true"
     inkscape:guide-bbox="true" />
  <g
     inkscape:groupmode="layer"
     id="layer3"
     inkscape:label="Layer 3"
     transform="translate(0,230.75)"
     style="display:inline">
    <path
       style="display:inline;fill:#404040;fill-opacity:1;fill-rule:evenodd;stroke:none;stroke-width:0.9919042px;stroke-linecap:butt;stroke-linejoin:miter;stroke-opacity:1"
       d="m 100.90188,-187.31324 c 94.50572,-31.24901 224.15717,-31.24901 319.65518,0 22.592,7.39267 43.4064,27.49179 50.47188,49.99754 27.63179,88.016387 28.2891,235.144132 0,316.65046 -7.73585,22.28842 -27.72474,43.08737 -50.47188,49.99735 -95.49801,29.01004 -225.14946,29.4369 -319.65518,0 -22.697068,-7.06966 -43.087814,-27.59218 -50.471873,-49.99735 -26.861931,-81.506328 -27.615482,-228.634073 0,-316.65046 7.061651,-22.50691 27.903308,-42.53489 50.471873,-49.99754 z"
       id="path4152"
       inkscape:connector-curvature="0"
       sodipodi:nodetypes="sssssssss" />
  </g>
  <g
     inkscape:groupmode="layer"
     id="layer2"
     inkscape:label="Layer 2"
     transform="translate(0,230.75)"
     style="display:inline">
    <path
       style="display:inline;fill:#ffffff;fill-opacity:1;fill-rule:evenodd;stroke:none;stroke-width:0.9919042px;stroke-linecap:butt;stroke-linejoin:miter;stroke-opacity:1"
       d="m 153.44472,-121.79135 c 40.96381,-13.54498 91.44828,-18.62488 139.72133,-15.2397 L 424.06646,-0.05039239 C 426.49134,48.050879 421.95279,98.507811 410.15334,132.50431 c -5.36533,15.45856 -19.22902,29.88406 -35.00573,34.6766 -66.23445,20.12047 -156.15666,20.41652 -221.70289,0 -15.74198,-4.90329 -29.88436,-19.13707 -35.00572,-34.6766 -18.630592,-56.530269 -19.153232,-158.573489 0,-219.618909 4.89774,-15.610101 19.35283,-29.501011 35.00572,-34.676751 z"
       id="path4152-3"
       inkscape:connector-curvature="0"
       sodipodi:nodetypes="sccssssss" />
  </g>
  <g
     inkscape:groupmode="layer"
     id="layer4"
     inkscape:label="Layer 4">
    <g
       transform="matrix(1.26034,0,0,1.26034,160.7157,176.31873)"
       id="g3"
       style="fill:#404040;fill-opacity:1">
      <g
         id="g5"
         style="fill:#404040;fill-opacity:1">
        <path
           inkscape:connector-curvature="0"
           d="m 7.309,74.912 5.946,0 29.487,41.961 c 1.384,1.969 3.629,3.105 5.98,3.105 0.463,0 0.933,-0.045 1.398,-0.137 2.831,-0.553 5.072,-2.716 5.722,-5.527 l 17.569,-75.944 63.01,0 c 4.036,0 7.31,-3.271 7.31,-7.309 0,-4.036 -3.272,-7.309 -7.31,-7.309 l -68.82,0 c -3.401,0 -6.354,2.349 -7.121,5.662 L 45.291,95.074 23.032,63.4 c -1.367,-1.945 -3.598,-3.105 -5.979,-3.105 l -9.744,0 C 3.272,60.295 0,63.566 0,67.604 c 0.001,4.036 3.273,7.308 7.309,7.308 z"
           id="path7"
           style="fill:#404040;fill-opacity:1" />
        <path
           inkscape:connector-curvature="0"
           d="m 81.727,105.979 c 0,3.589 2.926,6.229 6.699,6.229 2.549,0 4.531,-1.604 6.229,-3.681 l 10.193,-13.401 10.192,13.401 c 1.888,2.36 3.868,3.681 6.698,3.681 3.59,0 6.607,-2.548 6.607,-6.605 0,-1.887 -0.756,-3.586 -2.361,-5.476 L 113.338,85.595 125.609,71.248 c 1.134,-1.416 1.98,-2.926 1.98,-4.909 0,-3.589 -2.926,-6.231 -6.701,-6.231 -2.549,0 -4.529,1.605 -6.229,3.684 l -9.533,12.455 -9.342,-12.455 c -1.89,-2.361 -3.869,-3.684 -6.699,-3.684 -3.588,0 -6.606,2.551 -6.606,6.609 0,1.885 0.756,3.586 2.358,5.471 l 11.797,13.592 -12.93,15.289 c -1.222,1.417 -1.977,2.927 -1.977,4.91 z"
           id="path9"
           style="fill:#404040;fill-opacity:1" />
      </g>
    </g>
  </g>
</svg>
