<?xml version="1.0" encoding="UTF-8" standalone="no"?>
<!-- Created with Inkscape (http://www.inkscape.org/) -->

<svg
   xmlns:dc="http://purl.org/dc/elements/1.1/"
   xmlns:cc="http://creativecommons.org/ns#"
   xmlns:rdf="http://www.w3.org/1999/02/22-rdf-syntax-ns#"
   xmlns:svg="http://www.w3.org/2000/svg"
   xmlns="http://www.w3.org/2000/svg"
   xmlns:xlink="http://www.w3.org/1999/xlink"
   xmlns:sodipodi="http://sodipodi.sourceforge.net/DTD/sodipodi-0.dtd"
   xmlns:inkscape="http://www.inkscape.org/namespaces/inkscape"
   id="svg2"
   version="1.1"
   inkscape:version="0.91 r13725"
   width="512"
   height="512"
   viewBox="0 0 512 512"
   sodipodi:docname="libreoffice.svg">
  <metadata
     id="metadata8">
    <rdf:RDF>
      <cc:Work
         rdf:about="">
        <dc:format>image/svg+xml</dc:format>
        <dc:type
           rdf:resource="http://purl.org/dc/dcmitype/StillImage" />
        <dc:title></dc:title>
      </cc:Work>
    </rdf:RDF>
  </metadata>
  <defs
     id="defs6">
    <linearGradient
       y2="160"
       x2="160"
       y1="120"
       x1="135"
       gradientTransform="matrix(0.05622958,0,0,0.05622958,0.07160145,-0.0527796)"
       gradientUnits="userSpaceOnUse"
       id="linearGradient3102-2">
      <stop
         style="stop-color:#eff7fc"
         id="stop12" />
      <stop
         offset="1"
         style="stop-color:#fff"
         id="stop14" />
    </linearGradient>
    <linearGradient
       id="linearGradient4910"
       x1="1"
       x2="47"
       gradientUnits="userSpaceOnUse"
       gradientTransform="matrix(0,0.54990985,-0.54990985,0,37.847987,244.26246)">
      <stop
         style="stop-color:#8a8a8a;stop-opacity:1"
         id="stop24" />
      <stop
         offset="1"
         style="stop-color:#808080;stop-opacity:1"
         id="stop26" />
    </linearGradient>
    <linearGradient
       gradientTransform="matrix(0.54990985,0,0,0.54990985,11.452315,244.26246)"
       xlink:href="#linearGradient4389"
       id="linearGradient4363"
       y1="47"
       x2="0"
       y2="1"
       gradientUnits="userSpaceOnUse" />
    <linearGradient
       id="linearGradient4389">
      <stop
         style="stop-color:#666;stop-opacity:1"
         id="stop12-7" />
      <stop
         offset="1"
         style="stop-color:#707070;stop-opacity:1"
         id="stop14-5" />
    </linearGradient>
    <linearGradient
       gradientTransform="matrix(0.54990985,0,0,0.54990985,11.452315,244.26246)"
       xlink:href="#linearGradient4397"
       id="linearGradient4403"
       y1="47"
       x2="0"
       y2="1"
       gradientUnits="userSpaceOnUse" />
    <linearGradient
       id="linearGradient4397">
      <stop
         style="stop-color:#5c5c5c;stop-opacity:1"
         id="stop7" />
      <stop
         offset="1"
         style="stop-color:#666;stop-opacity:1"
         id="stop9" />
    </linearGradient>
    <linearGradient
       gradientTransform="matrix(0.54990985,0,0,0.54990985,11.452315,244.26246)"
       xlink:href="#linearGradient4389"
       id="linearGradient4395"
       y1="47"
       x2="0"
       y2="1"
       gradientUnits="userSpaceOnUse" />
    <linearGradient
       gradientTransform="matrix(0.54990985,0,0,0.54990985,11.452315,244.26246)"
       xlink:href="#linearGradient4397"
       id="linearGradient4387"
       y1="47"
       x2="0"
       y2="1"
       gradientUnits="userSpaceOnUse" />
    <linearGradient
       gradientTransform="matrix(0.54990985,0,0,0.54990985,11.452315,244.26246)"
       xlink:href="#linearGradient4389"
       id="linearGradient4379"
       y1="47"
       x2="0"
       y2="1"
       gradientUnits="userSpaceOnUse" />
    <radialGradient
       xlink:href="#radial0"
       id="radialGradient3427"
       gradientUnits="userSpaceOnUse"
       gradientTransform="matrix(1.2459588,0,0,1.2459588,16.210857,249.02114)"
       cx="6.7729998"
       cy="5.927"
       r="0.56400001" />
    <radialGradient
       id="radial0"
       gradientUnits="userSpaceOnUse"
       cx="6.7729998"
       cy="5.927"
       r="0.56400001"
       gradientTransform="matrix(3.543307,0,0,3.543307,1.47638e-7,3.77575e-4)">
      <stop
         style="stop-color:#8eb0c7;stop-opacity:1"
         id="stop17" />
      <stop
         offset="1"
         style="stop-color:#8eb0c7;stop-opacity:0"
         id="stop19" />
    </radialGradient>
    <radialGradient
       id="radial1"
       gradientUnits="userSpaceOnUse"
       cx="6"
       cy="17.292"
       r="1"
       gradientTransform="matrix(0.35163727,0,0,0.35163727,22.540326,252.08305)"
       xlink:href="#radial0" />
    <radialGradient
       id="radialGradient4251"
       gradientUnits="userSpaceOnUse"
       cx="6.7729998"
       cy="5.927"
       r="0.56400001"
       gradientTransform="matrix(3.543307,0,0,3.543307,1.47638e-7,3.77575e-4)">
      <stop
         style="stop-color:#8eb0c7;stop-opacity:1"
         id="stop4253" />
      <stop
         offset="1"
         style="stop-color:#8eb0c7;stop-opacity:0"
         id="stop4255" />
    </radialGradient>
    <linearGradient
       gradientTransform="matrix(0.54990985,0,0,0.54990985,11.452315,244.26246)"
       xlink:href="#linearGradient4397"
       id="linearGradient4355"
       y1="47"
       x2="0"
       y2="1"
       gradientUnits="userSpaceOnUse" />
  </defs>
  <sodipodi:namedview
     pagecolor="#ffffff"
     bordercolor="#666666"
     borderopacity="1"
     objecttolerance="10"
     gridtolerance="10"
     guidetolerance="10"
     inkscape:pageopacity="0"
     inkscape:pageshadow="2"
     inkscape:window-width="1366"
     inkscape:window-height="713"
     id="namedview4"
     showgrid="false"
     inkscape:zoom="0.41955556"
     inkscape:cx="-36.47336"
     inkscape:cy="271.10515"
     inkscape:window-x="0"
     inkscape:window-y="26"
     inkscape:window-maximized="1"
     inkscape:current-layer="layer1"
     showguides="true"
     inkscape:guide-bbox="true" />
  <g
     inkscape:groupmode="layer"
     id="layer3"
     inkscape:label="Layer 3"
     transform="translate(0,230.75)"
     style="display:inline">
    <path
       style="display:inline;fill:#8e03a6;fill-opacity:1;fill-rule:evenodd;stroke:none;stroke-width:0.9919042px;stroke-linecap:butt;stroke-linejoin:miter;stroke-opacity:1"
       d="m 100.90188,-187.31324 c 94.50572,-31.24901 224.15717,-31.24901 319.65518,0 22.592,7.39267 43.4064,27.49179 50.47188,49.99754 27.63179,88.016387 28.2891,235.144132 0,316.65046 -7.73585,22.28842 -27.72474,43.08737 -50.47188,49.99735 -95.49801,29.01004 -225.14946,29.4369 -319.65518,0 -22.697068,-7.06966 -43.087814,-27.59218 -50.471873,-49.99735 -26.861931,-81.506328 -27.615482,-228.634073 0,-316.65046 7.061651,-22.50691 27.903308,-42.53489 50.471873,-49.99754 z"
       id="path4152"
       inkscape:connector-curvature="0"
       sodipodi:nodetypes="sssssssss" />
  </g>
  <g
     inkscape:groupmode="layer"
     id="layer2"
     inkscape:label="Layer 2"
     transform="translate(0,230.75)"
     style="display:inline">
    <path
       style="display:inline;fill:#ffffff;fill-opacity:1;fill-rule:evenodd;stroke:none;stroke-width:0.9919042px;stroke-linecap:butt;stroke-linejoin:miter;stroke-opacity:1"
       d="m 153.44472,-121.79135 c 40.96381,-13.54498 91.44828,-18.62488 139.72133,-15.2397 L 424.06646,-0.05039239 C 426.49134,48.050879 421.95279,98.507811 410.15334,132.50431 c -5.36533,15.45856 -19.22902,29.88406 -35.00573,34.6766 -66.23445,20.12047 -156.15666,20.41652 -221.70289,0 -15.74198,-4.90329 -29.88436,-19.13707 -35.00572,-34.6766 -18.630592,-56.530269 -19.153232,-158.573489 0,-219.618909 4.89774,-15.610101 19.35283,-29.501011 35.00572,-34.676751 z"
       id="path4152-3"
       inkscape:connector-curvature="0"
       sodipodi:nodetypes="sccssssss" />
  </g>
  <g
     inkscape:groupmode="layer"
     id="layer1"
     inkscape:label="Layer 4">
    <g
       id="g3"
       transform="matrix(2.3571087,0,0,2.3571087,198.51236,183.56956)"
       style="fill:#8e03a6;fill-opacity:1">
      <path
         inkscape:connector-curvature="0"
         d="M 0,42.799 0,51 c 0,0.162 0.043,0.315 0.117,0.451 C 1.298,56.346 11.864,60 25,60 38.106,60 48.655,56.361 49.875,51.484 49.955,51.341 50,51.176 50,51 l 0,-8.199 C 45.865,45.711 37.345,48 25,48 12.654,48 4.134,45.71 0,42.799 Z"
         id="path5"
         style="fill:#8e03a6;fill-opacity:1" />
      <path
         inkscape:connector-curvature="0"
         d="m 53,49.954 c 0,0.196 -0.048,0.38 -0.133,0.541 -0.139,0.586 -0.4,1.156 -0.76,1.707 4.305,-1.514 7.167,-3.609 7.767,-6.007 C 59.955,46.051 60,45.885 60,45.71 l 0,-8.2 -7,3.291 0,9.153 z"
         id="path7"
         style="fill:#8e03a6;fill-opacity:1" />
      <path
         inkscape:connector-curvature="0"
         d="M 27.606,35.958 C 26.737,35.986 25.867,36 25,36 24.131,36 23.258,35.986 22.386,35.958 15.045,35.757 9.195,34.72 4.983,33.241 3.004,32.574 1.309,31.788 0,30.889 L 0,38 0,38.5 0,39 0,40.289 C 2.846,43.26 12.394,46 25,46 37.606,46 47.154,43.26 50,40.289 L 50,39 50,38.5 50,38 50,30.889 c -1.318,0.905 -3.028,1.697 -5.025,2.367 -4.21,1.472 -10.048,2.503 -17.369,2.702 z"
         id="path9"
         style="fill:#8e03a6;fill-opacity:1" />
      <path
         inkscape:connector-curvature="0"
         d="m 52,29 0,8.471 0,0.533 0,0.533 0,0.209 c 3.873,-1.031 6.673,-2.362 8,-3.748 l 0,-1.288 0,-0.5 0,-0.5 0,-7.111 c -1.318,0.905 -3.028,1.697 -5.025,2.367 L 52,29 Z"
         id="path11"
         style="fill:#8e03a6;fill-opacity:1" />
      <path
         inkscape:connector-curvature="0"
         d="m 0,18.979 0,7.111 0,0.5 0,0.5 0,1.289 c 2.638,2.754 11.033,5.31 22.286,5.668 0.115,0.004 0.233,0.005 0.349,0.008 0.326,0.009 0.651,0.018 0.982,0.023 0.457,0.007 0.917,0.011 1.383,0.011 0.466,0 0.926,-0.004 1.383,-0.011 0.33,-0.005 0.656,-0.014 0.982,-0.023 0.116,-0.003 0.234,-0.005 0.349,-0.008 C 38.967,33.688 47.362,31.132 50,28.378 l 0,-1.288 0,-0.5 0,-0.5 0,-7.111 C 45.133,22.323 34.844,24.09 25,24.09 15.156,24.09 4.867,22.322 0,18.979 Z"
         id="path13"
         style="fill:#8e03a6;fill-opacity:1" />
      <path
         inkscape:connector-curvature="0"
         d="M 25,5.29 C 9.923,5.29 1.303,9.51 0.146,13.8 0.062,13.947 0,14.108 0,14.29 l 0,0.5 0,1.806 c 2.836,2.961 12.316,5.694 25,5.694 12.684,0 22.164,-2.733 25,-5.694 l 0,-1.806 0,-0.5 C 50,14.122 49.944,13.971 49.865,13.832 48.743,9.531 40.115,5.29 25,5.29 Z"
         id="path15"
         style="fill:#8e03a6;fill-opacity:1" />
      <path
         inkscape:connector-curvature="0"
         d="m 52,24.501 0,0.599 0,0.6 0,1.142 c 3.879,-1.031 6.671,-2.367 8,-3.754 l 0,-1.289 0,-0.5 0,-0.5 0,-7.111 c -1.932,1.327 -4.727,2.402 -8,3.22 l 0,7.593 z"
         id="path17"
         style="fill:#8e03a6;fill-opacity:1" />
      <path
         inkscape:connector-curvature="0"
         d="M 59.865,8.542 C 58.743,4.241 50.115,0 35,0 24.873,0 17.676,1.907 13.68,4.457 17.16,3.725 21.268,3.29 26,3.29 c 15.72,0 24.692,4.74 25.86,9.547 0.082,0.155 0.14,0.324 0.14,0.512 l 0,0.559 0,1.142 c 3.88,-1.029 6.674,-2.359 8,-3.744 L 60,9.5 60,9 C 60,8.832 59.944,8.681 59.865,8.542 Z"
         id="path19"
         style="fill:#8e03a6;fill-opacity:1" />
    </g>
  </g>
</svg>
