<?xml version="1.0" encoding="UTF-8" standalone="no"?>
<!-- Created with Inkscape (http://www.inkscape.org/) -->

<svg
   xmlns:dc="http://purl.org/dc/elements/1.1/"
   xmlns:cc="http://creativecommons.org/ns#"
   xmlns:rdf="http://www.w3.org/1999/02/22-rdf-syntax-ns#"
   xmlns:svg="http://www.w3.org/2000/svg"
   xmlns="http://www.w3.org/2000/svg"
   xmlns:sodipodi="http://sodipodi.sourceforge.net/DTD/sodipodi-0.dtd"
   xmlns:inkscape="http://www.inkscape.org/namespaces/inkscape"
   id="svg2"
   version="1.1"
   inkscape:version="0.91 r13725"
   width="512"
   height="512"
   viewBox="0 0 512 512"
   sodipodi:docname="pidgin.svg">
  <metadata
     id="metadata8">
    <rdf:RDF>
      <cc:Work
         rdf:about="">
        <dc:format>image/svg+xml</dc:format>
        <dc:type
           rdf:resource="http://purl.org/dc/dcmitype/StillImage" />
        <dc:title></dc:title>
      </cc:Work>
    </rdf:RDF>
  </metadata>
  <defs
     id="defs6">
    <linearGradient
       y2="160"
       x2="160"
       y1="120"
       x1="135"
       gradientTransform="matrix(0.05622958,0,0,0.05622958,0.07160145,-0.0527796)"
       gradientUnits="userSpaceOnUse"
       id="linearGradient3102-2">
      <stop
         style="stop-color:#eff7fc"
         id="stop12" />
      <stop
         offset="1"
         style="stop-color:#fff"
         id="stop14" />
    </linearGradient>
  </defs>
  <sodipodi:namedview
     pagecolor="#ffffff"
     bordercolor="#666666"
     borderopacity="1"
     objecttolerance="10"
     gridtolerance="10"
     guidetolerance="10"
     inkscape:pageopacity="0"
     inkscape:pageshadow="2"
     inkscape:window-width="1366"
     inkscape:window-height="713"
     id="namedview4"
     showgrid="false"
     inkscape:zoom="0.41955555"
     inkscape:cx="276.96092"
     inkscape:cy="-104.38598"
     inkscape:window-x="0"
     inkscape:window-y="26"
     inkscape:window-maximized="1"
     inkscape:current-layer="layer2"
     showguides="true"
     inkscape:guide-bbox="true" />
  <g
     inkscape:groupmode="layer"
     id="layer3"
     inkscape:label="Layer 3"
     transform="translate(0,230.75)"
     style="display:inline">
    <path
       style="display:inline;fill:#82508e;fill-opacity:1;fill-rule:evenodd;stroke:none;stroke-width:0.9919042px;stroke-linecap:butt;stroke-linejoin:miter;stroke-opacity:1"
       d="m 99.367206,-177.82054 c 92.460144,-30.57262 219.305284,-30.57262 312.736244,0 22.10299,7.23266 42.46686,26.89673 49.37941,48.91535 27.0337,86.111268 27.67678,230.05443 0,309.79655 -7.56841,21.80598 -27.12464,42.15474 -49.37941,48.91515 -93.43096,28.38212 -220.2761,28.79975 -312.736244,0 -22.205792,-6.91663 -42.155174,-26.99494 -49.379408,-48.91515 -26.2805,-79.74212 -27.017745,-223.685282 0,-309.79655 6.908802,-22.01975 27.29934,-41.61423 49.379408,-48.91535 z"
       id="path4152"
       inkscape:connector-curvature="0"
       sodipodi:nodetypes="sssssssss" />
  </g>
  <g
     inkscape:groupmode="layer"
     id="layer6"
     inkscape:label="Layer 4"
     transform="translate(0,464)">
    <path
       style="fill:#ffffff;fill-opacity:1;fill-rule:evenodd;stroke:none;stroke-width:1px;stroke-linecap:butt;stroke-linejoin:miter;stroke-opacity:1"
       d="m 24.534608,27.489995 c -1.069609,0.244756 -1.007142,1.886323 -0.021,2.030374 l 3.609569,-0.0118 c 1.067293,-0.192309 0.961046,-1.93694 -0.084,-2.033456 z"
       id="path4904"
       inkscape:connector-curvature="0"
       sodipodi:nodetypes="ccccc" />
  </g>
  <g
     inkscape:groupmode="layer"
     id="layer2"
     inkscape:label="Layer 2"
     transform="translate(0,230.75)">
    <path
       style="fill:#ffffff;fill-opacity:1;fill-rule:evenodd;stroke:none;stroke-width:1px;stroke-linecap:butt;stroke-linejoin:miter;stroke-opacity:1"
       d="m 347.58348,-64.564124 c -0.56425,-0.0037 -1.13858,0.0052 -1.72283,0.02825 -29.16243,1.035362 -27.75932,32.484673 -26.38116,38.194186 6.69394,24.6099868 24.01911,30.9111488 28.15361,31.8955668 19.68801,4.5282872 25.55466,-9.279465 27.95651,-13.978193 3.74347,-7.3233418 7.54252,-55.8875378 -28.00613,-56.1370788 z m -0.66793,23.848742 a 16.288941,17.128576 0 0 1 16.28812,17.127598 16.288941,17.128576 0 0 1 -16.28812,17.1289158 16.288941,17.128576 0 0 1 -16.28952,-17.1289158 16.288941,17.128576 0 0 1 16.28952,-17.127598 z"
       id="path4138"
       inkscape:connector-curvature="0" />
    <path
       style="fill:#ffffff;fill-opacity:1;fill-rule:evenodd;stroke:none;stroke-width:1px;stroke-linecap:butt;stroke-linejoin:miter;stroke-opacity:1"
       d="m 176.65887,-72.087946 c -2.02681,0.02825 -4.10225,0.243891 -6.22202,0.6893 -21.69454,4.548815 -31.90287,39.295183 -27.16953,59.063684 8.35291,25.337236 25.33599,38.198331 50.74739,32.682612 10.51356,-2.282034 39.76681,-21.1170622 27.21774,-55.914375 -3.50479,-9.718471 -20.65734,-36.805228 -44.57358,-36.520939 z m 7.09405,35.884184 a 16.73179,16.731789 0 0 1 16.73193,16.732097 16.73179,16.731789 0 0 1 -16.73193,16.7318148 16.73179,16.731789 0 0 1 -16.73193,-16.7318148 16.73179,16.731789 0 0 1 16.73193,-16.732097 z"
       id="path4145"
       inkscape:connector-curvature="0" />
    <path
       style="fill:#ff8602;fill-opacity:1;fill-rule:evenodd;stroke:none;stroke-width:1px;stroke-linecap:butt;stroke-linejoin:miter;stroke-opacity:1"
       d="m 276.19039,53.5204 c -21.57837,32.715573 -33.65137,51.82396 -78.89635,29.410323 26.45091,36.752867 85.61743,51.370357 94.80564,50.813547 14.33917,-3.89803 48.30771,-32.71557 57.35671,-50.674367 -43.01754,26.729387 -54.76067,-10.20409 -65.36159,-29.304858 -1.36794,-2.464718 -4.91127,-3.864223 -7.90441,-0.243891 z"
       id="path4152-7"
       inkscape:connector-curvature="0"
       sodipodi:nodetypes="ccccsc" />
    <ellipse
       style="opacity:1;fill:#000000;fill-opacity:1;stroke:none;stroke-width:5;stroke-miterlimit:4;stroke-dasharray:none;stroke-opacity:1"
       id="path4886"
       cx="184.3802"
       cy="-18.682884"
       rx="6.2515597"
       ry="6.2515593" />
    <ellipse
       style="opacity:1;fill:#000000;fill-opacity:1;stroke:none;stroke-width:5;stroke-miterlimit:4;stroke-dasharray:none;stroke-opacity:1"
       id="path4886-5"
       cx="346.17343"
       cy="-22.541166"
       rx="6.2515597"
       ry="6.2515593" />
  </g>
</svg>
