<?xml version="1.0" encoding="UTF-8" standalone="no"?>
<!-- Created with Inkscape (http://www.inkscape.org/) -->

<svg
   xmlns:dc="http://purl.org/dc/elements/1.1/"
   xmlns:cc="http://creativecommons.org/ns#"
   xmlns:rdf="http://www.w3.org/1999/02/22-rdf-syntax-ns#"
   xmlns:svg="http://www.w3.org/2000/svg"
   xmlns="http://www.w3.org/2000/svg"
   xmlns:sodipodi="http://sodipodi.sourceforge.net/DTD/sodipodi-0.dtd"
   xmlns:inkscape="http://www.inkscape.org/namespaces/inkscape"
   id="svg2"
   version="1.1"
   inkscape:version="0.91 r13725"
   width="512"
   height="512"
   viewBox="0 0 512 512"
   sodipodi:docname="plank.svg">
  <metadata
     id="metadata8">
    <rdf:RDF>
      <cc:Work
         rdf:about="">
        <dc:format>image/svg+xml</dc:format>
        <dc:type
           rdf:resource="http://purl.org/dc/dcmitype/StillImage" />
        <dc:title></dc:title>
      </cc:Work>
    </rdf:RDF>
  </metadata>
  <defs
     id="defs6">
    <linearGradient
       y2="160"
       x2="160"
       y1="120"
       x1="135"
       gradientTransform="matrix(0.05622958,0,0,0.05622958,0.07160145,-0.0527796)"
       gradientUnits="userSpaceOnUse"
       id="linearGradient3102-2">
      <stop
         style="stop-color:#eff7fc"
         id="stop12" />
      <stop
         offset="1"
         style="stop-color:#fff"
         id="stop14" />
    </linearGradient>
  </defs>
  <sodipodi:namedview
     pagecolor="#ffffff"
     bordercolor="#666666"
     borderopacity="1"
     objecttolerance="10"
     gridtolerance="10"
     guidetolerance="10"
     inkscape:pageopacity="0"
     inkscape:pageshadow="2"
     inkscape:window-width="1366"
     inkscape:window-height="713"
     id="namedview4"
     showgrid="false"
     inkscape:zoom="0.29667058"
     inkscape:cx="509.07614"
     inkscape:cy="-150.90049"
     inkscape:window-x="0"
     inkscape:window-y="26"
     inkscape:window-maximized="1"
     inkscape:current-layer="layer3"
     showguides="true"
     inkscape:guide-bbox="true" />
  <g
     inkscape:groupmode="layer"
     id="layer3"
     inkscape:label="Layer 3"
     transform="translate(0,230.75)"
     style="display:inline">
    <path
       style="display:inline;fill:#3bb5c1;fill-opacity:1;fill-rule:evenodd;stroke:none;stroke-width:0.9919042px;stroke-linecap:butt;stroke-linejoin:miter;stroke-opacity:1"
       d="m 99.367206,-177.82054 c 92.460144,-30.57262 219.305284,-30.57262 312.736244,0 22.10299,7.23266 42.46686,26.89673 49.37941,48.91535 27.0337,86.111267 27.67678,230.05443 0,309.79655 -7.56841,21.80598 -27.12464,42.15474 -49.37941,48.91515 -93.43096,28.38212 -220.2761,28.79975 -312.736244,0 -22.205792,-6.91663 -42.155174,-26.99494 -49.379408,-48.91515 -26.2805,-79.74212 -27.017745,-223.685283 0,-309.79655 6.908802,-22.01975 27.29934,-41.61423 49.379408,-48.91535 z"
       id="path4152"
       inkscape:connector-curvature="0"
       sodipodi:nodetypes="sssssssss" />
  </g>
  <g
     inkscape:groupmode="layer"
     id="layer2"
     inkscape:label="Layer 2"
     transform="translate(0,230.75)">
    <path
       style="fill:#2f2c2c;fill-opacity:1"
       d="M 198.43849,122.24304 C 178.96856,108.37916 161.00003,80.832313 157.43867,59.387736 155.99541,50.697188 155.0604,49.79978 146.70684,49.086844 c -5.03295,-0.4294 -9.53407,-1.951604 -10.00249,-3.38256 -1.20546,-3.682388 24.41914,-34.739118 28.66286,-34.739118 4.57681,0 30.41253,32.870663 28.39785,36.13043 -0.8491,1.373892 -5.53138,2.497959 -10.40509,2.497959 -10.97756,0 -11.32536,3.588127 -2.24658,23.177048 8.72638,18.82844 20.4308,34.557287 39.63021,43.252917 23.64821,12.86091 25.86137,13.04914 25.86137,-43.252917 l 0,-48.92937 -9.18258,0 c -11.74184,0 -19.1449,-3.98325 -19.1449,-10.300797 0,-6.3177362 7.40306,-10.3009862 19.1449,-10.3009862 l 9.18258,0 0,-13.2597958 c 0,-11.769797 -1.01277,-14.243367 -9.01328,-22.013341 -7.87122,-7.64445 -9.0133,-10.344302 -9.0133,-21.307656 0,-10.585086 1.24277,-13.796923 7.92377,-20.477859 6.66813,-6.66813 9.90141,-7.923748 20.40372,-7.923748 10.50228,0 13.73558,1.255618 20.40371,7.923748 6.68098,6.680936 7.92376,9.892773 7.92376,20.477859 0,10.963354 -1.14208,13.663206 -9.01329,21.307656 -8.00052,7.769974 -9.01328,10.243544 -9.01328,22.013341 l 0,13.2597958 9.18258,0 c 11.74184,0 19.14489,3.98325 19.14489,10.3009862 0,6.317547 -7.40305,10.300797 -19.14489,10.300797 l -9.18258,0 0,48.92937 c 0,55.997147 -1.2847,53.651737 23.17702,42.314447 17.78093,-7.67882 32.47598,-22.215977 41.50706,-41.026897 9.96449,-20.755185 9.74629,-24.464598 -1.43909,-24.464598 -4.87371,0 -9.55601,-1.124067 -10.4051,-2.497959 -2.01466,-3.259767 23.82105,-36.13043 28.39785,-36.13043 4.0573,0 29.49695,30.506703 29.49695,35.372106 0,2.064227 -3.65031,3.256283 -9.97176,3.256283 -9.55487,0 -10.03721,0.408683 -11.53656,9.785517 -2.56229,16.023591 -16.26711,40.216321 -30.12519,53.178928 -20.13815,18.83691 -38.88466,26.68777 -68.30832,27.5526 -23.77254,-0.0377 -40.25359,-4.42659 -59.56115,-17.86756 z m 67.48067,-175.658492 c 0,-8.584139 -0.42921,-9.013351 -9.01328,-9.013351 -7.47069,0 -9.15834,1.023686 -9.86075,5.981561 -1.4583,10.292887 1.34918,13.733925 10.48684,12.853279 7.71459,-0.743917 8.38719,-1.531056 8.38719,-9.821489 z"
       id="path4138"
       inkscape:connector-curvature="0"
       sodipodi:nodetypes="cssssssscccssscssssssssscssscccssssssssccsssss" />
  </g>
</svg>
