<?xml version="1.0" encoding="UTF-8" standalone="no"?>
<!-- Created with Inkscape (http://www.inkscape.org/) -->

<svg
   xmlns:dc="http://purl.org/dc/elements/1.1/"
   xmlns:cc="http://creativecommons.org/ns#"
   xmlns:rdf="http://www.w3.org/1999/02/22-rdf-syntax-ns#"
   xmlns:svg="http://www.w3.org/2000/svg"
   xmlns="http://www.w3.org/2000/svg"
   xmlns:sodipodi="http://sodipodi.sourceforge.net/DTD/sodipodi-0.dtd"
   xmlns:inkscape="http://www.inkscape.org/namespaces/inkscape"
   id="svg2"
   version="1.1"
   inkscape:version="0.91 r13725"
   width="512"
   height="512"
   viewBox="0 0 512 512"
   sodipodi:docname="python.svg">
  <metadata
     id="metadata8">
    <rdf:RDF>
      <cc:Work
         rdf:about="">
        <dc:format>image/svg+xml</dc:format>
        <dc:type
           rdf:resource="http://purl.org/dc/dcmitype/StillImage" />
        <dc:title></dc:title>
      </cc:Work>
    </rdf:RDF>
  </metadata>
  <defs
     id="defs6">
    <linearGradient
       y2="160"
       x2="160"
       y1="120"
       x1="135"
       gradientTransform="matrix(0.05622958,0,0,0.05622958,0.07160145,-0.0527796)"
       gradientUnits="userSpaceOnUse"
       id="linearGradient3102-2">
      <stop
         style="stop-color:#eff7fc"
         id="stop12" />
      <stop
         offset="1"
         style="stop-color:#fff"
         id="stop14" />
    </linearGradient>
  </defs>
  <sodipodi:namedview
     pagecolor="#ffffff"
     bordercolor="#666666"
     borderopacity="1"
     objecttolerance="10"
     gridtolerance="10"
     guidetolerance="10"
     inkscape:pageopacity="0"
     inkscape:pageshadow="2"
     inkscape:window-width="1366"
     inkscape:window-height="713"
     id="namedview4"
     showgrid="false"
     inkscape:zoom="0.83911111"
     inkscape:cx="-96.738293"
     inkscape:cy="58.19726"
     inkscape:window-x="0"
     inkscape:window-y="26"
     inkscape:window-maximized="1"
     inkscape:current-layer="layer2"
     showguides="true"
     inkscape:guide-bbox="true" />
  <g
     inkscape:groupmode="layer"
     id="layer3"
     inkscape:label="Layer 3"
     transform="translate(0,230.75)"
     style="display:inline">
    <path
       style="display:inline;fill:#2b2b2b;fill-opacity:1;fill-rule:evenodd;stroke:none;stroke-width:0.9919042px;stroke-linecap:butt;stroke-linejoin:miter;stroke-opacity:1"
       d="m 99.367208,-177.82053 c 92.460142,-30.57262 219.305282,-30.57262 312.736242,0 22.10299,7.23266 42.46686,26.89673 49.37941,48.91534 27.0337,86.111274 27.67678,230.05444 0,309.79656 -7.56841,21.80598 -27.12464,42.15474 -49.37941,48.91515 -93.43096,28.38212 -220.2761,28.79975 -312.736242,0 -22.20579,-6.91663 -42.155178,-26.99494 -49.379409,-48.91515 -26.280504,-79.74212 -27.017744,-223.685286 0,-309.79656 6.908801,-22.01974 27.299341,-41.61422 49.379409,-48.91534 z"
       id="path4152"
       inkscape:connector-curvature="0"
       sodipodi:nodetypes="sssssssss" />
  </g>
  <g
     inkscape:groupmode="layer"
     id="layer2"
     inkscape:label="Layer 2"
     transform="translate(0,230.75)">
    <path
       inkscape:connector-curvature="0"
       d="m 262.8021,-85.829306 c -37.66666,0 -56.5,9.416667 -56.5,25.895833 l 0,21.187499 56.5,0 0,9.416666 -77.6875,0 c -18.25891,0 -35.3125,18.833333 -35.3125,56.499998 0,37.666666 17.05359,56.499998 35.3125,56.499998 l 11.77084,0 0,-32.958332 c 0,-15.650499 12.5995,-28.249999 28.25,-28.249999 l 65.91666,0 c 15.6505,0 28.25,-12.5994993 28.25,-28.2499988 l 0,-54.1458312 c 0,-16.479166 -18.83333,-25.895833 -56.5,-25.895833 z"
       style="opacity:1;fill:#4085b0;fill-opacity:1;stroke:none"
       id="path37" />
    <path
       inkscape:connector-curvature="0"
       d="m 262.77385,140.17069 c 37.66667,0 56.5,-9.41667 56.5,-25.89584 l 0,-21.187495 -56.5,0 0,-9.416667 77.6875,0 c 18.25892,0 35.34075,-18.833332 35.34075,-56.499998 0,-37.666665 -17.08183,-56.499998 -35.34075,-56.499998 l -11.77083,0 0,32.9583325 c 0,15.6504995 -12.5995,28.2499995 -28.25,28.2499995 l -65.91667,0 c -15.6505,0 -28.25,12.599499 -28.25,28.249999 l 0,54.145827 c 0,16.47917 18.83334,25.89584 56.5,25.89584 z"
       style="opacity:1;fill:#f9f747;fill-opacity:1;stroke:none"
       id="path39" />
  </g>
</svg>
