<?xml version="1.0" encoding="UTF-8" standalone="no"?>
<!-- Created with Inkscape (http://www.inkscape.org/) -->

<svg
   xmlns:dc="http://purl.org/dc/elements/1.1/"
   xmlns:cc="http://creativecommons.org/ns#"
   xmlns:rdf="http://www.w3.org/1999/02/22-rdf-syntax-ns#"
   xmlns:svg="http://www.w3.org/2000/svg"
   xmlns="http://www.w3.org/2000/svg"
   xmlns:sodipodi="http://sodipodi.sourceforge.net/DTD/sodipodi-0.dtd"
   xmlns:inkscape="http://www.inkscape.org/namespaces/inkscape"
   id="svg2"
   version="1.1"
   inkscape:version="0.91 r13725"
   width="512"
   height="512"
   viewBox="0 0 512 512"
   sodipodi:docname="qbittorrent.svg">
  <metadata
     id="metadata8">
    <rdf:RDF>
      <cc:Work
         rdf:about="">
        <dc:format>image/svg+xml</dc:format>
        <dc:type
           rdf:resource="http://purl.org/dc/dcmitype/StillImage" />
        <dc:title />
      </cc:Work>
    </rdf:RDF>
  </metadata>
  <defs
     id="defs6">
    <linearGradient
       y2="160"
       x2="160"
       y1="120"
       x1="135"
       gradientTransform="matrix(0.05622958,0,0,0.05622958,0.07160145,-0.0527796)"
       gradientUnits="userSpaceOnUse"
       id="linearGradient3102-2">
      <stop
         style="stop-color:#eff7fc"
         id="stop12" />
      <stop
         offset="1"
         style="stop-color:#fff"
         id="stop14" />
    </linearGradient>
  </defs>
  <sodipodi:namedview
     pagecolor="#ffffff"
     bordercolor="#666666"
     borderopacity="1"
     objecttolerance="10"
     gridtolerance="10"
     guidetolerance="10"
     inkscape:pageopacity="0"
     inkscape:pageshadow="2"
     inkscape:window-width="1366"
     inkscape:window-height="713"
     id="namedview4"
     showgrid="false"
     inkscape:zoom="0.41955556"
     inkscape:cx="-213.15391"
     inkscape:cy="108.9611"
     inkscape:window-x="0"
     inkscape:window-y="26"
     inkscape:window-maximized="1"
     inkscape:current-layer="layer3"
     showguides="true"
     inkscape:guide-bbox="true" />
  <g
     inkscape:groupmode="layer"
     id="layer3"
     inkscape:label="Layer 3"
     transform="translate(0,230.75)"
     style="display:inline">
    <path
       style="display:inline;fill:#0577c7;fill-opacity:1;fill-rule:evenodd;stroke:none;stroke-width:0.9919042px;stroke-linecap:butt;stroke-linejoin:miter;stroke-opacity:1"
       d="m 99.367206,-177.82053 c 92.460144,-30.57262 219.305274,-30.57262 312.736244,0 22.10299,7.23266 42.46686,26.89673 49.37941,48.91534 27.0337,86.111267 27.67678,230.05443 0,309.79656 -7.56841,21.80598 -27.12464,42.15474 -49.37941,48.91515 -93.43097,28.38212 -220.2761,28.79974 -312.736244,0 -22.205792,-6.91663 -42.155174,-26.99494 -49.379408,-48.91515 -26.2805,-79.74213 -27.017745,-223.685293 0,-309.79656 6.908802,-22.01974 27.299341,-41.61422 49.379408,-48.91534 z"
       id="path4152"
       inkscape:connector-curvature="0"
       sodipodi:nodetypes="sssssssss" />
  </g>
  <g
     inkscape:groupmode="layer"
     id="layer2"
     inkscape:label="Layer 2"
     transform="translate(0,230.75)">
    <path
       style="fill:#ffffff;fill-opacity:1"
       d="M 201.54497,90.40953 178.96435,89.24431 C 144.47601,87.464652 127.95185,77.076 115.15743,49.129314 c -13.78451,-30.10932 1.03977,-67.76977 32.79117,-83.304256 12.30306,-6.019228 14.51756,-6.327341 47.84538,-6.655041 19.21987,-0.189274 36.25151,0.1582 37.84809,0.770283 l 2.90285,172.24345 -35.18932,0.24766 z m 0.24926,-96.8487177 -17.24564,-9.421e-4 c -21.52858,-0.00127 -29.87379,4.66803 -37.68252,16.4109904 -4.25409,6.3974004 -3.48198,23.1580304 -0.1323,29.0886464 7.05676,12.494127 18.3871,16.332172 38.50526,16.341871 l 17.56369,0.0094 z m 61.33606,-75.2922743 c 0,0 23.44871,-1.93051 34.45133,-0.865391 l 1.06064,41.915936 19.19352,0.247658 c 21.79174,0.281559 33.54369,3.429644 45.68354,12.238747 32.21782,23.378381 36.49386,67.130191 9.48292,97.028106 -15.92519,17.627247 -21.28633,19.20501 -68.1503,20.056747 l -41.20963,0.748627 z m 78.97217,132.28062 c 12.92016,-7.98505 17.87324,-26.493602 10.76732,-40.234966 -5.97359,-11.551613 -15.65691,-16.512313 -33.44496,-17.1336251 -8.75415,-0.3060412 -20.51283,-0.6205579 -21.88719,-0.094167 l -0.48205,62.1162871 c 0.12986,0.931308 10.47081,0.206224 19.94921,0.206224 13.69922,0 18.84623,-0.996847 25.09769,-4.860506 z"
       id="path4149"
       inkscape:connector-curvature="0"
       sodipodi:nodetypes="csssscccccsssccccccsssscccssccscc" />
  </g>
</svg>
