<?xml version="1.0" encoding="UTF-8" standalone="no"?>
<!-- Created with Inkscape (http://www.inkscape.org/) -->

<svg
   xmlns:dc="http://purl.org/dc/elements/1.1/"
   xmlns:cc="http://creativecommons.org/ns#"
   xmlns:rdf="http://www.w3.org/1999/02/22-rdf-syntax-ns#"
   xmlns:svg="http://www.w3.org/2000/svg"
   xmlns="http://www.w3.org/2000/svg"
   xmlns:sodipodi="http://sodipodi.sourceforge.net/DTD/sodipodi-0.dtd"
   xmlns:inkscape="http://www.inkscape.org/namespaces/inkscape"
   id="svg2"
   version="1.1"
   inkscape:version="0.91 r13725"
   width="512"
   height="512"
   viewBox="0 0 512 512"
   sodipodi:docname="rhythmbox.svg">
  <metadata
     id="metadata8">
    <rdf:RDF>
      <cc:Work
         rdf:about="">
        <dc:format>image/svg+xml</dc:format>
        <dc:type
           rdf:resource="http://purl.org/dc/dcmitype/StillImage" />
        <dc:title></dc:title>
      </cc:Work>
    </rdf:RDF>
  </metadata>
  <defs
     id="defs6">
    <linearGradient
       y2="160"
       x2="160"
       y1="120"
       x1="135"
       gradientTransform="matrix(0.05622958,0,0,0.05622958,0.07160145,-0.0527796)"
       gradientUnits="userSpaceOnUse"
       id="linearGradient3102-2">
      <stop
         style="stop-color:#eff7fc"
         id="stop12" />
      <stop
         offset="1"
         style="stop-color:#fff"
         id="stop14" />
    </linearGradient>
  </defs>
  <sodipodi:namedview
     pagecolor="#ffffff"
     bordercolor="#666666"
     borderopacity="1"
     objecttolerance="10"
     gridtolerance="10"
     guidetolerance="10"
     inkscape:pageopacity="0"
     inkscape:pageshadow="2"
     inkscape:window-width="1366"
     inkscape:window-height="713"
     id="namedview4"
     showgrid="false"
     inkscape:zoom="0.29667058"
     inkscape:cx="-995.18147"
     inkscape:cy="-95.63501"
     inkscape:window-x="0"
     inkscape:window-y="26"
     inkscape:window-maximized="1"
     inkscape:current-layer="layer5"
     showguides="true"
     inkscape:guide-bbox="true" />
  <g
     inkscape:groupmode="layer"
     id="layer3"
     inkscape:label="Layer 3"
     transform="translate(0,230.75)"
     style="display:inline">
    <path
       style="display:inline;fill:#cfcfcf;fill-opacity:1;fill-rule:evenodd;stroke:none;stroke-width:0.9919042px;stroke-linecap:butt;stroke-linejoin:miter;stroke-opacity:1"
       d="m 99.367208,-177.82053 c 92.460142,-30.57262 219.305282,-30.57262 312.736242,0 22.10299,7.23266 42.46686,26.89673 49.37941,48.91534 27.0337,86.111274 27.67678,230.05444 0,309.79656 -7.56841,21.80598 -27.12464,42.15474 -49.37941,48.91515 -93.43096,28.38212 -220.2761,28.79975 -312.736242,0 -22.20579,-6.91663 -42.155178,-26.99494 -49.379409,-48.91515 -26.280504,-79.74212 -27.017744,-223.685286 0,-309.79656 6.908801,-22.01974 27.299341,-41.61422 49.379409,-48.91534 z"
       id="path4152"
       inkscape:connector-curvature="0"
       sodipodi:nodetypes="sssssssss" />
  </g>
  <g
     inkscape:groupmode="layer"
     id="layer5"
     inkscape:label="Layer 4"
     transform="translate(0,464)">
    <circle
       style="opacity:1;fill:#ffeb00;fill-opacity:1;stroke:none;stroke-width:5;stroke-miterlimit:4;stroke-dasharray:none;stroke-opacity:1"
       id="path4722"
       cx="257.34695"
       cy="-206.58383"
       r="90.463226" />
  </g>
  <g
     inkscape:groupmode="layer"
     id="layer2"
     inkscape:label="Layer 2"
     transform="translate(0,230.75)">
    <path
       style="fill:#000000"
       d="m 245.94087,149.1103 c -15.26004,-2.09511 -29.77415,-6.80307 -42.55509,-13.80351 l -7.02365,-3.84708 -13.221,-0.4407 c -12.54451,-0.4181 -13.41908,-0.55653 -17.09198,-2.71615 -7.71604,-4.53591 -9.76317,-9.75924 -9.76317,-24.91104 l 0,-10.865604 -5.20965,-10.308048 c -5.72416,-11.326084 -8.79078,-20.041115 -11.4776,-32.618391 -2.37441,-11.114962 -2.58738,-34.425449 -0.4133,-45.2392658 2.61815,-13.0224021 5.50087,-21.5152932 11.28947,-33.2604192 l 5.70149,-11.568374 0.26141,-12.462205 c 0.25632,-12.223209 0.30934,-12.539609 2.76216,-16.504403 1.54698,-2.500501 4.04248,-4.996012 6.54304,-6.543076 3.96477,-2.452759 4.28121,-2.505681 16.50442,-2.762097 l 12.46213,-0.261783 11.56837,-5.701509 c 19.28484,-9.504712 33.18953,-12.724459 54.94977,-12.724459 21.76025,0 35.66495,3.219747 54.94978,12.724459 l 11.56838,5.701509 12.46214,0.261783 c 12.22319,0.256134 12.53964,0.309809 16.5044,2.762097 2.50056,1.547064 4.99606,4.042575 6.54305,6.543076 2.45002,3.960274 2.50644,4.295224 2.77928,16.504403 l 0.27845,12.462205 5.67949,11.568374 c 9.50677,19.3640563 12.71213,33.2195508 12.71213,54.949733 0,21.760221 -3.21982,35.664964 -12.72439,54.949732 l -5.70151,11.568375 -0.26141,12.462208 c -0.25642,12.22321 -0.30934,12.53961 -2.76214,16.5044 -1.54767,2.50163 -4.04185,4.99535 -6.54422,6.54308 -3.94481,2.43967 -4.36755,2.51246 -17.33073,2.98244 l -13.28727,0.48119 -9.85889,5.10732 c -16.87407,8.7414 -31.47661,12.39054 -51.70139,12.92014 -7.04432,0.18456 -15.41073,-0.0188 -18.59203,-0.45859 z m 36.94097,-39.05863 c 30.67248,-7.96707 54.10796,-31.397051 62.43414,-62.419505 1.8734,-6.979916 2.13326,-9.558576 2.13326,-21.169137 0,-11.722431 -0.25039,-14.15551 -2.20821,-21.464726 -6.7163,-25.073475 -23.43704,-45.484853 -46.41616,-56.6614 -10.00215,-4.864744 -17.6704,-7.050352 -29.02596,-8.273012 -15.88606,-1.710443 -31.33353,1.057774 -46.16847,8.273012 -17.90043,8.706367 -31.40931,22.215234 -40.11566,40.115658 -15.19824,31.247889 -10.4938,67.194977 12.31128,94.071367 12.49529,14.726065 30.87006,25.265203 50.66042,29.057293 9.35797,1.79312 26.35346,1.07886 36.39536,-1.52955 z M 255.03031,61.830426 c -22.90168,-3.044879 -40.09694,-27.530566 -34.70205,-49.41471 5.994,-24.31468 29.77983,-38.364535 52.88093,-31.235836 26.37343,8.138448 37.71215,38.932077 22.81969,61.97353 -8.68258,13.433722 -24.8929,20.818272 -40.99857,18.677016 z"
       id="path4138"
       inkscape:connector-curvature="0"
       sodipodi:nodetypes="cscssscsssscsssscssscsssscssscsssscsscssssssssssssssss" />
  </g>
</svg>
