<?xml version="1.0" encoding="UTF-8" standalone="no"?>
<!-- Created with Inkscape (http://www.inkscape.org/) -->

<svg
   xmlns:dc="http://purl.org/dc/elements/1.1/"
   xmlns:cc="http://creativecommons.org/ns#"
   xmlns:rdf="http://www.w3.org/1999/02/22-rdf-syntax-ns#"
   xmlns:svg="http://www.w3.org/2000/svg"
   xmlns="http://www.w3.org/2000/svg"
   xmlns:sodipodi="http://sodipodi.sourceforge.net/DTD/sodipodi-0.dtd"
   xmlns:inkscape="http://www.inkscape.org/namespaces/inkscape"
   id="svg2"
   version="1.1"
   inkscape:version="0.91 r13725"
   width="512"
   height="512"
   viewBox="0 0 512 512"
   sodipodi:docname="smplayer.svg">
  <metadata
     id="metadata8">
    <rdf:RDF>
      <cc:Work
         rdf:about="">
        <dc:format>image/svg+xml</dc:format>
        <dc:type
           rdf:resource="http://purl.org/dc/dcmitype/StillImage" />
        <dc:title></dc:title>
      </cc:Work>
    </rdf:RDF>
  </metadata>
  <defs
     id="defs6">
    <linearGradient
       y2="160"
       x2="160"
       y1="120"
       x1="135"
       gradientTransform="matrix(0.05622958,0,0,0.05622958,0.07160145,-0.0527796)"
       gradientUnits="userSpaceOnUse"
       id="linearGradient3102-2">
      <stop
         style="stop-color:#eff7fc"
         id="stop12" />
      <stop
         offset="1"
         style="stop-color:#fff"
         id="stop14" />
    </linearGradient>
  </defs>
  <sodipodi:namedview
     pagecolor="#ffffff"
     bordercolor="#666666"
     borderopacity="1"
     objecttolerance="10"
     gridtolerance="10"
     guidetolerance="10"
     inkscape:pageopacity="0"
     inkscape:pageshadow="2"
     inkscape:window-width="1366"
     inkscape:window-height="713"
     id="namedview4"
     showgrid="false"
     inkscape:zoom="0.20977778"
     inkscape:cx="-1639.2277"
     inkscape:cy="155.25374"
     inkscape:window-x="0"
     inkscape:window-y="26"
     inkscape:window-maximized="1"
     inkscape:current-layer="layer2"
     showguides="true"
     inkscape:guide-bbox="true" />
  <g
     inkscape:groupmode="layer"
     id="layer3"
     inkscape:label="Layer 3"
     transform="translate(0,230.75)"
     style="display:inline">
    <path
       style="display:inline;fill:#47167d;fill-opacity:1;fill-rule:evenodd;stroke:none;stroke-width:0.9919042px;stroke-linecap:butt;stroke-linejoin:miter;stroke-opacity:1"
       d="m 99.367208,-177.82053 c 92.460142,-30.57262 219.305282,-30.57262 312.736242,0 22.10299,7.23266 42.46686,26.89673 49.37941,48.91534 27.0337,86.111274 27.67678,230.05444 0,309.79656 -7.56841,21.80598 -27.12464,42.15474 -49.37941,48.91515 -93.43096,28.38212 -220.2761,28.79975 -312.736242,0 -22.20579,-6.91663 -42.155178,-26.99494 -49.379409,-48.91515 -26.280504,-79.74212 -27.017744,-223.685286 0,-309.79656 6.908801,-22.01974 27.299341,-41.61422 49.379409,-48.91534 z"
       id="path4152"
       inkscape:connector-curvature="0"
       sodipodi:nodetypes="sssssssss" />
  </g>
  <g
     inkscape:groupmode="layer"
     id="layer4"
     inkscape:label="Layer 4"
     transform="translate(0,464)">
    <path
       style="fill:#ffffff;fill-opacity:0.66666667;fill-rule:evenodd;stroke:none;stroke-width:1px;stroke-linecap:butt;stroke-linejoin:miter;stroke-opacity:1"
       d="m 148.56731,-171.63519 c -1.1259,3.40376 -0.75408,42.29877 -0.75408,42.29877 0.36847,19.76662 56.99508,18.02412 78.53499,14.03602 l 36.09094,-86.77322 c -22.21778,-17.47823 -64.99244,-16.05945 -74.3062,-41.52991 -2.32609,-16.16777 2.94022,-30.30143 28.29875,-30.7558 21.8905,2.38961 36.66789,9.29688 34.65161,28.08349 4.33443,4.14984 15.91121,3.31758 20.21,-0.29559 4.41835,-3.71372 -5.42461,-35.12218 -8.14006,-40.45346 -6.41961,-12.60366 -33.80226,-13.70765 -49.26546,-14.76435 -13.79783,-0.9429 -33.81457,3.01586 -46.12205,12.84001 -18.81852,15.02152 -27.60418,46.61376 -11.81747,73.30866 15.79772,26.16775 72.60905,32.63054 74.9021,49.02434 1.09371,8.17841 2.0728,30.09862 -35.37056,27.20522 -19.89234,-4.11927 -25.55473,-12.22019 -28.06205,-32.2248 -4.69657,-2.33933 -16.84637,-1.27569 -18.85041,4e-4 z"
       id="path4140"
       inkscape:connector-curvature="0"
       sodipodi:nodetypes="cccccccsssscccccc" />
  </g>
  <g
     inkscape:groupmode="layer"
     id="layer2"
     inkscape:label="Layer 2"
     transform="translate(0,230.75)">
    <path
       style="fill:#ffffff;fill-opacity:1"
       d="m 229.63094,129.96585 c -11.96736,6.74723 -24.44224,-11.55896 -12.08955,-22.15064 16.34222,-14.760813 43.35499,-56.727411 43.10241,-86.477014 -0.18155,-21.38195385 -31.00174,-69.556677 -48.92546,-88.007505 -5.96424,-10.437527 5.32604,-24.034911 16.55859,-17.697871 l 162.89078,97.156455 c 7.24857,3.870062 8.47009,16.01596 0.32318,20.012959 z m 52.21882,-112.920901 18.53295,34.544005 7.84305,-0.168559 16.27132,-34.172328 4.5661,34.456335 12.37604,-0.08475 -6.30289,-62.74579 -10.38041,1.004005 -19.27066,39.807921 -21.17601,-40.936226 -10.27091,0.226 -5.66036,63.260505 9.87733,-0.366308 z"
       id="path4138"
       inkscape:connector-curvature="0"
       sodipodi:nodetypes="ccsccccccccccccccccccc" />
  </g>
</svg>
