<?xml version="1.0" encoding="UTF-8" standalone="no"?>
<!-- Created with Inkscape (http://www.inkscape.org/) -->

<svg
   xmlns:dc="http://purl.org/dc/elements/1.1/"
   xmlns:cc="http://creativecommons.org/ns#"
   xmlns:rdf="http://www.w3.org/1999/02/22-rdf-syntax-ns#"
   xmlns:svg="http://www.w3.org/2000/svg"
   xmlns="http://www.w3.org/2000/svg"
   xmlns:sodipodi="http://sodipodi.sourceforge.net/DTD/sodipodi-0.dtd"
   xmlns:inkscape="http://www.inkscape.org/namespaces/inkscape"
   id="svg2"
   version="1.1"
   inkscape:version="0.91 r13725"
   width="512"
   height="512"
   viewBox="0 0 512 512"
   sodipodi:docname="steam.svg">
  <metadata
     id="metadata8">
    <rdf:RDF>
      <cc:Work
         rdf:about="">
        <dc:format>image/svg+xml</dc:format>
        <dc:type
           rdf:resource="http://purl.org/dc/dcmitype/StillImage" />
        <dc:title></dc:title>
      </cc:Work>
    </rdf:RDF>
  </metadata>
  <defs
     id="defs6">
    <linearGradient
       y2="160"
       x2="160"
       y1="120"
       x1="135"
       gradientTransform="matrix(0.05622958,0,0,0.05622958,0.07160145,-0.0527796)"
       gradientUnits="userSpaceOnUse"
       id="linearGradient3102-2">
      <stop
         style="stop-color:#eff7fc"
         id="stop12" />
      <stop
         offset="1"
         style="stop-color:#fff"
         id="stop14" />
    </linearGradient>
  </defs>
  <sodipodi:namedview
     pagecolor="#ffffff"
     bordercolor="#666666"
     borderopacity="1"
     objecttolerance="10"
     gridtolerance="10"
     guidetolerance="10"
     inkscape:pageopacity="0"
     inkscape:pageshadow="2"
     inkscape:window-width="1366"
     inkscape:window-height="713"
     id="namedview4"
     showgrid="false"
     inkscape:zoom="0.29667058"
     inkscape:cx="-1109.576"
     inkscape:cy="2.5706497"
     inkscape:window-x="0"
     inkscape:window-y="26"
     inkscape:window-maximized="1"
     inkscape:current-layer="layer3"
     showguides="true"
     inkscape:guide-bbox="true" />
  <g
     inkscape:groupmode="layer"
     id="layer3"
     inkscape:label="Layer 3"
     transform="translate(0,230.75)"
     style="display:inline">
    <path
       style="display:inline;fill:#023250;fill-opacity:1;fill-rule:evenodd;stroke:none;stroke-width:0.9919042px;stroke-linecap:butt;stroke-linejoin:miter;stroke-opacity:1"
       d="m 99.367208,-177.82053 c 92.460142,-30.57262 219.305282,-30.57262 312.736242,0 22.10299,7.23266 42.46686,26.89673 49.37941,48.91534 27.0337,86.111274 27.67678,230.05444 0,309.79656 -7.56841,21.80598 -27.12464,42.15474 -49.37941,48.91515 -93.43096,28.38212 -220.2761,28.79975 -312.736242,0 -22.20579,-6.91663 -42.155178,-26.99494 -49.379409,-48.91515 -26.280504,-79.74212 -27.017744,-223.685286 0,-309.79656 6.908801,-22.01974 27.299341,-41.61422 49.379409,-48.91534 z"
       id="path4152"
       inkscape:connector-curvature="0"
       sodipodi:nodetypes="sssssssss" />
  </g>
  <g
     inkscape:groupmode="layer"
     id="layer2"
     inkscape:label="Layer 2"
     transform="translate(0,230.75)">
    <g
       transform="matrix(9.4166667,0,0,9.4166663,22.83276,-181.36063)"
       id="g43">
      <path
         inkscape:connector-curvature="0"
         d="m 26,18 0,9.625 3.684,0.957 4.287,-6.742 -3.625,0 L 26,18"
         style="fill:#f9f9f9;fill-opacity:1;fill-rule:nonzero;stroke:none"
         id="path45" />
      <path
         inkscape:connector-curvature="0"
         d="m 31,11 a 6,6 0 0 0 -6,6 6,6 0 0 0 6,6 6,6 0 0 0 6,-6 6,6 0 0 0 -6,-6 z m 0,2 a 4,4 0 0 1 4,4 4,4 0 0 1 -4,4 4,4 0 0 1 -4,-4 4,4 0 0 1 4,-4 z m 0,2 a 2,2 0 0 0 -2,2 2,2 0 0 0 2,2 2,2 0 0 0 2,-2 2,2 0 0 0 -2,-2 z"
         style="opacity:1;fill:#f9f9f9;fill-opacity:1;stroke:none"
         id="path47" />
      <path
         inkscape:connector-curvature="0"
         d="m 15,21 a 4,4 0 0 0 -4,4 4,4 0 0 0 4,4 4,4 0 0 0 4,-4 4,4 0 0 0 -4,-4 z m 0,1 a 3,3 0 0 1 3,3 3,3 0 0 1 -3,3 3,3 0 0 1 -3,-3 3,3 0 0 1 3,-3 z"
         style="opacity:1;fill:#f9f9f9;fill-opacity:1;stroke:none"
         id="path49" />
      <rect
         transform="matrix(0.89310558,0.44984711,-0.45815213,0.8888738,0,0)"
         y="13.579"
         x="22.784"
         height="3.964"
         width="17.423"
         rx="1.982"
         style="opacity:1;fill:#f9f9f9;fill-opacity:1;stroke:none"
         id="rect51" />
      <path
         inkscape:connector-curvature="0"
         d="m 27,27 a 4,4 0 0 0 -4,4 4,4 0 0 0 4,4 4,4 0 0 0 4,-4 4,4 0 0 0 -4,-4 z m 0,1 a 3,3 0 0 1 3,3 3,3 0 0 1 -3,3 3,3 0 0 1 -3,-3 3,3 0 0 1 3,-3 z"
         style="opacity:1;fill:#f9f9f9;fill-opacity:1;stroke:none"
         id="path53" />
    </g>
  </g>
</svg>
