<?xml version="1.0" encoding="UTF-8" standalone="no"?>
<svg
   xmlns:dc="http://purl.org/dc/elements/1.1/"
   xmlns:cc="http://creativecommons.org/ns#"
   xmlns:rdf="http://www.w3.org/1999/02/22-rdf-syntax-ns#"
   xmlns:svg="http://www.w3.org/2000/svg"
   xmlns="http://www.w3.org/2000/svg"
   xmlns:xlink="http://www.w3.org/1999/xlink"
   viewBox="0 0 512 512"
   height="512"
   width="512"
   version="1.1"
   id="svg2">
  <metadata
     id="metadata8">
    <rdf:RDF>
      <cc:Work
         rdf:about="">
        <dc:format>image/svg+xml</dc:format>
        <dc:type
           rdf:resource="http://purl.org/dc/dcmitype/StillImage" />
        <dc:title></dc:title>
      </cc:Work>
    </rdf:RDF>
  </metadata>
  <defs
     id="defs6">
    <linearGradient
       id="linearGradient3102-2"
       gradientUnits="userSpaceOnUse"
       gradientTransform="matrix(0.05622958,0,0,0.05622958,0.07160145,-0.0527796)"
       x1="135"
       y1="120"
       x2="160"
       y2="160">
      <stop
         id="stop12"
         style="stop-color:#eff7fc" />
      <stop
         id="stop14"
         style="stop-color:#fff"
         offset="1" />
    </linearGradient>
    <linearGradient
       gradientTransform="matrix(0,0.54990985,-0.54990985,0,37.847987,244.26246)"
       gradientUnits="userSpaceOnUse"
       x2="47"
       x1="1"
       id="linearGradient4910">
      <stop
         id="stop24"
         style="stop-color:#8a8a8a;stop-opacity:1" />
      <stop
         id="stop26"
         style="stop-color:#808080;stop-opacity:1"
         offset="1" />
    </linearGradient>
    <linearGradient
       gradientUnits="userSpaceOnUse"
       y2="1"
       x2="0"
       y1="47"
       id="linearGradient4363"
       xlink:href="#linearGradient4389"
       gradientTransform="matrix(0.54990985,0,0,0.54990985,11.452315,244.26246)" />
    <linearGradient
       id="linearGradient4389">
      <stop
         id="stop12-7"
         style="stop-color:#666;stop-opacity:1" />
      <stop
         id="stop14-5"
         style="stop-color:#707070;stop-opacity:1"
         offset="1" />
    </linearGradient>
    <linearGradient
       gradientUnits="userSpaceOnUse"
       y2="1"
       x2="0"
       y1="47"
       id="linearGradient4403"
       xlink:href="#linearGradient4397"
       gradientTransform="matrix(0.54990985,0,0,0.54990985,11.452315,244.26246)" />
    <linearGradient
       id="linearGradient4397">
      <stop
         id="stop7"
         style="stop-color:#5c5c5c;stop-opacity:1" />
      <stop
         id="stop9"
         style="stop-color:#666;stop-opacity:1"
         offset="1" />
    </linearGradient>
    <linearGradient
       gradientUnits="userSpaceOnUse"
       y2="1"
       x2="0"
       y1="47"
       id="linearGradient4395"
       xlink:href="#linearGradient4389"
       gradientTransform="matrix(0.54990985,0,0,0.54990985,11.452315,244.26246)" />
    <linearGradient
       gradientUnits="userSpaceOnUse"
       y2="1"
       x2="0"
       y1="47"
       id="linearGradient4387"
       xlink:href="#linearGradient4397"
       gradientTransform="matrix(0.54990985,0,0,0.54990985,11.452315,244.26246)" />
    <linearGradient
       gradientUnits="userSpaceOnUse"
       y2="1"
       x2="0"
       y1="47"
       id="linearGradient4379"
       xlink:href="#linearGradient4389"
       gradientTransform="matrix(0.54990985,0,0,0.54990985,11.452315,244.26246)" />
    <radialGradient
       r="0.56400001"
       cy="5.927"
       cx="6.7729998"
       gradientTransform="matrix(1.2459588,0,0,1.2459588,16.210857,249.02114)"
       gradientUnits="userSpaceOnUse"
       id="radialGradient3427"
       xlink:href="#radial0" />
    <radialGradient
       gradientTransform="matrix(3.543307,0,0,3.543307,1.47638e-7,3.77575e-4)"
       r="0.56400001"
       cy="5.927"
       cx="6.7729998"
       gradientUnits="userSpaceOnUse"
       id="radial0">
      <stop
         id="stop17"
         style="stop-color:#8eb0c7;stop-opacity:1" />
      <stop
         id="stop19"
         style="stop-color:#8eb0c7;stop-opacity:0"
         offset="1" />
    </radialGradient>
    <radialGradient
       xlink:href="#radial0"
       gradientTransform="matrix(0.35163727,0,0,0.35163727,22.540326,252.08305)"
       r="1"
       cy="17.292"
       cx="6"
       gradientUnits="userSpaceOnUse"
       id="radial1" />
    <radialGradient
       gradientTransform="matrix(3.543307,0,0,3.543307,1.47638e-7,3.77575e-4)"
       r="0.56400001"
       cy="5.927"
       cx="6.7729998"
       gradientUnits="userSpaceOnUse"
       id="radialGradient4251">
      <stop
         id="stop4253"
         style="stop-color:#8eb0c7;stop-opacity:1" />
      <stop
         id="stop4255"
         style="stop-color:#8eb0c7;stop-opacity:0"
         offset="1" />
    </radialGradient>
    <linearGradient
       gradientUnits="userSpaceOnUse"
       y2="1"
       x2="0"
       y1="47"
       id="linearGradient4355"
       xlink:href="#linearGradient4397"
       gradientTransform="matrix(0.54990985,0,0,0.54990985,11.452315,244.26246)" />
    <radialGradient
       gradientTransform="matrix(1,0,0,0.43493202,0.125,17.177001)"
       gradientUnits="userSpaceOnUse"
       xlink:href="#linearGradient6492"
       id="radialGradient6498"
       fy="33.9375"
       fx="23"
       r="18.25"
       cy="33.9375"
       cx="23" />
    <linearGradient
       id="linearGradient6492">
      <stop
         id="stop6494"
         offset="0"
         style="stop-color:black;stop-opacity:1" />
      <stop
         id="stop6496"
         offset="1"
         style="stop-color:black;stop-opacity:0" />
    </linearGradient>
    <radialGradient
       gradientTransform="matrix(1.77275,0,0,1.29668,-16.3404,-6.615959)"
       gradientUnits="userSpaceOnUse"
       xlink:href="#linearGradient6500"
       id="radialGradient4354"
       fy="22.300018"
       fx="18.557627"
       r="19.2292"
       cy="22.300018"
       cx="18.557627" />
    <linearGradient
       id="linearGradient6500">
      <stop
         id="stop6502"
         offset="0"
         style="stop-color:#857c63;stop-opacity:1" />
      <stop
         id="stop6504"
         offset="1"
         style="stop-color:#221f19;stop-opacity:1" />
    </linearGradient>
    <linearGradient
       gradientTransform="translate(-3.836549,0.345971)"
       gradientUnits="userSpaceOnUse"
       xlink:href="#linearGradient6492"
       id="linearGradient4351"
       y2="30.293064"
       x2="21.213203"
       y1="28.083355"
       x1="32.350136" />
    <linearGradient
       gradientUnits="userSpaceOnUse"
       xlink:href="#linearGradient8524"
       id="linearGradient8530"
       y2="46.98568"
       x2="39.524544"
       y1="19.110678"
       x1="14.96875" />
    <linearGradient
       id="linearGradient8524">
      <stop
         id="stop8526"
         offset="0"
         style="stop-color:white;stop-opacity:1" />
      <stop
         id="stop8528"
         offset="1"
         style="stop-color:white;stop-opacity:0" />
    </linearGradient>
    <radialGradient
       gradientTransform="matrix(1.684735,0,0,1.684735,-103.39924,-14.483279)"
       gradientUnits="userSpaceOnUse"
       xlink:href="#linearGradient6468"
       id="radialGradient4363"
       fy="19.597878"
       fx="69.473244"
       r="3.5153139"
       cy="19.597878"
       cx="69.473244" />
    <linearGradient
       id="linearGradient6468">
      <stop
         id="stop6470"
         offset="0"
         style="stop-color:white;stop-opacity:1" />
      <stop
         id="stop6472"
         offset="1"
         style="stop-color:#b9b9b0;stop-opacity:1" />
    </linearGradient>
    <radialGradient
       gradientTransform="matrix(0.79751102,-0.46044319,0.53741287,0.93082752,-13.91157,2.5868096)"
       gradientUnits="userSpaceOnUse"
       xlink:href="#linearGradient8542"
       id="radialGradient8548"
       fy="25.271027"
       fx="6.0242186"
       r="4.8310289"
       cy="25.271027"
       cx="6.0242186" />
    <linearGradient
       id="linearGradient8542">
      <stop
         id="stop8544"
         offset="0"
         style="stop-color:#5b676b;stop-opacity:1" />
      <stop
         id="stop8546"
         offset="1"
         style="stop-color:#141718;stop-opacity:1" />
    </linearGradient>
    <linearGradient
       gradientTransform="matrix(0.800389,-0.599481,0.599481,0.800389,-15.2744,7.32784)"
       gradientUnits="userSpaceOnUse"
       xlink:href="#linearGradient8524"
       id="linearGradient6458"
       y2="31.57"
       x2="5.9846287"
       y1="23.362427"
       x1="6.3051529" />
    <radialGradient
       gradientTransform="matrix(1.977732,0,0,1.977732,-115.35781,-20.281056)"
       gradientUnits="userSpaceOnUse"
       xlink:href="#linearGradient6468"
       id="radialGradient6474"
       fy="19.597878"
       fx="69.473244"
       r="3.5153139"
       cy="19.597878"
       cx="69.473244" />
    <linearGradient
       gradientTransform="translate(-49.30496,1.877723)"
       gradientUnits="userSpaceOnUse"
       xlink:href="#linearGradient6951"
       id="linearGradient6957"
       y2="11.182488"
       x2="27.753893"
       y1="19.239889"
       x1="37.017639" />
    <linearGradient
       id="linearGradient6951">
      <stop
         id="stop6953"
         offset="0"
         style="stop-color:#6e3d09;stop-opacity:1" />
      <stop
         id="stop6959"
         offset="0.24242425"
         style="stop-color:#ea8113;stop-opacity:1" />
      <stop
         id="stop6961"
         offset="0.62121212"
         style="stop-color:#5c3307;stop-opacity:1" />
      <stop
         id="stop6955"
         offset="1"
         style="stop-color:#e07c12;stop-opacity:1" />
    </linearGradient>
    <linearGradient
       gradientTransform="translate(-46.40695,-1.802856)"
       gradientUnits="userSpaceOnUse"
       xlink:href="#linearGradient6939"
       id="linearGradient6945"
       y2="33.438831"
       x2="23.109331"
       y1="30.001331"
       x1="19.394735" />
    <linearGradient
       id="linearGradient6939">
      <stop
         id="stop6941"
         offset="0"
         style="stop-color:#bdbdbd;stop-opacity:1" />
      <stop
         id="stop6947"
         offset="0.33333334"
         style="stop-color:#e2e2e2;stop-opacity:1" />
      <stop
         id="stop6949"
         offset="0.66666669"
         style="stop-color:#a3a3a3;stop-opacity:1" />
      <stop
         id="stop6943"
         offset="1"
         style="stop-color:#ddd;stop-opacity:1" />
    </linearGradient>
    <radialGradient
       gradientTransform="matrix(1.572694,0,0,1.532639,-55.36682,-21.35823)"
       gradientUnits="userSpaceOnUse"
       xlink:href="#linearGradient6963"
       id="radialGradient6969"
       fy="35.356506"
       fx="15.415101"
       r="7.5791559"
       cy="35.356506"
       cx="15.415101" />
    <linearGradient
       id="linearGradient6963">
      <stop
         id="stop6965"
         offset="0"
         style="stop-color:#696969;stop-opacity:1" />
      <stop
         id="stop6967"
         offset="1"
         style="stop-color:black;stop-opacity:1" />
    </linearGradient>
    <linearGradient
       gradientTransform="matrix(0.755165,0.395143,-0.395143,0.755165,-25.91245,6.532586)"
       gradientUnits="userSpaceOnUse"
       xlink:href="#linearGradient8524"
       id="linearGradient2452"
       y2="42.282146"
       x2="7.7521091"
       y1="37.752247"
       x1="13.236155" />
    <linearGradient
       gradientUnits="userSpaceOnUse"
       xlink:href="#linearGradient6492"
       id="linearGradient4330"
       y2="30.985245"
       x2="24.328892"
       y1="30.543303"
       x1="26.162951" />
  </defs>
  <g
     style="display:inline"
     transform="translate(0,230.75)"
     id="layer3">
    <path
       id="path4152"
       d="m 100.90188,-187.31324 c 94.50572,-31.24901 224.15717,-31.24901 319.65518,0 22.592,7.39267 43.4064,27.49179 50.47188,49.99754 27.63179,88.016387 28.2891,235.144132 0,316.65046 -7.73585,22.28842 -27.72474,43.08737 -50.47188,49.99735 -95.49801,29.01004 -225.14946,29.4369 -319.65518,0 -22.697068,-7.06966 -43.087814,-27.59218 -50.471873,-49.99735 -26.861931,-81.506328 -27.615482,-228.634073 0,-316.65046 7.061651,-22.50691 27.903308,-42.53489 50.471873,-49.99754 z"
       style="display:inline;fill:#ffc900;fill-opacity:1;fill-rule:evenodd;stroke:none;stroke-width:0.9919042px;stroke-linecap:butt;stroke-linejoin:miter;stroke-opacity:1" />
  </g>
  <g
     style="display:inline"
     transform="translate(0,230.75)"
     id="layer2">
    <g
       style="fill:#000000;fill-opacity:1"
       id="g3"
       transform="matrix(0.50745373,0,0,0.50745373,111.97181,-135.2634)">
      <path
         id="path5"
         transform="matrix(1.970623,0,0,1.970623,-253.86653,-184.84686)"
         d="m 284.52734,144.89844 35.6543,80.32617 c 0.63787,1.43812 2.0004,2.42371 3.56641,2.58203 l 110.80859,11.19727 c 3.38522,0.34202 5.85183,-3.13699 4.41016,-6.21875 l -29.50586,-63.07032 c -0.60083,-1.28335 -1.78427,-2.19736 -3.17774,-2.45312 L 284.52734,144.89844 Z m -0.84179,0.002 -121.75586,22.36328 c -1.39347,0.25576 -2.57742,1.16978 -3.17774,2.45313 l -29.50586,63.06836 c -1.44218,3.08126 1.02494,6.56077 4.41016,6.21875 l 110.80859,-11.19727 c 1.56601,-0.15832 2.92608,-1.14441 3.56446,-2.58203 l 35.65625,-80.32422 z m -5.20117,42.19531 c -0.76455,-0.15128 -1.81874,1.16385 -2.97852,3.98047 L 257.125,235.71875 c -0.62315,1.51373 -2.03947,2.55416 -3.66992,2.69727 l -94.02539,8.26171 c -2.30689,0.20248 -4.05648,2.16453 -3.9961,4.47852 l 1.91211,73.80469 c 0.0528,2.0293 1.49184,3.75713 3.47852,4.17578 l 110.6914,23.2832 c 2.70626,0.56936 5.45664,0.85179 8.20704,0.8457 l 0.002,-21.89062 0,-139.46484 c -5.1e-4,-3.04625 -0.47569,-4.66317 -1.24023,-4.81446 z m 11.24414,0 c -0.76455,0.15122 -1.24024,1.76821 -1.24024,4.81446 l 0,139.46484 0.002,21.88867 c 2.7499,0.007 5.50223,-0.27439 8.20899,-0.84375 l 110.68945,-23.2832 c 1.98668,-0.41814 3.42625,-2.14648 3.47852,-4.17578 l 1.91211,-73.80469 c 0.0604,-2.3145 -1.69167,-4.27604 -3.99805,-4.47852 l -94.02344,-8.26171 c -1.63095,-0.14311 -3.04532,-1.18354 -3.66797,-2.69727 l -18.38281,-44.64258 c -1.15978,-2.81687 -2.21397,-4.13169 -2.97851,-3.98047 z m -62.27735,68.67578 c 9.5144,0 17.18334,2.26776 23.00391,6.80664 l 0,-0.59179 c 0,-2.7628 1.17477,-4.14453 3.52539,-4.14453 2.23868,0 3.35742,1.38173 3.35742,4.14453 l 0,10.21289 c 0,2.66413 -1.11874,3.99609 -3.35742,3.99609 -2.01481,0 -3.18959,-1.13485 -3.52539,-3.40429 -0.44774,-3.35483 -2.68717,-6.01876 -6.7168,-7.99219 -4.02963,-1.97343 -9.23499,-2.95899 -15.61523,-2.95899 -6.26831,0 -11.47368,1.08509 -15.61524,3.25586 -4.14156,2.0721 -6.21093,4.68627 -6.21093,7.84375 0,5.62427 7.33077,9.02884 21.99414,10.21289 4.25349,0.39469 7.94787,0.88844 11.08203,1.48047 3.24609,0.59203 6.71633,1.57759 10.41015,2.95899 3.69383,1.28272 6.54769,3.20798 8.5625,5.77343 2.01482,2.46679 3.02149,5.47518 3.02149,9.02735 0,5.62427 -3.13404,10.31103 -9.40235,14.06054 -6.15637,3.65085 -13.99146,5.47657 -23.50586,5.47657 -10.74567,0 -19.53139,-2.66394 -26.35937,-7.99219 l 0,1.62891 c 0,2.66412 -1.12069,3.99609 -3.35938,3.99609 -2.35061,0 -3.52539,-1.33197 -3.52539,-3.99609 l 0,-12.28516 c 0,-2.66413 1.17478,-3.99609 3.52539,-3.99609 2.23869,0 3.35938,1.08509 3.35938,3.25586 l 0,1.03515 c 0,3.35483 2.51765,6.26564 7.55469,8.73242 5.03703,2.36812 11.137,3.55274 18.30078,3.55274 7.38765,0 13.54365,-1.2822 18.46875,-3.84766 4.9251,-2.56545 7.38867,-5.82267 7.38867,-9.76953 0,-7.10434 -8.73164,-11.54423 -26.19336,-13.32031 -3.91769,-0.39469 -7.27587,-0.83868 -10.07422,-1.33203 -2.79835,-0.49336 -5.82032,-1.28181 -9.0664,-2.36719 -3.13416,-1.18406 -5.53974,-2.81267 -7.21875,-4.88477 -1.67902,-2.17077 -2.51954,-4.78493 -2.51954,-7.84375 0,-4.83489 2.68771,-8.83079 8.06055,-11.98828 5.48477,-3.15748 12.36727,-4.73633 20.65039,-4.73633 z m 130.00586,7.28711 c 1.14957,0.0519 2.29253,0.55171 2.9375,1.47071 l 12.40039,17.67187 c 1.17526,1.67612 -0.31134,3.83146 -2.70703,3.89844 l -5.19336,0.14453 -0.10547,32.68164 c -0.005,1.43965 -1.46644,2.81679 -3.28515,3.07813 l -8.50977,1.22461 c -1.94405,0.2796 -3.5348,-0.71631 -3.53125,-2.22852 l 0.0781,-34.33008 -5.93946,0.16406 c -2.88792,0.0797 -4.71423,-2.23569 -3.24414,-4.15234 l 14.125,-18.4082 c 0.66908,-0.87232 1.82504,-1.26673 2.97461,-1.21485 z"
         style="fill:#000000;fill-opacity:1" />
    </g>
  </g>
</svg>
