<?xml version="1.0" encoding="UTF-8" standalone="no"?>
<!-- Created with Inkscape (http://www.inkscape.org/) -->

<svg
   xmlns:dc="http://purl.org/dc/elements/1.1/"
   xmlns:cc="http://creativecommons.org/ns#"
   xmlns:rdf="http://www.w3.org/1999/02/22-rdf-syntax-ns#"
   xmlns:svg="http://www.w3.org/2000/svg"
   xmlns="http://www.w3.org/2000/svg"
   xmlns:sodipodi="http://sodipodi.sourceforge.net/DTD/sodipodi-0.dtd"
   xmlns:inkscape="http://www.inkscape.org/namespaces/inkscape"
   id="svg2"
   version="1.1"
   inkscape:version="0.91 r13725"
   width="512"
   height="512"
   viewBox="0 0 512 512"
   sodipodi:docname="thunderbird.svg">
  <metadata
     id="metadata8">
    <rdf:RDF>
      <cc:Work
         rdf:about="">
        <dc:format>image/svg+xml</dc:format>
        <dc:type
           rdf:resource="http://purl.org/dc/dcmitype/StillImage" />
        <dc:title></dc:title>
      </cc:Work>
    </rdf:RDF>
  </metadata>
  <defs
     id="defs6">
    <linearGradient
       y2="160"
       x2="160"
       y1="120"
       x1="135"
       gradientTransform="matrix(0.05622958,0,0,0.05622958,0.07160145,-0.0527796)"
       gradientUnits="userSpaceOnUse"
       id="linearGradient3102-2">
      <stop
         style="stop-color:#eff7fc"
         id="stop12" />
      <stop
         offset="1"
         style="stop-color:#fff"
         id="stop14" />
    </linearGradient>
  </defs>
  <sodipodi:namedview
     pagecolor="#ffffff"
     bordercolor="#666666"
     borderopacity="1"
     objecttolerance="10"
     gridtolerance="10"
     guidetolerance="10"
     inkscape:pageopacity="0"
     inkscape:pageshadow="2"
     inkscape:window-width="1366"
     inkscape:window-height="713"
     id="namedview4"
     showgrid="false"
     inkscape:zoom="0.20977778"
     inkscape:cx="-1714.8191"
     inkscape:cy="152.27189"
     inkscape:window-x="0"
     inkscape:window-y="26"
     inkscape:window-maximized="1"
     inkscape:current-layer="layer2" />
  <g
     inkscape:groupmode="layer"
     id="layer3"
     inkscape:label="Layer 3"
     transform="translate(0,230.75)"
     style="display:inline">
    <path
       style="display:inline;fill:#285eb0;fill-opacity:1;fill-rule:evenodd;stroke:none;stroke-width:0.9919042px;stroke-linecap:butt;stroke-linejoin:miter;stroke-opacity:1"
       d="m 99.367208,-177.82053 c 92.460142,-30.57262 219.305282,-30.57262 312.736242,0 22.10299,7.23266 42.46686,26.89673 49.37941,48.91534 27.0337,86.111274 27.67678,230.05444 0,309.79656 -7.56841,21.80598 -27.12464,42.15474 -49.37941,48.91515 -93.43096,28.38212 -220.2761,28.79975 -312.736242,0 -22.20579,-6.91663 -42.155178,-26.99494 -49.379409,-48.91515 -26.280504,-79.74212 -27.017744,-223.685286 0,-309.79656 6.908801,-22.01974 27.299341,-41.61422 49.379409,-48.91534 z"
       id="path4152"
       inkscape:connector-curvature="0"
       sodipodi:nodetypes="sssssssss" />
  </g>
  <g
     inkscape:groupmode="layer"
     id="layer2"
     inkscape:label="Layer 2"
     transform="translate(0,230.75)">
    <path
       style="fill:#ffffff;fill-opacity:1"
       d="m 311.37118,158.73828 c -9.19294,5.10854 -33.34559,7.88335 -46.23788,3.9341 10.42442,-2.17158 30.67482,-16.04873 37.41813,-26.72017 -0.83215,-0.78064 -93.88387,-32.14012 -93.88387,-32.14012 6.10872,6.98378 7.33019,12.24411 13.03416,15.1613 -11.24615,-1.65441 -20.22922,-10.14834 -27.36343,-16.51956 2.96882,15.31254 13.22284,27.11049 21.52189,35.23283 -6.12651,-1.99247 -9.72665,-6.00858 -15.35638,-9.89842 -0.91878,0.0847 1.85679,6.71569 5.05609,9.5179 -55.15158,-25.7156 -76.66496,-89.229603 -67.49333,-132.168848 8.29938,-38.85552 28.24167,-62.596819 60.93629,-83.392585 8.05496,-14.781718 23.55984,-26.957377 40.93866,-30.221757 l -3.80205,3.36222 c -4.50288,3.98203 -13.57827,17.608039 -12.29322,18.036498 6.3884,-5.480406 9.4824,-8.531971 19.571,-12.15089 0,0 -5.31374,8.653069 -6.60598,12.379997 55.67978,-11.670545 119.20774,12.386212 142.38577,62.016187 30.59506,65.511654 13.88697,163.113048 -82.96106,194.415078 5.11787,-2.18344 10.33236,-7.29481 15.13521,-10.84376 z m -1.7704,-28.03219 c 17.44023,-25.09306 25.98,-52.956884 25.8769,-80.822495 -6.21299,7.975917 -14.5242,13.834119 -23.73308,17.159332 4.89392,-15.095857 7.31516,-27.933128 5.2124,-42.107565 L 224.23358,59.957639 192.17529,15.178942 c -0.56763,-0.359716 -0.89863,2.058107 -1.33477,2.09455 -0.94924,0.105466 -2.34311,-3.05552 -3.30714,-8.0058618 0,0 -15.83022,-22.7978432 -17.92896,-25.9076032 -3.89739,9.6595221 -7.31908,21.8766108 -7.42954,32.280426 -0.40822,8.468408 3.54983,24.271081 5.73324,28.783171 -7.26655,-2.75607 -12.81481,-6.602496 -16.02762,-12.385835 1.64405,19.045961 3.81855,35.27389 12.20884,51.719344 0,0 95.88407,31.300057 145.51144,46.948957 z m 6.67413,-109.814527 c 0.24803,-0.648808 -1.95045,-8.13374 -3.74816,-13.5348569 -2.45097,-7.36449228 -3.74846,-10.0032305 -5.18737,-10.549303 L 239.57813,-13.953304 c -7.20588,5.4915173 -13.7365,10.6180446 -21.61969,13.28663367 -3.45121,1.50723162 -14.75097,4.87632653 -16.29778,5.66468983 -2.87213,1.4639149 -7.41513,6.3354385 -7.41513,6.3354385 9.97213,14.952442 31.33236,44.0377 31.33236,44.0377 z M 190.6583,-7.1151093 c -1.95232,-3.2729507 -2.21902,-15.6097257 -2.21902,-15.6097257 l -13.33179,-3.677773 -3.32367,5.902838 c 0,0 4.36347,5.038199 7.7106,10.191187 3.62792,5.5854011 8.8771,13.8404275 9.689,13.8404275 1.35287,-1.8011257 1.29915,-8.5338538 1.47488,-10.6469538 z m 27.15697,-9.9274267 c 2.33064,-2.110651 1.69966,-6.837347 -0.66576,-8.104265 -1.94652,-1.039506 -4.25448,-0.4746 -6.70326,1.619949 -1.63785,1.408733 -2.48436,8.52067 -1.11033,9.89475 3.64031,1.313814 7.46742,-1.659499 8.47935,-3.410434 z"
       id="path4140"
       inkscape:connector-curvature="0"
       sodipodi:nodetypes="cccccccccsccscccscccccccccscccccccscccscccccccscccsscc" />
  </g>
</svg>
