<?xml version="1.0" encoding="UTF-8" standalone="no"?>
<!-- Created with Inkscape (http://www.inkscape.org/) -->

<svg
   xmlns:dc="http://purl.org/dc/elements/1.1/"
   xmlns:cc="http://creativecommons.org/ns#"
   xmlns:rdf="http://www.w3.org/1999/02/22-rdf-syntax-ns#"
   xmlns:svg="http://www.w3.org/2000/svg"
   xmlns="http://www.w3.org/2000/svg"
   xmlns:sodipodi="http://sodipodi.sourceforge.net/DTD/sodipodi-0.dtd"
   xmlns:inkscape="http://www.inkscape.org/namespaces/inkscape"
   id="svg2"
   version="1.1"
   inkscape:version="0.91 r13725"
   width="512"
   height="512"
   viewBox="0 0 512 512"
   sodipodi:docname="transmission.svg">
  <metadata
     id="metadata8">
    <rdf:RDF>
      <cc:Work
         rdf:about="">
        <dc:format>image/svg+xml</dc:format>
        <dc:type
           rdf:resource="http://purl.org/dc/dcmitype/StillImage" />
        <dc:title></dc:title>
      </cc:Work>
    </rdf:RDF>
  </metadata>
  <defs
     id="defs6">
    <linearGradient
       y2="160"
       x2="160"
       y1="120"
       x1="135"
       gradientTransform="matrix(0.05622958,0,0,0.05622958,0.07160145,-0.0527796)"
       gradientUnits="userSpaceOnUse"
       id="linearGradient3102-2">
      <stop
         style="stop-color:#eff7fc"
         id="stop12" />
      <stop
         offset="1"
         style="stop-color:#fff"
         id="stop14" />
    </linearGradient>
  </defs>
  <sodipodi:namedview
     pagecolor="#ffffff"
     bordercolor="#666666"
     borderopacity="1"
     objecttolerance="10"
     gridtolerance="10"
     guidetolerance="10"
     inkscape:pageopacity="0"
     inkscape:pageshadow="2"
     inkscape:window-width="1366"
     inkscape:window-height="713"
     id="namedview4"
     showgrid="false"
     inkscape:zoom="0.59334115"
     inkscape:cx="-384.38268"
     inkscape:cy="-70.071271"
     inkscape:window-x="0"
     inkscape:window-y="26"
     inkscape:window-maximized="1"
     inkscape:current-layer="layer3" />
  <g
     inkscape:groupmode="layer"
     id="layer3"
     inkscape:label="Layer 3"
     transform="translate(0,230.75)"
     style="display:inline">
    <path
       style="display:inline;fill:#ff162b;fill-opacity:1;fill-rule:evenodd;stroke:none;stroke-width:0.9919042px;stroke-linecap:butt;stroke-linejoin:miter;stroke-opacity:1"
       d="m 99.367208,-177.82053 c 92.460142,-30.57262 219.305282,-30.57262 312.736242,0 22.10299,7.23266 42.46686,26.89673 49.37941,48.91534 27.0337,86.111274 27.67678,230.05444 0,309.79656 -7.56841,21.80598 -27.12464,42.15474 -49.37941,48.91515 -93.43096,28.38212 -220.2761,28.79975 -312.736242,0 -22.20579,-6.91663 -42.155178,-26.99494 -49.379409,-48.91515 -26.280504,-79.74212 -27.017744,-223.685286 0,-309.79656 6.908801,-22.01974 27.299341,-41.61422 49.379409,-48.91534 z"
       id="path4152"
       inkscape:connector-curvature="0"
       sodipodi:nodetypes="sssssssss" />
  </g>
  <g
     inkscape:groupmode="layer"
     id="layer2"
     inkscape:label="Layer 2"
     transform="translate(0,230.75)">
    <path
       style="fill:#ffffff;fill-opacity:1"
       d="m 182.26557,118.9459 c -3.04384,-0.82114 -5.22268,-2.33665 -6.81552,-4.74158 -1.43848,-2.17157 -3.14469,-6.7783 -2.68195,-7.24113 0.14144,-0.14219 1.01071,0.25425 1.93179,0.87952 0.98211,0.66575 2.66091,1.25307 4.0593,1.41824 1.31151,0.15443 38.22909,0.21941 82.03905,0.14502 l 79.65446,-0.13654 2.23577,-1.31419 2.2358,-1.3141 -0.32328,1.77193 c -0.93846,5.14292 -5.10308,9.63354 -9.88563,10.6591 -3.52004,0.75522 -149.63119,0.63375 -152.44972,-0.12618 z m -6.61524,-13.97801 c -2.13131,-0.98677 -4.08537,-2.93753 -4.77762,-4.76973 -0.26771,-0.709073 -0.48072,-2.459819 -0.47318,-3.891153 0.007,-1.431333 2.65574,-28.798802 5.88488,-60.816598 5.77939,-57.304181 5.89029,-58.246789 7.09413,-60.300941 0.74165,-1.265694 1.99956,-2.541935 3.19657,-3.243382 l 1.97363,-1.15665 26.0097,0 26.00968,0 -0.29766,5.836733 c -0.16366,3.210235 -0.29851,8.249941 -0.29955,11.199147 l -0.002,5.3624147 -9.61349,8.2732947 c -5.2874,4.5503215 -9.61366,8.3172706 -9.61395,8.3711339 -2.7e-4,0.047083 4.14871,0.037667 9.21993,-0.037667 l 9.22038,-0.132775 -0.35397,14.5534587 c -0.19465,8.004354 -0.4811,17.849573 -0.63638,21.877929 l -0.28241,7.324754 -9.71416,0 -9.71414,0 2.19695,2.288815 c 1.20835,1.258914 10.1759,10.683584 19.92795,20.943607 9.752,10.260117 17.80397,18.654793 17.89326,18.654793 0.0895,0 7.74438,-7.982696 17.01139,-17.73921 9.267,-9.756514 18.23071,-19.18109 19.91933,-20.943608 l 3.07028,-3.204397 -9.76558,0.131833 -9.76559,0.131833 -0.26489,-4.25153 c -0.57894,-9.293403 -1.19998,-38.993945 -0.8233,-39.370706 0.21884,-0.2184667 4.43304,-0.3380584 9.36511,-0.2636667 7.95393,0.1186499 8.89512,0.0565 8.3278,-0.5527584 -0.35181,-0.3776083 -4.62939,-4.0857032 -9.50582,-8.240148 l -8.86625,-7.5533906 -0.30481,-5.4509313 c -0.16772,-2.997984 -0.30482,-8.09645 -0.30482,-11.330133 l 0,-5.879295 26.01522,0 26.01523,0 2.04285,1.35308 c 4.17635,2.766334 3.4352,-1.93682 10.05132,63.783319 3.24984,32.281839 5.91052,59.679441 5.91259,60.883456 0.002,1.20411 -0.27459,2.855322 -0.61463,3.669489 -0.81755,1.9565 -3.51187,4.27422 -5.66356,4.87171 -1.17697,0.32676 -27.4599,0.47837 -82.29921,0.47272 -77.44981,-0.005 -80.64098,-0.0471 -82.40121,-0.85504 z m 77.23901,-55.167255 c -3.55092,-1.162017 -6.47875,-3.504789 -7.9463,-6.358322 -0.86408,-1.680121 -0.87783,-2.273183 -0.42074,-18.082448 0.25999,-8.989997 0.67819,-24.2766362 0.92933,-33.9701526 0.25124,-9.6936104 0.5843,-21.1729034 0.74024,-25.5095604 l 0.28345,-7.884858 -24.04335,-0.126183 -24.04339,-0.126183 -1.94383,-1.373233 c -3.19077,-2.25435 -3.88072,-4.120639 -3.72337,-10.071313 0.0734,-2.76963 0.30933,-7.242546 0.52469,-9.940139 0.4504,-5.643219 1.263,-7.431256 4.2864,-9.432015 l 1.85575,-1.228122 59.12107,0 59.12102,0 1.90311,1.259385 c 3.30979,2.190411 3.83981,3.850381 4.4756,14.017085 0.33156,5.300547 0.39362,9.428719 0.15444,10.262659 -0.70032,2.441648 -2.56689,4.753157 -4.65428,5.763659 -1.9648,0.951178 -2.49082,0.970953 -25.67903,0.970953 l -23.67312,0 0.25491,5.378988 c 0.14021,2.958528 0.67837,21.6524 1.19606,41.5421887 0.6748,25.9278493 0.80485,36.6170833 0.45954,37.7671413 -0.66303,2.207831 -3.45759,4.958816 -6.42267,6.32235 -3.07398,1.413535 -9.64797,1.835402 -12.75548,0.818308 z"
       id="path4140"
       inkscape:connector-curvature="0"
       sodipodi:nodetypes="cscccscccsscccscssscccsscscscsscccssssccccscscsccscccsscssscccsssscccsssscccsscssccscscc" />
  </g>
</svg>
