<?xml version="1.0" encoding="UTF-8" standalone="no"?>
<!-- Created with Inkscape (http://www.inkscape.org/) -->

<svg
   xmlns:dc="http://purl.org/dc/elements/1.1/"
   xmlns:cc="http://creativecommons.org/ns#"
   xmlns:rdf="http://www.w3.org/1999/02/22-rdf-syntax-ns#"
   xmlns:svg="http://www.w3.org/2000/svg"
   xmlns="http://www.w3.org/2000/svg"
   xmlns:sodipodi="http://sodipodi.sourceforge.net/DTD/sodipodi-0.dtd"
   xmlns:inkscape="http://www.inkscape.org/namespaces/inkscape"
   id="svg2"
   version="1.1"
   inkscape:version="0.91 r13725"
   width="512"
   height="512"
   viewBox="0 0 512 512"
   sodipodi:docname="uget-icon.svg">
  <metadata
     id="metadata8">
    <rdf:RDF>
      <cc:Work
         rdf:about="">
        <dc:format>image/svg+xml</dc:format>
        <dc:type
           rdf:resource="http://purl.org/dc/dcmitype/StillImage" />
        <dc:title></dc:title>
      </cc:Work>
    </rdf:RDF>
  </metadata>
  <defs
     id="defs6">
    <linearGradient
       y2="160"
       x2="160"
       y1="120"
       x1="135"
       gradientTransform="matrix(0.05622958,0,0,0.05622958,0.07160145,-0.0527796)"
       gradientUnits="userSpaceOnUse"
       id="linearGradient3102-2">
      <stop
         style="stop-color:#eff7fc"
         id="stop12" />
      <stop
         offset="1"
         style="stop-color:#fff"
         id="stop14" />
    </linearGradient>
  </defs>
  <sodipodi:namedview
     pagecolor="#ffffff"
     bordercolor="#666666"
     borderopacity="1"
     objecttolerance="10"
     gridtolerance="10"
     guidetolerance="10"
     inkscape:pageopacity="0"
     inkscape:pageshadow="2"
     inkscape:window-width="1366"
     inkscape:window-height="713"
     id="namedview4"
     showgrid="false"
     inkscape:zoom="3.3564445"
     inkscape:cx="-36.413467"
     inkscape:cy="19.113517"
     inkscape:window-x="0"
     inkscape:window-y="26"
     inkscape:window-maximized="1"
     inkscape:current-layer="layer3"
     showguides="true"
     inkscape:guide-bbox="true" />
  <g
     inkscape:groupmode="layer"
     id="layer3"
     inkscape:label="Layer 3"
     transform="translate(0,230.75)"
     style="display:inline">
    <path
       style="display:inline;fill:#7ac82a;fill-opacity:1;fill-rule:evenodd;stroke:none;stroke-width:0.9919042px;stroke-linecap:butt;stroke-linejoin:miter;stroke-opacity:1"
       d="m 99.367208,-177.82053 c 92.460142,-30.57262 219.305282,-30.57262 312.736242,0 22.10299,7.23266 42.46686,26.89673 49.37941,48.91534 27.0337,86.111274 27.67678,230.05444 0,309.79656 -7.56841,21.80598 -27.12464,42.15474 -49.37941,48.91515 -93.43096,28.38212 -220.2761,28.79975 -312.736242,0 -22.20579,-6.91663 -42.155178,-26.99494 -49.379409,-48.91515 -26.280504,-79.74212 -27.017744,-223.685286 0,-309.79656 6.908801,-22.01974 27.299341,-41.61422 49.379409,-48.91534 z"
       id="path4152"
       inkscape:connector-curvature="0"
       sodipodi:nodetypes="sssssssss" />
  </g>
  <g
     inkscape:groupmode="layer"
     id="layer2"
     inkscape:label="Layer 2"
     transform="translate(0,230.75)">
    <path
       style="fill:#ffffff;fill-opacity:1"
       d="m 226.77394,117.69273 c -13.2275,-1.23754 -17.67355,-3.59246 -28.15423,-14.91233 -4.01756,-4.339199 -8.23054,-8.467749 -9.36218,-9.174658 -1.13166,-0.70625 -8.67272,-1.628706 -16.75796,-2.048501 -16.33301,-0.848442 -19.98665,-2.466979 -25.07867,-11.111855 -2.53812,-4.309066 -2.7749,-7.556875 -3.16466,-43.407818 l -0.4213,-38.7503358 15.16698,0 15.16696,0 0,31.5489398 0,31.54894 7.39075,0 7.39075,0 0.50774,-43.551329 0.50775,-43.55114 c 1.09926,-8.121404 3.89535,-17.439101 12.96018,-24.99607 10.13164,-8.446373 12.28735,-8.526697 56.28774,-9.742295 l 90.53173,1.305433 0,28.634576 0,26.0621303 -27.43386,0 -27.43386,0 0,-18.5177803 0,-18.517874 -26.72631,0 -26.7263,0 -0.36462,38.0644251 -0.3647,38.0645199 -12.78488,0.3955 c -7.0317,0.217525 -12.58705,0.883283 -12.34523,1.47964 1.19007,2.934234 49.81028,63.281505 50.72748,62.962845 0.58364,-0.202458 12.89042,-14.565605 27.34837,-31.917508 l 26.2872,-31.54894 -12.18261,-0.685533 -12.18262,-0.685534 -0.39635,-12.002388 -0.39634,-12.002201 27.48726,0 27.48725,0 -0.0471,15.431468 c -0.0264,8.487336 -0.59438,26.713576 -1.26347,40.502777 -1.13149,23.317926 -1.46383,25.493082 -4.75265,31.105038 -4.54507,7.755468 -11.88088,13.757468 -21.37078,17.484768 -7.01261,2.75428 -10.25112,2.98499 -45.95171,3.27267 -21.12407,0.17044 -43.4378,-0.16102 -49.58607,-0.73638 z"
       id="path4138"
       inkscape:connector-curvature="0"
       sodipodi:nodetypes="cssssscccccccccsccccccccccccsssscccccccssssscc" />
  </g>
</svg>
