<?xml version="1.0" encoding="UTF-8" standalone="no"?>
<svg
   xmlns:dc="http://purl.org/dc/elements/1.1/"
   xmlns:cc="http://creativecommons.org/ns#"
   xmlns:rdf="http://www.w3.org/1999/02/22-rdf-syntax-ns#"
   xmlns:svg="http://www.w3.org/2000/svg"
   xmlns="http://www.w3.org/2000/svg"
   xmlns:xlink="http://www.w3.org/1999/xlink"
   viewBox="0 0 512 512"
   height="512"
   width="512"
   version="1.1"
   id="svg2">
  <metadata
     id="metadata8">
    <rdf:RDF>
      <cc:Work
         rdf:about="">
        <dc:format>image/svg+xml</dc:format>
        <dc:type
           rdf:resource="http://purl.org/dc/dcmitype/StillImage" />
        <dc:title></dc:title>
      </cc:Work>
    </rdf:RDF>
  </metadata>
  <defs
     id="defs6">
    <linearGradient
       id="linearGradient3102-2"
       gradientUnits="userSpaceOnUse"
       gradientTransform="matrix(0.05622958,0,0,0.05622958,0.07160145,-0.0527796)"
       x1="135"
       y1="120"
       x2="160"
       y2="160">
      <stop
         id="stop12"
         style="stop-color:#eff7fc" />
      <stop
         id="stop14"
         style="stop-color:#fff"
         offset="1" />
    </linearGradient>
    <linearGradient
       gradientTransform="matrix(0,0.54990985,-0.54990985,0,37.847987,244.26246)"
       gradientUnits="userSpaceOnUse"
       x2="47"
       x1="1"
       id="linearGradient4910">
      <stop
         id="stop24"
         style="stop-color:#8a8a8a;stop-opacity:1" />
      <stop
         id="stop26"
         style="stop-color:#808080;stop-opacity:1"
         offset="1" />
    </linearGradient>
    <linearGradient
       gradientUnits="userSpaceOnUse"
       y2="1"
       x2="0"
       y1="47"
       id="linearGradient4363"
       xlink:href="#linearGradient4389"
       gradientTransform="matrix(0.54990985,0,0,0.54990985,11.452315,244.26246)" />
    <linearGradient
       id="linearGradient4389">
      <stop
         id="stop12-7"
         style="stop-color:#666;stop-opacity:1" />
      <stop
         id="stop14-5"
         style="stop-color:#707070;stop-opacity:1"
         offset="1" />
    </linearGradient>
    <linearGradient
       gradientUnits="userSpaceOnUse"
       y2="1"
       x2="0"
       y1="47"
       id="linearGradient4403"
       xlink:href="#linearGradient4397"
       gradientTransform="matrix(0.54990985,0,0,0.54990985,11.452315,244.26246)" />
    <linearGradient
       id="linearGradient4397">
      <stop
         id="stop7"
         style="stop-color:#5c5c5c;stop-opacity:1" />
      <stop
         id="stop9"
         style="stop-color:#666;stop-opacity:1"
         offset="1" />
    </linearGradient>
    <linearGradient
       gradientUnits="userSpaceOnUse"
       y2="1"
       x2="0"
       y1="47"
       id="linearGradient4395"
       xlink:href="#linearGradient4389"
       gradientTransform="matrix(0.54990985,0,0,0.54990985,11.452315,244.26246)" />
    <linearGradient
       gradientUnits="userSpaceOnUse"
       y2="1"
       x2="0"
       y1="47"
       id="linearGradient4387"
       xlink:href="#linearGradient4397"
       gradientTransform="matrix(0.54990985,0,0,0.54990985,11.452315,244.26246)" />
    <linearGradient
       gradientUnits="userSpaceOnUse"
       y2="1"
       x2="0"
       y1="47"
       id="linearGradient4379"
       xlink:href="#linearGradient4389"
       gradientTransform="matrix(0.54990985,0,0,0.54990985,11.452315,244.26246)" />
    <radialGradient
       r="0.56400001"
       cy="5.927"
       cx="6.7729998"
       gradientTransform="matrix(1.2459588,0,0,1.2459588,16.210857,249.02114)"
       gradientUnits="userSpaceOnUse"
       id="radialGradient3427"
       xlink:href="#radial0" />
    <radialGradient
       gradientTransform="matrix(3.543307,0,0,3.543307,1.47638e-7,3.77575e-4)"
       r="0.56400001"
       cy="5.927"
       cx="6.7729998"
       gradientUnits="userSpaceOnUse"
       id="radial0">
      <stop
         id="stop17"
         style="stop-color:#8eb0c7;stop-opacity:1" />
      <stop
         id="stop19"
         style="stop-color:#8eb0c7;stop-opacity:0"
         offset="1" />
    </radialGradient>
    <radialGradient
       xlink:href="#radial0"
       gradientTransform="matrix(0.35163727,0,0,0.35163727,22.540326,252.08305)"
       r="1"
       cy="17.292"
       cx="6"
       gradientUnits="userSpaceOnUse"
       id="radial1" />
    <radialGradient
       gradientTransform="matrix(3.543307,0,0,3.543307,1.47638e-7,3.77575e-4)"
       r="0.56400001"
       cy="5.927"
       cx="6.7729998"
       gradientUnits="userSpaceOnUse"
       id="radialGradient4251">
      <stop
         id="stop4253"
         style="stop-color:#8eb0c7;stop-opacity:1" />
      <stop
         id="stop4255"
         style="stop-color:#8eb0c7;stop-opacity:0"
         offset="1" />
    </radialGradient>
    <linearGradient
       gradientUnits="userSpaceOnUse"
       y2="1"
       x2="0"
       y1="47"
       id="linearGradient4355"
       xlink:href="#linearGradient4397"
       gradientTransform="matrix(0.54990985,0,0,0.54990985,11.452315,244.26246)" />
    <radialGradient
       gradientTransform="matrix(1,0,0,0.43493202,0.125,17.177001)"
       gradientUnits="userSpaceOnUse"
       xlink:href="#linearGradient6492"
       id="radialGradient6498"
       fy="33.9375"
       fx="23"
       r="18.25"
       cy="33.9375"
       cx="23" />
    <linearGradient
       id="linearGradient6492">
      <stop
         id="stop6494"
         offset="0"
         style="stop-color:black;stop-opacity:1" />
      <stop
         id="stop6496"
         offset="1"
         style="stop-color:black;stop-opacity:0" />
    </linearGradient>
    <radialGradient
       gradientTransform="matrix(1.77275,0,0,1.29668,-16.3404,-6.615959)"
       gradientUnits="userSpaceOnUse"
       xlink:href="#linearGradient6500"
       id="radialGradient4354"
       fy="22.300018"
       fx="18.557627"
       r="19.2292"
       cy="22.300018"
       cx="18.557627" />
    <linearGradient
       id="linearGradient6500">
      <stop
         id="stop6502"
         offset="0"
         style="stop-color:#857c63;stop-opacity:1" />
      <stop
         id="stop6504"
         offset="1"
         style="stop-color:#221f19;stop-opacity:1" />
    </linearGradient>
    <linearGradient
       gradientTransform="translate(-3.836549,0.345971)"
       gradientUnits="userSpaceOnUse"
       xlink:href="#linearGradient6492"
       id="linearGradient4351"
       y2="30.293064"
       x2="21.213203"
       y1="28.083355"
       x1="32.350136" />
    <linearGradient
       gradientUnits="userSpaceOnUse"
       xlink:href="#linearGradient8524"
       id="linearGradient8530"
       y2="46.98568"
       x2="39.524544"
       y1="19.110678"
       x1="14.96875" />
    <linearGradient
       id="linearGradient8524">
      <stop
         id="stop8526"
         offset="0"
         style="stop-color:white;stop-opacity:1" />
      <stop
         id="stop8528"
         offset="1"
         style="stop-color:white;stop-opacity:0" />
    </linearGradient>
    <radialGradient
       gradientTransform="matrix(1.684735,0,0,1.684735,-103.39924,-14.483279)"
       gradientUnits="userSpaceOnUse"
       xlink:href="#linearGradient6468"
       id="radialGradient4363"
       fy="19.597878"
       fx="69.473244"
       r="3.5153139"
       cy="19.597878"
       cx="69.473244" />
    <linearGradient
       id="linearGradient6468">
      <stop
         id="stop6470"
         offset="0"
         style="stop-color:white;stop-opacity:1" />
      <stop
         id="stop6472"
         offset="1"
         style="stop-color:#b9b9b0;stop-opacity:1" />
    </linearGradient>
    <radialGradient
       gradientTransform="matrix(0.79751102,-0.46044319,0.53741287,0.93082752,-13.91157,2.5868096)"
       gradientUnits="userSpaceOnUse"
       xlink:href="#linearGradient8542"
       id="radialGradient8548"
       fy="25.271027"
       fx="6.0242186"
       r="4.8310289"
       cy="25.271027"
       cx="6.0242186" />
    <linearGradient
       id="linearGradient8542">
      <stop
         id="stop8544"
         offset="0"
         style="stop-color:#5b676b;stop-opacity:1" />
      <stop
         id="stop8546"
         offset="1"
         style="stop-color:#141718;stop-opacity:1" />
    </linearGradient>
    <linearGradient
       gradientTransform="matrix(0.800389,-0.599481,0.599481,0.800389,-15.2744,7.32784)"
       gradientUnits="userSpaceOnUse"
       xlink:href="#linearGradient8524"
       id="linearGradient6458"
       y2="31.57"
       x2="5.9846287"
       y1="23.362427"
       x1="6.3051529" />
    <radialGradient
       gradientTransform="matrix(1.977732,0,0,1.977732,-115.35781,-20.281056)"
       gradientUnits="userSpaceOnUse"
       xlink:href="#linearGradient6468"
       id="radialGradient6474"
       fy="19.597878"
       fx="69.473244"
       r="3.5153139"
       cy="19.597878"
       cx="69.473244" />
    <linearGradient
       gradientTransform="translate(-49.30496,1.877723)"
       gradientUnits="userSpaceOnUse"
       xlink:href="#linearGradient6951"
       id="linearGradient6957"
       y2="11.182488"
       x2="27.753893"
       y1="19.239889"
       x1="37.017639" />
    <linearGradient
       id="linearGradient6951">
      <stop
         id="stop6953"
         offset="0"
         style="stop-color:#6e3d09;stop-opacity:1" />
      <stop
         id="stop6959"
         offset="0.24242425"
         style="stop-color:#ea8113;stop-opacity:1" />
      <stop
         id="stop6961"
         offset="0.62121212"
         style="stop-color:#5c3307;stop-opacity:1" />
      <stop
         id="stop6955"
         offset="1"
         style="stop-color:#e07c12;stop-opacity:1" />
    </linearGradient>
    <linearGradient
       gradientTransform="translate(-46.40695,-1.802856)"
       gradientUnits="userSpaceOnUse"
       xlink:href="#linearGradient6939"
       id="linearGradient6945"
       y2="33.438831"
       x2="23.109331"
       y1="30.001331"
       x1="19.394735" />
    <linearGradient
       id="linearGradient6939">
      <stop
         id="stop6941"
         offset="0"
         style="stop-color:#bdbdbd;stop-opacity:1" />
      <stop
         id="stop6947"
         offset="0.33333334"
         style="stop-color:#e2e2e2;stop-opacity:1" />
      <stop
         id="stop6949"
         offset="0.66666669"
         style="stop-color:#a3a3a3;stop-opacity:1" />
      <stop
         id="stop6943"
         offset="1"
         style="stop-color:#ddd;stop-opacity:1" />
    </linearGradient>
    <radialGradient
       gradientTransform="matrix(1.572694,0,0,1.532639,-55.36682,-21.35823)"
       gradientUnits="userSpaceOnUse"
       xlink:href="#linearGradient6963"
       id="radialGradient6969"
       fy="35.356506"
       fx="15.415101"
       r="7.5791559"
       cy="35.356506"
       cx="15.415101" />
    <linearGradient
       id="linearGradient6963">
      <stop
         id="stop6965"
         offset="0"
         style="stop-color:#696969;stop-opacity:1" />
      <stop
         id="stop6967"
         offset="1"
         style="stop-color:black;stop-opacity:1" />
    </linearGradient>
    <linearGradient
       gradientTransform="matrix(0.755165,0.395143,-0.395143,0.755165,-25.91245,6.532586)"
       gradientUnits="userSpaceOnUse"
       xlink:href="#linearGradient8524"
       id="linearGradient2452"
       y2="42.282146"
       x2="7.7521091"
       y1="37.752247"
       x1="13.236155" />
    <linearGradient
       gradientUnits="userSpaceOnUse"
       xlink:href="#linearGradient6492"
       id="linearGradient4330"
       y2="30.985245"
       x2="24.328892"
       y1="30.543303"
       x1="26.162951" />
  </defs>
  <g
     style="display:inline"
     transform="translate(0,230.75)"
     id="layer3">
    <path
       id="path4152"
       d="m 100.90188,-187.31324 c 94.50572,-31.24901 224.15717,-31.24901 319.65518,0 22.592,7.39267 43.4064,27.49179 50.47188,49.99754 27.63179,88.016387 28.2891,235.144132 0,316.65046 -7.73585,22.28842 -27.72474,43.08737 -50.47188,49.99735 -95.49801,29.01004 -225.14946,29.4369 -319.65518,0 -22.697068,-7.06966 -43.087814,-27.59218 -50.471873,-49.99735 -26.861931,-81.506328 -27.615482,-228.634073 0,-316.65046 7.061651,-22.50691 27.903308,-42.53489 50.471873,-49.99754 z"
       style="display:inline;fill:#0052ac;fill-opacity:1;fill-rule:evenodd;stroke:none;stroke-width:0.9919042px;stroke-linecap:butt;stroke-linejoin:miter;stroke-opacity:1" />
  </g>
  <g
     style="display:inline"
     transform="translate(0,230.75)"
     id="layer2">
    <g
       id="g31"
       transform="matrix(9.0055121,0,0,9.0055121,50.077663,-190.21599)">
      <g
         id="g33">
        <!-- color: #357ee2 -->
        <g
           id="g35">
          <path
             id="path37"
             style="opacity:0.1;fill:#000000;fill-opacity:1;fill-rule:nonzero;stroke:none"
             d="m 25,11 c -1.657,0 -3,1.343 -3,3 0.001,1.27 0.803,2.401 2,2.824 l 0,3.676 -4.592,3.82 C 19.185,24.472 19,24.738 19,25 l 0,1.992 -1,0.008 0,4 4,0 0,-4 -1,0 0,-1.5 3,-2.5 0,10 -2,0 3,5 3,-5 -2,0 0,-12.5 3,2.5 0,2.271 c -0.618,0.357 -1,1.015 -1,1.729 -0.001,1.105 0.895,2 2,2 1.105,0 2,-0.895 2,-2 0,-0.714 -0.382,-1.373 -1,-1.73 l 0,-2.77 c 0,-0.246 -0.144,-0.519 -0.34,-0.68 L 26,18 26,16.826 C 27.198,16.402 28,15.27 28,14 28.001,12.343 26.657,11 25,11 Z" />
          <path
             id="path39"
             style="fill:#f9f9f9;fill-opacity:1;fill-rule:nonzero;stroke:none"
             d="m 24,10 c -1.657,0 -3,1.343 -3,3 0.001,1.27 0.803,2.401 2,2.824 l 0,3.676 -4.592,3.82 C 18.185,23.472 18,23.738 18,24 l 0,1.992 -1,0.008 0,4 4,0 0,-4 -1,0 0,-1.5 3,-2.5 0,10 -2,0 3,5 3,-5 -2,0 0,-12.5 3,2.5 0,2.271 c -0.618,0.357 -1,1.015 -1,1.729 -0.001,1.105 0.895,2 2,2 1.105,0 2,-0.895 2,-2 0,-0.714 -0.382,-1.373 -1,-1.73 l 0,-2.77 c 0,-0.246 -0.144,-0.519 -0.34,-0.68 L 25,17 25,15.826 C 26.198,15.402 27,14.27 27,13 27.001,11.343 25.657,10 24,10 Z" />
        </g>
      </g>
    </g>
  </g>
</svg>
