<?xml version="1.0" encoding="UTF-8" standalone="no"?>
<!-- Created with Inkscape (http://www.inkscape.org/) -->

<svg
   xmlns:dc="http://purl.org/dc/elements/1.1/"
   xmlns:cc="http://creativecommons.org/ns#"
   xmlns:rdf="http://www.w3.org/1999/02/22-rdf-syntax-ns#"
   xmlns:svg="http://www.w3.org/2000/svg"
   xmlns="http://www.w3.org/2000/svg"
   xmlns:sodipodi="http://sodipodi.sourceforge.net/DTD/sodipodi-0.dtd"
   xmlns:inkscape="http://www.inkscape.org/namespaces/inkscape"
   id="svg2"
   version="1.1"
   inkscape:version="0.91 r13725"
   width="512"
   height="512"
   viewBox="0 0 512 512"
   sodipodi:docname="virtualbox.svg">
  <metadata
     id="metadata8">
    <rdf:RDF>
      <cc:Work
         rdf:about="">
        <dc:format>image/svg+xml</dc:format>
        <dc:type
           rdf:resource="http://purl.org/dc/dcmitype/StillImage" />
        <dc:title></dc:title>
      </cc:Work>
    </rdf:RDF>
  </metadata>
  <defs
     id="defs6">
    <linearGradient
       y2="160"
       x2="160"
       y1="120"
       x1="135"
       gradientTransform="matrix(0.05622958,0,0,0.05622958,0.07160145,-0.0527796)"
       gradientUnits="userSpaceOnUse"
       id="linearGradient3102-2">
      <stop
         style="stop-color:#eff7fc"
         id="stop12" />
      <stop
         offset="1"
         style="stop-color:#fff"
         id="stop14" />
    </linearGradient>
  </defs>
  <sodipodi:namedview
     pagecolor="#ffffff"
     bordercolor="#666666"
     borderopacity="1"
     objecttolerance="10"
     gridtolerance="10"
     guidetolerance="10"
     inkscape:pageopacity="0"
     inkscape:pageshadow="2"
     inkscape:window-width="1366"
     inkscape:window-height="713"
     id="namedview4"
     showgrid="false"
     inkscape:zoom="0.41955555"
     inkscape:cx="-741.61233"
     inkscape:cy="-142.03197"
     inkscape:window-x="0"
     inkscape:window-y="26"
     inkscape:window-maximized="1"
     inkscape:current-layer="layer2" />
  <g
     inkscape:groupmode="layer"
     id="layer3"
     inkscape:label="Layer 3"
     transform="translate(0,230.75)"
     style="display:inline">
    <path
       style="display:inline;fill:#13a9e8;fill-opacity:1;fill-rule:evenodd;stroke:none;stroke-width:0.9919042px;stroke-linecap:butt;stroke-linejoin:miter;stroke-opacity:1"
       d="m 99.367208,-177.82053 c 92.460142,-30.57262 219.305282,-30.57262 312.736242,0 22.10299,7.23266 42.46686,26.89673 49.37941,48.91534 27.0337,86.111274 27.67678,230.05444 0,309.79656 -7.56841,21.80598 -27.12464,42.15474 -49.37941,48.91515 -93.43096,28.38212 -220.2761,28.79975 -312.736242,0 -22.20579,-6.91663 -42.155178,-26.99494 -49.379409,-48.91515 -26.280504,-79.74212 -27.017744,-223.685286 0,-309.79656 6.908801,-22.01974 27.299341,-41.61422 49.379409,-48.91534 z"
       id="path4152"
       inkscape:connector-curvature="0"
       sodipodi:nodetypes="sssssssss" />
  </g>
  <g
     inkscape:groupmode="layer"
     id="layer2"
     inkscape:label="Layer 2"
     transform="translate(0,230.75)">
    <g
       transform="matrix(10.491237,0,0,10.491237,7.3417685,-227.68734)"
       id="g37">
      <g
         id="g39">
        <!-- color: #16afef -->
        <g
           id="g41">
          <path
             inkscape:connector-curvature="0"
             d="m 13,12 c -1,0 -1,0 -1,1 l 0,22 c 0,0.984 0,1 1,1 l 22,0 c 1,0 1,0 1,-1 l 0,-22 c 0,-1 0,-1 -1,-1 m -22,0"
             style="fill:#ffffff;fill-opacity:0.39200003;fill-rule:nonzero;stroke:none"
             id="path43" />
          <path
             inkscape:connector-curvature="0"
             d="m 13,12 c -1,0 -1,0 -1,1 l 0,22 c 0,0.984 0,1 1,1 l 22,0 c 1,0 1,0 1,-1 l 0,-22 c 0,-1 0,-1 -1,-1 m -21,2 9.938,-0.031 c -1.277,4.891 -2.602,9.77 -3.902,14.652 -2.031,-5.625 -0.031,-0.027 -2.031,-5.625 -1,0 -3,0 -4,0 m 10.121,-9.03 9.875,0.031 0,8 -3,0 c -2.559,-7.641 0,0 -2.563,-7.813 -0.707,2.637 -1.418,5.273 -2.125,7.906 -0.715,-2.711 -1.445,-5.422 -2.188,-8.125 m -0.09,5.969 c 0.773,2.82 1.531,5.645 2.281,8.469 0.703,-2.656 1.418,-5.313 2.125,-7.969 1.563,3.578 -0.031,-0.016 1.563,3.578 1.637,0 2.363,0 4,0 l 0,10 -13.617,0 c 1.02,-4.734 2.398,-9.387 3.648,-14.06 m -10.03,5.05 3,0 c 3,9 0,0 3,9 l -5.996,0 m -0.004,-9"
             style="fill:#ffffff;fill-opacity:1;fill-rule:nonzero;stroke:none"
             id="path45" />
        </g>
      </g>
    </g>
  </g>
</svg>
