<?xml version="1.0" encoding="UTF-8" standalone="no"?>
<!-- Created with Inkscape (http://www.inkscape.org/) -->

<svg
   xmlns:dc="http://purl.org/dc/elements/1.1/"
   xmlns:cc="http://creativecommons.org/ns#"
   xmlns:rdf="http://www.w3.org/1999/02/22-rdf-syntax-ns#"
   xmlns:svg="http://www.w3.org/2000/svg"
   xmlns="http://www.w3.org/2000/svg"
   xmlns:sodipodi="http://sodipodi.sourceforge.net/DTD/sodipodi-0.dtd"
   xmlns:inkscape="http://www.inkscape.org/namespaces/inkscape"
   id="svg2"
   version="1.1"
   inkscape:version="0.91 r13725"
   width="512"
   height="512"
   viewBox="0 0 512 512"
   sodipodi:docname="visualstudiocode.svg">
  <metadata
     id="metadata8">
    <rdf:RDF>
      <cc:Work
         rdf:about="">
        <dc:format>image/svg+xml</dc:format>
        <dc:type
           rdf:resource="http://purl.org/dc/dcmitype/StillImage" />
        <dc:title />
      </cc:Work>
    </rdf:RDF>
  </metadata>
  <defs
     id="defs6">
    <linearGradient
       y2="160"
       x2="160"
       y1="120"
       x1="135"
       gradientTransform="matrix(0.05622958,0,0,0.05622958,0.07160145,-0.0527796)"
       gradientUnits="userSpaceOnUse"
       id="linearGradient3102-2">
      <stop
         style="stop-color:#eff7fc"
         id="stop12" />
      <stop
         offset="1"
         style="stop-color:#fff"
         id="stop14" />
    </linearGradient>
  </defs>
  <sodipodi:namedview
     pagecolor="#ffffff"
     bordercolor="#666666"
     borderopacity="1"
     objecttolerance="10"
     gridtolerance="10"
     guidetolerance="10"
     inkscape:pageopacity="0"
     inkscape:pageshadow="2"
     inkscape:window-width="1366"
     inkscape:window-height="713"
     id="namedview4"
     showgrid="false"
     inkscape:zoom="0.59334116"
     inkscape:cx="-303.0419"
     inkscape:cy="-86.029422"
     inkscape:window-x="0"
     inkscape:window-y="26"
     inkscape:window-maximized="1"
     inkscape:current-layer="layer3"
     showguides="true"
     inkscape:guide-bbox="true" />
  <g
     inkscape:groupmode="layer"
     id="layer3"
     inkscape:label="Layer 3"
     transform="translate(0,230.75)"
     style="display:inline">
    <path
       style="display:inline;fill:#ffffff;fill-opacity:1;fill-rule:evenodd;stroke:none;stroke-width:0.9919042px;stroke-linecap:butt;stroke-linejoin:miter;stroke-opacity:1"
       d="m 99.367208,-177.82053 c 92.460142,-30.57262 219.305282,-30.57262 312.736242,0 22.10299,7.23266 42.46686,26.89673 49.37941,48.91534 27.0337,86.111274 27.67678,230.05444 0,309.79656 -7.56841,21.80598 -27.12464,42.15474 -49.37941,48.91515 -93.43096,28.38212 -220.2761,28.79975 -312.736242,0 -22.20579,-6.91663 -42.155178,-26.99494 -49.379409,-48.91515 -26.280504,-79.74212 -27.017744,-223.685286 0,-309.79656 6.908801,-22.01974 27.299341,-41.61422 49.379409,-48.91534 z"
       id="path4152"
       inkscape:connector-curvature="0"
       sodipodi:nodetypes="sssssssss" />
  </g>
  <g
     inkscape:groupmode="layer"
     id="layer1"
     inkscape:label="Layer 4"
     transform="translate(0,464)" />
  <g
     inkscape:groupmode="layer"
     id="layer2"
     inkscape:label="Layer 2"
     transform="translate(0,230.75)">
    <path
       style="fill:#038fd6;fill-opacity:1"
       d="m 258.72277,89.044497 -42.81663,-42.81664 -27.06984,21.429508 -27.06984,21.429413 -9.95869,-5.293485 -9.95871,-5.293578 0,-52.736534 0,-52.736627 9.95871,-5.293391 9.95869,-5.293579 27.06793,21.428001 27.06793,21.427907 42.91438,-42.904121 42.91439,-42.904027 25.06315,10.054175 c 13.78473,5.529843 25.6784,10.298537 26.43039,10.597045 1.07741,0.428458 1.36723,18.578895 1.36723,85.629891 l 0,85.087305 -26.25334,10.50269 c -14.43935,5.77637 -26.37616,10.50269 -26.52625,10.50269 -0.1501,0 -19.54035,-19.26744 -43.0895,-42.816643 z m 43.36701,-63.281316 c 0,-24.0635372 -0.36913,-43.742298 -0.82038,-43.730716 -1.33558,0.02825 -55.51,42.726146 -55.51,43.744559 0,0.513208 8.12142,7.254317 18.04758,14.98088 9.92618,7.726657 22.23135,17.353315 27.34485,21.392783 5.11346,4.039467 9.66639,7.348954 10.11757,7.354322 0.45125,0.0055 0.82038,-19.678479 0.82038,-43.741828 z M 180.96449,39.656437 194.15197,25.657809 178.1181,9.4949485 162.08423,-6.6679118 l 0,32.8131268 0,32.813033 2.84639,-2.651639 c 1.5655,-1.458359 8.78076,-8.951012 16.03387,-16.650172 z"
       id="path4138-3"
       inkscape:connector-curvature="0" />
  </g>
</svg>
