<?xml version="1.0" encoding="UTF-8" standalone="no"?>
<!-- Created with Inkscape (http://www.inkscape.org/) -->

<svg
   xmlns:dc="http://purl.org/dc/elements/1.1/"
   xmlns:cc="http://creativecommons.org/ns#"
   xmlns:rdf="http://www.w3.org/1999/02/22-rdf-syntax-ns#"
   xmlns:svg="http://www.w3.org/2000/svg"
   xmlns="http://www.w3.org/2000/svg"
   xmlns:sodipodi="http://sodipodi.sourceforge.net/DTD/sodipodi-0.dtd"
   xmlns:inkscape="http://www.inkscape.org/namespaces/inkscape"
   id="svg2"
   version="1.1"
   inkscape:version="0.91 r13725"
   width="512"
   height="512"
   viewBox="0 0 512 512"
   sodipodi:docname="vivaldi.svg">
  <metadata
     id="metadata8">
    <rdf:RDF>
      <cc:Work
         rdf:about="">
        <dc:format>image/svg+xml</dc:format>
        <dc:type
           rdf:resource="http://purl.org/dc/dcmitype/StillImage" />
        <dc:title></dc:title>
      </cc:Work>
    </rdf:RDF>
  </metadata>
  <defs
     id="defs6">
    <linearGradient
       y2="160"
       x2="160"
       y1="120"
       x1="135"
       gradientTransform="matrix(0.05622958,0,0,0.05622958,0.07160145,-0.0527796)"
       gradientUnits="userSpaceOnUse"
       id="linearGradient3102-2">
      <stop
         style="stop-color:#eff7fc"
         id="stop12" />
      <stop
         offset="1"
         style="stop-color:#fff"
         id="stop14" />
    </linearGradient>
  </defs>
  <sodipodi:namedview
     pagecolor="#ffffff"
     bordercolor="#666666"
     borderopacity="1"
     objecttolerance="10"
     gridtolerance="10"
     guidetolerance="10"
     inkscape:pageopacity="0"
     inkscape:pageshadow="2"
     inkscape:window-width="1366"
     inkscape:window-height="713"
     id="namedview4"
     showgrid="false"
     inkscape:zoom="0.29667058"
     inkscape:cx="-1019.1802"
     inkscape:cy="-249.23965"
     inkscape:window-x="0"
     inkscape:window-y="26"
     inkscape:window-maximized="1"
     inkscape:current-layer="layer3" />
  <g
     inkscape:groupmode="layer"
     id="layer3"
     inkscape:label="Layer 3"
     transform="translate(0,230.75)"
     style="display:inline">
    <path
       style="display:inline;fill:#fc4f4f;fill-opacity:1;fill-rule:evenodd;stroke:none;stroke-width:0.9919042px;stroke-linecap:butt;stroke-linejoin:miter;stroke-opacity:1"
       d="m 99.367208,-177.82053 c 92.460142,-30.57262 219.305282,-30.57262 312.736242,0 22.10299,7.23266 42.46686,26.89673 49.37941,48.91534 27.0337,86.111274 27.67678,230.05444 0,309.79656 -7.56841,21.80598 -27.12464,42.15474 -49.37941,48.91515 -93.43096,28.38212 -220.2761,28.79975 -312.736242,0 -22.20579,-6.91663 -42.155178,-26.99494 -49.379409,-48.91515 -26.280504,-79.74212 -27.017744,-223.685286 0,-309.79656 6.908801,-22.01974 27.299341,-41.61422 49.379409,-48.91534 z"
       id="path4152"
       inkscape:connector-curvature="0"
       sodipodi:nodetypes="sssssssss" />
  </g>
  <g
     inkscape:groupmode="layer"
     id="layer2"
     inkscape:label="Layer 2"
     transform="translate(0,230.75)">
    <path
       inkscape:connector-curvature="0"
       d="m 140.27924,-25.341726 98.47009,173.972906 c 0,0 5.32983,9.31309 18.74858,9.31309 13.40933,0 18.74858,-9.31309 18.74858,-9.31309 0,0 68.44034,-104.826325 96.36075,-160.74249 2.80617,-5.612333 5.82892,-11.290583 7.10016,-17.449083 0.86634,-4.181 1.28068,-8.663333 0.2825,-12.816083 -1.21474,-5.066166 -3.5595,-10.245333 -7.38266,-13.776582 -4.41642,-4.077417 -10.54666,-6.58225 -16.51683,-7.20375 -6.42217,-0.678 -13.26808,0.866333 -19.02168,3.87025 -4.03974,2.128166 -7.62749,5.527583 -9.88749,9.510833 -2.24116,3.945583 -2.81558,8.729249 -3.06983,13.258666 -0.1695,3.116916 0.44258,6.252666 1.08291,9.303666 0.21658,1.04525 0.57441,2.06225 0.93225,3.060417 0.91341,2.551916 2.15641,4.972 3.08866,7.5145 0.77216,2.090499 1.84567,4.143333 2.0905,6.365666 0.3955,3.5783332 0.30133,7.4014998 -1.017,10.74441631 C 323.85715,16.543606 312.80198,32.194105 298.18732,41.752022 c -6.05492,3.954999 -13.80484,4.943749 -21.02742,5.254499 -8.23958,0.348417 -17.73158,-0.301333 -24.41742,-3.936166 -6.68583,-3.634833 -9.831,-9.944 -14.02141,-15.50925 -19.22883,-25.5191654 -50.66166,-81.416497 -50.66166,-81.416497 0,0 -13.66358,-24.153749 -38.2505,-9.510833 -24.5775,14.652333 -9.55792,38.043332 -9.55792,38.043332 z"
       style="fill:#f9f9f9;fill-rule:evenodd;stroke:none"
       id="path29" />
  </g>
</svg>
