<?xml version="1.0" encoding="UTF-8" standalone="no"?>
<svg
   xmlns:dc="http://purl.org/dc/elements/1.1/"
   xmlns:cc="http://creativecommons.org/ns#"
   xmlns:rdf="http://www.w3.org/1999/02/22-rdf-syntax-ns#"
   xmlns:svg="http://www.w3.org/2000/svg"
   xmlns="http://www.w3.org/2000/svg"
   xmlns:xlink="http://www.w3.org/1999/xlink"
   id="svg2"
   version="1.1"
   width="512"
   height="512"
   viewBox="0 0 512 512">
  <metadata
     id="metadata8">
    <rdf:RDF>
      <cc:Work
         rdf:about="">
        <dc:format>image/svg+xml</dc:format>
        <dc:type
           rdf:resource="http://purl.org/dc/dcmitype/StillImage" />
        <dc:title></dc:title>
      </cc:Work>
    </rdf:RDF>
  </metadata>
  <defs
     id="defs6">
    <linearGradient
       y2="160"
       x2="160"
       y1="120"
       x1="135"
       gradientTransform="matrix(0.05622958,0,0,0.05622958,0.07160145,-0.0527796)"
       gradientUnits="userSpaceOnUse"
       id="linearGradient3102-2">
      <stop
         style="stop-color:#eff7fc"
         id="stop12" />
      <stop
         offset="1"
         style="stop-color:#fff"
         id="stop14" />
    </linearGradient>
    <linearGradient
       id="linearGradient4910"
       x1="1"
       x2="47"
       gradientUnits="userSpaceOnUse"
       gradientTransform="matrix(0,0.54990985,-0.54990985,0,37.847987,244.26246)">
      <stop
         style="stop-color:#8a8a8a;stop-opacity:1"
         id="stop24" />
      <stop
         offset="1"
         style="stop-color:#808080;stop-opacity:1"
         id="stop26" />
    </linearGradient>
    <linearGradient
       gradientTransform="matrix(0.54990985,0,0,0.54990985,11.452315,244.26246)"
       xlink:href="#linearGradient4389"
       id="linearGradient4363"
       y1="47"
       x2="0"
       y2="1"
       gradientUnits="userSpaceOnUse" />
    <linearGradient
       id="linearGradient4389">
      <stop
         style="stop-color:#666;stop-opacity:1"
         id="stop12-7" />
      <stop
         offset="1"
         style="stop-color:#707070;stop-opacity:1"
         id="stop14-5" />
    </linearGradient>
    <linearGradient
       gradientTransform="matrix(0.54990985,0,0,0.54990985,11.452315,244.26246)"
       xlink:href="#linearGradient4397"
       id="linearGradient4403"
       y1="47"
       x2="0"
       y2="1"
       gradientUnits="userSpaceOnUse" />
    <linearGradient
       id="linearGradient4397">
      <stop
         style="stop-color:#5c5c5c;stop-opacity:1"
         id="stop7" />
      <stop
         offset="1"
         style="stop-color:#666;stop-opacity:1"
         id="stop9" />
    </linearGradient>
    <linearGradient
       gradientTransform="matrix(0.54990985,0,0,0.54990985,11.452315,244.26246)"
       xlink:href="#linearGradient4389"
       id="linearGradient4395"
       y1="47"
       x2="0"
       y2="1"
       gradientUnits="userSpaceOnUse" />
    <linearGradient
       gradientTransform="matrix(0.54990985,0,0,0.54990985,11.452315,244.26246)"
       xlink:href="#linearGradient4397"
       id="linearGradient4387"
       y1="47"
       x2="0"
       y2="1"
       gradientUnits="userSpaceOnUse" />
    <linearGradient
       gradientTransform="matrix(0.54990985,0,0,0.54990985,11.452315,244.26246)"
       xlink:href="#linearGradient4389"
       id="linearGradient4379"
       y1="47"
       x2="0"
       y2="1"
       gradientUnits="userSpaceOnUse" />
    <radialGradient
       xlink:href="#radial0"
       id="radialGradient3427"
       gradientUnits="userSpaceOnUse"
       gradientTransform="matrix(1.2459588,0,0,1.2459588,16.210857,249.02114)"
       cx="6.7729998"
       cy="5.927"
       r="0.56400001" />
    <radialGradient
       id="radial0"
       gradientUnits="userSpaceOnUse"
       cx="6.7729998"
       cy="5.927"
       r="0.56400001"
       gradientTransform="matrix(3.543307,0,0,3.543307,1.47638e-7,3.77575e-4)">
      <stop
         style="stop-color:#8eb0c7;stop-opacity:1"
         id="stop17" />
      <stop
         offset="1"
         style="stop-color:#8eb0c7;stop-opacity:0"
         id="stop19" />
    </radialGradient>
    <radialGradient
       id="radial1"
       gradientUnits="userSpaceOnUse"
       cx="6"
       cy="17.292"
       r="1"
       gradientTransform="matrix(0.35163727,0,0,0.35163727,22.540326,252.08305)"
       xlink:href="#radial0" />
    <radialGradient
       id="radialGradient4251"
       gradientUnits="userSpaceOnUse"
       cx="6.7729998"
       cy="5.927"
       r="0.56400001"
       gradientTransform="matrix(3.543307,0,0,3.543307,1.47638e-7,3.77575e-4)">
      <stop
         style="stop-color:#8eb0c7;stop-opacity:1"
         id="stop4253" />
      <stop
         offset="1"
         style="stop-color:#8eb0c7;stop-opacity:0"
         id="stop4255" />
    </radialGradient>
    <linearGradient
       gradientTransform="matrix(0.54990985,0,0,0.54990985,11.452315,244.26246)"
       xlink:href="#linearGradient4397"
       id="linearGradient4355"
       y1="47"
       x2="0"
       y2="1"
       gradientUnits="userSpaceOnUse" />
    <radialGradient
       cx="23"
       cy="33.9375"
       r="18.25"
       fx="23"
       fy="33.9375"
       id="radialGradient6498"
       xlink:href="#linearGradient6492"
       gradientUnits="userSpaceOnUse"
       gradientTransform="matrix(1,0,0,0.43493202,0.125,17.177001)" />
    <linearGradient
       id="linearGradient6492">
      <stop
         style="stop-color:black;stop-opacity:1"
         offset="0"
         id="stop6494" />
      <stop
         style="stop-color:black;stop-opacity:0"
         offset="1"
         id="stop6496" />
    </linearGradient>
    <radialGradient
       cx="18.557627"
       cy="22.300018"
       r="19.2292"
       fx="18.557627"
       fy="22.300018"
       id="radialGradient4354"
       xlink:href="#linearGradient6500"
       gradientUnits="userSpaceOnUse"
       gradientTransform="matrix(1.77275,0,0,1.29668,-16.3404,-6.615959)" />
    <linearGradient
       id="linearGradient6500">
      <stop
         style="stop-color:#857c63;stop-opacity:1"
         offset="0"
         id="stop6502" />
      <stop
         style="stop-color:#221f19;stop-opacity:1"
         offset="1"
         id="stop6504" />
    </linearGradient>
    <linearGradient
       x1="32.350136"
       y1="28.083355"
       x2="21.213203"
       y2="30.293064"
       id="linearGradient4351"
       xlink:href="#linearGradient6492"
       gradientUnits="userSpaceOnUse"
       gradientTransform="translate(-3.836549,0.345971)" />
    <linearGradient
       x1="14.96875"
       y1="19.110678"
       x2="39.524544"
       y2="46.98568"
       id="linearGradient8530"
       xlink:href="#linearGradient8524"
       gradientUnits="userSpaceOnUse" />
    <linearGradient
       id="linearGradient8524">
      <stop
         style="stop-color:white;stop-opacity:1"
         offset="0"
         id="stop8526" />
      <stop
         style="stop-color:white;stop-opacity:0"
         offset="1"
         id="stop8528" />
    </linearGradient>
    <radialGradient
       cx="69.473244"
       cy="19.597878"
       r="3.5153139"
       fx="69.473244"
       fy="19.597878"
       id="radialGradient4363"
       xlink:href="#linearGradient6468"
       gradientUnits="userSpaceOnUse"
       gradientTransform="matrix(1.684735,0,0,1.684735,-103.39924,-14.483279)" />
    <linearGradient
       id="linearGradient6468">
      <stop
         style="stop-color:white;stop-opacity:1"
         offset="0"
         id="stop6470" />
      <stop
         style="stop-color:#b9b9b0;stop-opacity:1"
         offset="1"
         id="stop6472" />
    </linearGradient>
    <radialGradient
       cx="6.0242186"
       cy="25.271027"
       r="4.8310289"
       fx="6.0242186"
       fy="25.271027"
       id="radialGradient8548"
       xlink:href="#linearGradient8542"
       gradientUnits="userSpaceOnUse"
       gradientTransform="matrix(0.79751102,-0.46044319,0.53741287,0.93082752,-13.91157,2.5868096)" />
    <linearGradient
       id="linearGradient8542">
      <stop
         style="stop-color:#5b676b;stop-opacity:1"
         offset="0"
         id="stop8544" />
      <stop
         style="stop-color:#141718;stop-opacity:1"
         offset="1"
         id="stop8546" />
    </linearGradient>
    <linearGradient
       x1="6.3051529"
       y1="23.362427"
       x2="5.9846287"
       y2="31.57"
       id="linearGradient6458"
       xlink:href="#linearGradient8524"
       gradientUnits="userSpaceOnUse"
       gradientTransform="matrix(0.800389,-0.599481,0.599481,0.800389,-15.2744,7.32784)" />
    <radialGradient
       cx="69.473244"
       cy="19.597878"
       r="3.5153139"
       fx="69.473244"
       fy="19.597878"
       id="radialGradient6474"
       xlink:href="#linearGradient6468"
       gradientUnits="userSpaceOnUse"
       gradientTransform="matrix(1.977732,0,0,1.977732,-115.35781,-20.281056)" />
    <linearGradient
       x1="37.017639"
       y1="19.239889"
       x2="27.753893"
       y2="11.182488"
       id="linearGradient6957"
       xlink:href="#linearGradient6951"
       gradientUnits="userSpaceOnUse"
       gradientTransform="translate(-49.30496,1.877723)" />
    <linearGradient
       id="linearGradient6951">
      <stop
         style="stop-color:#6e3d09;stop-opacity:1"
         offset="0"
         id="stop6953" />
      <stop
         style="stop-color:#ea8113;stop-opacity:1"
         offset="0.24242425"
         id="stop6959" />
      <stop
         style="stop-color:#5c3307;stop-opacity:1"
         offset="0.62121212"
         id="stop6961" />
      <stop
         style="stop-color:#e07c12;stop-opacity:1"
         offset="1"
         id="stop6955" />
    </linearGradient>
    <linearGradient
       x1="19.394735"
       y1="30.001331"
       x2="23.109331"
       y2="33.438831"
       id="linearGradient6945"
       xlink:href="#linearGradient6939"
       gradientUnits="userSpaceOnUse"
       gradientTransform="translate(-46.40695,-1.802856)" />
    <linearGradient
       id="linearGradient6939">
      <stop
         style="stop-color:#bdbdbd;stop-opacity:1"
         offset="0"
         id="stop6941" />
      <stop
         style="stop-color:#e2e2e2;stop-opacity:1"
         offset="0.33333334"
         id="stop6947" />
      <stop
         style="stop-color:#a3a3a3;stop-opacity:1"
         offset="0.66666669"
         id="stop6949" />
      <stop
         style="stop-color:#ddd;stop-opacity:1"
         offset="1"
         id="stop6943" />
    </linearGradient>
    <radialGradient
       cx="15.415101"
       cy="35.356506"
       r="7.5791559"
       fx="15.415101"
       fy="35.356506"
       id="radialGradient6969"
       xlink:href="#linearGradient6963"
       gradientUnits="userSpaceOnUse"
       gradientTransform="matrix(1.572694,0,0,1.532639,-55.36682,-21.35823)" />
    <linearGradient
       id="linearGradient6963">
      <stop
         style="stop-color:#696969;stop-opacity:1"
         offset="0"
         id="stop6965" />
      <stop
         style="stop-color:black;stop-opacity:1"
         offset="1"
         id="stop6967" />
    </linearGradient>
    <linearGradient
       x1="13.236155"
       y1="37.752247"
       x2="7.7521091"
       y2="42.282146"
       id="linearGradient2452"
       xlink:href="#linearGradient8524"
       gradientUnits="userSpaceOnUse"
       gradientTransform="matrix(0.755165,0.395143,-0.395143,0.755165,-25.91245,6.532586)" />
    <linearGradient
       x1="26.162951"
       y1="30.543303"
       x2="24.328892"
       y2="30.985245"
       id="linearGradient4330"
       xlink:href="#linearGradient6492"
       gradientUnits="userSpaceOnUse" />
  </defs>
  <g
     id="layer3"
     transform="translate(0,230.75)"
     style="display:inline;fill:#498cd8;fill-opacity:1">
    <path
       style="display:inline;fill:#498cd8;fill-opacity:1;fill-rule:evenodd;stroke:none;stroke-width:0.9919042px;stroke-linecap:butt;stroke-linejoin:miter;stroke-opacity:1"
       d="m 100.90188,-187.31324 c 94.50572,-31.24901 224.15717,-31.24901 319.65518,0 22.592,7.39267 43.4064,27.49179 50.47188,49.99754 27.63179,88.016387 28.2891,235.144132 0,316.65046 -7.73585,22.28842 -27.72474,43.08737 -50.47188,49.99735 -95.49801,29.01004 -225.14946,29.4369 -319.65518,0 -22.697068,-7.06966 -43.087814,-27.59218 -50.471873,-49.99735 -26.861931,-81.506328 -27.615482,-228.634073 0,-316.65046 7.061651,-22.50691 27.903308,-42.53489 50.471873,-49.99754 z"
       id="path4152" />
  </g>
  <path
     id="path4148"
     d="m 242.21997,392.3335 c -39.92104,-7.85615 -78.84362,-38.07128 -96.95175,-75.26248 -21.34587,-48.73259 -9.64899,-112.72706 22.86203,-148.47635 55.11846,-59.53452 144.58556,-59.53452 199.70402,0 34.17711,44.71606 44.16718,95.34005 25.70412,142.58517 -15.51396,39.02653 -58.41975,73.20869 -102.13241,81.36678 -20.23583,3.7766 -29.10751,3.73817 -49.18601,-0.21311 z m -31.82051,-32.62994 c -2.86361,-4.6334 3.68048,-15.55874 21.88974,-36.54485 8.76478,-10.10137 15.93597,-20.75683 15.93597,-23.67883 0,-2.92198 1.48177,-6.22848 3.29284,-7.34777 6.07652,-3.75551 3.37043,-11.63083 -5.36403,-15.61052 -4.76128,-2.16938 -12.87562,-7.88522 -18.03184,-12.70185 -10.55887,-9.86346 -25.54234,-14.00206 -31.83893,-8.79425 -2.30761,1.90858 -4.57937,2.88854 -5.04835,2.17771 -0.46899,-0.71085 -2.91557,-5.38478 -5.43684,-10.38649 -3.28937,-6.52552 -6.28123,-8.55543 -10.59271,-7.18703 -4.75113,1.50795 -6.00854,0.13788 -6.00854,-6.54698 0,-6.62635 1.63732,-8.45403 7.57356,-8.45403 4.16544,0 9.35168,1.77816 11.52497,3.95143 3.07332,3.07333 3.95142,2.59358 3.95142,-2.15882 0,-7.6036 15.8649,-28.89448 19.7442,-26.49695 1.56787,0.969 3.78141,0.25589 4.91898,-1.58473 1.13756,-1.84062 0.12862,-3.36926 -2.24211,-3.39699 -3.17573,-0.0372 -3.03308,-0.8582 0.54197,-3.11904 3.18414,-2.01362 5.66974,-1.74605 7.22987,0.77827 1.30762,2.11578 3.18159,3.04281 4.16436,2.06002 3.29596,-3.29595 -12.88338,-21.68105 -17.89302,-20.33243 -3.02109,0.81327 -2.19647,-1.08649 2.12333,-4.8918 6.67955,-5.88403 6.74276,-6.42122 1.16541,-9.90433 -8.68351,-5.42294 -17.94239,5.74159 -19.50105,23.51473 -0.13857,1.58006 -2.50241,1.00511 -5.25299,-1.27766 -6.87466,-5.70546 -15.53617,2.49115 -26.66146,25.23039 -11.00678,22.49709 -8.99202,32.5888 7.90654,39.60283 6.72704,2.79216 13.41596,7.13986 14.86425,9.66155 1.4483,2.52169 4.94084,4.58489 7.76121,4.58489 3.59226,0 4.41751,1.7257 2.75563,5.76247 -5.13153,12.46487 -4.7991,16.08669 2.58189,28.12953 7.05497,11.51087 7.41364,14.26508 4.58195,35.18401 -3.36726,24.87543 -1.86023,33.00232 6.11985,33.00232 2.88032,0 4.34009,-1.45115 3.24393,-3.2248 z m 133.31833,-36.2894 c 3.62214,-3.62213 6.58571,-9.46181 6.58571,-12.97706 0,-3.51525 1.48178,-7.30716 3.29285,-8.42646 1.81106,-1.11931 3.29284,-6.846 3.29284,-12.726 0,-6.29541 3.45001,-15.35388 8.39124,-22.03239 7.21438,-9.75088 7.62569,-11.50055 2.93274,-12.4755 -4.08756,-0.8492 -2.88699,-2.69784 4.78017,-7.36052 6.97526,-4.24191 10.23865,-8.79744 10.23865,-14.29266 0,-11.55851 -5.99346,-25.71382 -9.87238,-23.31653 -1.81446,1.12141 -3.41239,0.0993 -3.55096,-2.27149 -0.84694,-14.49017 -6.00306,-22.84273 -24.44443,-39.59837 -13.07908,-11.88353 -16.49994,-12.49278 -27.39164,-4.87839 -10.15179,7.09713 -12.32569,14.86246 -3.57122,12.75675 2.73627,-0.65816 1.9666,1.661 -2.00925,6.05428 l -6.4445,7.12111 -4.50008,-6.77748 c -4.09989,-6.17477 -4.96238,-6.31517 -9.69883,-1.57873 -4.73643,4.73644 -4.70663,5.47418 0.33522,8.29572 7.05887,3.95036 7.20373,12.64829 0.21067,12.64829 -3.83823,0 -4.80298,1.98986 -3.45811,7.13266 1.13299,4.33256 -0.65528,10.67238 -4.55522,16.14935 -13.2215,18.56789 -5.66578,39.28213 14.32854,39.28213 6.48496,0 12.771,1.58593 13.96896,3.52428 1.19797,1.93836 3.471,13.8207 5.05116,26.40521 4.44252,35.38039 11.78781,43.64186 26.08787,29.3418 z M 319.1137,216.01843 c -2.50862,-2.50863 -7.81199,-4.56115 -11.78523,-4.56115 -6.04807,0 -6.55678,-0.80408 -3.12486,-4.9393 5.10588,-6.15219 12.82013,-6.39324 15.09247,-0.47161 0.94293,2.45722 4.97133,4.1798 8.95201,3.82793 7.03998,-0.62228 26.97988,7.6639 20.40898,8.48112 -17.50008,2.17647 -25.6767,1.52968 -29.54337,-2.33699 z m 26.01014,-16.15684 c 3.48993,-2.64028 7.15147,-3.99436 8.13677,-3.00908 2.06689,2.06691 -6.29626,7.9446 -11.18923,7.86392 -1.81108,-0.03 -0.43746,-2.21454 3.05246,-4.85484 z m -21.11272,-20.5096 c 0.0277,-1.3583 1.30331,-4.4461 2.83461,-6.86179 2.2694,-3.58007 3.13136,-3.48738 4.66197,0.50129 1.03278,2.6914 0.99202,5.7792 -0.0906,6.86178 -2.76903,2.76905 -7.46628,2.45112 -7.40598,-0.50128 z m 45.44552,120.75863 c 0.99266,-10.73306 0.80108,-10.95685 -4.01134,-4.68567 -6.13072,7.98903 -6.87297,19.18791 -1.14719,17.30828 2.26383,-0.74318 4.58516,-6.42334 5.15853,-12.62261 z M 197.18599,237.80007 c -1.1193,-1.81105 -4.54077,-3.1887 -7.60325,-3.06141 -4.53917,0.18868 -4.35114,0.75441 1.01756,3.06141 8.81137,3.78638 8.9258,3.78638 6.58569,0 z m 64.53879,-75.73554 c 6.44293,0 12.84317,-9.14693 12.84317,-18.35487 0,-4.81215 -2.47556,-5.3548 -17.28745,-3.78935 -9.50811,1.00489 -21.28229,3.36775 -26.16483,5.25079 -8.80431,3.39553 -8.83353,3.51302 -3.5508,14.27462 7.27512,14.82037 10.68704,16.3427 20.0758,8.9575 4.43208,-3.48627 10.76993,-6.33869 14.08411,-6.33869 z m 19.42888,3.29285 c 0,-1.81107 -2.13522,-3.29285 -4.74494,-3.29285 -2.60971,0 -5.66073,1.48178 -6.78003,3.29285 -1.1193,1.81107 1.01592,3.29285 4.74494,3.29285 3.72901,0 6.78003,-1.48178 6.78003,-3.29285 z"
     style="fill:#ffffff;fill-opacity:1" />
</svg>
