<?xml version="1.0" encoding="UTF-8" standalone="no"?>
<svg
   xmlns:dc="http://purl.org/dc/elements/1.1/"
   xmlns:cc="http://creativecommons.org/ns#"
   xmlns:rdf="http://www.w3.org/1999/02/22-rdf-syntax-ns#"
   xmlns:svg="http://www.w3.org/2000/svg"
   xmlns="http://www.w3.org/2000/svg"
   xmlns:xlink="http://www.w3.org/1999/xlink"
   viewBox="0 0 512 512"
   height="512"
   width="512"
   version="1.1"
   id="svg2">
  <metadata
     id="metadata8">
    <rdf:RDF>
      <cc:Work
         rdf:about="">
        <dc:format>image/svg+xml</dc:format>
        <dc:type
           rdf:resource="http://purl.org/dc/dcmitype/StillImage" />
        <dc:title></dc:title>
      </cc:Work>
    </rdf:RDF>
  </metadata>
  <defs
     id="defs6">
    <linearGradient
       id="linearGradient3102-2"
       gradientUnits="userSpaceOnUse"
       gradientTransform="matrix(0.05622958,0,0,0.05622958,0.07160145,-0.0527796)"
       x1="135"
       y1="120"
       x2="160"
       y2="160">
      <stop
         id="stop12"
         style="stop-color:#eff7fc" />
      <stop
         id="stop14"
         style="stop-color:#fff"
         offset="1" />
    </linearGradient>
    <linearGradient
       gradientTransform="matrix(0,0.54990985,-0.54990985,0,37.847987,244.26246)"
       gradientUnits="userSpaceOnUse"
       x2="47"
       x1="1"
       id="linearGradient4910">
      <stop
         id="stop24"
         style="stop-color:#8a8a8a;stop-opacity:1" />
      <stop
         id="stop26"
         style="stop-color:#808080;stop-opacity:1"
         offset="1" />
    </linearGradient>
    <linearGradient
       gradientUnits="userSpaceOnUse"
       y2="1"
       x2="0"
       y1="47"
       id="linearGradient4363"
       xlink:href="#linearGradient4389"
       gradientTransform="matrix(0.54990985,0,0,0.54990985,11.452315,244.26246)" />
    <linearGradient
       id="linearGradient4389">
      <stop
         id="stop12-7"
         style="stop-color:#666;stop-opacity:1" />
      <stop
         id="stop14-5"
         style="stop-color:#707070;stop-opacity:1"
         offset="1" />
    </linearGradient>
    <linearGradient
       gradientUnits="userSpaceOnUse"
       y2="1"
       x2="0"
       y1="47"
       id="linearGradient4403"
       xlink:href="#linearGradient4397"
       gradientTransform="matrix(0.54990985,0,0,0.54990985,11.452315,244.26246)" />
    <linearGradient
       id="linearGradient4397">
      <stop
         id="stop7"
         style="stop-color:#5c5c5c;stop-opacity:1" />
      <stop
         id="stop9"
         style="stop-color:#666;stop-opacity:1"
         offset="1" />
    </linearGradient>
    <linearGradient
       gradientUnits="userSpaceOnUse"
       y2="1"
       x2="0"
       y1="47"
       id="linearGradient4395"
       xlink:href="#linearGradient4389"
       gradientTransform="matrix(0.54990985,0,0,0.54990985,11.452315,244.26246)" />
    <linearGradient
       gradientUnits="userSpaceOnUse"
       y2="1"
       x2="0"
       y1="47"
       id="linearGradient4387"
       xlink:href="#linearGradient4397"
       gradientTransform="matrix(0.54990985,0,0,0.54990985,11.452315,244.26246)" />
    <linearGradient
       gradientUnits="userSpaceOnUse"
       y2="1"
       x2="0"
       y1="47"
       id="linearGradient4379"
       xlink:href="#linearGradient4389"
       gradientTransform="matrix(0.54990985,0,0,0.54990985,11.452315,244.26246)" />
    <radialGradient
       r="0.56400001"
       cy="5.927"
       cx="6.7729998"
       gradientTransform="matrix(1.2459588,0,0,1.2459588,16.210857,249.02114)"
       gradientUnits="userSpaceOnUse"
       id="radialGradient3427"
       xlink:href="#radial0" />
    <radialGradient
       gradientTransform="matrix(3.543307,0,0,3.543307,1.47638e-7,3.77575e-4)"
       r="0.56400001"
       cy="5.927"
       cx="6.7729998"
       gradientUnits="userSpaceOnUse"
       id="radial0">
      <stop
         id="stop17"
         style="stop-color:#8eb0c7;stop-opacity:1" />
      <stop
         id="stop19"
         style="stop-color:#8eb0c7;stop-opacity:0"
         offset="1" />
    </radialGradient>
    <radialGradient
       xlink:href="#radial0"
       gradientTransform="matrix(0.35163727,0,0,0.35163727,22.540326,252.08305)"
       r="1"
       cy="17.292"
       cx="6"
       gradientUnits="userSpaceOnUse"
       id="radial1" />
    <radialGradient
       gradientTransform="matrix(3.543307,0,0,3.543307,1.47638e-7,3.77575e-4)"
       r="0.56400001"
       cy="5.927"
       cx="6.7729998"
       gradientUnits="userSpaceOnUse"
       id="radialGradient4251">
      <stop
         id="stop4253"
         style="stop-color:#8eb0c7;stop-opacity:1" />
      <stop
         id="stop4255"
         style="stop-color:#8eb0c7;stop-opacity:0"
         offset="1" />
    </radialGradient>
    <linearGradient
       gradientUnits="userSpaceOnUse"
       y2="1"
       x2="0"
       y1="47"
       id="linearGradient4355"
       xlink:href="#linearGradient4397"
       gradientTransform="matrix(0.54990985,0,0,0.54990985,11.452315,244.26246)" />
    <radialGradient
       gradientTransform="matrix(1,0,0,0.43493202,0.125,17.177001)"
       gradientUnits="userSpaceOnUse"
       xlink:href="#linearGradient6492"
       id="radialGradient6498"
       fy="33.9375"
       fx="23"
       r="18.25"
       cy="33.9375"
       cx="23" />
    <linearGradient
       id="linearGradient6492">
      <stop
         id="stop6494"
         offset="0"
         style="stop-color:black;stop-opacity:1" />
      <stop
         id="stop6496"
         offset="1"
         style="stop-color:black;stop-opacity:0" />
    </linearGradient>
    <radialGradient
       gradientTransform="matrix(1.77275,0,0,1.29668,-16.3404,-6.615959)"
       gradientUnits="userSpaceOnUse"
       xlink:href="#linearGradient6500"
       id="radialGradient4354"
       fy="22.300018"
       fx="18.557627"
       r="19.2292"
       cy="22.300018"
       cx="18.557627" />
    <linearGradient
       id="linearGradient6500">
      <stop
         id="stop6502"
         offset="0"
         style="stop-color:#857c63;stop-opacity:1" />
      <stop
         id="stop6504"
         offset="1"
         style="stop-color:#221f19;stop-opacity:1" />
    </linearGradient>
    <linearGradient
       gradientTransform="translate(-3.836549,0.345971)"
       gradientUnits="userSpaceOnUse"
       xlink:href="#linearGradient6492"
       id="linearGradient4351"
       y2="30.293064"
       x2="21.213203"
       y1="28.083355"
       x1="32.350136" />
    <linearGradient
       gradientUnits="userSpaceOnUse"
       xlink:href="#linearGradient8524"
       id="linearGradient8530"
       y2="46.98568"
       x2="39.524544"
       y1="19.110678"
       x1="14.96875" />
    <linearGradient
       id="linearGradient8524">
      <stop
         id="stop8526"
         offset="0"
         style="stop-color:white;stop-opacity:1" />
      <stop
         id="stop8528"
         offset="1"
         style="stop-color:white;stop-opacity:0" />
    </linearGradient>
    <radialGradient
       gradientTransform="matrix(1.684735,0,0,1.684735,-103.39924,-14.483279)"
       gradientUnits="userSpaceOnUse"
       xlink:href="#linearGradient6468"
       id="radialGradient4363"
       fy="19.597878"
       fx="69.473244"
       r="3.5153139"
       cy="19.597878"
       cx="69.473244" />
    <linearGradient
       id="linearGradient6468">
      <stop
         id="stop6470"
         offset="0"
         style="stop-color:white;stop-opacity:1" />
      <stop
         id="stop6472"
         offset="1"
         style="stop-color:#b9b9b0;stop-opacity:1" />
    </linearGradient>
    <radialGradient
       gradientTransform="matrix(0.79751102,-0.46044319,0.53741287,0.93082752,-13.91157,2.5868096)"
       gradientUnits="userSpaceOnUse"
       xlink:href="#linearGradient8542"
       id="radialGradient8548"
       fy="25.271027"
       fx="6.0242186"
       r="4.8310289"
       cy="25.271027"
       cx="6.0242186" />
    <linearGradient
       id="linearGradient8542">
      <stop
         id="stop8544"
         offset="0"
         style="stop-color:#5b676b;stop-opacity:1" />
      <stop
         id="stop8546"
         offset="1"
         style="stop-color:#141718;stop-opacity:1" />
    </linearGradient>
    <linearGradient
       gradientTransform="matrix(0.800389,-0.599481,0.599481,0.800389,-15.2744,7.32784)"
       gradientUnits="userSpaceOnUse"
       xlink:href="#linearGradient8524"
       id="linearGradient6458"
       y2="31.57"
       x2="5.9846287"
       y1="23.362427"
       x1="6.3051529" />
    <radialGradient
       gradientTransform="matrix(1.977732,0,0,1.977732,-115.35781,-20.281056)"
       gradientUnits="userSpaceOnUse"
       xlink:href="#linearGradient6468"
       id="radialGradient6474"
       fy="19.597878"
       fx="69.473244"
       r="3.5153139"
       cy="19.597878"
       cx="69.473244" />
    <linearGradient
       gradientTransform="translate(-49.30496,1.877723)"
       gradientUnits="userSpaceOnUse"
       xlink:href="#linearGradient6951"
       id="linearGradient6957"
       y2="11.182488"
       x2="27.753893"
       y1="19.239889"
       x1="37.017639" />
    <linearGradient
       id="linearGradient6951">
      <stop
         id="stop6953"
         offset="0"
         style="stop-color:#6e3d09;stop-opacity:1" />
      <stop
         id="stop6959"
         offset="0.24242425"
         style="stop-color:#ea8113;stop-opacity:1" />
      <stop
         id="stop6961"
         offset="0.62121212"
         style="stop-color:#5c3307;stop-opacity:1" />
      <stop
         id="stop6955"
         offset="1"
         style="stop-color:#e07c12;stop-opacity:1" />
    </linearGradient>
    <linearGradient
       gradientTransform="translate(-46.40695,-1.802856)"
       gradientUnits="userSpaceOnUse"
       xlink:href="#linearGradient6939"
       id="linearGradient6945"
       y2="33.438831"
       x2="23.109331"
       y1="30.001331"
       x1="19.394735" />
    <linearGradient
       id="linearGradient6939">
      <stop
         id="stop6941"
         offset="0"
         style="stop-color:#bdbdbd;stop-opacity:1" />
      <stop
         id="stop6947"
         offset="0.33333334"
         style="stop-color:#e2e2e2;stop-opacity:1" />
      <stop
         id="stop6949"
         offset="0.66666669"
         style="stop-color:#a3a3a3;stop-opacity:1" />
      <stop
         id="stop6943"
         offset="1"
         style="stop-color:#ddd;stop-opacity:1" />
    </linearGradient>
    <radialGradient
       gradientTransform="matrix(1.572694,0,0,1.532639,-55.36682,-21.35823)"
       gradientUnits="userSpaceOnUse"
       xlink:href="#linearGradient6963"
       id="radialGradient6969"
       fy="35.356506"
       fx="15.415101"
       r="7.5791559"
       cy="35.356506"
       cx="15.415101" />
    <linearGradient
       id="linearGradient6963">
      <stop
         id="stop6965"
         offset="0"
         style="stop-color:#696969;stop-opacity:1" />
      <stop
         id="stop6967"
         offset="1"
         style="stop-color:black;stop-opacity:1" />
    </linearGradient>
    <linearGradient
       gradientTransform="matrix(0.755165,0.395143,-0.395143,0.755165,-25.91245,6.532586)"
       gradientUnits="userSpaceOnUse"
       xlink:href="#linearGradient8524"
       id="linearGradient2452"
       y2="42.282146"
       x2="7.7521091"
       y1="37.752247"
       x1="13.236155" />
    <linearGradient
       gradientUnits="userSpaceOnUse"
       xlink:href="#linearGradient6492"
       id="linearGradient4330"
       y2="30.985245"
       x2="24.328892"
       y1="30.543303"
       x1="26.162951" />
  </defs>
  <g
     style="display:inline"
     transform="translate(0,230.75)"
     id="layer3">
    <path
       id="path4152"
       d="m 100.90188,-187.31324 c 94.50572,-31.24901 224.15717,-31.24901 319.65518,0 22.592,7.39267 43.4064,27.49179 50.47188,49.99754 27.63179,88.016387 28.2891,235.144132 0,316.65046 -7.73585,22.28842 -27.72474,43.08737 -50.47188,49.99735 -95.49801,29.01004 -225.14946,29.4369 -319.65518,0 -22.697068,-7.06966 -43.087814,-27.59218 -50.471873,-49.99735 -26.861931,-81.506328 -27.615482,-228.634073 0,-316.65046 7.061651,-22.50691 27.903308,-42.53489 50.471873,-49.99754 z"
       style="display:inline;fill:#00ecff;fill-opacity:1;fill-rule:evenodd;stroke:none;stroke-width:0.9919042px;stroke-linecap:butt;stroke-linejoin:miter;stroke-opacity:1" />
    <g
       id="g35"
       transform="matrix(9.8873827,0,0,9.8873827,23.653317,-215.19655)">
      <g
         id="g37">
        <!-- color: #79cbe0 -->
        <g
           id="g39">
          <path
             id="path41"
             style="fill:#2d2d2d;fill-opacity:1;fill-rule:evenodd;stroke:none"
             d="m 19.23,15.488 c -1.516,-0.176 -2.547,0.836 -3.211,2.125 -0.918,-1.27 -2.02,-1.961 -3.578,-2.199 -0.523,-0.078 -1.211,-0.117 -1.555,0.367 -0.379,0.535 0.137,1.742 0.492,2.195 0.242,0.313 0.539,0.688 0.91,0.855 0.531,0.25 1.117,0.145 1.59,0.512 -0.188,-0.055 -0.344,-0.117 -0.543,-0.117 -1.086,-0.008 -0.977,1.035 -1.504,1.715 -0.828,1.066 -1.902,1.992 -1.828,3.457 0.082,1.637 1.645,3.113 3.207,3.41 0.727,0.137 1.531,0.051 2.273,0.051 l 0,0.133 c -0.895,0.047 -1.918,0.031 -2.461,0.395 -0.316,0.605 0.004,0.992 0.125,1.465 -0.215,0.098 -0.516,0.168 -0.645,0.41 -0.281,0.457 -0.168,0.891 -0.023,1.441 0.121,0.465 0.398,0.832 0.715,1.172 0.363,0.305 1.023,0.176 1.609,0.094 0.535,-0.074 1.465,-0.305 1.992,-0.422 1.102,-0.262 1.535,-0.363 2.688,-0.32 0.699,0.023 1.086,0.617 1.605,1.012 0.672,0.516 1.543,0.844 2.41,0.75 0.508,-0.059 0.953,-0.344 1.313,-0.691 0.195,-0.188 0.375,-0.488 0.648,-0.574 0.367,-0.117 1.012,0.219 1.383,0.293 1.168,0.238 2.645,0.004 3.211,-1.168 l 2.809,0.137 1.348,0.316 c 1.02,0.164 2.555,0.457 2.902,0.168 0.379,-0.191 0.996,-1.559 0.855,-2.574 -0.137,-0.359 -0.434,-0.441 -0.816,-0.566 0.133,-0.582 0.367,-1.297 0.082,-1.578 -0.52,-0.426 -2.355,-0.418 -3.699,-0.547 0.723,-0.836 1.449,-1.789 1.012,-2.926 -0.199,-0.516 -0.664,-0.941 -0.805,-1.465 -0.195,-0.711 0.148,-1.504 -0.078,-2.262 -0.105,-0.363 -0.242,-0.742 -0.48,-1.043 -0.199,-0.266 -0.551,-0.418 -0.691,-0.727 -0.238,-0.512 0.195,-1.129 -0.023,-1.688 -0.559,-1.398 -2.855,-2.082 -4.148,-1.465 -0.465,-1.613 -3.762,-2.031 -4.094,-1.203 -0.473,-0.395 -0.848,-0.418 -1.254,-0.363 -0.414,0.059 -1.086,0.316 -1.395,0.684 -0.527,-0.402 -2,-0.477 -2.355,0.75 m 0.012,-0.004" />
          <path
             id="path43"
             style="fill:#ffffff;fill-opacity:1;fill-rule:evenodd;stroke:none"
             d="m 21.367,15.754 c -0.051,-0.113 -0.086,-0.281 -0.18,-0.379 -0.516,-0.539 -1.137,-0.117 -1.473,0.383 -0.129,0.191 -0.254,0.52 -0.512,0.578 -0.234,0.051 -0.379,-0.184 -0.512,-0.32 -0.777,0.16 -1.633,0.902 -1.875,1.73 1.152,0.051 1.984,-0.926 3.211,-0.664 0.738,0.16 2.043,0.707 2.082,1.594 0.035,0.754 -0.824,1.414 -1.418,1.75 -0.727,0.414 -1.508,0.082 -2.273,0.246 0.266,0.59 0.898,1.367 0.949,1.996 0.094,1.109 -0.609,1.875 -1.043,2.789 -0.227,0.484 -0.063,1 -0.238,1.484 -0.273,0.738 -1.25,0.848 -1.941,0.91 0.102,0.512 0.418,0.852 0.602,1.328 0.117,0.301 0.109,0.629 0.238,0.93 0.488,1.152 1.402,1.273 2.504,1.332 0.172,-0.219 0.41,-0.594 0.742,-0.414 0.309,0.168 0.355,0.672 0.539,0.941 0.5,0.727 1.691,1.406 2.598,1.262 0.496,-0.078 1.039,-0.375 1.211,-0.871 0.113,-0.313 -0.141,-0.992 0.289,-1.129 0.402,-0.129 0.777,0.547 1.059,0.742 0.613,0.422 1.406,0.5 2.125,0.379 0.41,-0.07 1.141,-0.227 1.293,-0.68 0.117,-0.34 -0.465,-1.043 0.078,-1.203 0.418,-0.121 0.754,0.402 1.051,0.602 0.629,0.418 1.746,0.398 2.336,-0.105 0.75,-0.645 1.117,-2 0.504,-2.84 -0.227,-0.309 -0.941,-0.625 -0.875,-1.066 0.047,-0.316 0.473,-0.445 0.695,-0.613 0.465,-0.359 0.836,-0.918 0.773,-1.523 -0.063,-0.598 -0.512,-1.133 -0.941,-1.52 -0.215,-0.188 -0.523,-0.348 -0.645,-0.621 -0.207,-0.473 0.348,-0.605 0.684,-0.652 0.133,-0.902 -0.066,-1.957 -0.949,-2.434 -0.477,-0.262 -1.082,-0.305 -1.598,-0.492 0.324,-0.406 0.922,-0.625 1.16,-1.078 0.645,-1.234 -1.621,-2.023 -2.52,-1.945 -0.332,0.027 -0.684,0.313 -1.016,0.246 -0.414,-0.078 -0.57,-0.734 -0.867,-0.996 -0.504,-0.445 -1.789,-1.055 -2.438,-0.586 -0.27,0.195 -0.363,0.613 -0.473,0.906 -0.191,-0.277 -0.359,-0.633 -0.617,-0.852 -0.852,-0.711 -1.738,0.379 -2.328,0.852 m 0.008,0.004" />
          <path
             id="path45"
             style="fill:#e4b9b7;fill-opacity:1;fill-rule:evenodd;stroke:none"
             d="m 15.484,18.547 c -0.293,-1.098 -1.445,-2.043 -2.539,-2.305 -0.375,-0.09 -1.176,-0.246 -1.367,0.215 -0.176,0.434 0.23,0.965 0.5,1.266 0.551,0.621 1.066,0.574 1.805,0.746 0.648,0.148 0.945,0.309 1.605,0.078 m -0.004,0" />
          <path
             id="path47"
             style="fill:#e4b9b7;fill-opacity:1;fill-rule:evenodd;stroke:none"
             d="m 17.223,18.547 c 0.211,0.461 0.531,1.027 0.973,1.309 0.945,0.613 2.77,0.531 3.082,-0.777 0.316,-1.324 -1.895,-1.59 -2.719,-1.289 -0.48,0.18 -0.898,0.496 -1.34,0.758 m 0.004,0" />
          <path
             id="path49"
             style="fill:#e4b9b7;fill-opacity:1;fill-rule:evenodd;stroke:none"
             d="m 16.13,18.77 0,0.074 c 0,0.07 0.563,0.777 0.352,2.094 -0.184,0.648 -0.543,1.238 -0.902,1.852 -0.188,0.199 -0.344,0.34 -0.727,0.336 -0.582,-0.188 -0.527,-0.633 -0.699,-0.988 -0.336,0.207 -0.762,0.914 -1.188,0.844 -0.484,-0.074 -0.602,-1.074 -1.188,-0.82 -0.336,0.148 -0.754,0.727 -0.91,1.023 -0.852,1.648 0.324,3.441 2.01,3.945 1.051,0.309 2.328,0.402 3.391,0.172 0.367,-0.082 0.816,-0.07 1.148,-0.371 0.461,-0.367 0.355,-1.332 0.598,-1.816 0.355,-0.723 0.828,-1.188 0.871,-2.043 0.027,-0.531 -0.406,-0.895 -0.641,-1.328 -0.559,-1.02 -1.102,-2.254 -2.105,-2.965 m -0.008,-0.008" />
          <path
             id="path51"
             style="fill:#ffffff;fill-opacity:1;fill-rule:evenodd;stroke:none"
             d="m 14.547,21.871 0.137,0 c 0.355,-0.242 0.492,-0.152 0.805,0.133 0.477,-0.512 0.617,-1.238 0.461,-1.805 -0.68,-1.016 -1.277,0.059 -1.391,0.605 -0.074,0.371 -0.074,0.703 -0.012,1.066 m 0,0" />
          <path
             id="path53"
             style="fill:#ffffff;fill-opacity:1;fill-rule:evenodd;stroke:none"
             d="m 12.539,21.734 0.137,0 c 0.352,-0.242 0.492,-0.148 0.805,0.137 0.207,-0.434 0.879,-2.211 -0.137,-2.152 -0.785,0.047 -0.797,1.473 -0.805,2.02 m 0,0" />
          <path
             id="path55"
             style="fill:#e4b9b7;fill-opacity:1;fill-rule:evenodd;stroke:none"
             d="m 33.629,27.637 c 0.297,0.328 0.375,0.641 0.484,1.063 l 2.664,0.48 c 0.086,-0.207 0.375,-0.844 0.113,-1.129 -0.48,-0.32 -2.266,-0.309 -3.266,-0.414 m 0.004,0" />
          <path
             id="path57"
             style="fill:#e4b9b7;fill-opacity:1;fill-rule:evenodd;stroke:none"
             d="m 13.297,28.664 c -0.207,0.391 0.078,0.59 0.223,1.039 1.082,-0.125 2.055,-0.34 2.766,-0.367 l -0.438,-1.02 c -0.98,0.086 -2.223,-0.039 -2.551,0.352 m 0,-0.004" />
          <path
             id="path59"
             style="fill:#e4b9b7;fill-opacity:1;fill-rule:evenodd;stroke:none"
             d="m 34.16,29.12 c 0.164,0.746 -0.41,1.66 -1.188,2.359 1.195,0.355 3.328,0.832 3.813,0.672 0.484,-0.207 1.059,-1.711 0.801,-2.168 -0.391,-0.402 -2.313,-0.648 -3.43,-0.863 m 0.004,0" />
          <path
             id="path61"
             style="fill:#e4b9b7;fill-opacity:1;fill-rule:evenodd;stroke:none"
             d="m 12.762,30.465 c -0.219,0.492 0.055,1.789 0.719,2.164 1.395,0.148 2.988,-0.43 4.383,-0.789 -0.773,-0.551 -1.375,-1.145 -1.441,-2.082 -1.246,0.223 -2.934,0.184 -3.66,0.707 m 0,0" />
        </g>
      </g>
    </g>
  </g>
  <g
     style="display:inline"
     transform="translate(0,230.75)"
     id="layer2" />
</svg>
