<?xml version="1.0" encoding="UTF-8" standalone="no"?>
<svg
   xmlns:dc="http://purl.org/dc/elements/1.1/"
   xmlns:cc="http://creativecommons.org/ns#"
   xmlns:rdf="http://www.w3.org/1999/02/22-rdf-syntax-ns#"
   xmlns:svg="http://www.w3.org/2000/svg"
   xmlns="http://www.w3.org/2000/svg"
   height="512"
   width="512"
   version="1.1"
   id="svg2">
  <metadata
     id="metadata8">
    <rdf:RDF>
      <cc:Work
         rdf:about="">
        <dc:format>image/svg+xml</dc:format>
        <dc:type
           rdf:resource="http://purl.org/dc/dcmitype/StillImage" />
        <dc:title></dc:title>
      </cc:Work>
    </rdf:RDF>
  </metadata>
  <defs
     id="defs6">
    <filter
       color-interpolation-filters="sRGB"
       x="0"
       y="0"
       width="1"
       height="1"
       id="filter3775">
      <feTurbulence
         result="result0"
         seed="0"
         baseFrequency="1"
         numOctaves="3"
         type="fractalNoise"
         id="feTurbulence3777" />
      <feColorMatrix
         type="saturate"
         values="0"
         result="result4"
         id="feColorMatrix3779" />
      <feComposite
         result="result2"
         k3="0.5"
         k2="0.5"
         k1="1.25"
         operator="arithmetic"
         in="SourceGraphic"
         in2="result4"
         id="feComposite3781" />
      <feBlend
         in="result2"
         mode="normal"
         result="result5"
         in2="SourceGraphic"
         id="feBlend3783" />
      <feComposite
         result="result3"
         operator="in"
         in="result5"
         in2="SourceGraphic"
         id="feComposite3785" />
    </filter>
    <filter
       color-interpolation-filters="sRGB"
       x="0"
       y="0"
       width="1"
       height="1"
       id="filter3789">
      <feTurbulence
         result="result0"
         seed="0"
         baseFrequency="1"
         numOctaves="3"
         type="fractalNoise"
         id="feTurbulence3791" />
      <feColorMatrix
         type="saturate"
         values="0"
         result="result4"
         id="feColorMatrix3793" />
      <feComposite
         result="result2"
         k3="0.5"
         k2="0.5"
         k1="1.25"
         operator="arithmetic"
         in="SourceGraphic"
         in2="result4"
         id="feComposite3795" />
      <feBlend
         in="result2"
         mode="normal"
         result="result5"
         in2="SourceGraphic"
         id="feBlend3797" />
      <feComposite
         result="result3"
         operator="in"
         in="result5"
         in2="SourceGraphic"
         id="feComposite3799" />
    </filter>
    <filter
       color-interpolation-filters="sRGB"
       x="0"
       y="0"
       width="1"
       height="1"
       id="filter3836">
      <feTurbulence
         result="result0"
         seed="0"
         baseFrequency="1"
         numOctaves="3"
         type="fractalNoise"
         id="feTurbulence3838" />
      <feColorMatrix
         type="saturate"
         values="0"
         result="result4"
         id="feColorMatrix3840" />
      <feComposite
         result="result2"
         k3="0.5"
         k2="0.5"
         k1="1.25"
         operator="arithmetic"
         in="SourceGraphic"
         in2="result4"
         id="feComposite3842" />
      <feBlend
         in="result2"
         mode="normal"
         result="result5"
         in2="SourceGraphic"
         id="feBlend3844" />
      <feComposite
         result="result3"
         operator="in"
         in="result5"
         in2="SourceGraphic"
         id="feComposite3846" />
    </filter>
    <filter
       color-interpolation-filters="sRGB"
       x="0"
       y="0"
       width="1"
       height="1"
       id="filter3894">
      <feTurbulence
         result="result0"
         seed="0"
         baseFrequency="1"
         numOctaves="3"
         type="fractalNoise"
         id="feTurbulence3896" />
      <feColorMatrix
         type="saturate"
         values="0"
         result="result4"
         id="feColorMatrix3898" />
      <feComposite
         result="result2"
         k3="0.5"
         k2="0.5"
         k1="1.25"
         operator="arithmetic"
         in="SourceGraphic"
         in2="result4"
         id="feComposite3900" />
      <feBlend
         in="result2"
         mode="normal"
         result="result5"
         in2="SourceGraphic"
         id="feBlend3902" />
      <feComposite
         result="result3"
         operator="in"
         in="result5"
         in2="SourceGraphic"
         id="feComposite3904" />
    </filter>
    <filter
       color-interpolation-filters="sRGB"
       x="0"
       y="0"
       width="1"
       height="1"
       id="filter3927">
      <feTurbulence
         result="result0"
         seed="0"
         baseFrequency="1"
         numOctaves="3"
         type="fractalNoise"
         id="feTurbulence3929" />
      <feColorMatrix
         type="saturate"
         values="0"
         result="result4"
         id="feColorMatrix3931" />
      <feComposite
         result="result2"
         k3="0.5"
         k2="0.5"
         k1="1.25"
         operator="arithmetic"
         in="SourceGraphic"
         in2="result4"
         id="feComposite3933" />
      <feBlend
         in="result2"
         mode="normal"
         result="result5"
         in2="SourceGraphic"
         id="feBlend3935" />
      <feComposite
         result="result3"
         operator="in"
         in="result5"
         in2="SourceGraphic"
         id="feComposite3937" />
    </filter>
  </defs>
  <path
     id="rect3829"
     d="M 72.9375 88.28125 C 49.839056 88.28125 31.25 106.8703 31.25 129.96875 L 31.25 158.34375 L 31.25 273.625 L 31.25 280.03125 C 31.25 299.59422 46.999534 315.34375 66.5625 315.34375 L 72.9375 315.34375 L 214.3125 315.34375 L 450.0625 315.34375 C 469.62547 315.34375 485.375 299.59422 485.375 280.03125 L 485.375 158.34375 C 485.375 138.78078 469.62547 123.03125 450.0625 123.03125 L 235.5 123.03125 L 207.34375 88.28125 L 72.9375 88.28125 z "
     style="color:#000000;fill:#157496;fill-opacity:1;fill-rule:evenodd;stroke:none;stroke-width:40;marker:none;visibility:visible;display:inline;overflow:visible;enable-background:accumulate" />
  <rect
     ry="32.437965"
     y="143.62897"
     x="43.430237"
     height="183.0428"
     width="430.96158"
     id="rect3823"
     style="color:#000000;display:inline;overflow:visible;visibility:visible;fill:#fff4ee;fill-opacity:1;fill-rule:evenodd;stroke:none;stroke-width:40;marker:none;enable-background:accumulate" />
  <path
     id="rect3820"
     d="m 45.677517,163.26781 424.117733,-0.61017 c 17.97062,-0.0259 33.7976,14.51882 32.43797,32.43796 L 485.3752,417.27442 c -1.35963,17.91913 -14.46732,32.4376 -32.43796,32.43796 l -389.245208,0.008 C 45.721406,449.72055 32.710303,435.19375 31.254069,417.28223 L 13.239553,195.70577 c -1.456236,-17.91154 14.467356,-32.41211 32.437964,-32.43796 z"
     style="color:#000000;display:inline;overflow:visible;visibility:visible;fill:#41aacc;fill-opacity:1;fill-rule:evenodd;stroke:none;stroke-width:40;marker:none;enable-background:accumulate" />
  <path
     style="fill:#115570;fill-opacity:1"
     d="m 330.11137,307.84261 -10.43825,0 0,-27.83535 c 0,-7.72431 -6.26295,-13.91767 -13.91767,-13.91767 l -27.83535,0 0,-10.43825 a 17.397094,17.397094 0 0 0 -17.3971,-17.3971 17.397094,17.397094 0 0 0 -17.39709,17.3971 l 0,10.43825 -27.83535,0 a 13.917675,13.917675 0 0 0 -13.91768,13.91767 l 0,26.44358 10.43826,0 c 10.43825,0 18.78886,8.35061 18.78886,18.78887 0,10.43825 -8.35061,18.78886 -18.78886,18.78886 l -10.43826,0 0,26.44358 a 13.917675,13.917675 0 0 0 13.91768,13.91768 l 26.44358,0 0,-10.43826 c 0,-10.43825 8.35061,-18.78886 18.78886,-18.78886 10.43826,0 18.78887,8.35061 18.78887,18.78886 l 0,10.43826 26.44358,0 a 13.917675,13.917675 0 0 0 13.91767,-13.91768 l 0,-27.83535 10.43825,0 a 17.397094,17.397094 0 0 0 17.3971,-17.39709 17.397094,17.397094 0 0 0 -17.3971,-17.3971 z"
     id="path4267" />
</svg>
