<?xml version="1.0" encoding="UTF-8" standalone="no"?>
<svg
   xmlns:dc="http://purl.org/dc/elements/1.1/"
   xmlns:cc="http://creativecommons.org/ns#"
   xmlns:rdf="http://www.w3.org/1999/02/22-rdf-syntax-ns#"
   xmlns:svg="http://www.w3.org/2000/svg"
   xmlns="http://www.w3.org/2000/svg"
   height="512"
   width="512"
   version="1.1"
   id="svg2">
  <metadata
     id="metadata8">
    <rdf:RDF>
      <cc:Work
         rdf:about="">
        <dc:format>image/svg+xml</dc:format>
        <dc:type
           rdf:resource="http://purl.org/dc/dcmitype/StillImage" />
        <dc:title></dc:title>
      </cc:Work>
    </rdf:RDF>
  </metadata>
  <defs
     id="defs6">
    <filter
       color-interpolation-filters="sRGB"
       x="0"
       y="0"
       width="1"
       height="1"
       id="filter3775">
      <feTurbulence
         result="result0"
         seed="0"
         baseFrequency="1"
         numOctaves="3"
         type="fractalNoise"
         id="feTurbulence3777" />
      <feColorMatrix
         type="saturate"
         values="0"
         result="result4"
         id="feColorMatrix3779" />
      <feComposite
         result="result2"
         k3="0.5"
         k2="0.5"
         k1="1.25"
         operator="arithmetic"
         in="SourceGraphic"
         in2="result4"
         id="feComposite3781" />
      <feBlend
         in="result2"
         mode="normal"
         result="result5"
         in2="SourceGraphic"
         id="feBlend3783" />
      <feComposite
         result="result3"
         operator="in"
         in="result5"
         in2="SourceGraphic"
         id="feComposite3785" />
    </filter>
    <filter
       color-interpolation-filters="sRGB"
       x="0"
       y="0"
       width="1"
       height="1"
       id="filter3789">
      <feTurbulence
         result="result0"
         seed="0"
         baseFrequency="1"
         numOctaves="3"
         type="fractalNoise"
         id="feTurbulence3791" />
      <feColorMatrix
         type="saturate"
         values="0"
         result="result4"
         id="feColorMatrix3793" />
      <feComposite
         result="result2"
         k3="0.5"
         k2="0.5"
         k1="1.25"
         operator="arithmetic"
         in="SourceGraphic"
         in2="result4"
         id="feComposite3795" />
      <feBlend
         in="result2"
         mode="normal"
         result="result5"
         in2="SourceGraphic"
         id="feBlend3797" />
      <feComposite
         result="result3"
         operator="in"
         in="result5"
         in2="SourceGraphic"
         id="feComposite3799" />
    </filter>
    <filter
       color-interpolation-filters="sRGB"
       x="0"
       y="0"
       width="1"
       height="1"
       id="filter3836">
      <feTurbulence
         result="result0"
         seed="0"
         baseFrequency="1"
         numOctaves="3"
         type="fractalNoise"
         id="feTurbulence3838" />
      <feColorMatrix
         type="saturate"
         values="0"
         result="result4"
         id="feColorMatrix3840" />
      <feComposite
         result="result2"
         k3="0.5"
         k2="0.5"
         k1="1.25"
         operator="arithmetic"
         in="SourceGraphic"
         in2="result4"
         id="feComposite3842" />
      <feBlend
         in="result2"
         mode="normal"
         result="result5"
         in2="SourceGraphic"
         id="feBlend3844" />
      <feComposite
         result="result3"
         operator="in"
         in="result5"
         in2="SourceGraphic"
         id="feComposite3846" />
    </filter>
    <filter
       color-interpolation-filters="sRGB"
       x="0"
       y="0"
       width="1"
       height="1"
       id="filter3894">
      <feTurbulence
         result="result0"
         seed="0"
         baseFrequency="1"
         numOctaves="3"
         type="fractalNoise"
         id="feTurbulence3896" />
      <feColorMatrix
         type="saturate"
         values="0"
         result="result4"
         id="feColorMatrix3898" />
      <feComposite
         result="result2"
         k3="0.5"
         k2="0.5"
         k1="1.25"
         operator="arithmetic"
         in="SourceGraphic"
         in2="result4"
         id="feComposite3900" />
      <feBlend
         in="result2"
         mode="normal"
         result="result5"
         in2="SourceGraphic"
         id="feBlend3902" />
      <feComposite
         result="result3"
         operator="in"
         in="result5"
         in2="SourceGraphic"
         id="feComposite3904" />
    </filter>
    <filter
       color-interpolation-filters="sRGB"
       x="0"
       y="0"
       width="1"
       height="1"
       id="filter3927">
      <feTurbulence
         result="result0"
         seed="0"
         baseFrequency="1"
         numOctaves="3"
         type="fractalNoise"
         id="feTurbulence3929" />
      <feColorMatrix
         type="saturate"
         values="0"
         result="result4"
         id="feColorMatrix3931" />
      <feComposite
         result="result2"
         k3="0.5"
         k2="0.5"
         k1="1.25"
         operator="arithmetic"
         in="SourceGraphic"
         in2="result4"
         id="feComposite3933" />
      <feBlend
         in="result2"
         mode="normal"
         result="result5"
         in2="SourceGraphic"
         id="feBlend3935" />
      <feComposite
         result="result3"
         operator="in"
         in="result5"
         in2="SourceGraphic"
         id="feComposite3937" />
    </filter>
  </defs>
  <path
     id="rect3829"
     d="M 72.9375 88.28125 C 49.839056 88.28125 31.25 106.8703 31.25 129.96875 L 31.25 158.34375 L 31.25 273.625 L 31.25 280.03125 C 31.25 299.59422 46.999534 315.34375 66.5625 315.34375 L 72.9375 315.34375 L 214.3125 315.34375 L 450.0625 315.34375 C 469.62547 315.34375 485.375 299.59422 485.375 280.03125 L 485.375 158.34375 C 485.375 138.78078 469.62547 123.03125 450.0625 123.03125 L 235.5 123.03125 L 207.34375 88.28125 L 72.9375 88.28125 z "
     style="color:#000000;fill:#157496;fill-opacity:1;fill-rule:evenodd;stroke:none;stroke-width:40;marker:none;visibility:visible;display:inline;overflow:visible;enable-background:accumulate" />
  <rect
     ry="32.437965"
     y="143.62897"
     x="43.430237"
     height="183.0428"
     width="430.96158"
     id="rect3823"
     style="color:#000000;display:inline;overflow:visible;visibility:visible;fill:#fff4ee;fill-opacity:1;fill-rule:evenodd;stroke:none;stroke-width:40;marker:none;enable-background:accumulate" />
  <path
     id="rect3820"
     d="m 45.677517,163.26781 424.117733,-0.61017 c 17.97062,-0.0259 33.7976,14.51882 32.43797,32.43796 L 485.3752,417.27442 c -1.35963,17.91913 -14.46732,32.4376 -32.43796,32.43796 l -389.245208,0.008 C 45.721406,449.72055 32.710303,435.19375 31.254069,417.28223 L 13.239553,195.70577 c -1.456236,-17.91154 14.467356,-32.41211 32.437964,-32.43796 z"
     style="color:#000000;display:inline;overflow:visible;visibility:visible;fill:#41aacc;fill-opacity:1;fill-rule:evenodd;stroke:none;stroke-width:40;marker:none;enable-background:accumulate" />
  <path
     id="rect4504"
     d="m 244.12429,259.59041 c -0.87968,0.0835 -1.71122,0.58058 -2.20142,1.31578 l -9.1346,13.58805 -27.9352,0 c -8.57817,0 -15.48581,6.90764 -15.48581,15.48581 l 0,64.38145 c 0,8.57817 6.90764,15.48581 15.48581,15.48581 l 120.47053,0 c 8.57818,0 15.48582,-6.90764 15.48582,-15.48581 l 0,-64.38145 c 0,-8.57817 -6.90764,-15.48581 -15.48582,-15.48581 l -27.96051,0 -9.1346,-13.58805 c -0.54006,-0.80064 -1.48872,-1.30919 -2.45444,-1.31578 l -41.37142,0 c -0.0927,-0.004 -0.18563,-0.004 -0.27834,0 z m 72.03939,30.03538 c 4.43772,0 8.04656,3.60884 8.04656,8.04655 0,4.43771 -3.60884,8.02126 -8.04656,8.02126 -4.43771,0 -8.04654,-3.58355 -8.04654,-8.02126 0,-4.43771 3.60883,-8.04655 8.04654,-8.04655 z m -51.08799,11.53845 c 15.24256,0 27.60624,12.36368 27.60624,27.60625 0,15.24257 -12.36368,27.58094 -27.60624,27.58094 -15.24257,0 -27.58095,-12.33837 -27.58095,-27.58094 0,-15.24257 12.33838,-27.60625 27.58095,-27.60625 z"
     style="color:#000000;display:inline;overflow:visible;visibility:visible;fill:#115570;fill-opacity:1;fill-rule:evenodd;stroke:none;stroke-width:5;marker:none;enable-background:accumulate" />
</svg>
