<?xml version="1.0" encoding="UTF-8" standalone="no"?>
<!-- Created with Inkscape (http://www.inkscape.org/) -->

<svg
   xmlns:dc="http://purl.org/dc/elements/1.1/"
   xmlns:cc="http://creativecommons.org/ns#"
   xmlns:rdf="http://www.w3.org/1999/02/22-rdf-syntax-ns#"
   xmlns:svg="http://www.w3.org/2000/svg"
   xmlns="http://www.w3.org/2000/svg"
   xmlns:sodipodi="http://sodipodi.sourceforge.net/DTD/sodipodi-0.dtd"
   xmlns:inkscape="http://www.inkscape.org/namespaces/inkscape"
   id="svg2"
   version="1.1"
   inkscape:version="0.91 r13725"
   width="512"
   height="512"
   sodipodi:docname="folder-music.svg">
  <metadata
     id="metadata8">
    <rdf:RDF>
      <cc:Work
         rdf:about="">
        <dc:format>image/svg+xml</dc:format>
        <dc:type
           rdf:resource="http://purl.org/dc/dcmitype/StillImage" />
        <dc:title></dc:title>
      </cc:Work>
    </rdf:RDF>
  </metadata>
  <defs
     id="defs6">
    <filter
       id="filter3775"
       height="1"
       width="1"
       y="0"
       x="0"
       inkscape:label="Film grain"
       inkscape:menu="Image effects"
       inkscape:menu-tooltip="Adds a small scale graininess"
       color-interpolation-filters="sRGB">
      <feTurbulence
         id="feTurbulence3777"
         type="fractalNoise"
         numOctaves="3"
         baseFrequency="1"
         seed="0"
         result="result0" />
      <feColorMatrix
         id="feColorMatrix3779"
         result="result4"
         values="0"
         type="saturate" />
      <feComposite
         id="feComposite3781"
         in2="result4"
         in="SourceGraphic"
         operator="arithmetic"
         k1="1.25"
         k2="0.5"
         k3="0.5"
         result="result2" />
      <feBlend
         id="feBlend3783"
         in2="SourceGraphic"
         result="result5"
         mode="normal"
         in="result2" />
      <feComposite
         id="feComposite3785"
         in2="SourceGraphic"
         in="result5"
         operator="in"
         result="result3" />
    </filter>
    <filter
       id="filter3789"
       height="1"
       width="1"
       y="0"
       x="0"
       inkscape:label="Film grain"
       inkscape:menu="Image effects"
       inkscape:menu-tooltip="Adds a small scale graininess"
       color-interpolation-filters="sRGB">
      <feTurbulence
         id="feTurbulence3791"
         type="fractalNoise"
         numOctaves="3"
         baseFrequency="1"
         seed="0"
         result="result0" />
      <feColorMatrix
         id="feColorMatrix3793"
         result="result4"
         values="0"
         type="saturate" />
      <feComposite
         id="feComposite3795"
         in2="result4"
         in="SourceGraphic"
         operator="arithmetic"
         k1="1.25"
         k2="0.5"
         k3="0.5"
         result="result2" />
      <feBlend
         id="feBlend3797"
         in2="SourceGraphic"
         result="result5"
         mode="normal"
         in="result2" />
      <feComposite
         id="feComposite3799"
         in2="SourceGraphic"
         in="result5"
         operator="in"
         result="result3" />
    </filter>
    <filter
       id="filter3836"
       height="1"
       width="1"
       y="0"
       x="0"
       inkscape:label="Film grain"
       inkscape:menu="Image effects"
       inkscape:menu-tooltip="Adds a small scale graininess"
       color-interpolation-filters="sRGB">
      <feTurbulence
         id="feTurbulence3838"
         type="fractalNoise"
         numOctaves="3"
         baseFrequency="1"
         seed="0"
         result="result0" />
      <feColorMatrix
         id="feColorMatrix3840"
         result="result4"
         values="0"
         type="saturate" />
      <feComposite
         id="feComposite3842"
         in2="result4"
         in="SourceGraphic"
         operator="arithmetic"
         k1="1.25"
         k2="0.5"
         k3="0.5"
         result="result2" />
      <feBlend
         id="feBlend3844"
         in2="SourceGraphic"
         result="result5"
         mode="normal"
         in="result2" />
      <feComposite
         id="feComposite3846"
         in2="SourceGraphic"
         in="result5"
         operator="in"
         result="result3" />
    </filter>
    <filter
       id="filter3894"
       height="1"
       width="1"
       y="0"
       x="0"
       inkscape:label="Film grain"
       inkscape:menu="Image effects"
       inkscape:menu-tooltip="Adds a small scale graininess"
       color-interpolation-filters="sRGB">
      <feTurbulence
         id="feTurbulence3896"
         type="fractalNoise"
         numOctaves="3"
         baseFrequency="1"
         seed="0"
         result="result0" />
      <feColorMatrix
         id="feColorMatrix3898"
         result="result4"
         values="0"
         type="saturate" />
      <feComposite
         id="feComposite3900"
         in2="result4"
         in="SourceGraphic"
         operator="arithmetic"
         k1="1.25"
         k2="0.5"
         k3="0.5"
         result="result2" />
      <feBlend
         id="feBlend3902"
         in2="SourceGraphic"
         result="result5"
         mode="normal"
         in="result2" />
      <feComposite
         id="feComposite3904"
         in2="SourceGraphic"
         in="result5"
         operator="in"
         result="result3" />
    </filter>
    <filter
       id="filter3927"
       height="1"
       width="1"
       y="0"
       x="0"
       inkscape:label="Film grain"
       inkscape:menu="Image effects"
       inkscape:menu-tooltip="Adds a small scale graininess"
       color-interpolation-filters="sRGB">
      <feTurbulence
         id="feTurbulence3929"
         type="fractalNoise"
         numOctaves="3"
         baseFrequency="1"
         seed="0"
         result="result0" />
      <feColorMatrix
         id="feColorMatrix3931"
         result="result4"
         values="0"
         type="saturate" />
      <feComposite
         id="feComposite3933"
         in2="result4"
         in="SourceGraphic"
         operator="arithmetic"
         k1="1.25"
         k2="0.5"
         k3="0.5"
         result="result2" />
      <feBlend
         id="feBlend3935"
         in2="SourceGraphic"
         result="result5"
         mode="normal"
         in="result2" />
      <feComposite
         id="feComposite3937"
         in2="SourceGraphic"
         in="result5"
         operator="in"
         result="result3" />
    </filter>
  </defs>
  <sodipodi:namedview
     pagecolor="#ffffff"
     bordercolor="#666666"
     borderopacity="1"
     objecttolerance="10"
     gridtolerance="10"
     guidetolerance="10"
     inkscape:pageopacity="0"
     inkscape:pageshadow="2"
     inkscape:window-width="1366"
     inkscape:window-height="713"
     id="namedview4"
     showgrid="false"
     inkscape:zoom="0.8194445"
     inkscape:cx="290.44124"
     inkscape:cy="193.29838"
     inkscape:window-x="0"
     inkscape:window-y="26"
     inkscape:window-maximized="1"
     inkscape:current-layer="svg2" />
  <path
     style="color:#000000;fill:#157496;fill-opacity:1;fill-rule:evenodd;stroke:none;stroke-width:40;marker:none;visibility:visible;display:inline;overflow:visible;enable-background:accumulate"
     d="M 72.9375 88.28125 C 49.839056 88.28125 31.25 106.8703 31.25 129.96875 L 31.25 158.34375 L 31.25 273.625 L 31.25 280.03125 C 31.25 299.59422 46.999534 315.34375 66.5625 315.34375 L 72.9375 315.34375 L 214.3125 315.34375 L 450.0625 315.34375 C 469.62547 315.34375 485.375 299.59422 485.375 280.03125 L 485.375 158.34375 C 485.375 138.78078 469.62547 123.03125 450.0625 123.03125 L 235.5 123.03125 L 207.34375 88.28125 L 72.9375 88.28125 z "
     id="rect3829" />
  <rect
     style="color:#000000;display:inline;overflow:visible;visibility:visible;fill:#fff4ee;fill-opacity:1;fill-rule:evenodd;stroke:none;stroke-width:40;marker:none;enable-background:accumulate"
     id="rect3823"
     width="430.96158"
     height="183.0428"
     x="43.430237"
     y="147.87161"
     ry="32.437965" />
  <path
     style="color:#000000;fill:#41aacc;fill-opacity:1;fill-rule:evenodd;stroke:none;stroke-width:40;marker:none;visibility:visible;display:inline;overflow:visible;enable-background:accumulate"
     d="m 33.571065,176.31449 444.863495,0 c 17.97064,0 35.20018,14.68088 32.43797,32.43796 l -32.43797,208.52978 c -2.76221,17.75707 -14.46732,32.43796 -32.43796,32.43796 l -382.304568,0 c -17.970626,0 -29.868868,-14.65193 -32.437963,-32.43796 L 1.133101,208.75245 C -1.435994,190.9664 15.600439,176.31449 33.571065,176.31449 z"
     id="rect3820"
     inkscape:connector-curvature="0"
     sodipodi:nodetypes="sssssssss" />
  <path
     style="color:#000000;fill:#ffffff;fill-opacity:0.15346535;fill-rule:evenodd;stroke:none;stroke-width:40;marker:none;visibility:visible;display:inline;overflow:visible;enable-background:accumulate"
     d="M 33.5625 176.3125 C 16.185807 176.3125 -0.31330362 190.01427 0.9375 207 C 1.9638347 191.64233 17.375849 179.75 33.5625 179.75 L 478.4375 179.75 C 494.53648 179.75 510.02475 191.52914 511.09375 206.75 C 512.32096 189.90564 495.72753 176.3125 478.4375 176.3125 L 33.5625 176.3125 z "
     id="path3944" />
  <path
     style="fill:#115570;fill-opacity:1"
     d="m 197.90452,384.59302 c -9.33855,-1.79339 -17.24791,-8.66024 -19.00175,-16.49722 -1.78622,-7.98168 3.05591,-16.1006 12.32345,-20.663 4.34727,-2.14014 5.36746,-2.34579 11.7145,-2.36137 3.8239,-0.01 7.93753,0.23709 9.14138,0.54772 l 2.18885,0.56477 0.0322,-37.25759 c 0.0346,-40.10243 -0.0206,-39.48067 3.8234,-42.95948 3.56063,-3.22233 4.89781,-3.31672 46.98757,-3.31672 42.09129,0 43.38661,0.0915 47.01581,3.31844 0.82923,0.73733 2.10826,2.64849 2.84231,4.24698 1.25038,2.72297 1.3356,5.84382 1.35056,49.45794 0.0181,52.96676 0.15176,51.56529 -5.46705,57.34663 -10.69313,11.00241 -30.55395,10.72281 -40.70997,-0.57311 -9.19203,-10.22376 -4.34414,-24.67501 10.05308,-29.9676 4.0844,-1.50147 14.11413,-1.94684 18.52007,-0.82235 l 2.36143,0.60267 0,-21.49215 0,-21.49215 -35.93878,0 -35.93875,0 -0.20912,33.60481 -0.20913,33.60481 -1.91197,2.93709 c -3.81306,5.8575 -8.61311,9.10762 -16.03511,10.85742 -5.0397,1.18815 -8.00419,1.26 -12.93301,0.31346 z m 103.17586,-98.75578 0,-2.90635 -35.96624,0 -35.96623,0 0,2.90635 0,2.90637 35.96623,0 35.96624,0 0,-2.90637 z"
     id="path4138"
     inkscape:connector-curvature="0" />
</svg>
