<?xml version="1.0" encoding="UTF-8" standalone="no"?>
<svg
   xmlns:dc="http://purl.org/dc/elements/1.1/"
   xmlns:cc="http://creativecommons.org/ns#"
   xmlns:rdf="http://www.w3.org/1999/02/22-rdf-syntax-ns#"
   xmlns:svg="http://www.w3.org/2000/svg"
   xmlns="http://www.w3.org/2000/svg"
   height="512"
   width="512"
   version="1.1"
   id="svg2">
  <metadata
     id="metadata8">
    <rdf:RDF>
      <cc:Work
         rdf:about="">
        <dc:format>image/svg+xml</dc:format>
        <dc:type
           rdf:resource="http://purl.org/dc/dcmitype/StillImage" />
        <dc:title></dc:title>
      </cc:Work>
    </rdf:RDF>
  </metadata>
  <defs
     id="defs6">
    <filter
       color-interpolation-filters="sRGB"
       x="0"
       y="0"
       width="1"
       height="1"
       id="filter3775">
      <feTurbulence
         result="result0"
         seed="0"
         baseFrequency="1"
         numOctaves="3"
         type="fractalNoise"
         id="feTurbulence3777" />
      <feColorMatrix
         type="saturate"
         values="0"
         result="result4"
         id="feColorMatrix3779" />
      <feComposite
         result="result2"
         k3="0.5"
         k2="0.5"
         k1="1.25"
         operator="arithmetic"
         in="SourceGraphic"
         in2="result4"
         id="feComposite3781" />
      <feBlend
         in="result2"
         mode="normal"
         result="result5"
         in2="SourceGraphic"
         id="feBlend3783" />
      <feComposite
         result="result3"
         operator="in"
         in="result5"
         in2="SourceGraphic"
         id="feComposite3785" />
    </filter>
    <filter
       color-interpolation-filters="sRGB"
       x="0"
       y="0"
       width="1"
       height="1"
       id="filter3789">
      <feTurbulence
         result="result0"
         seed="0"
         baseFrequency="1"
         numOctaves="3"
         type="fractalNoise"
         id="feTurbulence3791" />
      <feColorMatrix
         type="saturate"
         values="0"
         result="result4"
         id="feColorMatrix3793" />
      <feComposite
         result="result2"
         k3="0.5"
         k2="0.5"
         k1="1.25"
         operator="arithmetic"
         in="SourceGraphic"
         in2="result4"
         id="feComposite3795" />
      <feBlend
         in="result2"
         mode="normal"
         result="result5"
         in2="SourceGraphic"
         id="feBlend3797" />
      <feComposite
         result="result3"
         operator="in"
         in="result5"
         in2="SourceGraphic"
         id="feComposite3799" />
    </filter>
    <filter
       color-interpolation-filters="sRGB"
       x="0"
       y="0"
       width="1"
       height="1"
       id="filter3836">
      <feTurbulence
         result="result0"
         seed="0"
         baseFrequency="1"
         numOctaves="3"
         type="fractalNoise"
         id="feTurbulence3838" />
      <feColorMatrix
         type="saturate"
         values="0"
         result="result4"
         id="feColorMatrix3840" />
      <feComposite
         result="result2"
         k3="0.5"
         k2="0.5"
         k1="1.25"
         operator="arithmetic"
         in="SourceGraphic"
         in2="result4"
         id="feComposite3842" />
      <feBlend
         in="result2"
         mode="normal"
         result="result5"
         in2="SourceGraphic"
         id="feBlend3844" />
      <feComposite
         result="result3"
         operator="in"
         in="result5"
         in2="SourceGraphic"
         id="feComposite3846" />
    </filter>
    <filter
       color-interpolation-filters="sRGB"
       x="0"
       y="0"
       width="1"
       height="1"
       id="filter3894">
      <feTurbulence
         result="result0"
         seed="0"
         baseFrequency="1"
         numOctaves="3"
         type="fractalNoise"
         id="feTurbulence3896" />
      <feColorMatrix
         type="saturate"
         values="0"
         result="result4"
         id="feColorMatrix3898" />
      <feComposite
         result="result2"
         k3="0.5"
         k2="0.5"
         k1="1.25"
         operator="arithmetic"
         in="SourceGraphic"
         in2="result4"
         id="feComposite3900" />
      <feBlend
         in="result2"
         mode="normal"
         result="result5"
         in2="SourceGraphic"
         id="feBlend3902" />
      <feComposite
         result="result3"
         operator="in"
         in="result5"
         in2="SourceGraphic"
         id="feComposite3904" />
    </filter>
    <filter
       color-interpolation-filters="sRGB"
       x="0"
       y="0"
       width="1"
       height="1"
       id="filter3927">
      <feTurbulence
         result="result0"
         seed="0"
         baseFrequency="1"
         numOctaves="3"
         type="fractalNoise"
         id="feTurbulence3929" />
      <feColorMatrix
         type="saturate"
         values="0"
         result="result4"
         id="feColorMatrix3931" />
      <feComposite
         result="result2"
         k3="0.5"
         k2="0.5"
         k1="1.25"
         operator="arithmetic"
         in="SourceGraphic"
         in2="result4"
         id="feComposite3933" />
      <feBlend
         in="result2"
         mode="normal"
         result="result5"
         in2="SourceGraphic"
         id="feBlend3935" />
      <feComposite
         result="result3"
         operator="in"
         in="result5"
         in2="SourceGraphic"
         id="feComposite3937" />
    </filter>
  </defs>
  <path
     id="rect3829"
     d="M 72.9375 88.28125 C 49.839056 88.28125 31.25 106.8703 31.25 129.96875 L 31.25 158.34375 L 31.25 273.625 L 31.25 280.03125 C 31.25 299.59422 46.999534 315.34375 66.5625 315.34375 L 72.9375 315.34375 L 214.3125 315.34375 L 450.0625 315.34375 C 469.62547 315.34375 485.375 299.59422 485.375 280.03125 L 485.375 158.34375 C 485.375 138.78078 469.62547 123.03125 450.0625 123.03125 L 235.5 123.03125 L 207.34375 88.28125 L 72.9375 88.28125 z "
     style="color:#000000;fill:#157496;fill-opacity:1;fill-rule:evenodd;stroke:none;stroke-width:40;marker:none;visibility:visible;display:inline;overflow:visible;enable-background:accumulate" />
  <rect
     ry="32.437965"
     y="143.62897"
     x="43.430237"
     height="183.0428"
     width="430.96158"
     id="rect3823"
     style="color:#000000;display:inline;overflow:visible;visibility:visible;fill:#fff4ee;fill-opacity:1;fill-rule:evenodd;stroke:none;stroke-width:40;marker:none;enable-background:accumulate" />
  <path
     id="rect3820"
     d="m 45.677517,163.26781 424.117733,-0.61017 c 17.97062,-0.0259 33.7976,14.51882 32.43797,32.43796 L 485.3752,417.27442 c -1.35963,17.91913 -14.46732,32.4376 -32.43796,32.43796 l -389.245208,0.008 C 45.721406,449.72055 32.710303,435.19375 31.254069,417.28223 L 13.239553,195.70577 c -1.456236,-17.91154 14.467356,-32.41211 32.437964,-32.43796 z"
     style="color:#000000;display:inline;overflow:visible;visibility:visible;fill:#41aacc;fill-opacity:1;fill-rule:evenodd;stroke:none;stroke-width:40;marker:none;enable-background:accumulate" />
  <path
     style="color:#000000;text-indent:0;text-transform:none;block-progression:tb;fill:#115570;fill-opacity:1;enable-background:accumulate"
     d="m 257.56987,252.39246 c -15.0552,0.046 -27.18163,12.24491 -27.1359,27.29736 0.0198,6.2042 2.1034,11.90822 5.60068,16.47112 7.53176,-8.77048 18.66965,-14.35907 31.1249,-14.3969 6.09353,-0.0193 11.87631,1.30771 17.0901,3.68435 0.41632,-1.90783 0.62874,-3.89129 0.62268,-5.92406 -0.0459,-15.05256 -12.24619,-27.17756 -27.30139,-27.13184 z m -35.50659,12.70157 c -7.84082,0.0234 -14.12371,6.39647 -14.09982,14.23784 0.01,2.53562 0.6699,4.93262 1.8364,6.98094 4.72313,-2.68135 10.1885,-4.24588 15.9985,-4.26346 0.56014,-0.005 1.10104,-0.004 1.65459,-0.004 -0.0659,-0.79014 -0.11489,-1.60064 -0.11295,-2.39868 -0.0133,-4.36545 0.92276,-8.52325 2.57774,-12.27992 -2.24861,-1.50909 -4.93977,-2.3342 -7.85267,-2.32528 z m 67.16987,9.56153 c -0.57916,0.007 -1.13701,0.005 -1.70767,0.19348 0.24996,1.54609 0.43918,3.12216 0.44091,4.74705 0.01,2.52405 -0.30913,4.96603 -0.88485,7.31199 6.88012,3.77931 12.60214,9.44801 16.38143,16.33376 3.89202,-2.04338 8.23658,-3.34677 12.8515,-3.66952 -1.23223,-13.94252 -12.82181,-24.87896 -27.08142,-24.83559 z m -22.06417,10.2042 c -21.06696,0.0642 -38.05473,17.15381 -37.99064,38.21661 0.0641,21.0625 17.15413,38.04736 38.22232,37.98333 21.06808,-0.0643 38.05459,-17.1526 37.99056,-38.21521 -0.0642,-21.06515 -17.15546,-38.04874 -38.22224,-37.98473 z m -41.36188,0.31708 c -16.34434,0.0496 -29.5268,13.31132 -29.47712,29.65117 0.0293,9.6203 4.63939,18.12263 11.7596,23.49627 2.97737,-5.78198 8.98044,-9.73819 15.92852,-9.75925 0.84076,5.5e-4 1.64618,0.18576 2.4558,0.20992 -0.26201,-1.84797 -0.38532,-3.73774 -0.39107,-5.65566 -0.0283,-9.16588 2.93106,-17.65313 7.98413,-24.51591 -3.04901,-3.79076 -5.23665,-8.35124 -6.17815,-13.32252 -0.6858,0.008 -1.38319,-0.18687 -2.08215,-0.18514 z m 92.70183,17.32799 c -4.96277,0.0154 -9.60754,1.29239 -13.70577,3.45391 2.34626,5.15707 3.66229,10.87751 3.68059,16.90698 0.0346,11.28421 -4.47239,21.54337 -11.8137,29.01026 5.428,5.98619 13.28817,9.7242 22.01816,9.69763 16.34452,-0.0496 29.52689,-13.30979 29.47727,-29.64982 -0.0496,-16.34253 -13.31311,-29.46866 -29.65684,-29.41895 z m -125.08787,4.27498 c -15.04987,0.0396 -27.22975,12.18251 -27.18395,27.23872 0.0458,15.04979 12.2996,27.22848 27.35547,27.18264 5.73041,-0.0179 11.0334,-1.81316 15.40938,-4.85001 -1.82051,-2.80815 -2.90076,-6.17111 -2.91156,-9.75687 -0.008,-1.86046 0.26328,-3.64909 0.78438,-5.33768 -8.22771,-5.90742 -13.60383,-15.54078 -13.6368,-26.42561 -0.009,-2.76519 0.34663,-5.43958 0.98983,-8.00645 -0.26909,-0.0117 -0.52932,-7.5e-4 -0.80006,0.004 z m 160.13055,22.88552 c -0.80252,0.004 -1.57994,0.19549 -2.34837,0.21828 0.0415,0.68887 0.0596,1.32828 0.0619,2.03 0.0256,8.67455 -3.37508,16.56593 -8.8981,22.43597 2.73567,3.16033 6.74585,5.15524 11.27706,5.14169 8.25336,-0.0253 14.9238,-6.67987 14.89878,-14.9334 -0.0258,-8.25229 -6.73576,-14.91974 -14.98946,-14.89466 z m -129.52477,1.99514 c -8.25278,0.0258 -14.86981,6.67953 -14.84477,14.93048 0.0258,8.25229 6.68268,14.92122 14.93548,14.8961 6.32624,-0.0188 11.68346,-3.98113 13.84717,-9.53857 -5.33717,-5.40191 -9.18231,-12.30397 -10.89533,-19.97568 -0.98933,-0.20129 -1.99337,-0.32579 -3.04302,-0.32228 z"
     id="path4145-6" />
</svg>
