<?xml version="1.0" encoding="UTF-8" standalone="no"?>
<svg
   xmlns:dc="http://purl.org/dc/elements/1.1/"
   xmlns:cc="http://creativecommons.org/ns#"
   xmlns:rdf="http://www.w3.org/1999/02/22-rdf-syntax-ns#"
   xmlns:svg="http://www.w3.org/2000/svg"
   xmlns="http://www.w3.org/2000/svg"
   height="512"
   width="512"
   version="1.1"
   id="svg2">
  <metadata
     id="metadata8">
    <rdf:RDF>
      <cc:Work
         rdf:about="">
        <dc:format>image/svg+xml</dc:format>
        <dc:type
           rdf:resource="http://purl.org/dc/dcmitype/StillImage" />
        <dc:title></dc:title>
      </cc:Work>
    </rdf:RDF>
  </metadata>
  <defs
     id="defs6">
    <filter
       color-interpolation-filters="sRGB"
       x="0"
       y="0"
       width="1"
       height="1"
       id="filter3775">
      <feTurbulence
         result="result0"
         seed="0"
         baseFrequency="1"
         numOctaves="3"
         type="fractalNoise"
         id="feTurbulence3777" />
      <feColorMatrix
         type="saturate"
         values="0"
         result="result4"
         id="feColorMatrix3779" />
      <feComposite
         result="result2"
         k3="0.5"
         k2="0.5"
         k1="1.25"
         operator="arithmetic"
         in="SourceGraphic"
         in2="result4"
         id="feComposite3781" />
      <feBlend
         in="result2"
         mode="normal"
         result="result5"
         in2="SourceGraphic"
         id="feBlend3783" />
      <feComposite
         result="result3"
         operator="in"
         in="result5"
         in2="SourceGraphic"
         id="feComposite3785" />
    </filter>
    <filter
       color-interpolation-filters="sRGB"
       x="0"
       y="0"
       width="1"
       height="1"
       id="filter3789">
      <feTurbulence
         result="result0"
         seed="0"
         baseFrequency="1"
         numOctaves="3"
         type="fractalNoise"
         id="feTurbulence3791" />
      <feColorMatrix
         type="saturate"
         values="0"
         result="result4"
         id="feColorMatrix3793" />
      <feComposite
         result="result2"
         k3="0.5"
         k2="0.5"
         k1="1.25"
         operator="arithmetic"
         in="SourceGraphic"
         in2="result4"
         id="feComposite3795" />
      <feBlend
         in="result2"
         mode="normal"
         result="result5"
         in2="SourceGraphic"
         id="feBlend3797" />
      <feComposite
         result="result3"
         operator="in"
         in="result5"
         in2="SourceGraphic"
         id="feComposite3799" />
    </filter>
    <filter
       color-interpolation-filters="sRGB"
       x="0"
       y="0"
       width="1"
       height="1"
       id="filter3836">
      <feTurbulence
         result="result0"
         seed="0"
         baseFrequency="1"
         numOctaves="3"
         type="fractalNoise"
         id="feTurbulence3838" />
      <feColorMatrix
         type="saturate"
         values="0"
         result="result4"
         id="feColorMatrix3840" />
      <feComposite
         result="result2"
         k3="0.5"
         k2="0.5"
         k1="1.25"
         operator="arithmetic"
         in="SourceGraphic"
         in2="result4"
         id="feComposite3842" />
      <feBlend
         in="result2"
         mode="normal"
         result="result5"
         in2="SourceGraphic"
         id="feBlend3844" />
      <feComposite
         result="result3"
         operator="in"
         in="result5"
         in2="SourceGraphic"
         id="feComposite3846" />
    </filter>
    <filter
       color-interpolation-filters="sRGB"
       x="0"
       y="0"
       width="1"
       height="1"
       id="filter3894">
      <feTurbulence
         result="result0"
         seed="0"
         baseFrequency="1"
         numOctaves="3"
         type="fractalNoise"
         id="feTurbulence3896" />
      <feColorMatrix
         type="saturate"
         values="0"
         result="result4"
         id="feColorMatrix3898" />
      <feComposite
         result="result2"
         k3="0.5"
         k2="0.5"
         k1="1.25"
         operator="arithmetic"
         in="SourceGraphic"
         in2="result4"
         id="feComposite3900" />
      <feBlend
         in="result2"
         mode="normal"
         result="result5"
         in2="SourceGraphic"
         id="feBlend3902" />
      <feComposite
         result="result3"
         operator="in"
         in="result5"
         in2="SourceGraphic"
         id="feComposite3904" />
    </filter>
    <filter
       color-interpolation-filters="sRGB"
       x="0"
       y="0"
       width="1"
       height="1"
       id="filter3927">
      <feTurbulence
         result="result0"
         seed="0"
         baseFrequency="1"
         numOctaves="3"
         type="fractalNoise"
         id="feTurbulence3929" />
      <feColorMatrix
         type="saturate"
         values="0"
         result="result4"
         id="feColorMatrix3931" />
      <feComposite
         result="result2"
         k3="0.5"
         k2="0.5"
         k1="1.25"
         operator="arithmetic"
         in="SourceGraphic"
         in2="result4"
         id="feComposite3933" />
      <feBlend
         in="result2"
         mode="normal"
         result="result5"
         in2="SourceGraphic"
         id="feBlend3935" />
      <feComposite
         result="result3"
         operator="in"
         in="result5"
         in2="SourceGraphic"
         id="feComposite3937" />
    </filter>
  </defs>
  <path
     id="rect3829"
     d="M 72.9375 88.28125 C 49.839056 88.28125 31.25 106.8703 31.25 129.96875 L 31.25 158.34375 L 31.25 273.625 L 31.25 280.03125 C 31.25 299.59422 46.999534 315.34375 66.5625 315.34375 L 72.9375 315.34375 L 214.3125 315.34375 L 450.0625 315.34375 C 469.62547 315.34375 485.375 299.59422 485.375 280.03125 L 485.375 158.34375 C 485.375 138.78078 469.62547 123.03125 450.0625 123.03125 L 235.5 123.03125 L 207.34375 88.28125 L 72.9375 88.28125 z "
     style="color:#000000;fill:#157496;fill-opacity:1;fill-rule:evenodd;stroke:none;stroke-width:40;marker:none;visibility:visible;display:inline;overflow:visible;enable-background:accumulate" />
  <rect
     ry="32.437965"
     y="143.62897"
     x="43.430237"
     height="183.0428"
     width="430.96158"
     id="rect3823"
     style="color:#000000;display:inline;overflow:visible;visibility:visible;fill:#fff4ee;fill-opacity:1;fill-rule:evenodd;stroke:none;stroke-width:40;marker:none;enable-background:accumulate" />
  <path
     id="rect3820"
     d="m 45.677517,163.26781 424.117733,-0.61017 c 17.97062,-0.0259 33.7976,14.51882 32.43797,32.43796 L 485.3752,417.27442 c -1.35963,17.91913 -14.46732,32.4376 -32.43796,32.43796 l -389.245208,0.008 C 45.721406,449.72055 32.710303,435.19375 31.254069,417.28223 L 13.239553,195.70577 c -1.456236,-17.91154 14.467356,-32.41211 32.437964,-32.43796 z"
     style="color:#000000;display:inline;overflow:visible;visibility:visible;fill:#41aacc;fill-opacity:1;fill-rule:evenodd;stroke:none;stroke-width:40;marker:none;enable-background:accumulate" />
  <path
     id="rect4011"
     d="m 238.67076,250.89987 c -16.46753,0 -29.98215,13.73624 -29.98215,30.47909 0,8.41443 3.46855,16.01282 8.97256,21.47893 -4.74426,0.25233 -8.47562,4.10684 -8.47562,8.91735 l 0,0.60737 -11.84378,0 c -2.24287,0 -4.05836,1.81549 -4.05836,4.05836 l 0,22.05869 c 0,2.24287 1.81549,4.03075 4.05836,4.03075 l 11.84378,0 0,19.9605 c 0,4.97525 3.99731,8.97256 8.97256,8.97256 l 88.73172,0 c 4.97525,0 8.94495,-3.99731 8.94495,-8.97256 l 0,-4.99703 20.59548,13.11375 c 1.26654,0.86604 3.14655,0.35428 3.89271,-1.0491 0.15433,-0.4443 0.2161,-0.93672 0.16565,-1.40801 l 0.80063,-62.72509 c 0.0148,-2.15879 -2.62918,-3.74382 -4.30683,-2.56754 l -21.14764,12.86527 0,-3.94792 c 0,-4.56648 -3.3585,-8.27892 -7.75781,-8.86213 5.50129,-5.49251 8.94495,-13.13398 8.94495,-21.53415 0,-16.60136 -13.23856,-30.47909 -29.70608,-30.47909 -10.33222,0 -18.91342,5.82042 -24.32254,13.99719 -5.32394,-8.21983 -13.96226,-13.99719 -24.32254,-13.99719 z m 0,18.13837 c 6.65091,0 11.899,5.43653 11.899,12.34072 0,6.90421 -5.10869,12.09225 -11.899,12.09225 -6.79031,0 -12.14746,-5.33042 -12.14746,-12.09225 0,-6.76182 5.49656,-12.34072 12.14746,-12.34072 z m 48.64508,0 c 6.6509,0 11.87139,5.43653 11.87139,12.34072 0,6.90421 -5.08109,12.09225 -11.87139,12.09225 -6.79032,0 -12.17507,-5.33042 -12.17507,-12.09225 0,-6.76182 5.52416,-12.34072 12.17507,-12.34072 z"
     style="color:#000000;font-style:normal;font-variant:normal;font-weight:normal;font-stretch:normal;font-size:medium;line-height:normal;font-family:Sans;-inkscape-font-specification:Sans;text-indent:0;text-align:start;text-decoration:none;text-decoration-line:none;letter-spacing:normal;word-spacing:normal;text-transform:none;direction:ltr;block-progression:tb;writing-mode:lr-tb;baseline-shift:baseline;text-anchor:start;display:inline;overflow:visible;visibility:visible;fill:#115570;fill-opacity:1;fill-rule:nonzero;stroke:none;stroke-width:0.46238583;marker:none;enable-background:accumulate" />
</svg>
