<?xml version="1.0" encoding="UTF-8" standalone="no"?>
<!-- Created with Inkscape (http://www.inkscape.org/) -->

<svg
   xmlns:dc="http://purl.org/dc/elements/1.1/"
   xmlns:cc="http://creativecommons.org/ns#"
   xmlns:rdf="http://www.w3.org/1999/02/22-rdf-syntax-ns#"
   xmlns:svg="http://www.w3.org/2000/svg"
   xmlns="http://www.w3.org/2000/svg"
   xmlns:sodipodi="http://sodipodi.sourceforge.net/DTD/sodipodi-0.dtd"
   xmlns:inkscape="http://www.inkscape.org/namespaces/inkscape"
   id="svg2"
   version="1.1"
   inkscape:version="0.91 r13725"
   width="512"
   height="512"
   sodipodi:docname="folder-publicshare.svg">
  <metadata
     id="metadata8">
    <rdf:RDF>
      <cc:Work
         rdf:about="">
        <dc:format>image/svg+xml</dc:format>
        <dc:type
           rdf:resource="http://purl.org/dc/dcmitype/StillImage" />
        <dc:title></dc:title>
      </cc:Work>
    </rdf:RDF>
  </metadata>
  <defs
     id="defs6">
    <filter
       id="filter3775"
       height="1"
       width="1"
       y="0"
       x="0"
       inkscape:label="Film grain"
       inkscape:menu="Image effects"
       inkscape:menu-tooltip="Adds a small scale graininess"
       color-interpolation-filters="sRGB">
      <feTurbulence
         id="feTurbulence3777"
         type="fractalNoise"
         numOctaves="3"
         baseFrequency="1"
         seed="0"
         result="result0" />
      <feColorMatrix
         id="feColorMatrix3779"
         result="result4"
         values="0"
         type="saturate" />
      <feComposite
         id="feComposite3781"
         in2="result4"
         in="SourceGraphic"
         operator="arithmetic"
         k1="1.25"
         k2="0.5"
         k3="0.5"
         result="result2" />
      <feBlend
         id="feBlend3783"
         in2="SourceGraphic"
         result="result5"
         mode="normal"
         in="result2" />
      <feComposite
         id="feComposite3785"
         in2="SourceGraphic"
         in="result5"
         operator="in"
         result="result3" />
    </filter>
    <filter
       id="filter3789"
       height="1"
       width="1"
       y="0"
       x="0"
       inkscape:label="Film grain"
       inkscape:menu="Image effects"
       inkscape:menu-tooltip="Adds a small scale graininess"
       color-interpolation-filters="sRGB">
      <feTurbulence
         id="feTurbulence3791"
         type="fractalNoise"
         numOctaves="3"
         baseFrequency="1"
         seed="0"
         result="result0" />
      <feColorMatrix
         id="feColorMatrix3793"
         result="result4"
         values="0"
         type="saturate" />
      <feComposite
         id="feComposite3795"
         in2="result4"
         in="SourceGraphic"
         operator="arithmetic"
         k1="1.25"
         k2="0.5"
         k3="0.5"
         result="result2" />
      <feBlend
         id="feBlend3797"
         in2="SourceGraphic"
         result="result5"
         mode="normal"
         in="result2" />
      <feComposite
         id="feComposite3799"
         in2="SourceGraphic"
         in="result5"
         operator="in"
         result="result3" />
    </filter>
    <filter
       id="filter3836"
       height="1"
       width="1"
       y="0"
       x="0"
       inkscape:label="Film grain"
       inkscape:menu="Image effects"
       inkscape:menu-tooltip="Adds a small scale graininess"
       color-interpolation-filters="sRGB">
      <feTurbulence
         id="feTurbulence3838"
         type="fractalNoise"
         numOctaves="3"
         baseFrequency="1"
         seed="0"
         result="result0" />
      <feColorMatrix
         id="feColorMatrix3840"
         result="result4"
         values="0"
         type="saturate" />
      <feComposite
         id="feComposite3842"
         in2="result4"
         in="SourceGraphic"
         operator="arithmetic"
         k1="1.25"
         k2="0.5"
         k3="0.5"
         result="result2" />
      <feBlend
         id="feBlend3844"
         in2="SourceGraphic"
         result="result5"
         mode="normal"
         in="result2" />
      <feComposite
         id="feComposite3846"
         in2="SourceGraphic"
         in="result5"
         operator="in"
         result="result3" />
    </filter>
    <filter
       id="filter3894"
       height="1"
       width="1"
       y="0"
       x="0"
       inkscape:label="Film grain"
       inkscape:menu="Image effects"
       inkscape:menu-tooltip="Adds a small scale graininess"
       color-interpolation-filters="sRGB">
      <feTurbulence
         id="feTurbulence3896"
         type="fractalNoise"
         numOctaves="3"
         baseFrequency="1"
         seed="0"
         result="result0" />
      <feColorMatrix
         id="feColorMatrix3898"
         result="result4"
         values="0"
         type="saturate" />
      <feComposite
         id="feComposite3900"
         in2="result4"
         in="SourceGraphic"
         operator="arithmetic"
         k1="1.25"
         k2="0.5"
         k3="0.5"
         result="result2" />
      <feBlend
         id="feBlend3902"
         in2="SourceGraphic"
         result="result5"
         mode="normal"
         in="result2" />
      <feComposite
         id="feComposite3904"
         in2="SourceGraphic"
         in="result5"
         operator="in"
         result="result3" />
    </filter>
    <filter
       id="filter3927"
       height="1"
       width="1"
       y="0"
       x="0"
       inkscape:label="Film grain"
       inkscape:menu="Image effects"
       inkscape:menu-tooltip="Adds a small scale graininess"
       color-interpolation-filters="sRGB">
      <feTurbulence
         id="feTurbulence3929"
         type="fractalNoise"
         numOctaves="3"
         baseFrequency="1"
         seed="0"
         result="result0" />
      <feColorMatrix
         id="feColorMatrix3931"
         result="result4"
         values="0"
         type="saturate" />
      <feComposite
         id="feComposite3933"
         in2="result4"
         in="SourceGraphic"
         operator="arithmetic"
         k1="1.25"
         k2="0.5"
         k3="0.5"
         result="result2" />
      <feBlend
         id="feBlend3935"
         in2="SourceGraphic"
         result="result5"
         mode="normal"
         in="result2" />
      <feComposite
         id="feComposite3937"
         in2="SourceGraphic"
         in="result5"
         operator="in"
         result="result3" />
    </filter>
  </defs>
  <sodipodi:namedview
     pagecolor="#ffffff"
     bordercolor="#666666"
     borderopacity="1"
     objecttolerance="10"
     gridtolerance="10"
     guidetolerance="10"
     inkscape:pageopacity="0"
     inkscape:pageshadow="2"
     inkscape:window-width="1366"
     inkscape:window-height="713"
     id="namedview4"
     showgrid="false"
     inkscape:zoom="0.8194445"
     inkscape:cx="290.44124"
     inkscape:cy="193.29838"
     inkscape:window-x="0"
     inkscape:window-y="26"
     inkscape:window-maximized="1"
     inkscape:current-layer="svg2" />
  <path
     style="color:#000000;fill:#157496;fill-opacity:1;fill-rule:evenodd;stroke:none;stroke-width:40;marker:none;visibility:visible;display:inline;overflow:visible;enable-background:accumulate"
     d="M 72.9375 88.28125 C 49.839056 88.28125 31.25 106.8703 31.25 129.96875 L 31.25 158.34375 L 31.25 273.625 L 31.25 280.03125 C 31.25 299.59422 46.999534 315.34375 66.5625 315.34375 L 72.9375 315.34375 L 214.3125 315.34375 L 450.0625 315.34375 C 469.62547 315.34375 485.375 299.59422 485.375 280.03125 L 485.375 158.34375 C 485.375 138.78078 469.62547 123.03125 450.0625 123.03125 L 235.5 123.03125 L 207.34375 88.28125 L 72.9375 88.28125 z "
     id="rect3829" />
  <rect
     style="color:#000000;display:inline;overflow:visible;visibility:visible;fill:#fff4ee;fill-opacity:1;fill-rule:evenodd;stroke:none;stroke-width:40;marker:none;enable-background:accumulate"
     id="rect3823"
     width="430.96158"
     height="183.0428"
     x="43.430237"
     y="147.87161"
     ry="32.437965" />
  <path
     style="color:#000000;fill:#41aacc;fill-opacity:1;fill-rule:evenodd;stroke:none;stroke-width:40;marker:none;visibility:visible;display:inline;overflow:visible;enable-background:accumulate"
     d="m 33.571065,176.31449 444.863495,0 c 17.97064,0 35.20018,14.68088 32.43797,32.43796 l -32.43797,208.52978 c -2.76221,17.75707 -14.46732,32.43796 -32.43796,32.43796 l -382.304568,0 c -17.970626,0 -29.868868,-14.65193 -32.437963,-32.43796 L 1.133101,208.75245 C -1.435994,190.9664 15.600439,176.31449 33.571065,176.31449 z"
     id="rect3820"
     inkscape:connector-curvature="0"
     sodipodi:nodetypes="sssssssss" />
  <path
     style="color:#000000;fill:#ffffff;fill-opacity:0.15346535;fill-rule:evenodd;stroke:none;stroke-width:40;marker:none;visibility:visible;display:inline;overflow:visible;enable-background:accumulate"
     d="M 33.5625 176.3125 C 16.185807 176.3125 -0.31330362 190.01427 0.9375 207 C 1.9638347 191.64233 17.375849 179.75 33.5625 179.75 L 478.4375 179.75 C 494.53648 179.75 510.02475 191.52914 511.09375 206.75 C 512.32096 189.90564 495.72753 176.3125 478.4375 176.3125 L 33.5625 176.3125 z "
     id="path3944" />
  <path
     style="fill:#115570;fill-opacity:1"
     d="m 219.2684,389.80713 c -5.67568,-1.33718 -10.76581,-5.41856 -13.37861,-10.72729 -1.25934,-2.55876 -1.48476,-3.90883 -1.47706,-8.84661 0.008,-5.11189 0.20848,-6.20343 1.63378,-8.8939 2.16729,-4.09107 5.55718,-7.2497 9.91733,-9.24071 3.22328,-1.47188 4.12365,-1.61044 8.8939,-1.36866 5.2582,0.2665 6.53091,0.69574 11.74794,3.96223 1.50224,0.94058 2.02571,0.66852 25.72791,-13.3708 l 24.19447,-14.3309 -0.003,-5.18495 -0.003,-5.18493 -24.31322,-14.0339 -24.3138,-14.03391 -2.75256,1.89382 c -7.58053,5.21554 -18.12767,4.48876 -25.0468,-1.7259 -3.58601,-3.22089 -5.74347,-7.22584 -6.52444,-12.11146 -1.04877,-6.56097 0.67349,-12.52084 4.96305,-17.17444 6.52641,-7.08032 16.22251,-8.80723 24.95349,-4.44432 6.99041,3.49315 10.70425,9.74738 10.8633,18.29409 l 0.0963,5.17784 24.21261,13.9945 24.2126,13.99449 3.524,-2.12204 c 4.7907,-2.88481 9.28304,-3.77319 14.35883,-2.83951 5.11884,0.94159 7.82118,2.37678 11.03008,5.85805 4.30192,4.66703 5.9607,10.45914 4.89845,17.10437 -2.37203,14.83905 -19.24166,22.22361 -31.64528,13.85251 l -2.75738,-1.86093 -24.25223,14.34689 -24.25224,14.34689 -0.0953,5.15463 c -0.0783,4.23429 -0.39539,5.77909 -1.77613,8.65228 -4.02432,8.37423 -13.63136,12.98425 -22.63692,10.86257 z"
     id="path4138"
     inkscape:connector-curvature="0" />
</svg>
