<?xml version="1.0" encoding="UTF-8" standalone="no"?>
<svg
   xmlns:dc="http://purl.org/dc/elements/1.1/"
   xmlns:cc="http://creativecommons.org/ns#"
   xmlns:rdf="http://www.w3.org/1999/02/22-rdf-syntax-ns#"
   xmlns:svg="http://www.w3.org/2000/svg"
   xmlns="http://www.w3.org/2000/svg"
   height="512"
   width="512"
   version="1.1"
   id="svg2">
  <metadata
     id="metadata8">
    <rdf:RDF>
      <cc:Work
         rdf:about="">
        <dc:format>image/svg+xml</dc:format>
        <dc:type
           rdf:resource="http://purl.org/dc/dcmitype/StillImage" />
        <dc:title></dc:title>
      </cc:Work>
    </rdf:RDF>
  </metadata>
  <defs
     id="defs6">
    <filter
       color-interpolation-filters="sRGB"
       x="0"
       y="0"
       width="1"
       height="1"
       id="filter3775">
      <feTurbulence
         result="result0"
         seed="0"
         baseFrequency="1"
         numOctaves="3"
         type="fractalNoise"
         id="feTurbulence3777" />
      <feColorMatrix
         type="saturate"
         values="0"
         result="result4"
         id="feColorMatrix3779" />
      <feComposite
         result="result2"
         k3="0.5"
         k2="0.5"
         k1="1.25"
         operator="arithmetic"
         in="SourceGraphic"
         in2="result4"
         id="feComposite3781" />
      <feBlend
         in="result2"
         mode="normal"
         result="result5"
         in2="SourceGraphic"
         id="feBlend3783" />
      <feComposite
         result="result3"
         operator="in"
         in="result5"
         in2="SourceGraphic"
         id="feComposite3785" />
    </filter>
    <filter
       color-interpolation-filters="sRGB"
       x="0"
       y="0"
       width="1"
       height="1"
       id="filter3789">
      <feTurbulence
         result="result0"
         seed="0"
         baseFrequency="1"
         numOctaves="3"
         type="fractalNoise"
         id="feTurbulence3791" />
      <feColorMatrix
         type="saturate"
         values="0"
         result="result4"
         id="feColorMatrix3793" />
      <feComposite
         result="result2"
         k3="0.5"
         k2="0.5"
         k1="1.25"
         operator="arithmetic"
         in="SourceGraphic"
         in2="result4"
         id="feComposite3795" />
      <feBlend
         in="result2"
         mode="normal"
         result="result5"
         in2="SourceGraphic"
         id="feBlend3797" />
      <feComposite
         result="result3"
         operator="in"
         in="result5"
         in2="SourceGraphic"
         id="feComposite3799" />
    </filter>
    <filter
       color-interpolation-filters="sRGB"
       x="0"
       y="0"
       width="1"
       height="1"
       id="filter3836">
      <feTurbulence
         result="result0"
         seed="0"
         baseFrequency="1"
         numOctaves="3"
         type="fractalNoise"
         id="feTurbulence3838" />
      <feColorMatrix
         type="saturate"
         values="0"
         result="result4"
         id="feColorMatrix3840" />
      <feComposite
         result="result2"
         k3="0.5"
         k2="0.5"
         k1="1.25"
         operator="arithmetic"
         in="SourceGraphic"
         in2="result4"
         id="feComposite3842" />
      <feBlend
         in="result2"
         mode="normal"
         result="result5"
         in2="SourceGraphic"
         id="feBlend3844" />
      <feComposite
         result="result3"
         operator="in"
         in="result5"
         in2="SourceGraphic"
         id="feComposite3846" />
    </filter>
    <filter
       color-interpolation-filters="sRGB"
       x="0"
       y="0"
       width="1"
       height="1"
       id="filter3894">
      <feTurbulence
         result="result0"
         seed="0"
         baseFrequency="1"
         numOctaves="3"
         type="fractalNoise"
         id="feTurbulence3896" />
      <feColorMatrix
         type="saturate"
         values="0"
         result="result4"
         id="feColorMatrix3898" />
      <feComposite
         result="result2"
         k3="0.5"
         k2="0.5"
         k1="1.25"
         operator="arithmetic"
         in="SourceGraphic"
         in2="result4"
         id="feComposite3900" />
      <feBlend
         in="result2"
         mode="normal"
         result="result5"
         in2="SourceGraphic"
         id="feBlend3902" />
      <feComposite
         result="result3"
         operator="in"
         in="result5"
         in2="SourceGraphic"
         id="feComposite3904" />
    </filter>
    <filter
       color-interpolation-filters="sRGB"
       x="0"
       y="0"
       width="1"
       height="1"
       id="filter3927">
      <feTurbulence
         result="result0"
         seed="0"
         baseFrequency="1"
         numOctaves="3"
         type="fractalNoise"
         id="feTurbulence3929" />
      <feColorMatrix
         type="saturate"
         values="0"
         result="result4"
         id="feColorMatrix3931" />
      <feComposite
         result="result2"
         k3="0.5"
         k2="0.5"
         k1="1.25"
         operator="arithmetic"
         in="SourceGraphic"
         in2="result4"
         id="feComposite3933" />
      <feBlend
         in="result2"
         mode="normal"
         result="result5"
         in2="SourceGraphic"
         id="feBlend3935" />
      <feComposite
         result="result3"
         operator="in"
         in="result5"
         in2="SourceGraphic"
         id="feComposite3937" />
    </filter>
  </defs>
  <path
     id="rect3829"
     d="M 72.9375 88.28125 C 49.839056 88.28125 31.25 106.8703 31.25 129.96875 L 31.25 158.34375 L 31.25 273.625 L 31.25 280.03125 C 31.25 299.59422 46.999534 315.34375 66.5625 315.34375 L 72.9375 315.34375 L 214.3125 315.34375 L 450.0625 315.34375 C 469.62547 315.34375 485.375 299.59422 485.375 280.03125 L 485.375 158.34375 C 485.375 138.78078 469.62547 123.03125 450.0625 123.03125 L 235.5 123.03125 L 207.34375 88.28125 L 72.9375 88.28125 z "
     style="color:#000000;fill:#157496;fill-opacity:1;fill-rule:evenodd;stroke:none;stroke-width:40;marker:none;visibility:visible;display:inline;overflow:visible;enable-background:accumulate" />
  <rect
     ry="32.437965"
     y="143.62897"
     x="43.430237"
     height="183.0428"
     width="430.96158"
     id="rect3823"
     style="color:#000000;display:inline;overflow:visible;visibility:visible;fill:#fff4ee;fill-opacity:1;fill-rule:evenodd;stroke:none;stroke-width:40;marker:none;enable-background:accumulate" />
  <path
     id="rect3820"
     d="m 45.677517,163.26781 424.117733,-0.61017 c 17.97062,-0.0259 33.7976,14.51882 32.43797,32.43796 L 485.3752,417.27442 c -1.35963,17.91913 -14.46732,32.4376 -32.43796,32.43796 l -389.245208,0.008 C 45.721406,449.72055 32.710303,435.19375 31.254069,417.28223 L 13.239553,195.70577 c -1.456236,-17.91154 14.467356,-32.41211 32.437964,-32.43796 z"
     style="color:#000000;display:inline;overflow:visible;visibility:visible;fill:#41aacc;fill-opacity:1;fill-rule:evenodd;stroke:none;stroke-width:40;marker:none;enable-background:accumulate" />
  <path
     id="path4138"
     d="m 215.76406,383.76538 c -5.67568,-1.33718 -10.76581,-5.41856 -13.37861,-10.72729 -1.25934,-2.55876 -1.48476,-3.90883 -1.47706,-8.84661 0.008,-5.11189 0.20848,-6.20343 1.63378,-8.8939 2.16729,-4.09107 5.55718,-7.2497 9.91733,-9.24072 3.22328,-1.47188 4.12365,-1.61044 8.8939,-1.36866 5.2582,0.2665 6.53091,0.69574 11.74794,3.96224 1.50224,0.94058 2.02571,0.66852 25.72791,-13.37081 l 24.19447,-14.3309 -0.003,-5.18495 -0.003,-5.18493 -24.31322,-14.0339 -24.3138,-14.03391 -2.75256,1.89382 c -7.58053,5.21554 -18.12767,4.48876 -25.0468,-1.7259 -3.58601,-3.22089 -5.74347,-7.22584 -6.52444,-12.11146 -1.04877,-6.56097 0.67349,-12.52084 4.96305,-17.17444 6.52641,-7.08032 16.22251,-8.80723 24.95349,-4.44432 6.99041,3.49315 10.70425,9.74738 10.8633,18.29409 l 0.0963,5.17784 24.21261,13.9945 24.2126,13.99449 3.524,-2.12204 c 4.7907,-2.88481 9.28305,-3.77319 14.35884,-2.83951 5.11884,0.94159 7.82118,2.37678 11.03008,5.85805 4.30192,4.66703 5.9607,10.45914 4.89845,17.10437 -2.37203,14.83905 -19.24166,22.22361 -31.64529,13.85251 l -2.75738,-1.86093 -24.25223,14.34689 -24.25224,14.3469 -0.0953,5.15463 c -0.0783,4.23429 -0.39539,5.77909 -1.77613,8.65228 -4.02432,8.37423 -13.63136,12.98425 -22.63692,10.86257 z"
     style="fill:#115570;fill-opacity:1" />
</svg>
