<?xml version="1.0" encoding="UTF-8" standalone="no"?>
<svg
   xmlns:dc="http://purl.org/dc/elements/1.1/"
   xmlns:cc="http://creativecommons.org/ns#"
   xmlns:rdf="http://www.w3.org/1999/02/22-rdf-syntax-ns#"
   xmlns:svg="http://www.w3.org/2000/svg"
   xmlns="http://www.w3.org/2000/svg"
   viewBox="0 0 48 48"
   id="svg2"
   version="1.1">
  <metadata
     id="metadata14">
    <rdf:RDF>
      <cc:Work
         rdf:about="">
        <dc:format>image/svg+xml</dc:format>
        <dc:type
           rdf:resource="http://purl.org/dc/dcmitype/StillImage" />
        <dc:title></dc:title>
      </cc:Work>
    </rdf:RDF>
  </metadata>
  <defs
     id="defs12" />
  <g
     style="stroke:#6997af;stroke-opacity:1"
     id="layer1">
    <path
       style="display:inline;fill:none;fill-opacity:1;fill-rule:evenodd;stroke:#6997af;stroke-width:0.99939507;stroke-linecap:butt;stroke-linejoin:miter;stroke-miterlimit:4;stroke-dasharray:none;stroke-opacity:1"
       d="m 7.7228748,2.889958 c 9.6081412,-3.17819241 22.7894572,-3.17819241 32.4984792,0 2.296868,0.7518749 4.413016,2.7960636 5.13134,5.08502 2.809253,8.951742 2.876079,23.915426 0,32.205059 -0.786478,2.266852 -2.818699,4.382219 -5.13134,5.085 -9.709022,2.950479 -22.890338,2.993893 -32.4984792,0 -2.3075499,-0.719022 -4.3806221,-2.806273 -5.1313396,-5.085 -2.73098039,-8.289633 -2.80759188,-23.253318 0,-32.205059 0.717939,-2.2890738 2.8368542,-4.3260284 5.1313396,-5.08502 z"
       id="path4152" />
  </g>
  <g
     id="g4"
     transform="matrix(1.1729197,0,0,1.1729197,2.1353594,2.4263909)" />
  <path
     id="path4"
     style="fill:none;stroke:#6997af;stroke-width:1.4849999"
     d="m 36.933441,9.3072064 c -2.32875,0.9574996 -9.795001,4.0724996 -9.981251,4.1499996 -2.09,-1.70875 -4.805,-3.0325 -7.6225,-3.18375 -6.826249,-0.4299996 -13.1012494,5.635 -13.1199994,12.35875 -0.3025,6.055 2.4612502,11.655 4.9562504,17.0075 2.09,-0.87375 9.682499,-4.03875 9.877499,-4.12125 2.04625,1.71375 4.6725,2.97875 7.4125,3.17375 6.713751,0.56625 12.958751,-5.23875 13.301251,-11.8025 0.48875,-6.1425 -2.34375,-11.82625 -4.72125,-17.3199996 -0.03875,-0.0875 -0.06875,-0.17625 -0.1025,-0.26375 z" />
  <g
     id="g6"
     style="fill:#6997af"
     transform="matrix(1.25,0,0,1.25,0.24869358,0.72639936)">
    <path
       id="path8"
       d="M 9.977,27.996 C 8.797,25.141 7.235,22.629 7.2,17.966 c -0.035,-4.816 4.098,-7.934 7.359,-7.934 3.953,0 7.434,3.34 7.617,6.102 0.164,2.496 -0.723,6.125 -5.309,6.098 -2.188,-0.012 -4.461,-1.914 -4.473,-4.746 -0.012,-3.059 3.816,-3.355 4.781,-2.578 0.375,0.301 0.363,0.902 0.031,0.793 -2.063,-0.672 -3.336,0.652 -3.238,1.969 0.125,1.785 1.188,2.848 3.086,2.938 2.738,0.129 3.508,-2.535 3.438,-3.617 -0.086,-1.313 -1.234,-4.02 -4.797,-4.512 -1.688,-0.234 -3.082,0.27 -4.102,1.258 -1.02,0.988 -1.59,2.01 -1.676,3.687 -0.086,1.734 0.293,2.754 1.328,5.03 0.371,0.813 1.406,2.453 2.207,4.094 z" />
    <path
       id="path10"
       d="m 28.02,10.03 c 1.18,2.855 2.742,5.371 2.777,10.03 0.035,4.816 -4.098,7.934 -7.359,7.934 -3.953,0 -7.434,-3.336 -7.617,-6.102 -0.164,-2.496 0.723,-6.125 5.309,-6.098 2.188,0.012 4.461,1.914 4.473,4.75 0.012,3.055 -3.816,3.352 -4.781,2.574 -0.375,-0.301 -0.363,-0.898 -0.031,-0.793 2.063,0.672 3.336,-0.652 3.238,-1.965 -0.125,-1.789 -1.188,-2.852 -3.086,-2.941 -2.738,-0.129 -3.508,2.535 -3.438,3.617 0.086,1.313 1.234,4.02 4.797,4.512 1.688,0.234 3.082,-0.27 4.102,-1.258 1.02,-0.988 1.59,-2.01 1.676,-3.688 0.086,-1.734 -0.293,-2.75 -1.328,-5.03 -0.371,-0.813 -1.406,-2.449 -2.207,-4.094 z" />
  </g>
</svg>
