<?xml version="1.0" encoding="UTF-8" standalone="no"?>
<svg
   xmlns:dc="http://purl.org/dc/elements/1.1/"
   xmlns:cc="http://creativecommons.org/ns#"
   xmlns:rdf="http://www.w3.org/1999/02/22-rdf-syntax-ns#"
   xmlns:svg="http://www.w3.org/2000/svg"
   xmlns="http://www.w3.org/2000/svg"
   viewBox="0 0 48 48"
   id="svg2"
   version="1.1">
  <metadata
     id="metadata14">
    <rdf:RDF>
      <cc:Work
         rdf:about="">
        <dc:format>image/svg+xml</dc:format>
        <dc:type
           rdf:resource="http://purl.org/dc/dcmitype/StillImage" />
        <dc:title></dc:title>
      </cc:Work>
    </rdf:RDF>
  </metadata>
  <defs
     id="defs12" />
  <g
     style="stroke:#cc7d6f;stroke-opacity:1"
     id="layer1">
    <path
       style="display:inline;fill:none;fill-opacity:1;fill-rule:evenodd;stroke:#cc7d6f;stroke-width:0.99939507;stroke-linecap:butt;stroke-linejoin:miter;stroke-miterlimit:4;stroke-dasharray:none;stroke-opacity:1"
       d="m 7.7228748,2.889958 c 9.6081412,-3.17819241 22.7894572,-3.17819241 32.4984792,0 2.296868,0.7518749 4.413016,2.7960636 5.13134,5.08502 2.809253,8.951742 2.876079,23.915426 0,32.205059 -0.786478,2.266852 -2.818699,4.382219 -5.13134,5.085 -9.709022,2.950479 -22.890338,2.993893 -32.4984792,0 -2.3075499,-0.719022 -4.3806221,-2.806273 -5.1313396,-5.085 -2.73098039,-8.289633 -2.80759188,-23.253318 0,-32.205059 0.717939,-2.2890738 2.8368542,-4.3260284 5.1313396,-5.08502 z"
       id="path4152" />
  </g>
  <g
     id="g4"
     transform="matrix(1.1729197,0,0,1.1729197,2.1353594,2.4263909)" />
  <path
     id="path4"
     style="fill:#cc7d6f"
     d="m 38.005419,8.4991194 c -0.488657,0.04207 -0.977315,0.2869379 -1.373203,0.6698814 L 27.81265,16.837578 c -0.379707,0.366762 -0.590056,0.884545 -0.590056,1.407721 0,0.252419 0.05501,0.480028 0.147784,0.703321 0.0044,0.01295 -0.0044,0.02913 0,0.03775 -0.329008,0.699008 -0.223294,1.673086 -0.223294,3.779814 0,0.775596 -2.018274,1.593261 -2.519876,1.593261 -0.02481,0 -0.0507,0 -0.07551,0 -1.600811,0 -6.805606,0.240553 -8.410733,2.44868 -1.605126,2.208128 -7.6351364,12.241247 -7.6351364,13.711534 2.4055324,0 19.8925644,-8.739741 20.7900544,-9.560642 1.078714,-0.994574 0.552301,-2.999903 -0.147784,-4.33643 0.0044,-0.0044 -0.0044,-0.02913 0,-0.03775 0.01726,-0.04639 0.02481,-0.11758 -0.03775,-0.223294 -0.375393,-0.627812 -0.594372,-1.264253 -0.594372,-2.148798 0,-1.96326 0.206035,-3.046289 0.632127,-3.66547 0.943874,0.159649 2.317077,-0.298804 2.928708,-0.888861 l 7.745166,-7.378403 c 0.787461,-0.758336 0.973,-1.905008 0.185539,-2.6676588 L 39.375385,8.9845407 C 38.983813,8.6015972 38.49084,8.4624432 38.005419,8.504513 Z" />
</svg>
