<?xml version="1.0" encoding="UTF-8" standalone="no"?>
<svg
   xmlns:dc="http://purl.org/dc/elements/1.1/"
   xmlns:cc="http://creativecommons.org/ns#"
   xmlns:rdf="http://www.w3.org/1999/02/22-rdf-syntax-ns#"
   xmlns:svg="http://www.w3.org/2000/svg"
   xmlns="http://www.w3.org/2000/svg"
   viewBox="0 0 48 48"
   id="svg2"
   version="1.1">
  <metadata
     id="metadata14">
    <rdf:RDF>
      <cc:Work
         rdf:about="">
        <dc:format>image/svg+xml</dc:format>
        <dc:type
           rdf:resource="http://purl.org/dc/dcmitype/StillImage" />
        <dc:title></dc:title>
      </cc:Work>
    </rdf:RDF>
  </metadata>
  <defs
     id="defs12" />
  <g
     style="stroke:#89b585;stroke-opacity:1"
     id="layer1">
    <path
       style="display:inline;fill:none;fill-opacity:1;fill-rule:evenodd;stroke:#89b585;stroke-width:0.99939507;stroke-linecap:butt;stroke-linejoin:miter;stroke-miterlimit:4;stroke-dasharray:none;stroke-opacity:1"
       d="m 7.7228748,2.889958 c 9.6081412,-3.17819241 22.7894572,-3.17819241 32.4984792,0 2.296868,0.7518749 4.413016,2.7960636 5.13134,5.08502 2.809253,8.951742 2.876079,23.915426 0,32.205059 -0.786478,2.266852 -2.818699,4.382219 -5.13134,5.085 -9.709022,2.950479 -22.890338,2.993893 -32.4984792,0 -2.3075499,-0.719022 -4.3806221,-2.806273 -5.1313396,-5.085 -2.73098039,-8.289633 -2.80759188,-23.253318 0,-32.205059 0.717939,-2.2890738 2.8368542,-4.3260284 5.1313396,-5.08502 z"
       id="path4152" />
  </g>
  <g
     id="g4"
     transform="matrix(1.1729197,0,0,1.1729197,2.1353594,2.4263909)" />
  <path
     id="path4"
     style="fill:none;stroke:#89b585;stroke-width:1.71097219;stroke-linecap:round;stroke-miterlimit:4;stroke-dasharray:none"
     d="m 9.2859554,8.9063868 30.0382556,0 c 0.210664,0 0.379623,0.1689589 0.379623,0.379622 l 0,30.0382552 c 0,0.210663 -0.168959,0.379622 -0.379623,0.379622 l -30.0382556,0 c -0.2106634,0 -0.3796219,-0.168959 -0.3796219,-0.379622 l 0,-30.0382552 c 0,-0.2106631 0.1689585,-0.379622 0.3796219,-0.379622" />
  <path
     id="path6"
     style="fill:none;stroke:#89b585;stroke-width:0.85548609;stroke-linecap:round;stroke-linejoin:round;stroke-miterlimit:4;stroke-dasharray:none"
     d="m 13.611508,22.166421 5.132916,0 0,5.132916 -5.132916,0" />
  <path
     id="path8"
     style="fill:none;stroke:#89b585;stroke-width:0.85548609;stroke-linecap:round;stroke-linejoin:round;stroke-miterlimit:4;stroke-dasharray:none"
     d="m 34.99866,24.735018 c 0,1.41476 -1.149559,2.564319 -2.568597,2.564319 -1.41476,0 -2.564319,-1.149559 -2.564319,-2.564319 0,-1.419038 1.149559,-2.568597 2.564319,-2.568597 1.419038,0 2.568597,1.149559 2.568597,2.568597 z" />
  <path
     id="path10"
     style="fill:none;stroke:#89b585;stroke-width:0.85548609;stroke-linecap:round;stroke-linejoin:round;stroke-miterlimit:4;stroke-dasharray:none"
     d="m 14.779246,13.61156 19.054884,0 c 0.646961,0 1.16346,0.470518 1.16346,1.060803 l 0,2.160102 c 0,0.589216 -0.517569,1.060803 -1.16346,1.060803 l -19.054884,0 c -0.646961,0 -1.167738,-0.470517 -1.167738,-1.060803 l 0,-2.160102 c 0,-0.589216 0.521846,-1.060803 1.167738,-1.060803 z" />
  <path
     id="path12"
     style="fill:#89b585;fill-rule:evenodd"
     d="m 33.715431,24.732879 c 0,0.705776 -0.573176,1.283229 -1.285368,1.283229 -0.707915,0 -1.28109,-0.577453 -1.28109,-1.283229 0,-0.705776 0.573175,-1.283229 1.28109,-1.283229 0.712192,0 1.285368,0.577453 1.285368,1.283229" />
  <path
     id="path14"
     style="fill:none;stroke:#89b585;stroke-width:0.85548609;stroke-linecap:round;stroke-linejoin:round;stroke-miterlimit:4;stroke-dasharray:none"
     d="m 28.154771,13.61156 0,4.27743 5.342511,0 c 0.837307,0 1.501378,-0.586008 1.501378,-1.319587 l 0,-1.628631 c 0,-0.73358 -0.664071,-1.330281 -1.501378,-1.330281 z" />
  <path
     id="path16"
     style="fill:none;stroke:#89b585;stroke-width:0.85548609;stroke-linecap:round;stroke-linejoin:round;stroke-miterlimit:4;stroke-dasharray:none"
     d="m 13.611508,29.865796 5.132916,0 0,5.132916 -5.132916,0 z" />
  <path
     id="path18"
     style="fill:none;stroke:#89b585;stroke-width:0.85548609;stroke-linecap:round;stroke-linejoin:round;stroke-miterlimit:4;stroke-dasharray:none"
     d="m 34.99866,32.430116 c 0,1.419037 -1.149559,2.568596 -2.568597,2.568596 -1.41476,0 -2.564319,-1.149559 -2.564319,-2.568596 0,-1.414761 1.149559,-2.56432 2.564319,-2.56432 1.419038,0 2.568597,1.149559 2.568597,2.56432" />
  <path
     id="path20"
     style="fill:#89b585"
     d="m 14.894737,23.44965 0.855486,0 0,0.855486 -0.855486,0 z" />
  <path
     id="path22"
     style="fill:#89b585"
     d="m 14.894737,25.160622 0.855486,0 0,0.855486 -0.855486,0 z" />
  <path
     id="path24"
     style="fill:#89b585"
     d="m 16.605709,25.160622 0.855486,0 0,0.855486 -0.855486,0 z" />
  <path
     id="path26"
     style="fill:#89b585"
     d="m 16.605709,23.44965 0.855486,0 0,0.855486 -0.855486,0 z" />
  <path
     id="path28"
     style="fill:#89b585"
     d="m 15.750223,24.305136 0.855486,0 0,0.855486 -0.855486,0 z" />
  <path
     id="path30"
     style="fill:#89b585"
     d="m 30.293487,14.894789 0.855486,0 0,0.855486 -0.855486,0 z" />
  <path
     id="path32"
     style="fill:#89b585"
     d="m 32.004459,14.894789 0.855486,0 0,0.855486 -0.855486,0 z" />
  <path
     id="path34"
     style="fill:#89b585"
     d="m 31.148973,15.750275 0.855486,0 0,0.855486 -0.855486,0 z" />
</svg>
