<?xml version="1.0" encoding="UTF-8" standalone="no"?>
<svg
   xmlns:dc="http://purl.org/dc/elements/1.1/"
   xmlns:cc="http://creativecommons.org/ns#"
   xmlns:rdf="http://www.w3.org/1999/02/22-rdf-syntax-ns#"
   xmlns:svg="http://www.w3.org/2000/svg"
   xmlns="http://www.w3.org/2000/svg"
   viewBox="0 0 48 48"
   id="svg2"
   version="1.1">
  <metadata
     id="metadata14">
    <rdf:RDF>
      <cc:Work
         rdf:about="">
        <dc:format>image/svg+xml</dc:format>
        <dc:type
           rdf:resource="http://purl.org/dc/dcmitype/StillImage" />
        <dc:title></dc:title>
      </cc:Work>
    </rdf:RDF>
  </metadata>
  <defs
     id="defs12" />
  <g
     style="fill:none;fill-opacity:1;stroke:#8bc724;stroke-opacity:1"
     id="layer1">
    <path
       style="display:inline;fill:none;fill-opacity:1;fill-rule:evenodd;stroke:#8bc724;stroke-width:0.99939507;stroke-linecap:butt;stroke-linejoin:miter;stroke-miterlimit:4;stroke-dasharray:none;stroke-opacity:1"
       d="m 7.7228748,2.889958 c 9.6081412,-3.17819241 22.7894572,-3.17819241 32.4984792,0 2.296868,0.7518749 4.413016,2.7960636 5.13134,5.08502 2.809253,8.951742 2.876079,23.915426 0,32.205059 -0.786478,2.266852 -2.818699,4.382219 -5.13134,5.085 -9.709022,2.950479 -22.890338,2.993893 -32.4984792,0 -2.3075499,-0.719022 -4.3806221,-2.806273 -5.1313396,-5.085 -2.73098039,-8.289633 -2.80759188,-23.253318 0,-32.205059 0.717939,-2.2890738 2.8368542,-4.3260284 5.1313396,-5.08502 z"
       id="path4152" />
  </g>
  <g
     style="fill:#8bc724;fill-opacity:1"
     id="g4"
     transform="matrix(0.96459266,0,0,0.9957093,1.0472366,-1000.0701)">
    <path
       id="path6"
       style="color:#000000;fill:#8bc724;fill-opacity:1"
       d="m 10.462,1012.57 0,9.538 -2.462,0 0,3.179 2.462,0 0,3.179 -2.462,0 0,3.179 2.462,0 0,10.718 -2.462,0 0,2 4.923,0 0,-5.564 27.897,0 0,-20.667 -27.897,0 0,-5.564 z m 2.462,7.949 25.436,0 0,15.897 -25.436,0 z m 1.641,1.59 0,3.179 9.846,0 0,-3.179 z m 12.308,0 0,3.179 9.846,0 0,-3.179 z m -12.308,4.769 0,2.385 22.15,0 0,-2.385 z m 0,3.974 0,1.59 22.15,0 0,-1.59 z m 0,3.179 0,0.795 3.282,0 0,-0.795 z m 4.103,0 0,0.795 2.462,0 0,-0.795 z m 3.282,0 0,0.795 1.641,0 0,-0.795 z m 2.462,0 0,0.795 1.641,0 0,-0.795 z m 4.923,0 0,0.795 3.282,0 0,-0.795 z m 4.103,0 0,0.795 3.282,0 0,-0.795 z" />
  </g>
</svg>
