<?xml version="1.0" encoding="UTF-8" standalone="no"?>
<svg
   xmlns:dc="http://purl.org/dc/elements/1.1/"
   xmlns:cc="http://creativecommons.org/ns#"
   xmlns:rdf="http://www.w3.org/1999/02/22-rdf-syntax-ns#"
   xmlns:svg="http://www.w3.org/2000/svg"
   xmlns="http://www.w3.org/2000/svg"
   viewBox="0 0 48 48"
   id="svg2"
   version="1.1">
  <metadata
     id="metadata14">
    <rdf:RDF>
      <cc:Work
         rdf:about="">
        <dc:format>image/svg+xml</dc:format>
        <dc:type
           rdf:resource="http://purl.org/dc/dcmitype/StillImage" />
        <dc:title></dc:title>
      </cc:Work>
    </rdf:RDF>
  </metadata>
  <defs
     id="defs12" />
  <g
     style="stroke:#d83434;stroke-opacity:1"
     id="layer1">
    <path
       style="display:inline;fill:none;fill-opacity:1;fill-rule:evenodd;stroke:#d83434;stroke-width:0.99939507;stroke-linecap:butt;stroke-linejoin:miter;stroke-miterlimit:4;stroke-dasharray:none;stroke-opacity:1"
       d="m 7.7228748,2.889958 c 9.6081412,-3.17819241 22.7894572,-3.17819241 32.4984792,0 2.296868,0.7518749 4.413016,2.7960636 5.13134,5.08502 2.809253,8.951742 2.876079,23.915426 0,32.205059 -0.786478,2.266852 -2.818699,4.382219 -5.13134,5.085 -9.709022,2.950479 -22.890338,2.993893 -32.4984792,0 -2.3075499,-0.719022 -4.3806221,-2.806273 -5.1313396,-5.085 -2.73098039,-8.289633 -2.80759188,-23.253318 0,-32.205059 0.717939,-2.2890738 2.8368542,-4.3260284 5.1313396,-5.08502 z"
       id="path4152" />
  </g>
  <g
     id="g4"
     transform="matrix(1.1729197,0,0,1.1729197,2.1353594,2.4263909)" />
  <path
     id="path4138"
     d="M 15.257277,37.813462 C 12.681659,37.70871 10.888471,36.700913 9.9289435,34.818848 9.4933695,33.964488 9.2563621,33.027026 9.1761642,31.841292 9.1625981,31.640767 9.1530785,29.86078 9.1528796,27.48654 l -3.473e-4,-4.015599 1.8887297,-3.145165 1.888728,-3.145164 2.827606,-2.466647 2.827604,-2.466646 2.809344,-1.036509 c 1.545138,-0.57008 3.046165,-1.126803 3.335614,-1.2371649 l 0.526271,-0.2006555 3.391015,-0.0062 c 3.361886,-0.0062 3.393132,-0.00585 3.637119,0.042803 1.627616,0.3243104 2.842144,1.0018284 3.675267,2.0502244 0.763516,0.960805 1.159501,2.105421 1.236779,3.574965 0.01479,0.281399 0.02337,4.446658 0.02351,11.418869 l 2.34e-4,10.975882 -10.905508,-0.0049 c -5.998028,-0.0027 -10.973922,-0.0077 -11.057541,-0.01111 z m 15.788737,-4.509702 -2.186252,-2.186345 -0.05913,0.05424 c -1.851168,1.698146 -3.603155,3.04246 -5.216582,4.002724 -0.212263,0.126333 -0.417509,0.248877 -0.456102,0.272319 -0.06803,0.04132 0.08505,0.04264 5.017071,0.04301 l 5.087241,3.97e-4 -2.186252,-2.186345 z m -15.769927,2.016769 c -0.04284,-0.0804 -0.909253,-1.670197 -1.925377,-3.532877 l -1.8475,-3.386688 -0.0071,1.515502 c -0.0074,1.581555 0.0065,1.964823 0.0903,2.474487 0.15589,0.949181 0.452732,1.596244 0.966361,2.106493 0.245038,0.243425 0.442681,0.386959 0.736752,0.535049 0.331925,0.167156 0.911344,0.330066 1.3713,0.38556 0.115779,0.01396 0.236822,0.0292 0.268983,0.03385 0.03216,0.0047 0.14075,0.0098 0.24131,0.01158 l 0.182839,0.0033 -0.07788,-0.146186 z m 3.888751,-0.622869 c 0.297798,-0.10164 0.654343,-0.240664 1.017201,-0.396619 1.930041,-0.829508 3.858653,-2.085886 5.891197,-3.837763 0.217685,-0.187626 0.428193,-0.369056 0.467797,-0.403179 0.0396,-0.03413 0.06674,-0.06739 0.06031,-0.07391 -0.01421,-0.01443 -6.066049,-2.284792 -6.072198,-2.277996 -0.0023,0.0027 -0.353334,1.578352 -0.779874,3.501581 -0.42654,1.923228 -0.779894,3.509936 -0.78523,3.526016 -0.01232,0.03712 -0.02883,0.04025 0.200797,-0.03813 z m 15.71076,-8.617323 -0.006,-2.576195 -0.173997,0.303407 c -0.953907,1.663373 -2.247395,3.433698 -3.765617,5.15378 -0.174532,0.197742 -0.342591,0.390867 -0.373458,0.429168 l -0.05612,0.06964 2.1846,2.184694 2.184599,2.184694 0.006,-2.586494 c 0.0033,-1.422574 0.0033,-3.745785 0,-5.162692 z m -17.353875,4.369782 c 0.34817,-1.569172 0.628451,-2.857623 0.622847,-2.863227 -0.0087,-0.0087 -4.033282,0.651565 -4.051656,0.664704 -0.0036,0.0026 0.617051,1.147943 1.379253,2.545247 0.762202,1.397301 1.392729,2.532847 1.40117,2.523433 0.0084,-0.0095 0.300216,-1.300987 0.648386,-2.870157 z m 9.500637,-2.830612 c 0,-0.01762 -1.947768,-5.214272 -1.95941,-5.227705 -0.0056,-0.0064 -0.744442,0.730234 -1.641926,1.637035 l -1.631792,1.648731 2.599022,0.975731 c 1.429462,0.536651 2.606916,0.976201 2.616564,0.976778 0.0097,5.75e-4 0.01754,-0.0042 0.01754,-0.01053 z m 2.776653,-0.931589 c 1.190929,-1.427763 2.090055,-2.69371 2.858223,-4.024307 0.252704,-0.437728 0.643387,-1.182019 0.628345,-1.197063 -0.0057,-0.0057 -1.373648,-0.0078 -3.039698,-0.0046 l -3.029183,0.006 1.060892,2.830169 c 0.583487,1.556593 1.065703,2.843326 1.071586,2.859406 0.0058,0.01608 0.01589,0.02924 0.02223,0.02924 0.0063,0 0.198764,-0.22446 0.427599,-0.498799 z m -7.813927,-4.52745 c 1.578026,-1.585239 2.889439,-2.908062 2.914251,-2.939605 0.03901,-0.0496 1.818651,-5.658647 1.818874,-5.732722 9.3e-5,-0.02892 -0.138454,-0.150083 -0.928037,-0.811614 l -0.495408,-0.415064 -2.729863,1.007731 c -1.501424,0.554251 -2.743713,1.015482 -2.760641,1.024955 -0.01694,0.0095 -1.16347,1.005992 -2.547868,2.214483 l -2.51709,2.197261 -1.518535,2.530767 c -0.835195,1.391923 -1.524526,2.546377 -1.531845,2.565454 -0.0077,0.01999 0.245766,0.509602 0.598266,1.15578 l 0.611576,1.121096 3.108591,-0.518134 3.108591,-0.518134 2.869138,-2.882254 z m 11.456612,-3.065162 c -0.01222,-0.01206 -1.090525,-0.917322 -2.396229,-2.011703 -2.160296,-1.810661 -2.375548,-1.98503 -2.391123,-1.936978 -0.121896,0.376083 -1.234359,3.937203 -1.234359,3.951326 0,0.01064 1.359885,0.01927 3.021966,0.01927 1.879738,0 3.013566,-0.0083 2.999745,-0.02192 z M 34.764393,17.1182 c 0,-0.006 0.01527,-0.124401 0.03394,-0.263135 0.212403,-1.57841 -0.04082,-2.8147 -0.74528,-3.638647 -0.406094,-0.474974 -1.145252,-0.872916 -1.9614,-1.055963 l -0.269822,-0.06052 -1.534312,0.006 -1.534309,0.006 2.988048,2.507359 c 1.643428,1.379047 2.995944,2.507899 3.005593,2.508559 0.0096,6.6e-4 0.01754,-0.0037 0.01754,-0.0097 z"
     style="fill:#d83434;fill-opacity:1" />
</svg>
