<?xml version="1.0" encoding="UTF-8" standalone="no"?>
<svg
   xmlns:dc="http://purl.org/dc/elements/1.1/"
   xmlns:cc="http://creativecommons.org/ns#"
   xmlns:rdf="http://www.w3.org/1999/02/22-rdf-syntax-ns#"
   xmlns:svg="http://www.w3.org/2000/svg"
   xmlns="http://www.w3.org/2000/svg"
   viewBox="0 0 48 48"
   id="svg2"
   version="1.1">
  <metadata
     id="metadata14">
    <rdf:RDF>
      <cc:Work
         rdf:about="">
        <dc:format>image/svg+xml</dc:format>
        <dc:type
           rdf:resource="http://purl.org/dc/dcmitype/StillImage" />
        <dc:title></dc:title>
      </cc:Work>
    </rdf:RDF>
  </metadata>
  <defs
     id="defs12" />
  <g
     style="fill:none;fill-opacity:1;stroke:#72b39a;stroke-opacity:1"
     id="layer1">
    <path
       style="display:inline;fill:none;fill-opacity:1;fill-rule:evenodd;stroke:#72b39a;stroke-width:0.99939507;stroke-linecap:butt;stroke-linejoin:miter;stroke-miterlimit:4;stroke-dasharray:none;stroke-opacity:1"
       d="m 7.7228748,2.889958 c 9.6081412,-3.17819241 22.7894572,-3.17819241 32.4984792,0 2.296868,0.7518749 4.413016,2.7960636 5.13134,5.08502 2.809253,8.951742 2.876079,23.915426 0,32.205059 -0.786478,2.266852 -2.818699,4.382219 -5.13134,5.085 -9.709022,2.950479 -22.890338,2.993893 -32.4984792,0 -2.3075499,-0.719022 -4.3806221,-2.806273 -5.1313396,-5.085 -2.73098039,-8.289633 -2.80759188,-23.253318 0,-32.205059 0.717939,-2.2890738 2.8368542,-4.3260284 5.1313396,-5.08502 z"
       id="path4152" />
  </g>
  <path
     id="path4"
     style="fill:#72b39a;fill-opacity:1"
     d="m 23.869115,7.208159 c -4.640445,0 -9.023219,1.8237913 -12.337485,5.134511 -3.3189935,3.31072 -5.1510591,7.689948 -5.1510591,12.331575 0,9.660305 7.8447871,17.520457 17.4885441,17.520457 9.648485,0 17.497999,-7.860152 17.497999,-17.520457 0,-9.628391 -7.849514,-17.466086 -17.497999,-17.466086 m 0,0.7186425 c 9.248976,0 16.774629,7.5150145 16.774629,16.7474435 0,9.264342 -7.526835,16.802996 -16.774629,16.802996 -9.244249,0 -16.7663557,-7.537472 -16.7663557,-16.802996 0,-4.447783 1.7540551,-8.642622 4.9347577,-11.819778 3.180702,-3.1724287 7.383815,-4.9264835 11.831598,-4.9264835" />
  <g
     style="fill:#72b39a;fill-opacity:1"
     id="g6"
     transform="matrix(1.1784941,0,0,1.1788043,1.4777269,2.3041493)">
    <g
       style="fill:#72b39a;fill-opacity:1"
       id="g8">
      <path
         id="path10"
         style="fill:#72b39a;fill-opacity:1"
         d="m 14.426,6.668 c -0.07,0 -0.145,0.027 -0.219,0.07 0.176,-0.055 0.262,-0.07 0.219,-0.07 m 4.434,0.863 0.043,-0.648 -0.684,0.043 0.09,0.605 0.551,0 m -7.727,11.211 c -0.137,-0.129 -0.047,-0.691 -0.047,-0.691 0,0 -2.055,-1.082 -4.297,-1.734 C 6.516,16.239 6.656,15.669 6.926,15.454 L 6.836,14.849 C 6.789,14.544 7.293,13.072 7.797,12.943 8.301,12.814 7.75,13.81 7.75,13.81 l -0.5,0.301 c 0,0 0.594,0.695 0.73,0.695 0.137,0 0.367,-0.348 0.367,-0.348 L 7.706,14.024 8.3,13.766 8.339,13.536 8.437,13.505 9.421,12.017 c 0.68,-0.281 1.516,-0.625 1.621,-0.676 0.184,-0.086 1.465,-0.82 1.691,-0.992 0.23,-0.176 0.73,-0.129 0.914,-0.129 0.184,0 0.457,-0.09 0.504,-0.566 0.043,-0.477 0.227,-0.563 0.363,-0.43 0.141,0.125 -0.137,0.344 0.184,0.43 0.32,0.086 0.594,0.305 0.824,0.086 C 15.69,9.584 15.463,9.404 15.315,9.267 l 2.539,0 0.273,-0.781 -0.594,-0.086 -2.195,-0.219 0,-0.258 -0.176,0.031 C 15.4,6.645 16.81,6.864 15.748,6.106 15.685,6.059 14.756,7.571 14.518,7.54 14.092,7.485 13.538,7.481 13.42,7.618 c -0.156,0.188 0.348,-0.633 0.785,-0.879 -0.52,0.152 -1.453,-0.32 -3.133,0.867 -0.57,0.402 -1.996,2.031 -2.586,2.656 -2.48,2.93 -2.68,5.434 -2.68,5.543 0,0.219 0.527,0.34 0.57,0.602 0.047,0.258 -0.867,1.125 -0.867,1.555 0,0.199 -0.457,2.359 0.547,5.063 0.891,2.566 2.617,4.828 2.84,4.969 l 0.633,-0.336 c 0,0 -1.051,-1.859 -1.094,-2.035 -0.047,-0.172 1.188,-2.684 1.781,-2.594 0.594,0.082 0.457,0.258 0.824,0.043 0.363,-0.215 0.594,-1.992 1,-2.164 0.414,-0.176 0.867,-0.391 0.824,-0.824 -0.047,-0.434 -1.602,-1.211 -1.738,-1.34 M 21.048,6.021 19.814,5.587 20.041,6.278 21.051,6.02 m -4.617,1.598 c 0.137,0 2.879,-1.816 2.605,-1.859 -0.273,-0.043 -0.32,0 -1.055,-0.086 -0.73,-0.086 -1.508,1.039 -1.691,1.211 -0.18,0.176 -0.121,0.734 0.141,0.734 m 12.582,13.05 0.355,-0.457 -0.355,-0.125 -0.262,0.332 -0.313,0.457 0.266,0.125 0.309,-0.332 m 1.551,1.504 -0.09,-0.668 -0.574,0 -0.043,0.5 -0.531,-0.082 -0.133,-0.543 -0.266,-0.168 -0.313,0.375 -0.309,-0.082 -0.09,0.289 0.355,0.086 0,2.711 1.254,0.301 c -0.031,0.051 -0.051,0.094 -0.059,0.113 -0.09,0.293 0.352,0.422 0.664,0.293 0.113,-0.043 0.836,-0.324 1.063,-0.867 0.32,-0.758 0.527,-1.852 0.582,-2.203 l -0.141,-0.305 -0.887,0.332 -0.488,-0.082 0.004,0 M 30.12,11.072 C 28.097,8.006 23.233,5.998 23.233,5.998 l -1.25,0.656 -0.18,-0.289 -0.441,-0.168 0,0.375 0.398,0.336 -0.266,0.125 -1.016,0.082 -2.301,1.25 0.219,1 -0.266,0.082 -0.129,0.207 0.75,1.125 0.043,0.379 -0.617,0.125 0,0.75 -0.355,0.082 0.047,0.586 -3.01,2.086 0.09,1.164 c 0.223,0.293 1.945,2.047 1.945,2.047 0,0 1.992,0.082 2.434,-0.168 0.445,-0.25 0.133,0.25 0.266,0.375 0.133,0.125 0.18,1 0.309,1.086 0.137,0.082 0,0.582 0.18,0.75 0.176,0.168 0.176,2.168 0.176,2.168 0,0 1.063,1.793 1.063,2.254 0,0.457 -0.047,0.414 0.797,0.375 0.84,-0.043 1.016,-0.375 1.195,-0.5 0.176,-0.125 0.176,-0.418 0.352,-0.668 0.18,-0.25 0.488,-1.207 0.887,-1.543 0.398,-0.336 1.461,-0.586 1.547,-1.168 0.09,-0.586 0.488,-1.043 0.488,-1.043 l 1.91,-2.023 -0.051,0.273 -0.047,1.043 0.578,-0.211 -0.047,-1.125 -0.203,-0.219 0.027,-0.031 c 0,0 -0.133,-0.25 -0.309,-0.25 -0.176,0 -1.238,0.25 -1.418,0.207 -0.176,-0.043 -0.926,-2.043 -1.059,-2.125 -0.137,-0.086 -0.977,-1.461 -0.977,-1.461 0,0 1.949,2.336 2.258,3.254 0.18,0.531 0.855,0.035 1.406,-0.523 l 0.145,0.355 0.352,-0.082 -0.043,-0.418 0.398,0 0,0.625 -0.133,0.336 -0.047,0.539 0.355,0.336 0.176,-0.293 0.574,-0.543 0.664,-0.332 0.176,0.332 0.09,0.461 -0.176,0.5 -0.355,0.293 -0.176,0.75 0,0.375 -0.398,-0.25 -0.043,-0.793 -0.578,0.043 -0.262,0.707 0.398,0.586 0.926,0.125 0.754,-0.711 0.086,-1.371 0.336,-0.445 c 0.219,0.563 0.375,1.148 0.375,1.695 0,0.598 0.473,-0.305 0.242,-2.129 0,-0.004 -0.367,-4.34 -2.371,-6.348 z m -8.848,1.797 -2.387,-0.082 1.016,-0.836 0.531,0 0.84,0.586 0,0.332 m 2.922,-0.289 0,0.375 -1.016,0 0.086,0.25 -0.617,0.082 -0.047,0.207 -0.441,-0.082 -0.797,-0.164 0.133,-0.211 0.133,-0.25 0.445,-0.461 0.176,0.336 0.664,-0.043 0.352,-0.375 1.375,0.25 -0.445,0.086 m 0.086,-0.543 -0.527,0.082 -0.09,-0.375 0.664,-0.082 0.09,-0.379 0.484,0.504 -0.621,0.25 m 2.57,12.969 -0.313,0.254 0.043,0.625 0.398,0 0,-0.543 0.355,-0.461 0,-0.957 -0.223,-0.043 -0.262,1.125 m -2.965,-1.25 c 0,0 -0.313,0.082 0.043,0.211 0.352,0.125 1.77,-2.043 1.77,-2.043 l -1.195,0.75 -0.617,1.082 m -2.41,7.996 -0.266,-0.254 -0.527,-0.082 -0.09,0.254 -0.707,-0.086 -0.047,-0.336 -0.531,0 -0.574,0.336 -1.016,0 -0.09,-0.25 -1.633,-0.172 -0.266,0.254 -0.664,-0.168 -0.09,-0.586 -0.309,-0.047 -0.355,0.633 -1.191,-0.043 c 0.215,0.102 1.996,1.164 4.73,1.387 3.625,0.293 5.352,-0.586 5.352,-0.586 l -0.133,-0.129" />
    </g>
  </g>
</svg>
