<?xml version="1.0" encoding="UTF-8" standalone="no"?>
<svg
   xmlns:dc="http://purl.org/dc/elements/1.1/"
   xmlns:cc="http://creativecommons.org/ns#"
   xmlns:rdf="http://www.w3.org/1999/02/22-rdf-syntax-ns#"
   xmlns:svg="http://www.w3.org/2000/svg"
   xmlns="http://www.w3.org/2000/svg"
   viewBox="0 0 48 48"
   id="svg2"
   version="1.1">
  <metadata
     id="metadata14">
    <rdf:RDF>
      <cc:Work
         rdf:about="">
        <dc:format>image/svg+xml</dc:format>
        <dc:type
           rdf:resource="http://purl.org/dc/dcmitype/StillImage" />
        <dc:title></dc:title>
      </cc:Work>
    </rdf:RDF>
  </metadata>
  <defs
     id="defs12" />
  <g
     style="stroke:#d56f7f;stroke-opacity:1"
     id="layer1">
    <path
       style="display:inline;fill:none;fill-opacity:1;fill-rule:evenodd;stroke:#d56f7f;stroke-width:0.99939507;stroke-linecap:butt;stroke-linejoin:miter;stroke-miterlimit:4;stroke-dasharray:none;stroke-opacity:1"
       d="m 7.7228748,2.889958 c 9.6081412,-3.17819241 22.7894572,-3.17819241 32.4984792,0 2.296868,0.7518749 4.413016,2.7960636 5.13134,5.08502 2.809253,8.951742 2.876079,23.915426 0,32.205059 -0.786478,2.266852 -2.818699,4.382219 -5.13134,5.085 -9.709022,2.950479 -22.890338,2.993893 -32.4984792,0 -2.3075499,-0.719022 -4.3806221,-2.806273 -5.1313396,-5.085 -2.73098039,-8.289633 -2.80759188,-23.253318 0,-32.205059 0.717939,-2.2890738 2.8368542,-4.3260284 5.1313396,-5.08502 z"
       id="path4152" />
  </g>
  <g
     id="g4"
     transform="matrix(1.1729197,0,0,1.1729197,2.1353594,2.4263909)" />
  <path
     id="path4"
     style="fill:#d56f7f;fill-rule:evenodd"
     d="m 19.022988,39.059172 c 1.097368,-0.120907 -0.19345,-1.043248 -0.55732,-1.227486 -0.701257,-0.351204 -1.272395,-0.750771 -1.713414,-1.412876 -0.696652,-1.061672 -1.043249,-2.469942 -1.340333,-3.688216 -0.198056,-0.82792 -0.35581,-1.309242 0.17042,-2.010498 0.521624,-0.69665 -0.368476,-1.272394 0.184238,-2.010498 0.926949,-1.236698 1.318455,-2.874114 2.235039,-4.098145 0.261388,-0.346598 0.166966,-0.670166 0.540048,-0.705862 0.179632,-0.01842 0.643682,0.341991 0.800284,0.445625 0.454838,0.306296 1.007552,0.450232 1.453178,0.746165 0.22454,0.148541 0.651742,0.0403 0.837131,0.184238 0.535442,0.41799 0.408779,1.71802 0.35581,2.38358 -0.0806,0.948826 -0.840586,1.24591 -0.840586,2.159039 0,1.101974 0.233752,1.852745 -0.112846,2.982354 -0.198056,0.648288 -0.69665,1.38524 -0.778406,2.046194 -0.06794,0.521624 0.03109,0.507806 0.184238,1.002946 0.179633,0.589562 0.224541,1.115792 0.783012,1.380634 0.318962,0.148542 1.606326,0.211874 1.785958,-0.148542 0.35581,-0.705862 -0.99834,-0.948826 -1.227486,-1.380634 -0.49514,-0.926947 0.670166,-3.328951 1.115792,-4.133841 0.24757,-0.436414 0.71968,-0.787618 0.894706,-1.227486 0.238358,-0.594168 -0.242964,-0.998341 -0.166966,-1.453178 0.148542,-0.886646 0.521624,-1.82626 0.800284,-2.680664 0.651742,-1.984014 1.556812,1.030582 1.9345,1.790564 0.153148,0.297083 0.261388,0.625258 0.408778,0.931553 0.179632,0.360416 -0.21648,0.670166 -0.10824,1.115792 0.09903,0.41799 0.584956,0.651742 0.854404,0.96725 0.408778,0.481322 0.693196,1.088156 0.91313,1.677718 0.458292,1.227486 0.620652,3.369254 1.47045,4.353776 0.120906,0.143936 0.462898,0.06333 0.594168,0.188844 0.297084,0.287872 -0.076,0.606834 0.504352,0.800284 0.445626,0.148542 1.569478,0.310902 1.992074,0.05412 0.809496,-0.490534 -0.202662,-1.092762 -0.705862,-1.60172 -0.710468,-0.705862 -1.533782,-1.35415 -2.087648,-2.194736 -0.728892,-1.10658 -0.88204,-2.35249 -1.025976,-3.62949 -0.06794,-0.616046 0.598774,-0.922342 0.02303,-1.659294 -0.184238,-0.233752 -0.746164,-0.202662 -0.746164,-0.445626 0,-0.769194 -0.02303,-1.542994 0,-2.302976 0.02648,-0.931553 0.02303,-2.465335 0.91313,-3.053746 1.182578,-0.792223 2.68527,-0.99834 3.814879,-1.844683 1.125004,-0.845192 2.154434,-1.60978 2.833812,-2.959324 0.351204,-0.705862 0.535442,-1.399058 0.818708,-2.123344 0.207268,-0.535442 0.148542,-0.35581 0.481322,-0.670166 0.198056,-0.184238 0.490534,-0.314356 0.710468,-0.521624 0.571138,-0.54926 0.674772,-1.088156 1.637416,-0.85901 0.382294,0.09442 1.012158,0.809496 1.227486,0.373082 0.13933,-0.27866 0.05412,-0.535442 -0.01842,-0.818708 -0.10824,-0.422596 0.405324,-0.561926 0.391506,-0.96725 -0.02303,-0.69665 -1.146882,-1.430148 -1.731838,-1.547599 -0.738103,-0.148542 -1.547599,0.17042 -2.32946,0.01842 -0.629864,-0.120906 -1.177972,-0.462898 -1.785958,-0.611441 -0.634469,-0.162359 -1.205607,-0.216479 -1.750261,0.166967 -0.24757,0.175026 -0.341992,0.490534 -0.55732,0.670166 -0.184238,0.148542 -0.346598,0.10824 -0.557321,0.261388 -0.639075,0.458292 -0.688589,1.13767 0.408779,0.931554 -0.462898,1.911469 -2.7083,7.052863 -5.212786,4.394077 -1.169912,-1.241304 -2.24425,-2.617332 -3.35083,-3.909301 -0.976462,-1.13767 -1.542994,-2.420429 -3.202288,-2.199342 -1.637416,0.21648 -2.757814,1.340332 -4.025602,2.271886 -1.034037,0.764588 -2.253463,0.931553 -3.350831,1.564872 -1.165305,0.670166 -2.203948,1.799775 -2.604666,3.090593 -0.58035,1.866562 -0.24757,3.666338 -1.2689394,5.438478 -0.616046,1.07549 -1.4934798,1.82626 -2.2718857,2.71636 -0.4179901,0.481322 -0.6966502,1.142276 -0.5573201,1.785958 0.094422,0.445625 0.4087782,0.52623 0.4087782,1.043248 0,0.903918 -0.044908,1.799775 -0.00461,2.703693 0.035696,0.80489 0.099028,1.592508 0.2118738,2.388186 0.099028,0.68859 0.3512038,0.88204 0.575744,1.389846 0.33278,0.75077 0.27866,1.080096 1.0800956,1.376028 0.4548378,0.166966 1.2274866,0.504352 1.7134136,0.485928 0.696651,-0.03109 0.795679,-0.606831 0.261388,-1.227483 C 11.00863,35.610465 10.3661,35.480347 9.9792002,35.043933 8.850742,33.7796 8.3648141,29.979689 9.3090342,28.638206 9.7005401,28.080886 10.199134,28.07628 10.235982,27.22533 c 0.0357,-0.759982 -0.2740542,-1.025976 0.413384,-1.713414 2.185525,-1.115792 2.415822,-1.91147 3.12629,-1.529176 0.863616,0.467504 0.184238,3.098654 0,3.836758 -0.33278,1.321908 -1.642021,1.943712 -0.783011,3.279438 0.616046,0.953432 0.903918,1.939105 1.321908,3.053746 0.377688,1.002946 0.346598,2.4377 0.948826,3.274831 0.117452,0.16236 0.30169,0.252176 0.408778,0.408778 0.0806,0.117452 0.202662,0.454838 0.261388,0.521624 0.252176,0.292478 0.306296,0.368477 0.710469,0.521625 0.71968,0.274054 1.601719,0.184238 2.378974,0.184238" />
</svg>
