<?xml version="1.0" encoding="UTF-8" standalone="no"?>
<svg
   xmlns:dc="http://purl.org/dc/elements/1.1/"
   xmlns:cc="http://creativecommons.org/ns#"
   xmlns:rdf="http://www.w3.org/1999/02/22-rdf-syntax-ns#"
   xmlns:svg="http://www.w3.org/2000/svg"
   xmlns="http://www.w3.org/2000/svg"
   viewBox="0 0 48 48"
   id="svg2"
   version="1.1">
  <metadata
     id="metadata14">
    <rdf:RDF>
      <cc:Work
         rdf:about="">
        <dc:format>image/svg+xml</dc:format>
        <dc:type
           rdf:resource="http://purl.org/dc/dcmitype/StillImage" />
        <dc:title></dc:title>
      </cc:Work>
    </rdf:RDF>
  </metadata>
  <defs
     id="defs12" />
  <g
     style="stroke:#85b3b5;stroke-opacity:1"
     id="layer1">
    <path
       style="display:inline;fill:none;fill-opacity:1;fill-rule:evenodd;stroke:#85b3b5;stroke-width:0.99939507;stroke-linecap:butt;stroke-linejoin:miter;stroke-miterlimit:4;stroke-dasharray:none;stroke-opacity:1"
       d="m 7.7228748,2.889958 c 9.6081412,-3.17819241 22.7894572,-3.17819241 32.4984792,0 2.296868,0.7518749 4.413016,2.7960636 5.13134,5.08502 2.809253,8.951742 2.876079,23.915426 0,32.205059 -0.786478,2.266852 -2.818699,4.382219 -5.13134,5.085 -9.709022,2.950479 -22.890338,2.993893 -32.4984792,0 -2.3075499,-0.719022 -4.3806221,-2.806273 -5.1313396,-5.085 -2.73098039,-8.289633 -2.80759188,-23.253318 0,-32.205059 0.717939,-2.2890738 2.8368542,-4.3260284 5.1313396,-5.08502 z"
       id="path4152" />
  </g>
  <g
     id="g4"
     transform="matrix(1.1729197,0,0,1.1729197,2.1353594,2.4263909)" />
  <path
     id="path8"
     style="fill:#85b3b5;fill-rule:evenodd;stroke:#85b3b5;stroke-width:0.49522942;stroke-linejoin:round"
     d="m 19.973839,31.076363 0,2.439463 -9.287079,0 0,-2.439463 z" />
  <path
     id="path10"
     style="fill:#85b3b5;stroke:#85b3b5;stroke-width:0.49522942;stroke-linecap:round;stroke-linejoin:round;stroke-miterlimit:10"
     d="m 16.550031,28.386228 c 0,0.67498 -0.545363,1.220343 -1.220343,1.220343 -0.674979,0 -1.220343,-0.545363 -1.220343,-1.220343 0,-0.674978 0.545364,-1.220343 1.220343,-1.220343 0.67498,0 1.220343,0.545365 1.220343,1.220343 z" />
  <path
     id="path12"
     style="fill:#85b3b5;stroke:#85b3b5;stroke-width:0.49522942;stroke-linecap:round;stroke-linejoin:round;stroke-miterlimit:10"
     d="m 16.550031,36.212076 c 0,0.671311 -0.545363,1.215451 -1.220343,1.215451 -0.674979,0 -1.220343,-0.545363 -1.220343,-1.215451 0,-0.67498 0.545364,-1.222789 1.220343,-1.222789 0.67498,0 1.220343,0.549032 1.220343,1.222789 z" />
  <path
     id="path14"
     style="fill:#85b3b5;fill-rule:evenodd;stroke:#85b3b5;stroke-width:0.49522942;stroke-linejoin:round"
     d="m 37.08432,18.090349 -1.725355,1.725355 -6.567596,-6.567598 1.725354,-1.725355 z" />
  <path
     id="path16"
     style="fill:#85b3b5;stroke:#85b3b5;stroke-width:0.49522942;stroke-linecap:round;stroke-linejoin:round;stroke-miterlimit:10"
     d="m 36.567081,13.765345 c -0.476888,0.476888 -1.248467,0.476888 -1.725355,0 -0.476887,-0.476888 -0.476887,-1.248467 0,-1.725355 0.476888,-0.476887 1.248467,-0.476887 1.725355,0 0.476888,0.476888 0.476888,1.248467 0,1.725355 z" />
  <path
     id="path18"
     style="fill:#85b3b5;stroke:#85b3b5;stroke-width:0.49522942;stroke-linecap:round;stroke-linejoin:round;stroke-miterlimit:10"
     d="m 31.030294,19.300909 c -0.474442,0.474442 -1.244798,0.474442 -1.722909,-0.0025 -0.476888,-0.476888 -0.476888,-1.248467 -0.0025,-1.72291 0.476888,-0.476886 1.250913,-0.479333 1.7278,-0.0025 0.476888,0.476888 0.474443,1.250913 -0.0025,1.727801 z" />
  <rect
     id="rect20"
     style="opacity:1;fill:#85b3b5;fill-opacity:1;fill-rule:nonzero;stroke:none"
     rx="0.48911545"
     y="14.201881"
     x="9.4603033"
     height="3.9129236"
     width="11.738771" />
  <rect
     id="rect22"
     style="opacity:1;fill:#85b3b5;fill-opacity:1;fill-rule:nonzero;stroke:none"
     transform="matrix(0,1,-1,0,0,0)"
     rx="0.48911545"
     y="-17.286152"
     x="10.288958"
     height="3.9129236"
     width="11.738771" />
  <g
     id="g24"
     transform="matrix(1.2227886,0,0,1.2227886,11.416765,9.3107262)">
    <rect
       id="rect26"
       style="opacity:1;fill:#85b3b5;fill-opacity:1;fill-rule:nonzero;stroke:none"
       width="9.6000004"
       height="3.2"
       x="20.656"
       y="-1.034"
       rx="0.40000001"
       transform="matrix(0.70710678,0.70710678,-0.70710678,0.70710678,0,0)" />
    <rect
       id="rect28"
       style="opacity:1;fill:#85b3b5;fill-opacity:1;fill-rule:nonzero;stroke:none"
       width="9.6000004"
       height="3.2"
       x="-4.2340002"
       y="-27.059999"
       rx="0.40000001"
       transform="matrix(-0.70710678,0.70710678,-0.70710678,-0.70710678,0,0)" />
  </g>
</svg>
