<?xml version="1.0" encoding="UTF-8" standalone="no"?>
<svg
   xmlns:dc="http://purl.org/dc/elements/1.1/"
   xmlns:cc="http://creativecommons.org/ns#"
   xmlns:rdf="http://www.w3.org/1999/02/22-rdf-syntax-ns#"
   xmlns:svg="http://www.w3.org/2000/svg"
   xmlns="http://www.w3.org/2000/svg"
   viewBox="0 0 48 48"
   id="svg2"
   version="1.1">
  <metadata
     id="metadata14">
    <rdf:RDF>
      <cc:Work
         rdf:about="">
        <dc:format>image/svg+xml</dc:format>
        <dc:type
           rdf:resource="http://purl.org/dc/dcmitype/StillImage" />
        <dc:title></dc:title>
      </cc:Work>
    </rdf:RDF>
  </metadata>
  <defs
     id="defs12" />
  <g
     style="stroke:#b477d0;stroke-opacity:1"
     id="layer1">
    <path
       style="display:inline;fill:none;fill-opacity:1;fill-rule:evenodd;stroke:#b477d0;stroke-width:0.99939507;stroke-linecap:butt;stroke-linejoin:miter;stroke-miterlimit:4;stroke-dasharray:none;stroke-opacity:1"
       d="m 7.7228748,2.889958 c 9.6081412,-3.17819241 22.7894572,-3.17819241 32.4984792,0 2.296868,0.7518749 4.413016,2.7960636 5.13134,5.08502 2.809253,8.951742 2.876079,23.915426 0,32.205059 -0.786478,2.266852 -2.818699,4.382219 -5.13134,5.085 -9.709022,2.950479 -22.890338,2.993893 -32.4984792,0 -2.3075499,-0.719022 -4.3806221,-2.806273 -5.1313396,-5.085 -2.73098039,-8.289633 -2.80759188,-23.253318 0,-32.205059 0.717939,-2.2890738 2.8368542,-4.3260284 5.1313396,-5.08502 z"
       id="path4152" />
  </g>
  <g
     id="g4"
     transform="matrix(1.1729197,0,0,1.1729197,2.1353594,2.4263909)" />
  <path
     id="path4"
     style="fill:#b477d0"
     d="m 23.078023,10.980899 2.607991,0 c 0.355579,0 0.638345,0.246357 0.638345,0.544898 l 0,1.758483 c 0,0.303396 -0.282766,0.544898 -0.638345,0.544898 l -2.607991,0 c -0.35558,0 -0.638345,-0.241502 -0.638345,-0.544898 l 0,-1.758483 c 0,-0.298541 0.282765,-0.544898 0.638345,-0.544898 z" />
  <path
     id="path6"
     style="fill:#b477d0"
     d="m 23.126566,9.0804267 2.275469,0 c 0.763344,0 1.379845,0.6165006 1.379845,1.3798443 0,0.75849 -0.616501,1.379845 -1.379845,1.379845 l -2.275469,0 c -0.763343,0 -1.379843,-0.621355 -1.379843,-1.379845 0,-0.7633437 0.6165,-1.3798443 1.379843,-1.3798443 z" />
  <path
     id="path8"
     style="fill:#b477d0;stroke:#b477d0;stroke-width:1.10072005;stroke-linejoin:round"
     d="m 23.650834,6.7212208 1.455086,0 c 1.438098,0 2.603137,0.7973246 2.603137,1.7851815 l 0,0.1868913 c 0,0.9842159 -1.165039,1.7815404 -2.603137,1.7815404 l -1.455086,0 c -1.438096,0 -2.60799,-0.7973245 -2.60799,-1.7815404 l 0,-0.1868913 c 0,-0.9890713 1.169894,-1.7851815 2.60799,-1.7851815 z" />
  <path
     id="path10"
     style="fill:#b477d0"
     d="m 24.145976,16.851001 0.452667,0 c 0.407764,0 0.743927,0.248784 0.743927,0.560675 l 0,1.792463 c 0,0.307036 -0.336163,0.560676 -0.743927,0.560676 l -0.452667,0 c -0.407763,0 -0.743927,-0.25364 -0.743927,-0.560676 l 0,-1.792463 c 0,-0.311891 0.336164,-0.560675 0.743927,-0.560675" />
  <path
     id="path12"
     style="fill:#b477d0"
     d="m 24.145976,35.394553 0.452667,0 c 0.407764,0 0.743927,0.252426 0.743927,0.559462 l 0,1.793677 c 0,0.305822 -0.336163,0.559461 -0.743927,0.559461 l -0.452667,0 c -0.407763,0 -0.743927,-0.252425 -0.743927,-0.559461 l 0,-1.793677 c 0,-0.305822 0.336164,-0.559462 0.743927,-0.559462" />
  <path
     id="path14"
     style="fill:#b477d0"
     d="m 13.697025,27.755047 0,-0.447813 c 0,-0.408978 0.252425,-0.746353 0.564316,-0.746353 l 1.788822,0 c 0.305822,0 0.559461,0.337375 0.559461,0.746353 l 0,0.447813 c 0,0.415046 -0.252425,0.746353 -0.559461,0.746353 l -1.788822,0 c -0.310678,0 -0.564316,-0.331307 -0.564316,-0.746353" />
  <path
     id="path16"
     style="fill:#b477d0"
     d="m 32.143491,27.755047 0,-0.447813 c 0,-0.408978 0.253638,-0.746353 0.560674,-0.746353 l 1.792463,0 c 0.311891,0 0.560676,0.337375 0.560676,0.746353 l 0,0.447813 c 0,0.415046 -0.248785,0.746353 -0.560676,0.746353 l -1.792463,0 c -0.307036,0 -0.560674,-0.331307 -0.560674,-0.746353" />
  <path
     id="path18"
     style="fill:#b477d0"
     d="m 24.182384,19.39103 c -0.298541,0 -0.601937,0.01457 -0.905333,0.04733 -0.09466,0.0049 -0.179611,0.0619 -0.218445,0.146843 -0.04247,0.08495 -0.03277,0.184464 0.02427,0.26092 0.0619,0.0716 0.156553,0.109223 0.246358,0.09466 2.308235,-0.251211 4.361618,0.445385 6.040004,2.05217 0.0619,0.07645 0.161406,0.104367 0.251212,0.0801 0.09466,-0.02427 0.166261,-0.09952 0.184464,-0.194173 0.01942,-0.0898 -0.01457,-0.189319 -0.0898,-0.246358 -1.5546,-1.489067 -3.446577,-2.251197 -5.532726,-2.242702 z" />
  <path
     id="path20"
     style="fill:#b477d0"
     d="m 24.911748,20.880097 c -0.127427,0.01942 -0.218446,0.123785 -0.218446,0.251212 0.0049,0.127426 0.09951,0.231795 0.228154,0.246358 1.285185,0.16626 2.31309,0.634704 3.280315,1.497562 0.104369,0.0898 0.265775,0.0801 0.35558,-0.02427 0.09466,-0.104367 0.08495,-0.265774 -0.01942,-0.355579 -1.037615,-0.919896 -2.18081,-1.441737 -3.550945,-1.616493 -0.02792,-0.0049 -0.05218,-0.0049 -0.07645,0 z" />
  <path
     id="path22"
     style="fill:#b477d0"
     d="m 23.972434,18.02575 c -0.834945,0.02427 -1.68324,0.161406 -2.531534,0.412618 -0.0898,0.01942 -0.161408,0.0898 -0.184466,0.17961 -0.02427,0.09466 0.0097,0.189319 0.07645,0.251212 0.0716,0.0619 0.171116,0.0801 0.256066,0.04733 3.218423,-0.957518 6.423497,-0.156553 8.808188,2.203867 0.09952,0.09952 0.26092,0.09952 0.360434,0 0.09951,-0.09952 0.09466,-0.26092 0,-0.35558 -1.882268,-1.86285 -4.275454,-2.810658 -6.78393,-2.740271 z" />
  <path
     id="path24"
     style="fill:#b477d0;fill-rule:evenodd"
     d="m 32.586448,14.332815 -0.492715,1.944161 1.91018,1.469649 1.839793,-1.076448 c 0,-0.952662 -2.439303,-2.611632 -3.257258,-2.337362 z" />
  <path
     id="path26"
     style="fill:#b477d0;fill-rule:evenodd"
     d="M 32.56703,20.566993 C 32.395916,20.37282 22.109584,28.721059 22.109584,28.721059 l 0.388347,0.492715 c 0,0 10.235361,-8.452607 10.069099,-8.646781 z" />
  <circle
     id="circle28"
     style="opacity:1;fill:none;fill-opacity:1;fill-rule:nonzero;stroke:#b477d0;stroke-width:2.91260004;stroke-linecap:butt;stroke-linejoin:miter;stroke-miterlimit:4;stroke-dasharray:none;stroke-dashoffset:0;stroke-opacity:1"
     r="13.106699"
     cy="27.530537"
     cx="24.376556" />
</svg>
