<?xml version="1.0" encoding="UTF-8" standalone="no"?>
<svg
   xmlns:dc="http://purl.org/dc/elements/1.1/"
   xmlns:cc="http://creativecommons.org/ns#"
   xmlns:rdf="http://www.w3.org/1999/02/22-rdf-syntax-ns#"
   xmlns:svg="http://www.w3.org/2000/svg"
   xmlns="http://www.w3.org/2000/svg"
   viewBox="0 0 48 48"
   id="svg2"
   version="1.1">
  <metadata
     id="metadata14">
    <rdf:RDF>
      <cc:Work
         rdf:about="">
        <dc:format>image/svg+xml</dc:format>
        <dc:type
           rdf:resource="http://purl.org/dc/dcmitype/StillImage" />
        <dc:title></dc:title>
      </cc:Work>
    </rdf:RDF>
  </metadata>
  <defs
     id="defs12" />
  <g
     style="stroke:#61c66c;stroke-opacity:1"
     id="layer1">
    <path
       style="display:inline;fill:none;fill-opacity:1;fill-rule:evenodd;stroke:#61c66c;stroke-width:0.99939507;stroke-linecap:butt;stroke-linejoin:miter;stroke-miterlimit:4;stroke-dasharray:none;stroke-opacity:1"
       d="m 7.7228748,2.889958 c 9.6081412,-3.17819241 22.7894572,-3.17819241 32.4984792,0 2.296868,0.7518749 4.413016,2.7960636 5.13134,5.08502 2.809253,8.951742 2.876079,23.915426 0,32.205059 -0.786478,2.266852 -2.818699,4.382219 -5.13134,5.085 -9.709022,2.950479 -22.890338,2.993893 -32.4984792,0 -2.3075499,-0.719022 -4.3806221,-2.806273 -5.1313396,-5.085 -2.73098039,-8.289633 -2.80759188,-23.253318 0,-32.205059 0.717939,-2.2890738 2.8368542,-4.3260284 5.1313396,-5.08502 z"
       id="path4152" />
  </g>
  <g
     id="g4"
     transform="matrix(1.1729197,0,0,1.1729197,2.1353594,2.4263909)" />
  <path
     id="path4"
     style="color:#000000;white-space:normal;display:inline;visibility:visible;opacity:1;isolation:auto;mix-blend-mode:normal;color-interpolation:sRGB;color-interpolation-filters:linearRGB;solid-color:#000000;solid-opacity:1;fill:#61c66c;fill-opacity:1;fill-rule:evenodd;stroke:none;color-rendering:auto;image-rendering:auto;shape-rendering:auto"
     white-space="normal"
     isolation="auto"
     mix-blend-mode="normal"
     d="m 22.901682,8.8515272 c -1.346436,0.05087 -2.87039,0.466114 -3.769399,1.5447168 -0.02803,0.03322 -0.0519,0.07059 -0.07059,0.109002 -0.300016,0.636365 -0.404866,1.152308 -0.225272,1.605965 0.179594,0.453657 0.587574,0.656089 0.908352,0.782739 0.320778,0.126651 0.617679,0.212814 0.810768,0.325969 0.19309,0.113154 0.280292,0.194128 0.330121,0.450542 0.05917,0.305206 0.01453,0.466114 -0.05502,0.58965 -0.06955,0.123536 -0.178556,0.241881 -0.338426,0.304168 -0.249148,0.09654 -0.681004,0.09654 -0.681004,0.09654 l -8.009064,0 c -0.283405,0 -0.512829,0.229423 -0.512829,0.512829 l 0,8.047473 c 0,0.574078 0.116269,0.905237 0.276139,1.152309 0.182708,0.252262 0.401751,0.545011 0.745367,0.7381 0.343616,0.19309 0.794159,0.262644 1.28934,0.166099 0.442237,-0.08616 0.791044,-0.335312 1.00801,-0.618717 0.216967,-0.284444 0.324931,-0.586536 0.415247,-0.839836 0.09032,-0.2533 0.169213,-0.460923 0.233576,-0.557468 0.06332,-0.09551 0.04879,-0.09032 0.14845,-0.09758 0.09343,-0.0062 0.335312,0.05191 0.650899,0.186861 0.691385,0.608336 1.104555,1.84577 1.147118,2.972125 0.01453,0.419399 -0.02388,0.812845 -0.09343,1.151271 l 0.0062,-0.02076 c -0.02388,0.09447 -0.02076,0.106926 -0.01453,0.07474 -0.0021,0.01142 -0.0042,0.02284 -0.0062,0.03426 -0.124574,0.968562 -0.52321,1.909095 -1.108708,2.41881 -0.405903,0.167136 -0.661279,0.193089 -0.703842,0.17648 -0.04775,-0.01869 -0.111079,-0.08616 -0.206585,-0.328045 -0.09551,-0.241881 -0.185823,-0.59484 -0.395522,-0.950914 -0.208662,-0.356074 -0.595879,-0.713186 -1.139852,-0.819074 l 0,0.0021 c -0.72149,-0.141184 -1.338131,0.103811 -1.69109,0.480647 -0.35296,0.376836 -0.483763,0.820112 -0.549164,1.131547 -0.0072,0.03426 -0.01142,0.06955 -0.01246,0.105887 l 0,8.451302 c 0,0.284443 0.232538,0.514905 0.516982,0.512829 l 8.060969,0 c 0.55643,-9.97e-4 0.908352,-0.12146 1.16269,-0.287558 0.185823,-0.12146 0.530477,-0.448466 0.723567,-0.793121 0.193089,-0.343616 0.264719,-0.79312 0.168175,-1.28934 -0.105888,-0.543972 -0.463,-0.930151 -0.819074,-1.139851 -0.356074,-0.208661 -0.710071,-0.300015 -0.95299,-0.395522 -0.242919,-0.09551 -0.311435,-0.158832 -0.330121,-0.206585 -0.01765,-0.0436 0.0051,-0.295863 0.178556,-0.712148 0.610412,-0.687232 1.84577,-1.100402 2.972126,-1.139851 l 0.0042,0 c 0.414208,-0.01765 0.805578,0.02076 1.144004,0.09135 0.02076,0.0042 0.04152,0.0062 0.06332,0.0083 0.0093,0.0021 0.01869,0.0042 0.02803,0.0062 0.972715,0.124574 1.9174,0.525287 2.427115,1.106632 0.167137,0.404865 0.195166,0.657127 0.178556,0.69969 -0.01869,0.04775 -0.08928,0.111078 -0.332197,0.206585 -0.242919,0.09654 -0.596917,0.187899 -0.952991,0.397598 -0.356073,0.209699 -0.713185,0.59484 -0.819073,1.139851 -0.09654,0.495182 -0.02492,0.945724 0.168175,1.28934 0.193089,0.343617 0.455733,0.625984 0.730833,0.769244 0.347769,0.211776 0.629099,0.24811 1.158538,0.244995 l 8.093151,0.0042 c 0.283406,0 0.512829,-0.233576 0.512829,-0.516982 l 0,-8.296622 c 0,-0.321816 0.04256,-0.467152 0.182709,-0.616641 0.147412,-0.155717 0.294824,-0.257452 0.7381,-0.170251 l 0.0021,0.0021 c 0.257453,0.04879 0.339464,0.137031 0.452619,0.328044 0.113154,0.192052 0.199318,0.486876 0.325968,0.806616 0.12665,0.31974 0.330121,0.728758 0.782739,0.908352 0.452619,0.179594 0.967524,0.07578 1.605966,-0.223195 0.04049,-0.01869 0.07786,-0.04256 0.111078,-0.07059 0.908351,-0.756787 1.341246,-1.966192 1.493849,-3.124729 0.0031,-0.0218 0.0042,-0.04464 0.0042,-0.06644 0,0.07059 0.0042,0.03737 0.0042,-0.05087 l -0.01246,0.109002 c 0.09239,-0.424589 0.134955,-0.896932 0.117307,-1.397304 l 0,-0.0021 c -0.05087,-1.347474 -0.471304,-2.87039 -1.544716,-3.769399 -0.03426,-0.02803 -0.07163,-0.05191 -0.111078,-0.07059 -0.637404,-0.298977 -1.152309,-0.402789 -1.605966,-0.223195 -0.452618,0.179594 -0.656089,0.588612 -0.782739,0.908352 -0.12665,0.319739 -0.212814,0.616641 -0.325968,0.808692 -0.113155,0.192051 -0.194128,0.280291 -0.452619,0.330121 -0.306244,0.05813 -0.46819,0.01246 -0.591726,-0.0571 -0.123536,-0.06955 -0.218004,-0.191014 -0.304168,-0.338426 -0.09032,-0.153641 -0.09032,-0.676852 -0.09032,-0.676852 l 0,-8.098341 c 0,-0.283405 -0.229424,-0.512829 -0.512829,-0.512829 l -8.407701,0 c -0.21489,0 -0.456771,-0.05814 -0.600031,-0.19828 -0.14845,-0.145336 -0.246033,-0.295863 -0.161946,-0.729796 0.04983,-0.257452 0.13807,-0.338425 0.330121,-0.452618 0.192052,-0.113155 0.488953,-0.200357 0.808692,-0.325969 0.31974,-0.12665 0.72772,-0.328044 0.908352,-0.780663 0.180632,-0.452618 0.07578,-0.966486 -0.223195,-1.603889 -0.01869,-0.04049 -0.04256,-0.07786 -0.07059,-0.111078 -0.75471,-0.8990088 -1.951658,-1.3298268 -3.106043,-1.4824298 -0.01972,-0.0052 -0.05502,-0.0083 -0.08928,-0.01246 -0.411093,-0.08513 -0.861636,-0.129765 -1.346436,-0.113155 l -0.0021,0 z" />
</svg>
