<?xml version="1.0" encoding="UTF-8" standalone="no"?>
<svg
   xmlns:dc="http://purl.org/dc/elements/1.1/"
   xmlns:cc="http://creativecommons.org/ns#"
   xmlns:rdf="http://www.w3.org/1999/02/22-rdf-syntax-ns#"
   xmlns:svg="http://www.w3.org/2000/svg"
   xmlns="http://www.w3.org/2000/svg"
   viewBox="0 0 48 48"
   id="svg2"
   version="1.1">
  <metadata
     id="metadata14">
    <rdf:RDF>
      <cc:Work
         rdf:about="">
        <dc:format>image/svg+xml</dc:format>
        <dc:type
           rdf:resource="http://purl.org/dc/dcmitype/StillImage" />
        <dc:title></dc:title>
      </cc:Work>
    </rdf:RDF>
  </metadata>
  <defs
     id="defs12" />
  <g
     style="stroke:#9c9d38;stroke-opacity:1"
     id="layer1">
    <path
       style="display:inline;fill:none;fill-opacity:1;fill-rule:evenodd;stroke:#9c9d38;stroke-width:0.99939507;stroke-linecap:butt;stroke-linejoin:miter;stroke-miterlimit:4;stroke-dasharray:none;stroke-opacity:1"
       d="m 7.7228748,2.889958 c 9.6081412,-3.17819241 22.7894572,-3.17819241 32.4984792,0 2.296868,0.7518749 4.413016,2.7960636 5.13134,5.08502 2.809253,8.951742 2.876079,23.915426 0,32.205059 -0.786478,2.266852 -2.818699,4.382219 -5.13134,5.085 -9.709022,2.950479 -22.890338,2.993893 -32.4984792,0 -2.3075499,-0.719022 -4.3806221,-2.806273 -5.1313396,-5.085 -2.73098039,-8.289633 -2.80759188,-23.253318 0,-32.205059 0.717939,-2.2890738 2.8368542,-4.3260284 5.1313396,-5.08502 z"
       id="path4152" />
  </g>
  <g
     id="g4"
     transform="matrix(1.1729197,0,0,1.1729197,2.1353594,2.4263909)" />
  <path
     id="path4"
     style="fill:#9c9d38;stroke:#9c9d38;stroke-width:0.16583107"
     d="M 23.186281,41.281843 C 16.178798,40.804518 10.025121,35.281671 8.287256,28.593525 6.6849693,21.665596 9.8671332,13.856969 16.077955,10.236698 20.070226,7.8556779 25.086616,7.5542684 29.501307,8.7968809 c 5.457859,1.6762381 9.615961,6.5346401 11.073706,11.9488011 1.313203,4.99398 0.367518,10.661369 -3.116055,14.599857 -3.155272,3.926162 -8.197433,6.188412 -13.244076,5.987846 -0.341747,-0.0045 -0.686854,-0.02241 -1.028601,-0.04818 z m 4.17603,-0.783216 c 1.26054,-0.109807 1.037564,-0.494132 -0.105325,-0.594975 -2.043756,-0.394409 -4.249982,-0.402252 -6.224268,0.289084 1.737865,0.835878 4.043813,0.617384 5.987846,0.367517 z m -6.188412,-1.107034 c 0.897504,-0.914312 -0.03922,-3.099249 -0.822433,-3.96538 -1.754672,-0.897505 -3.111573,-2.355249 -4.718342,-3.457802 -1.207878,-0.442589 -2.385502,0.394409 -3.549681,0.677891 -0.0045,1.150733 -0.08292,2.454972 0.932239,3.256115 1.671757,1.645986 3.689742,3.094767 5.965437,3.751368 0.730553,0.03025 1.496961,-0.01345 2.19278,-0.262192 z m 9.606997,0.04818 c 2.911007,-1.251576 5.636015,-3.265079 7.278639,-6.004653 0.590493,-0.787698 1.024119,-2.17037 -0.516541,-1.710973 -1.938431,1.216841 -3.689741,2.722766 -5.672991,3.8735 -1.203396,0.954649 -2.070648,2.26337 -2.927815,3.514946 0.298048,0.691336 1.269504,0.525505 1.838708,0.328301 z m 1.974286,-5.033197 c 1.462227,-1.198914 3.575452,-1.969804 4.346343,-3.786102 0.346228,-1.430854 0.371999,-2.911008 0.516541,-4.367632 -1.457745,-1.290793 -3.24379,-2.167009 -4.99398,-2.993923 -1.728901,0.135578 -3.125019,1.671756 -4.493126,2.665622 -0.726071,0.397771 -0.53783,1.304239 -0.739517,1.995575 -0.262192,1.619094 -0.569204,3.230345 -0.748481,4.862884 1.361384,1.00283 2.879635,1.926106 4.534584,2.314912 0.599457,0.0045 1.094709,-0.39777 1.579877,-0.691336 z m -10.43055,0.249867 c 1.326648,-0.503095 3.076838,-0.884059 3.698705,-2.284659 0.463879,-1.96084 0.718228,-3.969861 0.962492,-5.969918 -1.317684,-1.251577 -2.722766,-2.569261 -4.447185,-3.216899 -1.487998,-0.02577 -2.748538,1.024119 -4.070705,1.597805 -1.781564,0.486288 -2.40343,2.1009 -2.477382,3.772657 -0.525505,1.654949 0.07395,3.352476 1.575395,4.263427 1.313203,0.962492 2.998405,2.503152 4.757559,1.838708 z m -11.08267,-2.314912 c -1.0723,-1.982129 -1.8118162,-4.15362 -2.1098639,-6.390098 -1.0633357,0.214011 -0.096361,2.819128 0.1972045,3.877982 0.4986136,1.435335 1.2650224,2.757501 2.0616834,4.043813 0.144542,-0.529988 0.231939,-1.054372 -0.149024,-1.531697 m -0.459396,-8.828263 c 0.46836,-0.670047 1.212359,-1.194432 1.496961,-1.960841 0.494132,-2.31043 1.304239,-4.543547 2.463936,-6.613074 -0.04818,-1.334492 -1.545142,-2.149081 -2.289141,-0.674529 -2.118828,2.722767 -3.7816208,6.04387 -3.8555725,9.549853 -0.2801201,1.203396 0.7708904,2.075129 1.3748287,0.652119 0.2666748,-0.314855 0.5378308,-0.634191 0.8101078,-0.954649 z m 27.307222,1.65831 c 0.897505,-1.177624 2.140117,-2.573743 1.82078,-4.171547 -0.564722,-3.024176 -2.118828,-5.895967 -4.50433,-7.865771 -0.713746,-0.30253 -2.009021,-1.405082 -2.503153,-0.363036 -0.730553,1.405082 -2.551333,2.73061 -1.894732,4.477439 0.56024,1.724419 0.971457,3.52279 1.790528,5.147486 1.510407,1.173143 3.251633,2.087455 5.007426,2.858345 z M 18.038795,24.388363 c 1.391636,-0.704782 2.744056,-1.479034 4.100958,-2.240961 0.454915,-1.597804 1.033082,-3.155272 1.566431,-4.722824 0.07395,-1.698648 -1.444299,-2.915489 -2.454972,-4.105439 -0.998348,-1.593323 -2.68355,-0.372 -3.912717,0.20953 -2.704839,1.444299 -3.326706,4.617499 -4.249981,7.269675 0.131096,0.993866 1.042046,1.820781 1.706491,2.560297 0.914312,0.923276 1.947395,2.149081 3.24379,1.028601 z m 9.978997,-8.573915 c 0.722709,-0.100843 1.527214,-0.02577 2.192779,-0.231939 1.00283,-1.0723 1.882407,-2.328358 2.298105,-3.742404 -0.503095,-1.42301 -2.167008,-2.0706471 -3.505982,-2.5558151 -1.70313,-0.503096 -3.527272,-0.752963 -5.29651,-0.551276 -1.273986,0.647637 -3.563127,2.5345261 -2.271213,4.0001141 0.945685,1.12048 1.951876,2.19278 2.980477,3.247151 1.203396,0.01345 2.40343,-0.08291 3.602344,-0.165831 z" />
</svg>
