<?xml version="1.0" encoding="UTF-8" standalone="no"?>
<svg
   xmlns:dc="http://purl.org/dc/elements/1.1/"
   xmlns:cc="http://creativecommons.org/ns#"
   xmlns:rdf="http://www.w3.org/1999/02/22-rdf-syntax-ns#"
   xmlns:svg="http://www.w3.org/2000/svg"
   xmlns="http://www.w3.org/2000/svg"
   viewBox="0 0 48 48"
   id="svg2"
   version="1.1">
  <metadata
     id="metadata14">
    <rdf:RDF>
      <cc:Work
         rdf:about="">
        <dc:format>image/svg+xml</dc:format>
        <dc:type
           rdf:resource="http://purl.org/dc/dcmitype/StillImage" />
        <dc:title></dc:title>
      </cc:Work>
    </rdf:RDF>
  </metadata>
  <defs
     id="defs12" />
  <g
     style="fill:none;fill-opacity:1;stroke:#6fad64;stroke-opacity:1"
     id="layer1">
    <path
       style="display:inline;fill:none;fill-opacity:1;fill-rule:evenodd;stroke:#6fad64;stroke-width:0.99939507;stroke-linecap:butt;stroke-linejoin:miter;stroke-miterlimit:4;stroke-dasharray:none;stroke-opacity:1"
       d="m 7.7228748,2.889958 c 9.6081412,-3.17819241 22.7894572,-3.17819241 32.4984792,0 2.296868,0.7518749 4.413016,2.7960636 5.13134,5.08502 2.809253,8.951742 2.876079,23.915426 0,32.205059 -0.786478,2.266852 -2.818699,4.382219 -5.13134,5.085 -9.709022,2.950479 -22.890338,2.993893 -32.4984792,0 -2.3075499,-0.719022 -4.3806221,-2.806273 -5.1313396,-5.085 -2.73098039,-8.289633 -2.80759188,-23.253318 0,-32.205059 0.717939,-2.2890738 2.8368542,-4.3260284 5.1313396,-5.08502 z"
       id="path4152" />
  </g>
  <path
     id="path4"
     style="color:#000000;white-space:normal;display:inline;visibility:visible;opacity:1;isolation:auto;mix-blend-mode:normal;color-interpolation:sRGB;color-interpolation-filters:linearRGB;solid-color:#000000;solid-opacity:1;fill:#6fad64;fill-opacity:1;fill-rule:nonzero;stroke:none;color-rendering:auto;image-rendering:auto;shape-rendering:auto"
     white-space="normal"
     isolation="auto"
     mix-blend-mode="normal"
     d="m 27.989421,6.9952957 -9.723275,1.8882134 -0.05074,0.02938 c -0.362331,0.209208 -0.592905,0.544831 -0.698844,0.930308 -0.105939,0.3854769 -0.116622,1.6033349 -0.116622,1.6033349 l 8.012221,0 0,-0.890247 0.890247,0 0,4.451234 -0.890247,0 0,-0.890247 -8.012221,0 c 0,0 0.01068,1.217858 0.116622,1.603334 0.105939,0.385477 0.336513,0.7211 0.698844,0.930308 l 0.05074,0.02938 7.014254,1.357627 c 0.04718,0.02671 0.07389,0.04718 0.09259,0.08546 0.02137,0.04451 0.04006,0.131756 0.04006,0.271525 l 0,3.502231 -0.182501,0 c -0.551953,0 -1.006869,0.454916 -1.006869,1.006869 0,0.551953 0.454916,1.006869 1.006869,1.006869 l 1.072748,0 0,14.24395 1.780493,0 0,2.351141 c -8.9e-4,0.176269 0.129086,0.319599 0.290221,0.319599 l 0.309806,0 c 0.161134,0 0.29111,-0.14422 0.29022,-0.319599 l 0,-2.351141 1.780494,0 0,-14.24395 0.890247,0 0,-4.451234 0.890246,0 0,0.389928 c 0,0.276867 0.198525,0.501209 0.445124,0.501209 l 0.890247,0 c 0.246598,0 0.445123,-0.223452 0.445123,-0.501209 l 0,-2.559459 c 0,-0.276867 -0.198525,-0.501209 -0.445123,-0.501209 l -0.890247,0 c -0.246599,0 -0.445124,0.223452 -0.445124,0.501209 l 0,0.389928 -0.890246,0 0,-2.670741 -0.890247,0 0,-0.890247 4.451234,0 c 0,-1.33537 -2.670741,-2.67074 -4.006111,-2.67074 1.33537,0 4.006111,-1.33537 4.006111,-2.6707399 l -4.451234,0 0,-1.7804939 -2.764217,0 z" />
  <path
     id="path6"
     style="opacity:1;fill:#6fad64;fill-opacity:1;fill-rule:nonzero;stroke:none"
     d="m 23.631663,27.09885 c -1.766249,0 -3.531609,0.452245 -5.113577,1.357626 -2.637802,1.509859 -4.418295,4.102257 -4.945321,7.026718 l -1.959434,0 c -0.246598,0 -0.445123,0.198525 -0.445123,0.445123 l 0,2.670741 c 0,0.246598 0.198525,0.445123 0.445123,0.445123 0.445124,0 16.34048,0 24.036664,0 0.246598,0 0.445123,-0.198525 0.445123,-0.445123 l 0,-2.670741 c 0,-0.246598 -0.198525,-0.445123 -0.445123,-0.445123 l -1.959433,0 C 33.164426,32.558733 31.383042,29.966335 28.745241,28.456476 27.163272,27.551095 25.397023,27.09885 23.631663,27.09885 m 0,3.560987 c 1.15465,0 2.3093,0.296452 3.343767,0.888466 1.533005,0.876893 2.616435,2.299508 3.079364,3.934891 l -12.846261,0 c 0.462928,-1.635383 1.546358,-3.057108 3.079363,-3.934891 1.034467,-0.592014 2.189117,-0.888466 3.343767,-0.888466" />
</svg>
