<?xml version="1.0" encoding="UTF-8" standalone="no"?>
<svg
   xmlns:dc="http://purl.org/dc/elements/1.1/"
   xmlns:cc="http://creativecommons.org/ns#"
   xmlns:rdf="http://www.w3.org/1999/02/22-rdf-syntax-ns#"
   xmlns:svg="http://www.w3.org/2000/svg"
   xmlns="http://www.w3.org/2000/svg"
   viewBox="0 0 48 48"
   id="svg2"
   version="1.1">
  <metadata
     id="metadata14">
    <rdf:RDF>
      <cc:Work
         rdf:about="">
        <dc:format>image/svg+xml</dc:format>
        <dc:type
           rdf:resource="http://purl.org/dc/dcmitype/StillImage" />
        <dc:title></dc:title>
      </cc:Work>
    </rdf:RDF>
  </metadata>
  <defs
     id="defs12" />
  <g
     style="stroke:#4cb29d;stroke-opacity:1"
     id="layer1">
    <path
       style="display:inline;fill:none;fill-opacity:1;fill-rule:evenodd;stroke:#4cb29d;stroke-width:0.99939507;stroke-linecap:butt;stroke-linejoin:miter;stroke-miterlimit:4;stroke-dasharray:none;stroke-opacity:1"
       d="m 7.7228748,2.889958 c 9.6081412,-3.17819241 22.7894572,-3.17819241 32.4984792,0 2.296868,0.7518749 4.413016,2.7960636 5.13134,5.08502 2.809253,8.951742 2.876079,23.915426 0,32.205059 -0.786478,2.266852 -2.818699,4.382219 -5.13134,5.085 -9.709022,2.950479 -22.890338,2.993893 -32.4984792,0 -2.3075499,-0.719022 -4.3806221,-2.806273 -5.1313396,-5.085 -2.73098039,-8.289633 -2.80759188,-23.253318 0,-32.205059 0.717939,-2.2890738 2.8368542,-4.3260284 5.1313396,-5.08502 z"
       id="path4152" />
  </g>
  <g
     id="g4"
     transform="matrix(1.1729197,0,0,1.1729197,2.1353594,2.4263909)" />
  <path
     id="path4"
     style="color:#000000;fill:#4cb29d"
     d="m 24.39578,14.220839 c -0.376,0 -0.735,0.035 -1.097,0.049 -4.421,0.173 -7.841,1.334 -10.21,2.553 -2.563,1.318 -4.0550005,2.798 -4.0550005,2.798 -0.841,0.876 -0.836,2.457 0.01,3.328 0.846,0.87 2.3830005,0.875 3.2350005,0.017 0,0 0.635,-0.643 2.052,-1.473 -0.416,1.171 -0.62,2.419 -0.62,3.731 0,6.05 4.812,10.996 10.687,10.996 5.875,0 10.687,-4.951 10.687,-10.996 0,-1.312 -0.204,-2.56 -0.62,-3.731 1.417,0.829 2.052,1.473 2.052,1.473 0.847,0.883 2.401,0.887 3.254,0.017 0.853,-0.878 0.848,-2.477 -0.01,-3.349 0,0 -1.492,-1.48 -4.055,-2.798 -2.369,-1.219 -5.789,-2.38 -10.21,-2.553 -0.358,-0.038 -0.73,-0.049 -1.097,-0.049 z m 0,3.456 c 3.4,0 8.108,1.602 8.108,7.541 0,5.199 -3.207,8.28 -8.108,8.28 -4.829,0 -8.04,-3.155 -8.04,-8.28 0,-5.273 4.637,-7.541 8.04,-7.541 z" />
  <path
     id="path6"
     style="color:#000000;white-space:normal;display:inline;visibility:visible;opacity:1;isolation:auto;mix-blend-mode:normal;color-interpolation:sRGB;color-interpolation-filters:linearRGB;solid-color:#000000;solid-opacity:1;fill:#4cb29d;fill-opacity:1;fill-rule:nonzero;stroke:none;color-rendering:auto;image-rendering:auto;shape-rendering:auto"
     white-space="normal"
     isolation="auto"
     mix-blend-mode="normal"
     d="m 24.40478,21.220839 c -0.931,0 -1.896,0.299 -2.693,1.01 -0.797,0.709 -1.308,1.871 -1.307,2.996 0.001,1.124 0.512,2.283 1.309,2.99 0.796,0.708 1.761,1.01 2.691,1.01 0.93,0 1.895,-0.298 2.691,-1.01 0.796,-0.708 1.308,-1.866 1.309,-2.99 0.001,-1.126 -0.51,-2.287 -1.307,-2.996 -0.797,-0.709 -1.762,-1.01 -2.693,-1.01 m 0,3 c 0.181,0 0.395,0.048 0.629,0.256 0.234,0.208 0.371,0.619 0.371,0.744 0,0.125 -0.137,0.536 -0.371,0.744 -0.234,0.208 -0.448,0.256 -0.629,0.256 -0.181,0 -0.395,-0.047 -0.629,-0.256 -0.234,-0.208 -0.371,-0.619 -0.371,-0.744 0,-0.125 0.137,-0.536 0.371,-0.744 0.234,-0.208 0.448,-0.256 0.629,-0.256" />
</svg>
