<?xml version="1.0" encoding="UTF-8" standalone="no"?>
<svg
   xmlns:dc="http://purl.org/dc/elements/1.1/"
   xmlns:cc="http://creativecommons.org/ns#"
   xmlns:rdf="http://www.w3.org/1999/02/22-rdf-syntax-ns#"
   xmlns:svg="http://www.w3.org/2000/svg"
   xmlns="http://www.w3.org/2000/svg"
   version="1.1"
   id="svg2"
   viewBox="0 0 48 48">
  <metadata
     id="metadata14">
    <rdf:RDF>
      <cc:Work
         rdf:about="">
        <dc:format>image/svg+xml</dc:format>
        <dc:type
           rdf:resource="http://purl.org/dc/dcmitype/StillImage" />
        <dc:title></dc:title>
      </cc:Work>
    </rdf:RDF>
  </metadata>
  <defs
     id="defs12" />
  <g
     id="layer1">
    <path
       id="path4152"
       d="m 7.7228748,2.889958 c 9.6081412,-3.17819241 22.7894572,-3.17819241 32.4984792,0 2.296868,0.7518749 4.413016,2.7960636 5.13134,5.08502 2.809253,8.951742 2.876079,23.915426 0,32.205059 -0.786478,2.266852 -2.818699,4.382219 -5.13134,5.085 -9.709022,2.950479 -22.890338,2.993893 -32.4984792,0 -2.3075499,-0.719022 -4.3806221,-2.806273 -5.1313396,-5.085 -2.73098039,-8.289633 -2.80759188,-23.253318 0,-32.205059 0.717939,-2.2890738 2.8368542,-4.3260284 5.1313396,-5.08502 z"
       style="display:inline;fill:none;fill-opacity:1;fill-rule:evenodd;stroke:#189a6c;stroke-width:0.99939507;stroke-linecap:butt;stroke-linejoin:miter;stroke-miterlimit:4;stroke-dasharray:none;stroke-opacity:1" />
  </g>
  <g
     id="layer2">
    <g
       style="fill:#189a6c;fill-opacity:1"
       id="g4"
       transform="matrix(0.8660254,0.5,-0.5,0.8660254,9.7687205,-6.5631732)">
      <path
         id="path6"
         style="color:#000000;white-space:normal;display:inline;visibility:visible;opacity:1;isolation:auto;mix-blend-mode:normal;color-interpolation:sRGB;color-interpolation-filters:linearRGB;solid-color:#000000;solid-opacity:1;fill:#189a6c;fill-opacity:1;fill-rule:nonzero;stroke:none;color-rendering:auto;image-rendering:auto;shape-rendering:auto"
         white-space="normal"
         isolation="auto"
         mix-blend-mode="normal"
         d="m 18.05,5.787 c -0.315,0 -0.568,0.253 -0.568,0.568 l 0,0.968 C 16.366,7.547 15.341,8.007 14.426,8.617 L 13.722,7.913 C 13.499,7.69 13.141,7.69 12.919,7.913 L 11.312,9.52 c -0.223,0.223 -0.223,0.581 0,0.803 l 0.704,0.704 c -0.609,0.916 -1.065,1.941 -1.29,3.056 l -0.97,0 c -0.315,0 -0.568,0.253 -0.568,0.568 l 0,2.273 c 0,0.315 0.253,0.568 0.568,0.568 l 0.985,0 c 0.227,1.113 0.651,2.155 1.261,3.07 l -0.69,0.69 c -0.223,0.223 -0.223,0.581 0,0.803 l 1.607,1.607 c 0.223,0.223 0.581,0.223 0.803,0 l 0.692,-0.692 c 0.917,0.611 1.951,1.058 3.067,1.283 l 0,0.965 c 0,0.315 0.253,0.568 0.568,0.568 l 2.273,0 c 0.315,0 0.568,-0.253 0.568,-0.568 l 0,-0.985 c 1.113,-0.227 2.155,-0.651 3.07,-1.261 l 0.69,0.69 c 0.223,0.223 0.581,0.223 0.803,0 l 1.607,-1.607 c 0.223,-0.223 0.223,-0.581 0,-0.803 L 26.368,20.56 c 0.611,-0.917 1.058,-1.951 1.283,-3.067 l 0.968,0 c 0.315,0 0.568,-0.253 0.568,-0.568 l 0,-2.273 c 0,-0.315 -0.253,-0.568 -0.568,-0.568 l -0.988,0 C 27.404,12.971 26.98,11.929 26.37,11.014 l 0.69,-0.69 c 0.223,-0.223 0.223,-0.581 0,-0.803 L 25.453,7.914 C 25.23,7.691 24.872,7.691 24.65,7.914 L 23.958,8.606 C 23.041,7.995 22.007,7.548 20.891,7.323 l 0,-0.968 c 0,-0.315 -0.253,-0.568 -0.568,-0.568 l -2.273,0 z m 1.136,2.728 c 4.02,0 7.273,3.248 7.273,7.273 0,4.02 -3.248,7.273 -7.273,7.273 -4.02,0 -7.273,-3.248 -7.273,-7.273 0,-4.02 3.248,-7.273 7.273,-7.273 z" />
      <circle
         id="circle8"
         style="opacity:1;fill:#189a6c;fill-opacity:1;fill-rule:nonzero;stroke:none"
         cx="8.7229996"
         cy="23.267"
         r="1.989"
         transform="matrix(0.8660254,-0.5,0.5,0.8660254,0,0)" />
    </g>
    <g
       style="fill:#189a6c;fill-opacity:1"
       id="g10"
       transform="matrix(1.1363423,0,0,1.1363423,19.799493,3.1793861)">
      <path
         id="path12"
         style="color:#000000;white-space:normal;display:inline;visibility:visible;opacity:1;isolation:auto;mix-blend-mode:normal;color-interpolation:sRGB;color-interpolation-filters:linearRGB;solid-color:#000000;solid-opacity:1;fill:#189a6c;fill-opacity:1;fill-rule:nonzero;stroke:none;color-rendering:auto;image-rendering:auto;shape-rendering:auto"
         white-space="normal"
         isolation="auto"
         mix-blend-mode="normal"
         d="m 15.829,18.15 c -0.196,-0.196 -0.511,-0.196 -0.707,0 l -0.602,0.602 c -0.834,-0.555 -1.758,-0.907 -2.707,-1.097 l 0,-0.876 c 0,-0.277 -0.223,-0.5 -0.5,-0.5 l -2,0 c -0.277,0 -0.5,0.223 -0.5,0.5 l 0,0.876 C 7.864,17.846 6.942,18.2 6.109,18.754 L 5.505,18.15 c -0.196,-0.196 -0.511,-0.196 -0.707,0 l -1.414,1.414 c -0.196,0.196 -0.196,0.511 0,0.707 l 0.613,0.613 C 3.446,21.718 3.061,22.63 2.871,23.578 l -0.859,0 c -0.277,0 -0.5,0.223 -0.5,0.5 l 0,2 c 0,0.277 0.223,0.5 0.5,0.5 l 0.862,0 c 0.19,0.95 0.555,1.872 1.11,2.707 l -0.601,0.601 c -0.196,0.196 -0.196,0.511 0,0.707 l 1.414,1.414 c 0.196,0.196 0.511,0.196 0.707,0 l 0.613,-0.613 c 0.834,0.551 1.746,0.936 2.694,1.126 l 0,0.859 c 0,0.277 0.223,0.5 0.5,0.5 l 2,0 c 0.277,0 0.5,-0.223 0.5,-0.5 l 0,-0.862 c 0.95,-0.19 1.872,-0.555 2.707,-1.11 l 0.602,0.602 c 0.196,0.196 0.511,0.196 0.707,0 l 1.414,-1.414 c 0.196,-0.196 0.196,-0.511 0,-0.707 l -0.615,-0.615 c 0.551,-0.834 0.936,-1.746 1.126,-2.694 l 0.859,0 c 0.277,0 0.5,-0.223 0.5,-0.5 l 0,-2 c 0,-0.277 -0.223,-0.5 -0.5,-0.5 l -0.862,0 c -0.19,-0.95 -0.555,-1.872 -1.11,-2.707 l 0.602,-0.602 c 0.196,-0.196 0.196,-0.511 0,-0.707 l -1.414,-1.414 z m -0.99,2.404 c 2.505,2.505 2.505,6.547 0,9.05 -2.505,2.505 -6.547,2.505 -9.05,0 -2.505,-2.505 -2.505,-6.547 0,-9.05 2.505,-2.505 6.547,-2.505 9.05,0 z" />
      <circle
         id="circle14"
         style="opacity:1;fill:#189a6c;fill-opacity:1;fill-rule:nonzero;stroke:none"
         cx="16.452999"
         cy="21.555"
         r="1.75"
         transform="matrix(0.96592583,0.25881905,-0.25881905,0.96592583,0,0)" />
    </g>
  </g>
</svg>
