<?xml version="1.0" encoding="UTF-8" standalone="no"?>
<svg
   xmlns:dc="http://purl.org/dc/elements/1.1/"
   xmlns:cc="http://creativecommons.org/ns#"
   xmlns:rdf="http://www.w3.org/1999/02/22-rdf-syntax-ns#"
   xmlns:svg="http://www.w3.org/2000/svg"
   xmlns="http://www.w3.org/2000/svg"
   viewBox="0 0 48 48"
   id="svg2"
   version="1.1">
  <metadata
     id="metadata14">
    <rdf:RDF>
      <cc:Work
         rdf:about="">
        <dc:format>image/svg+xml</dc:format>
        <dc:type
           rdf:resource="http://purl.org/dc/dcmitype/StillImage" />
        <dc:title></dc:title>
      </cc:Work>
    </rdf:RDF>
  </metadata>
  <defs
     id="defs12" />
  <g
     style="fill:none;fill-opacity:1;stroke:#3eb4ba;stroke-opacity:1"
     id="layer1">
    <path
       style="display:inline;fill:none;fill-opacity:1;fill-rule:evenodd;stroke:#3eb4ba;stroke-width:0.99939507;stroke-linecap:butt;stroke-linejoin:miter;stroke-miterlimit:4;stroke-dasharray:none;stroke-opacity:1"
       d="m 7.7228748,2.889958 c 9.6081412,-3.17819241 22.7894572,-3.17819241 32.4984792,0 2.296868,0.7518749 4.413016,2.7960636 5.13134,5.08502 2.809253,8.951742 2.876079,23.915426 0,32.205059 -0.786478,2.266852 -2.818699,4.382219 -5.13134,5.085 -9.709022,2.950479 -22.890338,2.993893 -32.4984792,0 -2.3075499,-0.719022 -4.3806221,-2.806273 -5.1313396,-5.085 -2.73098039,-8.289633 -2.80759188,-23.253318 0,-32.205059 0.717939,-2.2890738 2.8368542,-4.3260284 5.1313396,-5.08502 z"
       id="path4152" />
  </g>
  <g
     style="fill:#3eb4ba;fill-opacity:1"
     id="g4"
     transform="matrix(0.1694516,0,0,0.1625216,3.8607902,37.435796)">
    <g
       id="g6"
       style="fill:#3eb4ba;fill-opacity:1"
       transform="scale(1.00462,0.9954)">
      <path
         style="fill:#3eb4ba;fill-opacity:1"
         id="path8"
         d="m 107.66,-160.26 0,76.52 62.32,0 0,16.676 -62.32,0 0,55.806 c 0,4.306 0.583,8.408 1.749,11.01 1.256,2.602 2.871,4.62 4.845,6.06 2.064,1.346 4.486,2.243 7.267,2.692 2.781,0.449 5.697,0.673 8.747,0.673 l 8.553,0 0,10.926 -88.29,0 0,-10.926 3.36,0 c 3.05,0 5.921,-0.179 8.613,-0.538 C 65.285,8.19 67.708,7.338 69.771,6.082 71.835,4.826 73.449,2.987 74.616,0.564 75.872,-1.948 76.5,-5.87 76.5,-9.908 l 0,-136.46 c 0,-4.04 -0.628,-7.91 -1.884,-10.332 -1.166,-2.512 -2.781,-4.441 -4.845,-5.787 -2.064,-1.346 -4.486,-2.198 -7.267,-2.557 -2.692,-0.449 -5.429,-0.673 -8.613,-0.673 l -3.36,0 0,-10.931 145.42,0 0,49.19 -14.265,0 -1.346,-10.182 c -0.359,-3.14 -1.077,-6.06 -2.153,-8.748 -1.077,-2.781 -2.647,-5.159 -4.71,-7.133 -1.974,-2.064 -4.486,-3.678 -7.536,-4.845 -3.05,-1.256 -6.729,-1.884 -11.04,-1.884 z" />
    </g>
  </g>
</svg>
