<?xml version="1.0" encoding="UTF-8" standalone="no"?>
<svg
   xmlns:dc="http://purl.org/dc/elements/1.1/"
   xmlns:cc="http://creativecommons.org/ns#"
   xmlns:rdf="http://www.w3.org/1999/02/22-rdf-syntax-ns#"
   xmlns:svg="http://www.w3.org/2000/svg"
   xmlns="http://www.w3.org/2000/svg"
   version="1.1"
   id="svg2"
   viewBox="0 0 48 48">
  <metadata
     id="metadata14">
    <rdf:RDF>
      <cc:Work
         rdf:about="">
        <dc:format>image/svg+xml</dc:format>
        <dc:type
           rdf:resource="http://purl.org/dc/dcmitype/StillImage" />
        <dc:title></dc:title>
      </cc:Work>
    </rdf:RDF>
  </metadata>
  <defs
     id="defs12" />
  <g
     id="layer1">
    <path
       id="path4152"
       d="m 7.7228748,2.889958 c 9.6081412,-3.17819241 22.7894572,-3.17819241 32.4984792,0 2.296868,0.7518749 4.413016,2.7960636 5.13134,5.08502 2.809253,8.951742 2.876079,23.915426 0,32.205059 -0.786478,2.266852 -2.818699,4.382219 -5.13134,5.085 -9.709022,2.950479 -22.890338,2.993893 -32.4984792,0 -2.3075499,-0.719022 -4.3806221,-2.806273 -5.1313396,-5.085 -2.73098039,-8.289633 -2.80759188,-23.253318 0,-32.205059 0.717939,-2.2890738 2.8368542,-4.3260284 5.1313396,-5.08502 z"
       style="display:inline;fill:none;fill-opacity:1;fill-rule:evenodd;stroke:#e36e64;stroke-width:0.99939507;stroke-linecap:butt;stroke-linejoin:miter;stroke-miterlimit:4;stroke-dasharray:none;stroke-opacity:1" />
  </g>
  <g
     id="layer2">
    <g
       id="g4"
       style="fill:#e36e64;stroke:#e48a83;stroke-width:1;stroke-opacity:1;fill-opacity:1"
       transform="matrix(1.0611148,0,0,1.0612137,4.5486624,4.1415694)">
      <g
         id="g6"
         style="stroke-width:1;stroke:#e48a83;stroke-opacity:1;fill:#e36e64;fill-opacity:1">
        <path
           id="path8"
           style="stroke-width:0.31099999;stroke:#e48a83;stroke-opacity:1;fill:#e36e64;fill-opacity:1"
           transform="matrix(0.16023,0,0,0.15993,-5.86865,-0.48086)"
           d="m 110.79,199.19 c 0.78,-1.075 0.536,-2.614 -0.561,-3.395 L 71.345,167.877 c -1.097,-0.782 -2.633,-0.537 -3.413,0.562 -0.78,1.099 -0.536,2.614 0.561,3.395 l 38.909,27.918 c 1.097,0.806 2.609,0.537 3.389,-0.562 z" />
        <path
           id="path10"
           style="stroke-width:0.30199999;stroke:#e48a83;stroke-opacity:1;fill:#e36e64;fill-opacity:1"
           transform="matrix(0.16023,0,0,0.15993,-5.86865,-0.48086)"
           d="m 104.94,182.34 c 0.975,-0.928 1.073,-2.418 0.195,-3.346 L 74.105,146.02 c -0.878,-0.928 -2.365,-0.928 -3.364,0 -0.975,0.904 -1.073,2.418 -0.195,3.346 l 31.03,32.974 c 0.878,0.928 2.389,0.928 3.364,0 z" />
        <path
           id="path12"
           style="stroke-width:0.31099999;stroke:#e48a83;stroke-opacity:1;fill:#e36e64;fill-opacity:1"
           transform="matrix(0.16023,0,0,0.15993,-5.86865,-0.48086)"
           d="m 195.8,99.63 c 0.951,-0.953 0.951,-2.491 0,-3.444 L 161.938,62.332 c -0.951,-0.953 -2.487,-0.953 -3.437,0 -0.951,0.953 -0.951,2.491 0,3.444 l 33.862,33.854 c 0.951,0.953 2.487,0.953 3.437,0 z" />
        <path
           id="path14"
           style="stroke-width:0.30500001;stroke:#e48a83;stroke-opacity:1;fill:#e36e64;fill-opacity:1"
           transform="matrix(0.16023,0,0,0.15993,-5.86865,-0.48086)"
           d="m 193.85,116.93 c 1,-0.928 1.073,-2.443 0.171,-3.395 L 162.45,79.999 c -0.878,-0.953 -2.389,-0.953 -3.389,-0.049 -0.975,0.928 -1.048,2.443 -0.171,3.395 l 31.595,33.536 c 0.878,0.953 2.389,0.977 3.364,0.049 z" />
        <path
           id="path16"
           style="stroke-width:0.25;stroke:#e48a83;stroke-opacity:1;fill:#e36e64;fill-opacity:1"
           transform="matrix(0.16023,0,0,0.15993,-5.86865,-0.48086)"
           d="m 176.9,119.39 c 1.121,-0.733 1.658,-1.905 1.195,-2.638 l -16.7,-25.989 c -0.463,-0.733 -1.78,-0.733 -2.901,0 -1.146,0.733 -1.682,1.905 -1.219,2.638 l 16.724,25.989 c 0.463,0.733 1.755,0.733 2.901,0 z" />
        <path
           id="path18"
           style="stroke-width:0.296;stroke:#e48a83;stroke-opacity:1;fill:#e36e64;fill-opacity:1"
           transform="matrix(0.16023,0,0,0.15993,-5.86865,-0.48086)"
           d="m 166.18,140.86 c 0.951,-0.953 1.024,-2.418 0.171,-3.273 l -30.596,-30.605 c -0.853,-0.855 -2.34,-0.782 -3.291,0.171 -0.951,0.953 -1.024,2.418 -0.146,3.297 l 30.571,30.581 c 0.878,0.855 2.34,0.782 3.291,-0.171 z" />
        <path
           id="path20"
           style="stroke-width:0.233;stroke:#e48a83;stroke-opacity:1;fill:#e36e64;fill-opacity:1"
           transform="matrix(0.16023,0,0,0.15993,-5.86865,-0.48086)"
           d="m 100.18,159.75 c 1.146,-0.708 1.78,-1.807 1.39,-2.443 L 87.674,134.42 c -0.39,-0.635 -1.633,-0.586 -2.779,0.098 -1.17,0.708 -1.78,1.807 -1.39,2.443 l 13.896,22.887 c 0.39,0.635 1.633,0.586 2.779,-0.098 z" />
      </g>
      <g
         id="g22"
         style="stroke-width:0.31099999;stroke:#e48a83;stroke-opacity:1;fill:#e36e64;fill-opacity:1">
        <path
           id="path24"
           style="stroke-width:0.31099999;stroke:#e48a83;stroke-opacity:1;fill:#e36e64;fill-opacity:1"
           transform="matrix(0.16023,0,0,0.15993,-5.86865,-0.48086)"
           d="m 231.71,47.12 c -5.05,2.589 -45.47,-10.65 -45.47,-10.65 0,0 10.337,34.806 12.531,44.503 2.194,9.721 2.194,24.16 2.194,24.16 -0.293,6.57 -2.804,8.451 -7.826,14.09 -5.02,5.642 -11.604,4.714 -14.725,4.079 -3.145,-0.611 -37.641,-8.769 -47.978,-11.602 -10.361,-2.809 -21.648,-0.293 -25.72,2.516 -4.071,2.833 -6.265,10.65 -6.265,10.65 -5.339,22.911 17.236,68.978 17.236,68.978 -1.877,5.03 -8.143,10.04 -8.143,10.04 0,0 -23.501,-61.45 -13.798,-80.58 9.727,-19.13 25.72,-18.808 32.619,-18.808 6.899,0 50.46,12.848 57.68,12.555 7.216,-0.318 11.921,3.126 8.143,-17.562 -3.754,-20.688 -12.531,-48.29 -13.482,-54.884 -0.926,-6.57 2.828,-10.332 2.828,-10.332 0,0 4.705,-5.96 10.654,-5.03 5.973,0.953 31.668,10.04 40.761,13.8 1.755,0.733 0.439,3.224 -1.243,4.079 z" />
        <path
           id="path26"
           style="stroke-width:0.31099999;stroke:#e48a83;stroke-opacity:1;fill:#e36e64;fill-opacity:1"
           transform="matrix(0.16023,0,0,0.15993,-5.86865,-0.48086)"
           d="m 247.7,62.48 c -20.381,12.237 -35.447,6.595 -43.589,5.96 -8.143,-0.635 -33.23,-11.92 -39.2,-12.848 -5.948,-0.953 -10.654,5.01 -10.654,5.01 0,0 -3.754,3.762 -2.804,10.356 0.926,6.57 9.703,34.17 13.457,54.86 3.779,20.688 -0.926,17.244 -8.143,17.562 -7.216,0.318 -50.781,-12.555 -57.68,-12.555 -6.899,0 -22.892,-0.293 -32.619,18.832 -9.703,19.13 2.511,54.54 2.511,54.54 0,0 16.943,14.435 15.359,9.09 0,0 -18.479,-39.18 -13.165,-62.07 0,0 2.194,-7.841 6.265,-10.674 4.096,-2.809 15.383,-5.325 25.72,-2.491 10.337,2.809 44.833,10.967 47.978,11.602 3.12,0.611 9.703,1.563 14.725,-4.079 5.02,-5.642 7.533,-7.523 7.85,-14.12 0,0 0,-14.411 -2.194,-24.13 -2.194,-9.721 -12.555,-44.528 -12.555,-44.528 0,0 38.03,12.384 42.03,12.53 7.826,0.318 22.55,4.397 34.472,-2.491 11.921,-6.912 12.238,-10.356 12.238,-10.356 z" />
      </g>
      <g
         id="g28"
         style="stroke-width:1;stroke:#e48a83;stroke-opacity:1;fill:#e36e64;fill-opacity:1">
        <path
           id="path30"
           style="stroke-width:0.30700001;stroke:#e48a83;stroke-opacity:1;fill:#e36e64;fill-opacity:1"
           transform="matrix(0.16023,0,0,0.15993,-5.86865,-0.48086)"
           d="m 144.06,146.36 c 0.951,-0.953 0.975,-2.491 0.049,-3.42 l -33.01,-32.999 c -0.926,-0.928 -2.462,-0.904 -3.413,0.049 -0.951,0.953 -0.951,2.467 -0.024,3.395 l 33.01,33.02 c 0.926,0.928 2.438,0.904 3.389,-0.049 z" />
        <path
           id="path32"
           style="stroke-width:0.32499999;stroke:#e48a83;stroke-opacity:1;fill:#e36e64;fill-opacity:1"
           transform="matrix(0.16023,0,0,0.15993,-5.86865,-0.48086)"
           d="m 158.5,147.61 c 0.951,-0.953 0.878,-2.565 -0.171,-3.615 l -36.983,-36.98 c -1.048,-1.05 -2.657,-1.124 -3.608,-0.171 -0.951,0.953 -0.878,2.565 0.171,3.615 l 36.983,37 c 1.024,1.026 2.657,1.099 3.608,0.147 z" />
        <path
           id="path34"
           style="stroke-width:0.25;stroke:#e48a83;stroke-opacity:1;fill:#e36e64;fill-opacity:1"
           transform="matrix(0.16023,0,0,0.15993,-5.86865,-0.48086)"
           d="m 124.39,141.26 c 0.878,-1.05 1.024,-2.32 0.366,-2.882 L 101.108,118.52 c -0.683,-0.562 -1.926,-0.171 -2.779,0.855 -0.878,1.05 -1.024,2.32 -0.366,2.882 l 23.648,19.858 c 0.683,0.562 1.926,0.171 2.779,-0.855 z" />
        <path
           id="path36"
           style="stroke-width:0.31099999;stroke:#e48a83;stroke-opacity:1;fill:#e36e64;fill-opacity:1"
           transform="matrix(0.16023,0,0,0.15993,-5.86865,-0.48086)"
           d="m 232.8,72.35 c 0.951,-0.953 0.951,-2.491 0,-3.444 L 198.938,35.052 c -0.951,-0.953 -2.511,-0.953 -3.462,0 -0.951,0.953 -0.951,2.491 0,3.444 l 33.862,33.854 c 0.951,0.953 2.511,0.953 3.462,0 z" />
        <path
           id="path38"
           style="stroke-width:0.29699999;stroke:#e48a83;stroke-opacity:1;fill:#e36e64;fill-opacity:1"
           transform="matrix(0.16023,0,0,0.15993,-5.86865,-0.48086)"
           d="m 213.93,74.26 c 1.048,-0.83 1.292,-2.272 0.536,-3.249 L 187.6,36.424 c -0.756,-0.953 -2.218,-1.075 -3.291,-0.244 -1.073,0.83 -1.316,2.272 -0.561,3.249 l 26.866,34.562 c 0.756,0.977 2.243,1.099 3.316,0.269 z" />
      </g>
    </g>
  </g>
</svg>
