<?xml version="1.0" encoding="UTF-8" standalone="no"?>
<svg
   xmlns:dc="http://purl.org/dc/elements/1.1/"
   xmlns:cc="http://creativecommons.org/ns#"
   xmlns:rdf="http://www.w3.org/1999/02/22-rdf-syntax-ns#"
   xmlns:svg="http://www.w3.org/2000/svg"
   xmlns="http://www.w3.org/2000/svg"
   version="1.1"
   id="svg2"
   viewBox="0 0 48 48">
  <metadata
     id="metadata14">
    <rdf:RDF>
      <cc:Work
         rdf:about="">
        <dc:format>image/svg+xml</dc:format>
        <dc:type
           rdf:resource="http://purl.org/dc/dcmitype/StillImage" />
        <dc:title></dc:title>
      </cc:Work>
    </rdf:RDF>
  </metadata>
  <defs
     id="defs12" />
  <g
     id="layer1">
    <path
       id="path4152"
       d="m 7.7228748,2.889958 c 9.6081412,-3.17819241 22.7894572,-3.17819241 32.4984792,0 2.296868,0.7518749 4.413016,2.7960636 5.13134,5.08502 2.809253,8.951742 2.876079,23.915426 0,32.205059 -0.786478,2.266852 -2.818699,4.382219 -5.13134,5.085 -9.709022,2.950479 -22.890338,2.993893 -32.4984792,0 -2.3075499,-0.719022 -4.3806221,-2.806273 -5.1313396,-5.085 -2.73098039,-8.289633 -2.80759188,-23.253318 0,-32.205059 0.717939,-2.2890738 2.8368542,-4.3260284 5.1313396,-5.08502 z"
       style="display:inline;fill:none;fill-opacity:1;fill-rule:evenodd;stroke:#a43788;stroke-width:0.99939507;stroke-linecap:butt;stroke-linejoin:miter;stroke-miterlimit:4;stroke-dasharray:none;stroke-opacity:1" />
  </g>
  <g
     id="layer2">
    <path
       id="path4"
       style="fill:#a43788;fill-rule:evenodd;fill-opacity:1"
       d="m 9.0692969,30.531073 10.1016941,1.473164 0,-5.471752 -10.1016941,-0.631356 0,-4.209039 10.1016941,-0.631356 0,-5.471751 -10.1016941,1.473163 0,-4.419491 15.1525411,-3.9985876 0,30.3050846 -15.1525411,-3.998588" />
    <path
       id="path6"
       style="fill:#a43788;fill-opacity:1"
       d="m 26.747262,8.6440674 0,15.1525426 0,15.152542 c 1.683616,0 4.352989,-0.638932 6.742881,-1.621322 2.006029,-0.823288 3.979226,-1.733283 5.483537,-3.503605 2.081791,-2.451344 2.081791,-8.344 2.081791,-10.027615 0,-1.683616 8.42e-4,-7.576272 -2.081791,-10.027616 C 37.470211,11.998672 35.497014,11.088678 33.490143,10.265389 31.097725,9.2830004 28.430878,8.6440674 26.747262,8.6440674 m 5.050848,6.7344636 c 1.683615,0.03451 3.218231,1.179372 4.059197,2.320022 0.99165,1.343526 0.99165,5.256249 0.99165,6.098057 0,0.841808 0,4.754531 -0.99165,6.098056 -0.841808,1.14065 -2.375582,2.285509 -4.059197,2.320023 l 0,-8.418079 z" />
  </g>
</svg>
