<?xml version="1.0" encoding="UTF-8" standalone="no"?>
<svg
   xmlns:dc="http://purl.org/dc/elements/1.1/"
   xmlns:cc="http://creativecommons.org/ns#"
   xmlns:rdf="http://www.w3.org/1999/02/22-rdf-syntax-ns#"
   xmlns:svg="http://www.w3.org/2000/svg"
   xmlns="http://www.w3.org/2000/svg"
   version="1.1"
   id="svg2"
   viewBox="0 0 48 48">
  <metadata
     id="metadata14">
    <rdf:RDF>
      <cc:Work
         rdf:about="">
        <dc:format>image/svg+xml</dc:format>
        <dc:type
           rdf:resource="http://purl.org/dc/dcmitype/StillImage" />
        <dc:title></dc:title>
      </cc:Work>
    </rdf:RDF>
  </metadata>
  <defs
     id="defs12" />
  <g
     id="layer1">
    <path
       id="path4152"
       d="m 7.7228748,2.889958 c 9.6081412,-3.17819241 22.7894572,-3.17819241 32.4984792,0 2.296868,0.7518749 4.413016,2.7960636 5.13134,5.08502 2.809253,8.951742 2.876079,23.915426 0,32.205059 -0.786478,2.266852 -2.818699,4.382219 -5.13134,5.085 -9.709022,2.950479 -22.890338,2.993893 -32.4984792,0 -2.3075499,-0.719022 -4.3806221,-2.806273 -5.1313396,-5.085 -2.73098039,-8.289633 -2.80759188,-23.253318 0,-32.205059 0.717939,-2.2890738 2.8368542,-4.3260284 5.1313396,-5.08502 z"
       style="display:inline;fill:none;fill-opacity:1;fill-rule:evenodd;stroke:#52c8ff;stroke-width:0.99939507;stroke-linecap:butt;stroke-linejoin:miter;stroke-miterlimit:4;stroke-dasharray:none;stroke-opacity:1" />
  </g>
  <g
     id="layer2">
    <path
       id="path4"
       style="fill:#52c8ff"
       d="m 9.1516041,16.407003 0,2 30.5000009,0 0,-2 z" />
    <path
       id="path6"
       style="fill:#52c8ff"
       d="m 7.8416041,23.407003 0,2 33.5000009,0 0,-2 z" />
    <path
       id="path8"
       style="fill:#52c8ff"
       d="m 23.401605,7.6570022 0,33.5000008 2,0 0,-33.5000008 z" />
    <g
       id="g10"
       style="fill:none;stroke:#52c8ff;stroke-width:1.36399996;stroke-miterlimit:4;stroke-dasharray:none"
       transform="matrix(1.4658134,0,0,1.4658134,1.1948051,1.2001966)">
      <g
         id="g12"
         style="stroke-width:1.36399996">
        <path
           id="path14"
           style="stroke-width:11.02999973"
           transform="matrix(0.1237,0,0,0.1237,0,25.72917)"
           d="m 89.78,7.747 c -22.894,-52.51 -21.16,-118.39 0,-175.8" />
        <path
           id="path16"
           style="stroke-width:11.02999973"
           transform="matrix(0.1237,0,0,0.1237,0,25.72917)"
           d="m 166.23,7.747 c 22.863,-52.51 21.13,-118.39 0,-175.8" />
      </g>
      <path
         id="path18"
         style="stroke-width:1.07099998;stroke-linecap:round"
         transform="matrix(1.2738,0,0,1.2738,-14.67832,-18.96324)"
         d="m 33.06,27.316 c 0,5.03 -4.076,9.105 -9.105,9.105 -5.03,0 -9.105,-4.076 -9.105,-9.105 0,-5.03 4.076,-9.105 9.105,-9.105 5.03,0 9.105,4.076 9.105,9.105 z" />
    </g>
    <path
       id="path20"
       style="fill:#52c8ff"
       d="m 9.1516041,30.407003 0,2 30.5000009,0 0,-2 z" />
  </g>
</svg>
