<?xml version="1.0" encoding="UTF-8" standalone="no"?>
<svg
   xmlns:dc="http://purl.org/dc/elements/1.1/"
   xmlns:cc="http://creativecommons.org/ns#"
   xmlns:rdf="http://www.w3.org/1999/02/22-rdf-syntax-ns#"
   xmlns:svg="http://www.w3.org/2000/svg"
   xmlns="http://www.w3.org/2000/svg"
   viewBox="0 0 48 48"
   id="svg2"
   version="1.1">
  <metadata
     id="metadata14">
    <rdf:RDF>
      <cc:Work
         rdf:about="">
        <dc:format>image/svg+xml</dc:format>
        <dc:type
           rdf:resource="http://purl.org/dc/dcmitype/StillImage" />
        <dc:title></dc:title>
      </cc:Work>
    </rdf:RDF>
  </metadata>
  <defs
     id="defs12" />
  <g
     style="fill:none;fill-opacity:1;stroke:#8ccd7c;stroke-opacity:1"
     id="layer1">
    <path
       style="display:inline;fill:none;fill-opacity:1;fill-rule:evenodd;stroke:#8ccd7c;stroke-width:0.99939507;stroke-linecap:butt;stroke-linejoin:miter;stroke-miterlimit:4;stroke-dasharray:none;stroke-opacity:1"
       d="m 7.7228748,2.889958 c 9.6081412,-3.17819241 22.7894572,-3.17819241 32.4984792,0 2.296868,0.7518749 4.413016,2.7960636 5.13134,5.08502 2.809253,8.951742 2.876079,23.915426 0,32.205059 -0.786478,2.266852 -2.818699,4.382219 -5.13134,5.085 -9.709022,2.950479 -22.890338,2.993893 -32.4984792,0 -2.3075499,-0.719022 -4.3806221,-2.806273 -5.1313396,-5.085 -2.73098039,-8.289633 -2.80759188,-23.253318 0,-32.205059 0.717939,-2.2890738 2.8368542,-4.3260284 5.1313396,-5.08502 z"
       id="path4152" />
  </g>
  <g
     id="g4"
     style="fill:#8ccd7c"
     transform="matrix(1.1239402,0,0,1.1239402,3.1474692,3.2021866)">
    <path
       id="path6"
       d="m 11.137,12.04 c -3.855,0 -6.98,3.145 -6.98,7.02 0,0.242 0.004,0.48 0.027,0.715 0.059,1.504 -0.027,3.676 1.719,8.941 1.484,4.48 2.617,4.387 2.617,4.387 l 1.742,-0.879 c 0,0 -0.871,-1.754 -0.871,-3.508 0,-0.844 0.199,-1.883 0.41,-2.742 0.43,0.082 0.883,0.109 1.336,0.109 3.852,0 6.977,-3.145 6.977,-7.02 0,-3.875 -3.125,-7.02 -6.977,-7.02 z" />
    <path
       id="path8"
       d="m 26.863,25.961 c 3.855,0 6.98,-3.145 6.98,-7.02 0,-0.242 -0.004,-0.48 -0.027,-0.715 C 33.757,16.722 33.843,14.55 32.097,9.285 30.613,4.805 29.48,4.898 29.48,4.898 l -1.742,0.879 c 0,0 0.871,1.754 0.871,3.508 0,0.844 -0.199,1.883 -0.41,2.742 -0.43,-0.082 -0.883,-0.109 -1.336,-0.109 -3.852,0 -6.977,3.145 -6.977,7.02 0,3.875 3.125,7.02 6.977,7.02 z" />
  </g>
</svg>
