<?xml version="1.0" encoding="UTF-8" standalone="no"?>
<svg
   xmlns:dc="http://purl.org/dc/elements/1.1/"
   xmlns:cc="http://creativecommons.org/ns#"
   xmlns:rdf="http://www.w3.org/1999/02/22-rdf-syntax-ns#"
   xmlns:svg="http://www.w3.org/2000/svg"
   xmlns="http://www.w3.org/2000/svg"
   viewBox="0 0 48 48"
   id="svg2"
   version="1.1">
  <metadata
     id="metadata14">
    <rdf:RDF>
      <cc:Work
         rdf:about="">
        <dc:format>image/svg+xml</dc:format>
        <dc:type
           rdf:resource="http://purl.org/dc/dcmitype/StillImage" />
        <dc:title></dc:title>
      </cc:Work>
    </rdf:RDF>
  </metadata>
  <defs
     id="defs12" />
  <g
     style="stroke:#6fbed5;stroke-opacity:1"
     id="layer1">
    <path
       style="display:inline;fill:none;fill-opacity:1;fill-rule:evenodd;stroke:#6fbed5;stroke-width:0.99939507;stroke-linecap:butt;stroke-linejoin:miter;stroke-miterlimit:4;stroke-dasharray:none;stroke-opacity:1"
       d="m 7.7228748,2.889958 c 9.6081412,-3.17819241 22.7894572,-3.17819241 32.4984792,0 2.296868,0.7518749 4.413016,2.7960636 5.13134,5.08502 2.809253,8.951742 2.876079,23.915426 0,32.205059 -0.786478,2.266852 -2.818699,4.382219 -5.13134,5.085 -9.709022,2.950479 -22.890338,2.993893 -32.4984792,0 -2.3075499,-0.719022 -4.3806221,-2.806273 -5.1313396,-5.085 -2.73098039,-8.289633 -2.80759188,-23.253318 0,-32.205059 0.717939,-2.2890738 2.8368542,-4.3260284 5.1313396,-5.08502 z"
       id="path4152" />
  </g>
  <g
     id="g4"
     transform="matrix(1.1729197,0,0,1.1729197,2.1353594,2.4263909)" />
  <path
     id="path4"
     style="fill:#6fbed5;fill-rule:evenodd"
     d="m 29.058389,39.465817 c -1.105192,-0.121768 0.194829,-1.050685 0.561293,-1.236237 0.706256,-0.353708 1.281466,-0.756122 1.72563,-1.422948 0.701617,-1.069241 1.050686,-2.487551 1.349888,-3.714511 0.199467,-0.833822 0.358346,-1.318576 -0.171636,-2.024831 -0.525343,-0.701617 0.371103,-1.281466 -0.185551,-2.024832 -0.933557,-1.245514 -1.327854,-2.894604 -2.250973,-4.127362 -0.263251,-0.349069 -0.168156,-0.674944 -0.543898,-0.710895 -0.180912,-0.01855 -0.64827,0.344431 -0.805989,0.448803 -0.458081,0.30848 -1.014735,0.453442 -1.463538,0.751484 -0.226141,0.149601 -0.656389,0.04059 -0.8431,0.185552 -0.539259,0.42097 -0.411693,1.730268 -0.358347,2.400573 0.08118,0.955591 0.846579,1.254792 0.846579,2.174432 0,1.109831 -0.235418,1.865953 0.113651,3.003616 0.199468,0.65291 0.701617,1.395116 0.783955,2.060782 0.06842,0.525343 -0.03131,0.511427 -0.185551,1.010097 -0.180913,0.593765 -0.226141,1.123746 -0.788595,1.390477 -0.321236,0.149601 -1.617777,0.213384 -1.79869,-0.149601 -0.358346,-0.710895 1.005458,-0.955591 1.236237,-1.390477 0.49867,-0.933557 -0.674944,-3.352685 -1.123746,-4.163313 -0.249335,-0.439526 -0.724811,-0.793233 -0.901085,-1.236238 -0.240057,-0.598404 0.244696,-1.005457 0.168156,-1.463538 -0.149601,-0.892967 -0.525343,-1.83928 -0.80599,-2.699775 -0.656388,-1.998158 -1.56791,1.037929 -1.948291,1.803329 -0.15424,0.299202 -0.263251,0.629716 -0.411693,0.938195 -0.180912,0.362986 0.218024,0.674944 0.109012,1.123747 -0.09973,0.42097 -0.589126,0.656389 -0.860495,0.974146 -0.411693,0.484753 -0.698138,1.095914 -0.91964,1.689679 -0.46156,1.236237 -0.625077,3.393274 -1.480934,4.384815 -0.121768,0.144962 -0.466198,0.06378 -0.598404,0.19019 -0.299201,0.289925 0.07654,0.611161 -0.507947,0.80599 -0.448803,0.149601 -1.580667,0.313118 -2.006276,0.05451 -0.815267,-0.494031 0.204107,-1.100553 0.710894,-1.613139 0.715533,-0.710895 1.544717,-1.363804 2.102531,-2.210383 0.734089,-1.114469 0.888328,-2.369262 1.033291,-3.655366 0.06842,-0.620438 -0.603043,-0.928917 -0.02319,-1.671124 0.185551,-0.235418 0.751484,-0.204106 0.751484,-0.448803 0,-0.774677 0.02319,-1.553994 0,-2.319394 -0.02667,-0.938195 -0.02319,-2.482912 -0.91964,-3.075517 C 17.456778,22.701234 15.943373,22.492488 14.80571,21.640111 13.672685,20.788893 12.635916,20.018854 11.951695,18.659689 11.597987,17.948794 11.412435,17.250657 11.12715,16.521207 10.918404,15.981948 10.977549,16.162861 10.642396,15.846263 10.442928,15.660712 10.148365,15.529666 9.9268632,15.32092 9.3516531,14.767745 9.2472803,14.225006 8.2777734,14.455786 c -0.3850195,0.0951 -1.0193739,0.815267 -1.2362373,0.375742 -0.1403234,-0.280647 -0.054506,-0.539259 0.018555,-0.824545 0.1090115,-0.425608 -0.4082135,-0.565932 -0.3942971,-0.974145 0.023194,-0.701617 1.1550585,-1.440344 1.7441847,-1.558633 0.7433659,-0.149601 1.5586334,0.171635 2.3460681,0.01856 0.634354,-0.121768 1.18637,-0.466199 1.79869,-0.6158 0.638993,-0.163517 1.214203,-0.218023 1.76274,0.168157 0.249335,0.176274 0.34443,0.494031 0.561293,0.674943 0.185552,0.149601 0.349069,0.109012 0.561294,0.263252 0.643632,0.461559 0.693499,1.145781 -0.411693,0.938195 0.466199,1.925097 2.727608,7.103146 5.24995,4.425405 1.178252,-1.250154 2.26025,-2.635992 3.374719,-3.937173 0.983423,-1.145781 1.553994,-2.437683 3.225118,-2.215021 1.64909,0.218023 2.777475,1.349887 4.054302,2.288082 1.041408,0.770039 2.269527,0.938195 3.374719,1.576029 1.173613,0.674944 2.21966,1.812607 2.623235,3.112627 0.584487,1.87987 0.249335,3.692476 1.277986,5.47725 0.620438,1.083158 1.504128,1.83928 2.288083,2.735726 0.42097,0.484754 0.701617,1.15042 0.561294,1.798691 -0.0951,0.448803 -0.411693,0.529981 -0.411693,1.050685 0,0.910363 0.04523,1.812607 0.0046,2.72297 -0.03595,0.810628 -0.09973,1.603861 -0.213385,2.405212 -0.09973,0.693499 -0.353707,0.888328 -0.579848,1.399754 -0.335153,0.756123 -0.280647,1.087796 -1.087796,1.385839 -0.458081,0.168156 -1.236237,0.507947 -1.72563,0.489392 -0.701617,-0.03131 -0.801351,-0.611161 -0.263251,-1.236237 0.349069,-0.408214 0.99618,-0.53926 1.385838,-0.978785 1.136504,-1.273348 1.625896,-5.100348 0.674944,-6.451396 C 38.447259,28.409269 37.94511,28.40463 37.908,27.547614 c -0.03595,-0.765401 0.276008,-1.033291 -0.416332,-1.72563 -2.201105,-1.123747 -2.433044,-1.925097 -3.148578,-1.540078 -0.869773,0.470837 -0.185551,3.120745 0,3.864111 0.335153,1.331333 1.653729,1.957569 0.788594,3.302818 -0.620438,0.96023 -0.910362,1.95293 -1.331332,3.075517 -0.380381,1.010097 -0.349069,2.455079 -0.955591,3.298179 -0.118289,0.163518 -0.30384,0.253974 -0.411692,0.411693 -0.08118,0.118289 -0.204107,0.45808 -0.263251,0.525343 -0.253974,0.294563 -0.30848,0.371103 -0.715534,0.525343 -0.72481,0.276008 -1.613138,0.185551 -2.395934,0.185551" />
</svg>
