<?xml version="1.0" encoding="UTF-8" standalone="no"?>
<svg
   xmlns:dc="http://purl.org/dc/elements/1.1/"
   xmlns:cc="http://creativecommons.org/ns#"
   xmlns:rdf="http://www.w3.org/1999/02/22-rdf-syntax-ns#"
   xmlns:svg="http://www.w3.org/2000/svg"
   xmlns="http://www.w3.org/2000/svg"
   version="1.1"
   id="svg2"
   viewBox="0 0 48 48">
  <metadata
     id="metadata14">
    <rdf:RDF>
      <cc:Work
         rdf:about="">
        <dc:format>image/svg+xml</dc:format>
        <dc:type
           rdf:resource="http://purl.org/dc/dcmitype/StillImage" />
        <dc:title></dc:title>
      </cc:Work>
    </rdf:RDF>
  </metadata>
  <defs
     id="defs12" />
  <g
     id="layer1">
    <path
       id="path4152"
       d="m 7.7228748,2.889958 c 9.6081412,-3.17819241 22.7894572,-3.17819241 32.4984792,0 2.296868,0.7518749 4.413016,2.7960636 5.13134,5.08502 2.809253,8.951742 2.876079,23.915426 0,32.205059 -0.786478,2.266852 -2.818699,4.382219 -5.13134,5.085 -9.709022,2.950479 -22.890338,2.993893 -32.4984792,0 -2.3075499,-0.719022 -4.3806221,-2.806273 -5.1313396,-5.085 -2.73098039,-8.289633 -2.80759188,-23.253318 0,-32.205059 0.717939,-2.2890738 2.8368542,-4.3260284 5.1313396,-5.08502 z"
       style="display:inline;fill:none;fill-opacity:1;fill-rule:evenodd;stroke:#e08dc9;stroke-width:0.99939507;stroke-linecap:butt;stroke-linejoin:miter;stroke-miterlimit:4;stroke-dasharray:none;stroke-opacity:1" />
  </g>
  <g
     id="layer2">
    <path
       id="path4"
       style="fill:none;stroke:#e08dc9;stroke-width:2.25904679;stroke-linecap:round;stroke-linejoin:round;stroke-miterlimit:4;stroke-dasharray:none"
       d="m 12.911206,15.687028 23.776468,0 c 0.710658,0 1.287656,0.568527 1.287656,1.271655 l 0,14.778872 c 0,0.699363 -0.576998,1.26789 -1.287656,1.26789 l -23.776468,0 c -0.710659,0 -1.287657,-0.568527 -1.287657,-1.26789 l 0,-14.778872 c 0,-0.703128 0.576998,-1.271655 1.287657,-1.271655" />
    <path
       id="path6"
       style="fill:#e08dc9"
       d="m 15.139191,13.051473 3.509994,0 c 0.488519,0 0.880087,0.50452 0.880087,1.132347 0,0.623121 -0.39251,1.1267 -0.880087,1.1267 l -3.509994,0 c -0.488519,0 -0.880087,-0.50452 -0.880087,-1.1267 0,-0.627827 0.392509,-1.132347 0.880087,-1.132347" />
    <path
       id="path8"
       style="fill:#e08dc9"
       d="m 33.839392,17.569567 0.752074,0 c 0.416042,0 0.752075,0.338857 0.752075,0.753957 l 0,0.753956 c 0,0.4151 -0.336033,0.751133 -0.752075,0.751133 l -0.752074,0 c -0.418865,0 -0.754898,-0.336033 -0.754898,-0.751133 l 0,-0.753956 c 0,-0.4151 0.336033,-0.753957 0.754898,-0.753957" />
    <path
       id="path10"
       style="fill:none;stroke:#e08dc9;stroke-width:2.25904679;stroke-miterlimit:4;stroke-dasharray:none"
       d="m 30.448939,24.346706 c 0,3.120309 -2.527308,5.647617 -5.647617,5.647617 -3.120308,0 -5.647617,-2.527308 -5.647617,-5.647617 0,-3.120308 2.527309,-5.647616 5.647617,-5.647616 3.120309,0 5.647617,2.527308 5.647617,5.647616 z" />
  </g>
</svg>
