<?xml version="1.0" encoding="UTF-8" standalone="no"?>
<svg
   xmlns:dc="http://purl.org/dc/elements/1.1/"
   xmlns:cc="http://creativecommons.org/ns#"
   xmlns:rdf="http://www.w3.org/1999/02/22-rdf-syntax-ns#"
   xmlns:svg="http://www.w3.org/2000/svg"
   xmlns="http://www.w3.org/2000/svg"
   version="1.1"
   id="svg2"
   viewBox="0 0 48 48">
  <metadata
     id="metadata14">
    <rdf:RDF>
      <cc:Work
         rdf:about="">
        <dc:format>image/svg+xml</dc:format>
        <dc:type
           rdf:resource="http://purl.org/dc/dcmitype/StillImage" />
        <dc:title></dc:title>
      </cc:Work>
    </rdf:RDF>
  </metadata>
  <defs
     id="defs12" />
  <g
     id="layer1">
    <path
       id="path4152"
       d="m 7.7228748,2.889958 c 9.6081412,-3.17819241 22.7894572,-3.17819241 32.4984792,0 2.296868,0.7518749 4.413016,2.7960636 5.13134,5.08502 2.809253,8.951742 2.876079,23.915426 0,32.205059 -0.786478,2.266852 -2.818699,4.382219 -5.13134,5.085 -9.709022,2.950479 -22.890338,2.993893 -32.4984792,0 -2.3075499,-0.719022 -4.3806221,-2.806273 -5.1313396,-5.085 -2.73098039,-8.289633 -2.80759188,-23.253318 0,-32.205059 0.717939,-2.2890738 2.8368542,-4.3260284 5.1313396,-5.08502 z"
       style="display:inline;fill:none;fill-opacity:1;fill-rule:evenodd;stroke:#f09612;stroke-width:0.99939507;stroke-linecap:butt;stroke-linejoin:miter;stroke-miterlimit:4;stroke-dasharray:none;stroke-opacity:1" />
  </g>
  <g
     id="layer2">
    <rect
       id="rect4"
       style="fill:#f09612;fill-opacity:1"
       width="22"
       x="13.610276"
       y="22.575851"
       rx="0"
       height="15" />
    <path
       id="path6"
       style="fill:#f09612;fill-opacity:1"
       d="m 8.2072775,26.625851 5.4029995,-4.054 0.885,1.179 -5.4029995,4.054" />
    <rect
       id="rect8"
       style="fill:#f09612;fill-opacity:1"
       width="6.7540002"
       x="42.033451"
       y="1.8394179"
       rx="0"
       height="1.474"
       transform="matrix(0.79988839,0.60014879,0.60014879,-0.79988839,0,0)" />
    <rect
       id="rect10"
       style="fill:#f09612;fill-opacity:1"
       width="3.516"
       x="20.059864"
       y="9.7990599"
       height="3.516"
       transform="matrix(0.95334222,0.30189172,-0.30189172,0.95334222,0,0)" />
    <rect
       id="rect12"
       style="fill:#f09612;fill-opacity:1"
       width="5.7800002"
       x="15.237138"
       y="14.033115"
       height="5.7800002"
       transform="matrix(0.9598803,-0.28041009,0.28041009,0.9598803,0,0)" />
    <path
       id="path14"
       style="fill:#f09612;fill-opacity:1"
       d="m 29.392277,18.125851 -1.655,2.108 -2.653,-0.379 -0.998,-2.487001 1.655,-2.108 2.653,0.379 z" />
    <path
       id="path16"
       style="fill:#f09612;fill-opacity:1"
       d="m 34.225277,12.91385 -1.691,0.554 -0.502,1.707 -1.05,-1.437 -1.779,0.05 1.043,-1.442 -0.597,-1.677 1.694,0.546 1.41,-1.086 0.004,1.78 z" />
  </g>
</svg>
