<?xml version="1.0" encoding="UTF-8" standalone="no"?>
<svg
   xmlns:dc="http://purl.org/dc/elements/1.1/"
   xmlns:cc="http://creativecommons.org/ns#"
   xmlns:rdf="http://www.w3.org/1999/02/22-rdf-syntax-ns#"
   xmlns:svg="http://www.w3.org/2000/svg"
   xmlns="http://www.w3.org/2000/svg"
   viewBox="0 0 48 48"
   id="svg2"
   version="1.1">
  <metadata
     id="metadata14">
    <rdf:RDF>
      <cc:Work
         rdf:about="">
        <dc:format>image/svg+xml</dc:format>
        <dc:type
           rdf:resource="http://purl.org/dc/dcmitype/StillImage" />
        <dc:title></dc:title>
      </cc:Work>
    </rdf:RDF>
  </metadata>
  <defs
     id="defs12" />
  <g
     style="fill:none;fill-opacity:1;stroke:#77828a;stroke-opacity:1"
     id="layer1">
    <path
       style="display:inline;fill:none;fill-opacity:1;fill-rule:evenodd;stroke:#77828a;stroke-width:0.99939507;stroke-linecap:butt;stroke-linejoin:miter;stroke-miterlimit:4;stroke-dasharray:none;stroke-opacity:1"
       d="m 7.7228748,2.889958 c 9.6081412,-3.17819241 22.7894572,-3.17819241 32.4984792,0 2.296868,0.7518749 4.413016,2.7960636 5.13134,5.08502 2.809253,8.951742 2.876079,23.915426 0,32.205059 -0.786478,2.266852 -2.818699,4.382219 -5.13134,5.085 -9.709022,2.950479 -22.890338,2.993893 -32.4984792,0 -2.3075499,-0.719022 -4.3806221,-2.806273 -5.1313396,-5.085 -2.73098039,-8.289633 -2.80759188,-23.253318 0,-32.205059 0.717939,-2.2890738 2.8368542,-4.3260284 5.1313396,-5.08502 z"
       id="path4152" />
  </g>
  <path
     id="path4"
     style="opacity:1;fill:#77828a;fill-opacity:1;fill-rule:nonzero;stroke:none"
     d="M 6.4625726,17.720607 24.353237,10.564341 42.243902,17.720607 24.353237,24.876873" />
  <ellipse
     id="ellipse6"
     style="opacity:1;fill:#77828a;fill-opacity:1;fill-rule:nonzero;stroke:none"
     ry="4.4726663"
     rx="8.9453325"
     cy="32.92767"
     cx="24.353237" />
  <path
     id="path8"
     style="opacity:1;fill:#77828a;fill-opacity:1;fill-rule:nonzero;stroke:none"
     d="m 15.407905,23.221986 0,9.702108 17.890665,0 0,-9.702108 -8.945333,3.578133 z" />
  <rect
     id="rect10"
     style="opacity:1;fill:#77828a;fill-opacity:1;fill-rule:nonzero;stroke:none"
     y="17.720606"
     x="37.771236"
     height="7.1562657"
     width="1.7890664" />
  <circle
     id="circle12"
     style="opacity:1;fill:#77828a;fill-opacity:1;fill-rule:nonzero;stroke:none"
     r="1.7890664"
     cy="26.218672"
     cx="38.665771" />
  <path
     id="path14"
     style="fill:#77828a;fill-opacity:1;fill-rule:evenodd;stroke:none"
     d="m 38.066432,27.560472 -1.192413,2.6836 3.578133,0 -1.192413,-2.6836 z" />
</svg>
