<?xml version="1.0" encoding="UTF-8" standalone="no"?>
<svg
   xmlns:dc="http://purl.org/dc/elements/1.1/"
   xmlns:cc="http://creativecommons.org/ns#"
   xmlns:rdf="http://www.w3.org/1999/02/22-rdf-syntax-ns#"
   xmlns:svg="http://www.w3.org/2000/svg"
   xmlns="http://www.w3.org/2000/svg"
   viewBox="0 0 48 48"
   id="svg2"
   version="1.1">
  <metadata
     id="metadata14">
    <rdf:RDF>
      <cc:Work
         rdf:about="">
        <dc:format>image/svg+xml</dc:format>
        <dc:type
           rdf:resource="http://purl.org/dc/dcmitype/StillImage" />
        <dc:title></dc:title>
      </cc:Work>
    </rdf:RDF>
  </metadata>
  <defs
     id="defs12" />
  <g
     style="stroke:#658db6;stroke-opacity:1"
     id="layer1">
    <path
       style="display:inline;fill:none;fill-opacity:1;fill-rule:evenodd;stroke:#658db6;stroke-width:0.99939507;stroke-linecap:butt;stroke-linejoin:miter;stroke-miterlimit:4;stroke-dasharray:none;stroke-opacity:1"
       d="m 7.7228748,2.889958 c 9.6081412,-3.17819241 22.7894572,-3.17819241 32.4984792,0 2.296868,0.7518749 4.413016,2.7960636 5.13134,5.08502 2.809253,8.951742 2.876079,23.915426 0,32.205059 -0.786478,2.266852 -2.818699,4.382219 -5.13134,5.085 -9.709022,2.950479 -22.890338,2.993893 -32.4984792,0 -2.3075499,-0.719022 -4.3806221,-2.806273 -5.1313396,-5.085 -2.73098039,-8.289633 -2.80759188,-23.253318 0,-32.205059 0.717939,-2.2890738 2.8368542,-4.3260284 5.1313396,-5.08502 z"
       id="path4152" />
  </g>
  <g
     id="g4"
     transform="matrix(1.1729197,0,0,1.1729197,2.1353594,2.4263909)" />
  <path
     id="path4"
     style="opacity:1;fill:#658db6;fill-opacity:1;fill-rule:nonzero;stroke:none"
     d="m 23.841808,8.033898 c -4.349243,0 -7.875706,1.6594575 -7.875706,3.706215 l 0,2.779662 8.338983,0 0,1.853107 -12.971751,0 c -2.0467573,0 -3.7062149,3.526463 -3.7062149,7.875706 0,4.349243 1.6594576,7.875706 3.7062149,7.875706 l 3.706214,0 0,-3.706214 c 0,-2.553582 2.079187,-4.632769 4.632769,-4.632769 l 8.338983,0 c 2.052316,0 3.706214,-1.653898 3.706214,-3.706214 l 0,-8.338984 c 0,-2.0467575 -3.526463,-3.706215 -7.875706,-3.706215 z m -3.706214,2.316385 c 0.767186,0 1.38983,0.622644 1.38983,1.38983 0,0.767187 -0.622644,1.389831 -1.38983,1.389831 -0.767187,0 -1.389831,-0.622644 -1.389831,-1.389831 0,-0.767186 0.622644,-1.38983 1.389831,-1.38983 z" />
  <path
     id="path6"
     style="opacity:1;fill:#658db6;fill-opacity:1;fill-rule:nonzero;stroke:none"
     d="m 33.570622,17.299436 0,3.706214 c 0,2.553582 -2.079187,4.632769 -4.632769,4.632769 l -8.338983,0 c -2.052316,0 -3.706214,1.653898 -3.706214,3.706214 l 0,8.338983 c 0,2.046757 3.526463,3.706215 7.875706,3.706215 4.349243,0 7.875706,-1.659458 7.875706,-3.706215 l 0,-2.779661 -8.338983,0 0,-1.853107 12.971752,0 c 2.046757,0 3.706214,-3.526463 3.706214,-7.875706 0,-4.349243 -1.659457,-7.875706 -3.706214,-7.875706 m -8.80226,18.99435 c 0.767186,0 1.38983,0.622644 1.38983,1.38983 0,0.767187 -0.622644,1.389831 -1.38983,1.389831 -0.767187,0 -1.389831,-0.622644 -1.389831,-1.389831 0,-0.767186 0.622644,-1.38983 1.389831,-1.38983 z" />
</svg>
