<?xml version="1.0" encoding="UTF-8" standalone="no"?>
<svg
   xmlns:dc="http://purl.org/dc/elements/1.1/"
   xmlns:cc="http://creativecommons.org/ns#"
   xmlns:rdf="http://www.w3.org/1999/02/22-rdf-syntax-ns#"
   xmlns:svg="http://www.w3.org/2000/svg"
   xmlns="http://www.w3.org/2000/svg"
   viewBox="0 0 48 48"
   id="svg2"
   version="1.1">
  <metadata
     id="metadata14">
    <rdf:RDF>
      <cc:Work
         rdf:about="">
        <dc:format>image/svg+xml</dc:format>
        <dc:type
           rdf:resource="http://purl.org/dc/dcmitype/StillImage" />
        <dc:title></dc:title>
      </cc:Work>
    </rdf:RDF>
  </metadata>
  <defs
     id="defs12" />
  <g
     style="stroke:#d07d86;stroke-opacity:1"
     id="layer1">
    <path
       style="display:inline;fill:none;fill-opacity:1;fill-rule:evenodd;stroke:#d07d86;stroke-width:0.99939507;stroke-linecap:butt;stroke-linejoin:miter;stroke-miterlimit:4;stroke-dasharray:none;stroke-opacity:1"
       d="m 7.7228748,2.889958 c 9.6081412,-3.17819241 22.7894572,-3.17819241 32.4984792,0 2.296868,0.7518749 4.413016,2.7960636 5.13134,5.08502 2.809253,8.951742 2.876079,23.915426 0,32.205059 -0.786478,2.266852 -2.818699,4.382219 -5.13134,5.085 -9.709022,2.950479 -22.890338,2.993893 -32.4984792,0 -2.3075499,-0.719022 -4.3806221,-2.806273 -5.1313396,-5.085 -2.73098039,-8.289633 -2.80759188,-23.253318 0,-32.205059 0.717939,-2.2890738 2.8368542,-4.3260284 5.1313396,-5.08502 z"
       id="path4152" />
  </g>
  <g
     id="g4"
     transform="matrix(1.1729197,0,0,1.1729197,2.1353594,2.4263909)" />
  <path
     id="path4"
     style="opacity:1;fill:#d07d86;fill-opacity:1;fill-rule:nonzero;stroke:none"
     d="m 18.202889,13.423729 c -3.29,0 -6,2.71 -6,6 l 0,10 c 0,1.105 0.895,2 2,2 1.105,0 2,-0.895 2,-2 l 0,-10 c 0,-1.128 0.872,-2 2,-2 l 19,0 c 0.36,0 0.687,0.188 0.867,0.5 0.18,0.312 0.18,0.688 0,1 -0.18,0.312 -0.507,0.5 -0.867,0.5 -2.738,0 -5,2.262 -5,5 l 0,5 c 0,1.105 0.895,2 2,2 1.105,0 2,-0.895 2,-2 l 0,-5 c 0,-0.576 0.424,-1 1,-1 1.783,0 3.44,-0.956 4.332,-2.5 0.892,-1.544 0.892,-3.456 0,-5 -0.892,-1.544 -2.549,-2.5 -4.332,-2.5 z m -9.9999995,6 c -1.105,0 -2,0.895 -2,2 l 0,10 c 0,3.29 2.71,6 5.9999995,6 4.167,0 8.333,0 12.5,0 1.962,0 3.781,-1.051 4.762,-2.75 0.981,-1.699 0.981,-3.801 0,-5.5 -0.981,-1.699 -2.8,-2.75 -4.762,-2.75 l -1,0 c -0.539,0 -1.031,-0.283 -1.301,-0.75 -0.27,-0.467 -0.27,-1.033 0,-1.5 0.27,-0.467 0.762,-0.75 1.301,-0.75 l 4.5,0 c 1.105,0 2,-0.895 2,-2 0,-1.105 -0.895,-2 -2,-2 l -4.5,0 c -1.962,0 -3.785,1.051 -4.766,2.75 -0.981,1.699 -0.981,3.801 0,5.5 0.981,1.699 2.804,2.75 4.766,2.75 l 1,0 c 0.539,0 1.031,0.283 1.301,0.75 0.27,0.467 0.27,1.033 0,1.5 -0.27,0.467 -0.762,0.75 -1.301,0.75 -4.167,0 -8.333,0 -12.5,0 -1.128,0 -2,-0.872 -2,-2 l 0,-10 c 0,-1.105 -0.8949995,-2 -1.9999995,-2 z" />
</svg>
