<?xml version="1.0" encoding="UTF-8" standalone="no"?>
<svg
   xmlns:dc="http://purl.org/dc/elements/1.1/"
   xmlns:cc="http://creativecommons.org/ns#"
   xmlns:rdf="http://www.w3.org/1999/02/22-rdf-syntax-ns#"
   xmlns:svg="http://www.w3.org/2000/svg"
   xmlns="http://www.w3.org/2000/svg"
   version="1.1"
   id="svg2"
   viewBox="0 0 48 48">
  <metadata
     id="metadata14">
    <rdf:RDF>
      <cc:Work
         rdf:about="">
        <dc:format>image/svg+xml</dc:format>
        <dc:type
           rdf:resource="http://purl.org/dc/dcmitype/StillImage" />
        <dc:title></dc:title>
      </cc:Work>
    </rdf:RDF>
  </metadata>
  <defs
     id="defs12" />
  <g
     id="layer1">
    <path
       id="path4152"
       d="m 7.7228748,2.889958 c 9.6081412,-3.17819241 22.7894572,-3.17819241 32.4984792,0 2.296868,0.7518749 4.413016,2.7960636 5.13134,5.08502 2.809253,8.951742 2.876079,23.915426 0,32.205059 -0.786478,2.266852 -2.818699,4.382219 -5.13134,5.085 -9.709022,2.950479 -22.890338,2.993893 -32.4984792,0 -2.3075499,-0.719022 -4.3806221,-2.806273 -5.1313396,-5.085 -2.73098039,-8.289633 -2.80759188,-23.253318 0,-32.205059 0.717939,-2.2890738 2.8368542,-4.3260284 5.1313396,-5.08502 z"
       style="display:inline;fill:none;fill-opacity:1;fill-rule:evenodd;stroke:#9d74c6;stroke-width:0.99939507;stroke-linecap:butt;stroke-linejoin:miter;stroke-miterlimit:4;stroke-dasharray:none;stroke-opacity:1" />
  </g>
  <g
     id="layer2">
    <g
       id="g4"
       style="fill:#9d74c6;fill-opacity:1"
       transform="matrix(0.9759256,0,0,0.97588942,6.6793995,6.2746501)">
      <path
         style="fill:#9d74c6;fill-opacity:1"
         id="path6"
         d="m 18.566,4.156 c -8.789,0 -15.211,6.781 -14.328,15.1 0.742,7.02 6.441,12.906 13.477,14.586 -1.203,-1.965 -1.98,-4.176 -2.227,-6.5 -0.883,-8.32 5.543,-15.04 14.332,-15.04 1.383,0 2.707,0.172 4.02,0.484 C 30.742,7.704 24.906,4.153 18.563,4.153 m 0,3.113 c 2.754,0 5.406,0.852 7.684,2.258 -8.574,1.66 -14.738,9.238 -13.84,18.09 C 9.673,25.348 7.673,22.29 7.313,18.915 6.618,12.345 11.368,7.263 18.563,7.263" />
      <path
         style="fill:#9d74c6;fill-opacity:1"
         id="path8"
         d="m 11.266,9.781 c 1.551,0 2.805,1.508 2.805,3.371 l 0,11.941 c 0,1.863 -1.254,3.371 -2.805,3.371 -1.551,0 -2.809,-1.508 -2.809,-3.371 l 0,-11.941 c 0,-1.863 1.258,-3.371 2.809,-3.371 z" />
      <path
         style="fill:#9d74c6;fill-opacity:1"
         id="path10"
         d="m 9.418,11.855 c 1.508,0 2.73,1.512 2.73,3.375 l 0,6.402 c 0,1.863 -1.223,3.371 -2.73,3.371 -1.508,0 -2.727,-1.508 -2.727,-3.371 l 0,-6.402 c 0,-1.863 1.219,-3.375 2.727,-3.375 z" />
      <path
         style="fill:#9d74c6;fill-opacity:1"
         id="path12"
         d="m 12.957,8.242 c 1.551,0 2.805,1.512 2.805,3.371 l 0,4.637 c 0,1.863 -1.254,3.375 -2.805,3.375 -1.551,0 -2.809,-1.512 -2.809,-3.375 l 0,-4.637 c 0,-1.859 1.258,-3.371 2.809,-3.371 z" />
      <path
         style="fill:#9d74c6;fill-opacity:1"
         id="path14"
         d="m 14.289,5.551 4.02,0 c 1.859,0 3.371,1.512 3.371,3.375 l 0,2.48 c 0,1.863 -1.512,3.371 -3.371,3.371 l -4.02,0 c -1.859,0 -3.371,-1.508 -3.371,-3.371 l 0,-2.48 c 0,-1.863 1.512,-3.375 3.371,-3.375 z" />
      <path
         style="fill:#9d74c6;fill-opacity:1"
         id="path16"
         d="m 15.879,11.09 c 1.082,0 1.961,1.461 1.961,3.266 0,1.805 -0.879,3.27 -1.961,3.27 -1.086,0 -1.961,-1.465 -1.961,-3.27 0,-1.805 0.875,-3.266 1.961,-3.266 z" />
      <path
         style="fill:#9d74c6;fill-opacity:1"
         id="path18"
         d="m 22.363,7.01 0.637,0 c 1.863,0 3.375,1.07 3.375,2.387 0,1.316 -1.512,2.383 -3.375,2.383 l -0.637,0 c -1.863,0 -3.371,-1.066 -3.371,-2.383 0,-1.316 1.508,-2.387 3.371,-2.387 z" />
    </g>
  </g>
</svg>
