<?xml version="1.0" encoding="UTF-8" standalone="no"?>
<svg
   xmlns:dc="http://purl.org/dc/elements/1.1/"
   xmlns:cc="http://creativecommons.org/ns#"
   xmlns:rdf="http://www.w3.org/1999/02/22-rdf-syntax-ns#"
   xmlns:svg="http://www.w3.org/2000/svg"
   xmlns="http://www.w3.org/2000/svg"
   viewBox="0 0 48 48"
   id="svg2"
   version="1.1">
  <metadata
     id="metadata14">
    <rdf:RDF>
      <cc:Work
         rdf:about="">
        <dc:format>image/svg+xml</dc:format>
        <dc:type
           rdf:resource="http://purl.org/dc/dcmitype/StillImage" />
        <dc:title></dc:title>
      </cc:Work>
    </rdf:RDF>
  </metadata>
  <defs
     id="defs12" />
  <g
     style="stroke:#b2a546;stroke-opacity:1"
     id="layer1">
    <path
       style="display:inline;fill:none;fill-opacity:1;fill-rule:evenodd;stroke:#b2a546;stroke-width:0.99939507;stroke-linecap:butt;stroke-linejoin:miter;stroke-miterlimit:4;stroke-dasharray:none;stroke-opacity:1"
       d="m 7.7228748,2.889958 c 9.6081412,-3.17819241 22.7894572,-3.17819241 32.4984792,0 2.296868,0.7518749 4.413016,2.7960636 5.13134,5.08502 2.809253,8.951742 2.876079,23.915426 0,32.205059 -0.786478,2.266852 -2.818699,4.382219 -5.13134,5.085 -9.709022,2.950479 -22.890338,2.993893 -32.4984792,0 -2.3075499,-0.719022 -4.3806221,-2.806273 -5.1313396,-5.085 -2.73098039,-8.289633 -2.80759188,-23.253318 0,-32.205059 0.717939,-2.2890738 2.8368542,-4.3260284 5.1313396,-5.08502 z"
       id="path4152" />
  </g>
  <g
     id="g4"
     transform="matrix(1.1729197,0,0,1.1729197,2.1353594,2.4263909)" />
  <path
     id="path4"
     style="fill:#b2a546"
     d="m 11.372859,8.4554176 c -0.604729,0 -1.088513,0.468144 -1.088513,1.053064 l 0,29.5910884 c 0,0.583877 0.483784,1.053064 1.088513,1.053064 l 6.159901,0 c 0.6089,0 1.092684,-0.468144 1.092684,-1.053064 l 0,-29.5910884 c 0,-0.583877 -0.484826,-1.053064 -1.092684,-1.053064 l -6.159901,0 m 0.579707,1.6682204 5.004658,0 0,13.345757 -5.004658,0 0,-13.345757 z m 2.502329,20.018635 a 2.0852745,2.0852745 0 0 1 2.085275,2.085275 2.0852745,2.0852745 0 0 1 -2.085275,2.085274 2.0852745,2.0852745 0 0 1 -2.085274,-2.085274 2.0852745,2.0852745 0 0 1 2.085274,-2.085275 z" />
  <path
     id="path6"
     style="fill:#b2a546"
     d="m 21.309192,8.4554176 c -0.560938,0 -1.011358,0.468144 -1.011358,1.053064 l 0,29.5910884 c 0,0.583877 0.45042,1.053064 1.011358,1.053064 l 3.811882,0 c 0.56511,0 1.014486,-0.468144 1.014486,-1.053064 l 0,-29.5910884 c 0,-0.583877 -0.449376,-1.053064 -1.014486,-1.053064 m -3.159191,1.6682204 2.50233,0 0,13.345757 -2.50233,0 z m 1.251165,20.43569 c 0.921691,0 1.66822,0.746529 1.66822,1.66822 0,0.921691 -0.746529,1.66822 -1.66822,1.66822 -0.921691,0 -1.66822,-0.746529 -1.66822,-1.66822 0,-0.921691 0.746529,-1.66822 1.66822,-1.66822 z" />
  <path
     id="path8"
     style="fill:#b2a546"
     d="m 28.690022,9.6231716 c -0.619327,0.165779 -0.994676,0.7475714 -0.843494,1.3095524 l 7.659213,28.463998 c 0.151183,0.561981 0.768424,0.879986 1.387751,0.714206 l 4.212254,-1.12292 c 0.623497,-0.166822 0.998847,-0.749656 0.847664,-1.311638 L 34.294197,9.2123726 c -0.151183,-0.561981 -0.768424,-0.879986 -1.392964,-0.713164 m -3.282222,2.5951244 3.222792,-0.859133 3.454257,12.835907 -3.222791,0.859134 z m 6.792782,18.819603 c 1.112494,-0.297152 2.256267,0.360752 2.554461,1.468033 0.298195,1.107281 -0.361795,2.245841 -1.474289,2.542992 -1.112494,0.297152 -2.256267,-0.360752 -2.554461,-1.468033 -0.298194,-1.107281 0.361795,-2.245841 1.474289,-2.542992 z" />
</svg>
