<?xml version="1.0" encoding="UTF-8" standalone="no"?>
<svg
   xmlns:dc="http://purl.org/dc/elements/1.1/"
   xmlns:cc="http://creativecommons.org/ns#"
   xmlns:rdf="http://www.w3.org/1999/02/22-rdf-syntax-ns#"
   xmlns:svg="http://www.w3.org/2000/svg"
   xmlns="http://www.w3.org/2000/svg"
   viewBox="0 0 48 48"
   id="svg2"
   version="1.1">
  <metadata
     id="metadata14">
    <rdf:RDF>
      <cc:Work
         rdf:about="">
        <dc:format>image/svg+xml</dc:format>
        <dc:type
           rdf:resource="http://purl.org/dc/dcmitype/StillImage" />
        <dc:title></dc:title>
      </cc:Work>
    </rdf:RDF>
  </metadata>
  <defs
     id="defs12" />
  <g
     style="fill:none;fill-opacity:1;stroke:#c4394f;stroke-opacity:1"
     id="layer1">
    <path
       style="display:inline;fill:none;fill-opacity:1;fill-rule:evenodd;stroke:#c4394f;stroke-width:0.99939507;stroke-linecap:butt;stroke-linejoin:miter;stroke-miterlimit:4;stroke-dasharray:none;stroke-opacity:1"
       d="m 7.7228748,2.889958 c 9.6081412,-3.17819241 22.7894572,-3.17819241 32.4984792,0 2.296868,0.7518749 4.413016,2.7960636 5.13134,5.08502 2.809253,8.951742 2.876079,23.915426 0,32.205059 -0.786478,2.266852 -2.818699,4.382219 -5.13134,5.085 -9.709022,2.950479 -22.890338,2.993893 -32.4984792,0 -2.3075499,-0.719022 -4.3806221,-2.806273 -5.1313396,-5.085 -2.73098039,-8.289633 -2.80759188,-23.253318 0,-32.205059 0.717939,-2.2890738 2.8368542,-4.3260284 5.1313396,-5.08502 z"
       id="path4152" />
  </g>
  <path
     id="path4"
     style="fill:#c4394f;fill-opacity:1"
     d="m 19.8376,13.998519 c -2.146623,0 -3.024987,0.192747 -3.710603,0.393415 -1.067591,0.313324 -2.158065,0.873083 -2.841921,1.750567 -4.0036857,5.139045 -6.6053329,17.307642 -5.8845112,18.632229 0.7208219,1.334269 7.2082172,-1.323706 10.6054972,-6.439868 0.257876,-0.381974 0.732263,-1.139761 0.732263,-1.139761 l 11.102767,0 c 0,0 0.474387,0.757787 0.732263,1.139761 3.39992,5.116162 9.887315,7.774137 10.605497,6.439868 0.720821,-1.328987 -1.880826,-13.497584 -5.884511,-18.632229 -0.683856,-0.877484 -1.77785,-1.438123 -2.841921,-1.750567 -0.685616,-0.200668 -1.56398,-0.393415 -3.710603,-0.393415 m 2.171266,3.390238 c 0.578242,0.022 1.074632,0.418059 1.225133,0.976938 0.190107,0.704979 -0.227952,1.430202 -0.933812,1.619428 -0.704979,0.188347 -1.429321,-0.230592 -1.616788,-0.936452 -0.188346,-0.704099 0.228832,-1.428441 0.933812,-1.616788 0.127618,-0.03432 0.259637,-0.04929 0.391655,-0.04401 z m -14.547573,0.130258 1.760249,0 0,2.640373 2.640372,0 0,1.759368 -2.640372,0 0,2.640373 -1.760249,0 0,-2.640373 -2.640372,0 0,-1.759368 2.640372,0 z M 34.15282,19.2555 c 0.579122,0.022 1.075512,0.41982 1.225133,0.979579 0.188347,0.704099 -0.228832,1.428441 -0.933812,1.616788 -0.704979,0.190107 -1.430201,-0.227952 -1.619428,-0.933812 -0.190107,-0.70586 0.229712,-1.431962 0.935572,-1.619429 0.127618,-0.03432 0.259637,-0.04929 0.391655,-0.04401 z m -5.10296,1.366833 c 0.579122,0.022 1.075512,0.41982 1.225133,0.979579 0.188347,0.704099 -0.228832,1.428441 -0.933812,1.616788 -0.704099,0.188346 -1.427561,-0.229713 -1.616788,-0.933812 -0.188346,-0.704099 0.228832,-1.428442 0.933812,-1.616788 0.127618,-0.03521 0.259637,-0.05105 0.391655,-0.04665 z m 3.101558,1.869384 c 0.627528,-0.03961 1.196969,0.369652 1.358912,0.976938 0.188346,0.704979 -0.230593,1.429322 -0.935572,1.616788 -0.7041,0.188347 -1.427562,-0.229712 -1.616789,-0.933812 -0.188346,-0.704099 0.228833,-1.428441 0.933812,-1.616788 0.08537,-0.02288 0.172505,-0.03785 0.260517,-0.04401 z" />
</svg>
