<?xml version="1.0" encoding="UTF-8" standalone="no"?>
<svg
   xmlns:dc="http://purl.org/dc/elements/1.1/"
   xmlns:cc="http://creativecommons.org/ns#"
   xmlns:rdf="http://www.w3.org/1999/02/22-rdf-syntax-ns#"
   xmlns:svg="http://www.w3.org/2000/svg"
   xmlns="http://www.w3.org/2000/svg"
   viewBox="0 0 48 48"
   id="svg2"
   version="1.1">
  <metadata
     id="metadata14">
    <rdf:RDF>
      <cc:Work
         rdf:about="">
        <dc:format>image/svg+xml</dc:format>
        <dc:type
           rdf:resource="http://purl.org/dc/dcmitype/StillImage" />
        <dc:title></dc:title>
      </cc:Work>
    </rdf:RDF>
  </metadata>
  <defs
     id="defs12" />
  <g
     style="stroke:#e784a4;stroke-opacity:1"
     id="layer1">
    <path
       style="display:inline;fill:none;fill-opacity:1;fill-rule:evenodd;stroke:#e784a4;stroke-width:0.99939507;stroke-linecap:butt;stroke-linejoin:miter;stroke-miterlimit:4;stroke-dasharray:none;stroke-opacity:1"
       d="m 7.7228748,2.889958 c 9.6081412,-3.17819241 22.7894572,-3.17819241 32.4984792,0 2.296868,0.7518749 4.413016,2.7960636 5.13134,5.08502 2.809253,8.951742 2.876079,23.915426 0,32.205059 -0.786478,2.266852 -2.818699,4.382219 -5.13134,5.085 -9.709022,2.950479 -22.890338,2.993893 -32.4984792,0 -2.3075499,-0.719022 -4.3806221,-2.806273 -5.1313396,-5.085 -2.73098039,-8.289633 -2.80759188,-23.253318 0,-32.205059 0.717939,-2.2890738 2.8368542,-4.3260284 5.1313396,-5.08502 z"
       id="path4152" />
  </g>
  <g
     id="g4"
     transform="matrix(1.1729197,0,0,1.1729197,2.1353594,2.4263909)" />
  <path
     id="path4"
     style="fill:#e784a4"
     d="m 22.296483,7.5263798 c -1.01828,0 -2.018861,0.1156331 -3.041861,0.355159 C 11.082424,9.817805 1.3668764,23.036565 13.829302,28.922058 19.697096,31.692535 19.277041,44.284752 27.449239,42.353206 35.621437,40.41694 40.401335,31.134428 38.139408,21.617109 36.161845,13.2868 29.423262,7.5358192 22.297663,7.5275597 m -2.521512,2.6277053 c 1.451315,0 2.631245,1.17521 2.631245,2.627705 0,1.447774 -1.17993,2.627705 -2.631245,2.627705 -1.451314,0 -2.631245,-1.179931 -2.631245,-2.627705 0,-1.451315 1.179931,-2.627705 2.631245,-2.627705 z m 7.894915,0.875508 c 1.451314,0 2.631245,1.175211 2.631245,2.627705 0,1.447775 -1.179931,2.622986 -2.631245,2.622986 -1.456034,0 -2.631245,-1.175211 -2.631245,-2.622986 0,-1.451314 1.175211,-2.627705 2.631245,-2.627705 z m -14.035273,4.378722 c 1.451315,0 2.631245,1.175211 2.631245,2.622985 0,1.451315 -1.17993,2.627705 -2.631245,2.627705 -1.451314,0 -2.631245,-1.17521 -2.631245,-2.627705 0,-1.447774 1.179931,-2.622985 2.631245,-2.622985 z m 19.294223,1.746297 c 1.456034,0 2.631244,1.17993 2.631244,2.627705 0,1.451314 -1.17521,2.627705 -2.631244,2.627705 -1.451315,0 -2.627705,-1.175211 -2.627705,-2.627705 0,-1.447775 1.17521,-2.627705 2.627705,-2.627705 z m -14.384532,6.922652 c 1.240107,-0.0236 2.512072,1.083176 2.986404,2.7103 0.539228,1.85721 -0.142772,3.696722 -1.53509,4.102618 -1.397037,0.405896 -2.968705,-0.769315 -3.507933,-2.627705 -0.543948,-1.852491 0.138052,-3.696722 1.53509,-4.102618 0.171089,-0.05074 0.340999,-0.07788 0.520349,-0.0826 z m 15.26594,0.959283 c 1.451314,0 2.631244,1.175211 2.631244,2.627705 0,1.451315 -1.17993,2.627705 -2.631244,2.627705 -1.456035,0 -2.631245,-1.17521 -2.631245,-2.627705 0,-1.451314 1.17521,-2.627705 2.631245,-2.627705 z m -3.507934,7.006427 c 1.451315,0 2.627706,1.175211 2.627706,2.622985 0,1.451315 -1.175211,2.627705 -2.627706,2.627705 -1.456034,0 -2.631244,-1.17521 -2.631244,-2.627705 0,-1.447774 1.17521,-2.622985 2.631244,-2.622985 z" />
</svg>
