<?xml version="1.0" encoding="UTF-8" standalone="no"?>
<svg
   xmlns:dc="http://purl.org/dc/elements/1.1/"
   xmlns:cc="http://creativecommons.org/ns#"
   xmlns:rdf="http://www.w3.org/1999/02/22-rdf-syntax-ns#"
   xmlns:svg="http://www.w3.org/2000/svg"
   xmlns="http://www.w3.org/2000/svg"
   viewBox="0 0 48 48"
   id="svg2"
   version="1.1">
  <metadata
     id="metadata14">
    <rdf:RDF>
      <cc:Work
         rdf:about="">
        <dc:format>image/svg+xml</dc:format>
        <dc:type
           rdf:resource="http://purl.org/dc/dcmitype/StillImage" />
        <dc:title></dc:title>
      </cc:Work>
    </rdf:RDF>
  </metadata>
  <defs
     id="defs12" />
  <g
     style="fill:none;fill-opacity:1;stroke:#5b93d7;stroke-opacity:1"
     id="layer1">
    <path
       style="display:inline;fill:none;fill-opacity:1;fill-rule:evenodd;stroke:#5b93d7;stroke-width:0.99939507;stroke-linecap:butt;stroke-linejoin:miter;stroke-miterlimit:4;stroke-dasharray:none;stroke-opacity:1"
       d="m 7.7228748,2.889958 c 9.6081412,-3.17819241 22.7894572,-3.17819241 32.4984792,0 2.296868,0.7518749 4.413016,2.7960636 5.13134,5.08502 2.809253,8.951742 2.876079,23.915426 0,32.205059 -0.786478,2.266852 -2.818699,4.382219 -5.13134,5.085 -9.709022,2.950479 -22.890338,2.993893 -32.4984792,0 -2.3075499,-0.719022 -4.3806221,-2.806273 -5.1313396,-5.085 -2.73098039,-8.289633 -2.80759188,-23.253318 0,-32.205059 0.717939,-2.2890738 2.8368542,-4.3260284 5.1313396,-5.08502 z"
       id="path4152" />
  </g>
  <g
     id="g4"
     transform="matrix(1.25,0,0,1.25,0.59294879,0.416936)">
    <path
       id="path6"
       style="color:#000000;white-space:normal;display:inline;visibility:visible;opacity:1;isolation:auto;mix-blend-mode:normal;color-interpolation:sRGB;color-interpolation-filters:linearRGB;solid-color:#000000;solid-opacity:1;fill:#5b93d7;fill-opacity:1;fill-rule:evenodd;stroke:none;color-rendering:auto;image-rendering:auto;shape-rendering:auto"
       white-space="normal"
       isolation="auto"
       mix-blend-mode="normal"
       transform="scale(0.8,0.8)"
       d="M 16.25,5.416 C 15.178,5.429 14.484,5.5 14.484,5.5 l -0.172,0.02 -0.145,0.096 c -0.294,0.196 -0.448,0.635 -0.416,0.908 0.032,0.273 0.132,0.443 0.223,0.588 0.088,0.14 0.115,0.153 0.189,0.238 l 0.154,4.262 -4.199,16.486 c -0.78,2.582 -0.965,4.199 -0.936,5.219 0.015,0.512 0.085,0.876 0.166,1.133 0.081,0.257 0.23,0.475 0.23,0.475 l 0.053,0.068 0.068,0.055 c 2.619,2.028 5.675,2.305 8.371,2.1 -0.015,-0.416 0.002,-0.874 0.105,-1.43 -2.497,0.204 -5.217,-0.017 -7.496,-1.721 -0.035,-0.117 -0.085,-0.33 -0.096,-0.719 -0.023,-0.809 0.128,-2.298 0.887,-4.803 l 0.004,-0.016 4.25,-16.697 -0.172,-4.836 c 0.546,-0.041 1.825,-0.035 3.594,0.113 l -0.453,4.617 3.045,14.08 0.902,-2.471 -2.531,-11.693 0.434,-4.398 C 20.642,7.017 20.861,6.9 20.881,6.766 20.927,6.446 20.85,6.19 20.85,6.19 L 20.731,5.751 20.282,5.681 C 18.771,5.448 17.321,5.402 16.252,5.415" />
    <path
       id="path8"
       style="fill:#adc3e2;fill-rule:evenodd"
       transform="scale(0.8,0.8)"
       d="m 11.986,28.5 -0.004,0.023 c -0.005,0.02 -0.01,0.034 -0.01,0.049 -0.752,2.48 -0.895,3.937 -0.875,4.693 0.01,0.278 0.034,0.439 0.059,0.547 2.16,1.539 4.72,1.704 7.113,1.484 0.189,-0.808 0.514,-1.755 1.037,-2.883 l 1.418,-3.891 c -3.855,1.74 -6.771,1.088 -8.738,-0.023 z" />
  </g>
  <path
     id="path10"
     style="color:#000000;white-space:normal;display:inline;visibility:visible;opacity:1;isolation:auto;mix-blend-mode:normal;color-interpolation:sRGB;color-interpolation-filters:linearRGB;solid-color:#000000;solid-opacity:1;fill:#5b93d7;fill-opacity:1;fill-rule:evenodd;stroke:none;color-rendering:auto;image-rendering:auto;shape-rendering:auto"
     white-space="normal"
     isolation="auto"
     mix-blend-mode="normal"
     d="m 27.272508,8.021766 -0.34875,0.07625 -0.58875,1.3449997 0.44,0.2437503 c 0.0038,0.03 0.0075,0.06875 0.0075,0.06875 l 0,0.0225 0.13875,3.89875 0.025,0.08 c 0.04,0.14125 0.05625,0.13875 0.07375,0.15625 -0.0012,-0.0225 -0.13875,0.28375 -0.27875,0.5225 -0.14875,0.25375 -0.2875,0.47625 -0.2875,0.47625 l -0.04125,0.06375 -6.51125,17.85625 0.025,-0.05625 c -1.203749,2.5775 -1.402499,4.25125 -1.227499,5.35875 0.0875,0.55375 0.27,0.96125 0.45375,1.2325 0.17375,0.25625 0.3775,0.4025 0.4025,0.4225 5.426249,4.5425 12.298749,3.0875 15.468749,2.57875 3.6275,-0.58125 4.365,-4.0375 4.365,-4.0375 l 0.025,-0.125 -0.0225,-0.1275 c -1.25,-7.16 -5.815,-24.0325 -5.88125,-24.2775 l 0.435,-3.52 -0.0025,-0.06125 c -0.01625,-0.3225 0.115,-0.4275 0.115,-0.4275 l 0.24125,-0.2487503 -0.05125,-0.34375 c -0.0775,-0.5262497 -0.51875,-0.8912497 -0.8325,-1.0012497 -0.3125,-0.10875 -0.58375,-0.08375 -0.58625,-0.0825 l -0.0025,0 c -3.73125,-0.42 -5.55125,-0.0925 -5.55125,-0.0925 m 0.87375,1.3812497 c 0.28875,-0.0525 1.27,-0.295 4.63875,0.1075 l 0.0225,0.0025 c -0.14,0.2600003 -0.29125,0.3125003 -0.26875,0.7737503 l 0.005,-0.12 -0.46125,3.73 0.03625,0.13125 c 0,0 4.595,17.0525 5.8525,24.13125 -0.02875,0.165 -0.44625,2.385 -3.17125,2.8225 l -0.0025,0 c -3.26875,0.525 -9.50625,1.81875 -14.3775,-2.285 l -0.02875,-0.025 -0.03125,-0.0225 c 0,0 0.02375,0.0325 -0.04625,-0.07125 -0.07,-0.10375 -0.175,-0.3025 -0.2325,-0.66375 -0.11375,-0.72375 -0.01625,-2.13 1.11375,-4.54875 l 0.015,-0.02625 6.4725,-17.75125 c 0.035,-0.05625 0.13,-0.20375 0.27125,-0.44375 0.165,-0.28125 0.3325,-0.51625 0.4375,-0.90125 0.08,-0.29625 0.04125,-0.59375 -0.03625,-0.79125 -0.0125,-0.0325 -0.0225,-0.04625 -0.03625,-0.07375 l -0.13125,-3.63 0,0.04625 c 0,0 0,-0.18625 -0.03625,-0.3925003 z" />
  <path
     id="path12"
     style="fill:#adc3e2;fill-rule:evenodd"
     d="m 22.706258,31.245516 -0.815,2.23125 c -0.01,0.03375 -0.025,0.06875 -0.03875,0.1025 -1.10375,2.35875 -1.1675,3.6725 -1.07375,4.2625 0.04375,0.2875 0.1225,0.41 0.14625,0.44375 4.6,3.88125 10.42,2.65125 13.745,2.11875 2.01625,-0.3225 2.495,-1.7975 2.5975,-2.23625 -0.2875,-1.61125 -0.7525,-3.74 -1.28875,-6.065 -5.97625,1.48 -10.3375,0.5425 -13.27125,-0.86 z" />
</svg>
