<?xml version="1.0" encoding="UTF-8" standalone="no"?>
<svg
   xmlns:dc="http://purl.org/dc/elements/1.1/"
   xmlns:cc="http://creativecommons.org/ns#"
   xmlns:rdf="http://www.w3.org/1999/02/22-rdf-syntax-ns#"
   xmlns:svg="http://www.w3.org/2000/svg"
   xmlns="http://www.w3.org/2000/svg"
   viewBox="0 0 48 48"
   id="svg2"
   version="1.1">
  <metadata
     id="metadata14">
    <rdf:RDF>
      <cc:Work
         rdf:about="">
        <dc:format>image/svg+xml</dc:format>
        <dc:type
           rdf:resource="http://purl.org/dc/dcmitype/StillImage" />
        <dc:title></dc:title>
      </cc:Work>
    </rdf:RDF>
  </metadata>
  <defs
     id="defs12" />
  <g
     style="fill:none;fill-opacity:1;stroke:#ee9760;stroke-opacity:1"
     id="layer1">
    <path
       style="display:inline;fill:none;fill-opacity:1;fill-rule:evenodd;stroke:#ee9760;stroke-width:0.99939507;stroke-linecap:butt;stroke-linejoin:miter;stroke-miterlimit:4;stroke-dasharray:none;stroke-opacity:1"
       d="m 7.7228748,2.889958 c 9.6081412,-3.17819241 22.7894572,-3.17819241 32.4984792,0 2.296868,0.7518749 4.413016,2.7960636 5.13134,5.08502 2.809253,8.951742 2.876079,23.915426 0,32.205059 -0.786478,2.266852 -2.818699,4.382219 -5.13134,5.085 -9.709022,2.950479 -22.890338,2.993893 -32.4984792,0 -2.3075499,-0.719022 -4.3806221,-2.806273 -5.1313396,-5.085 -2.73098039,-8.289633 -2.80759188,-23.253318 0,-32.205059 0.717939,-2.2890738 2.8368542,-4.3260284 5.1313396,-5.08502 z"
       id="path4152" />
  </g>
  <path
     id="path4"
     style="fill:#ee9760;fill-opacity:1"
     d="m 10.29777,9.7476174 c -0.6308584,0 -1.1514697,0.5249856 -1.1514697,1.1549686 l 0,23.938494 c 0,0.629984 0.5214862,1.15497 1.1514697,1.15497 l 14.320748,0 c 0.630858,0 1.151469,-0.524986 1.151469,-1.15497 l 0,-23.938494 c 0,-0.629983 -0.521486,-1.1549686 -1.151469,-1.1549686 l -14.320748,0 z m 4.317137,8.1486596 c 0.72798,0 1.455961,0.277368 2.011572,0.832103 0.554735,0.554736 0.829478,1.284466 0.830353,2.011572 l 0.0035,0 c 0,-0.753355 0.300117,-1.478711 0.832103,-2.011572 1.110345,-1.110345 2.910173,-1.110345 4.021394,0 1.110345,1.110346 1.110345,2.911048 0,4.021394 l -4.855247,5.099366 -4.855247,-5.099366 c -1.110346,-1.110346 -1.110346,-2.910173 0,-4.021394 0.55561,-0.55561 1.283591,-0.832103 2.011572,-0.832103 z" />
  <path
     id="path6"
     style="fill:#ee9760;fill-opacity:1"
     d="m 27.06036,11.840999 c -0.607016,-0.166246 -1.245749,0.20562 -1.407619,0.814823 l -6.162025,23.121265 c -0.161871,0.608109 0.204525,1.251217 0.812634,1.413087 l 13.807136,3.719746 c 0.608109,0.166246 1.241374,-0.20562 1.403244,-0.819197 l 6.162025,-23.110328 c 0.161871,-0.612484 -0.204526,-1.251217 -0.812634,-1.417463 z m 5.107677,8.615242 1.795891,6.821539 -4.965494,5.010336 -1.795891,-6.821539 z" />
</svg>
