<?xml version="1.0" encoding="UTF-8" standalone="no"?>
<svg
   xmlns:dc="http://purl.org/dc/elements/1.1/"
   xmlns:cc="http://creativecommons.org/ns#"
   xmlns:rdf="http://www.w3.org/1999/02/22-rdf-syntax-ns#"
   xmlns:svg="http://www.w3.org/2000/svg"
   xmlns="http://www.w3.org/2000/svg"
   viewBox="0 0 48 48"
   id="svg2"
   version="1.1">
  <metadata
     id="metadata14">
    <rdf:RDF>
      <cc:Work
         rdf:about="">
        <dc:format>image/svg+xml</dc:format>
        <dc:type
           rdf:resource="http://purl.org/dc/dcmitype/StillImage" />
        <dc:title></dc:title>
      </cc:Work>
    </rdf:RDF>
  </metadata>
  <defs
     id="defs12" />
  <g
     style="fill:none;fill-opacity:1;stroke:#fc3c4a;stroke-opacity:1"
     id="layer1">
    <path
       style="display:inline;fill:none;fill-opacity:1;fill-rule:evenodd;stroke:#fc3c4a;stroke-width:0.99939507;stroke-linecap:butt;stroke-linejoin:miter;stroke-miterlimit:4;stroke-dasharray:none;stroke-opacity:1"
       d="m 7.7228748,2.889958 c 9.6081412,-3.17819241 22.7894572,-3.17819241 32.4984792,0 2.296868,0.7518749 4.413016,2.7960636 5.13134,5.08502 2.809253,8.951742 2.876079,23.915426 0,32.205059 -0.786478,2.266852 -2.818699,4.382219 -5.13134,5.085 -9.709022,2.950479 -22.890338,2.993893 -32.4984792,0 -2.3075499,-0.719022 -4.3806221,-2.806273 -5.1313396,-5.085 -2.73098039,-8.289633 -2.80759188,-23.253318 0,-32.205059 0.717939,-2.2890738 2.8368542,-4.3260284 5.1313396,-5.08502 z"
       id="path4152" />
  </g>
  <g
     id="g4"
     style="stroke:#fc3c4a;stroke-width:1.55499995;stroke-miterlimit:4;stroke-dasharray:none;fill:none;fill-opacity:1;stroke-opacity:1"
     transform="matrix(1.10406,0,0,1.1083849,2.9479017,2.8505984)">
    <path
       id="path6"
       style="fill:none;stroke-width:10.47700024;fill-opacity:1;stroke:#fc3c4a;stroke-opacity:1"
       d="m 65.11,39.13 133.05,0 c 12.553,0 22.711,10.158 22.711,22.711 l 0,132.32 c 0,12.526 -10.158,22.711 -22.711,22.711 l -133.05,0 c -12.526,0 -22.711,-10.184 -22.711,-22.711 l 0,-132.32 C 42.399,49.288 52.583,39.13 65.11,39.13 Z"
       transform="scale(0.14844,0.14844)" />
  </g>
  <g
     style="fill:#fc3c4a;fill-opacity:1"
     id="g8"
     transform="matrix(1.0752259,0,0,1.0752259,3.8762233,3.2659268)">
    <circle
       id="circle10"
       style="opacity:1;fill:#fc3c4a;fill-opacity:1;fill-rule:nonzero;stroke:none"
       cx="26.799999"
       cy="11.6"
       r="2.8" />
    <circle
       id="circle12"
       style="opacity:1;fill:#fc3c4a;fill-opacity:1;fill-rule:nonzero;stroke:none"
       cx="19.200001"
       cy="11.6"
       r="2.8" />
    <circle
       id="circle14"
       style="opacity:1;fill:#fc3c4a;fill-opacity:1;fill-rule:nonzero;stroke:none"
       cx="11.6"
       cy="11.6"
       r="2.8" />
  </g>
  <g
     style="fill:#fc3c4a;fill-opacity:1"
     id="g16"
     transform="matrix(1.0752259,0,0,1.0752259,3.8762228,19.609361)">
    <circle
       id="circle18"
       style="opacity:1;fill:#fc3c4a;fill-opacity:1;fill-rule:nonzero;stroke:none"
       cx="26.799999"
       cy="11.6"
       r="2.8" />
    <circle
       id="circle20"
       style="opacity:1;fill:#fc3c4a;fill-opacity:1;fill-rule:nonzero;stroke:none"
       cx="19.200001"
       cy="11.6"
       r="2.8" />
    <circle
       id="circle22"
       style="opacity:1;fill:#fc3c4a;fill-opacity:1;fill-rule:nonzero;stroke:none"
       cx="11.6"
       cy="11.6"
       r="2.8" />
  </g>
</svg>
