<?xml version="1.0" encoding="UTF-8" standalone="no"?>
<svg
   xmlns:dc="http://purl.org/dc/elements/1.1/"
   xmlns:cc="http://creativecommons.org/ns#"
   xmlns:rdf="http://www.w3.org/1999/02/22-rdf-syntax-ns#"
   xmlns:svg="http://www.w3.org/2000/svg"
   xmlns="http://www.w3.org/2000/svg"
   viewBox="0 0 48 48"
   id="svg2"
   version="1.1">
  <metadata
     id="metadata14">
    <rdf:RDF>
      <cc:Work
         rdf:about="">
        <dc:format>image/svg+xml</dc:format>
        <dc:type
           rdf:resource="http://purl.org/dc/dcmitype/StillImage" />
        <dc:title></dc:title>
      </cc:Work>
    </rdf:RDF>
  </metadata>
  <defs
     id="defs12" />
  <g
     style="fill:none;fill-opacity:1;stroke:#a57855;stroke-opacity:1"
     id="layer1">
    <path
       style="display:inline;fill:none;fill-opacity:1;fill-rule:evenodd;stroke:#a57855;stroke-width:0.99939507;stroke-linecap:butt;stroke-linejoin:miter;stroke-miterlimit:4;stroke-dasharray:none;stroke-opacity:1"
       d="m 7.7228748,2.889958 c 9.6081412,-3.17819241 22.7894572,-3.17819241 32.4984792,0 2.296868,0.7518749 4.413016,2.7960636 5.13134,5.08502 2.809253,8.951742 2.876079,23.915426 0,32.205059 -0.786478,2.266852 -2.818699,4.382219 -5.13134,5.085 -9.709022,2.950479 -22.890338,2.993893 -32.4984792,0 -2.3075499,-0.719022 -4.3806221,-2.806273 -5.1313396,-5.085 -2.73098039,-8.289633 -2.80759188,-23.253318 0,-32.205059 0.717939,-2.2890738 2.8368542,-4.3260284 5.1313396,-5.08502 z"
       id="path4152" />
  </g>
  <g
     id="g4"
     style="fill:#a57855;fill-rule:evenodd;stroke:#a57855;stroke-width:0.78100002;stroke-linejoin:round;stroke-miterlimit:4;stroke-dasharray:none"
     transform="matrix(1.077388,0,0,1.0776248,3.5465043,4.3034313)">
    <path
       id="path6"
       style="stroke-width:5.2579999"
       d="m 30.711,148.18 c 38.29,-0.526 53.789,-5.237 65.55,-8.868 11.763,-3.658 29.21,-11.5 29.21,-11.5 l 44,89.84 -138.76,0 z"
       transform="scale(0.14844,0.14844)" />
    <path
       id="path8"
       style="stroke-width:5.2579999"
       d="m 157.29,182.08 c 0,0 -19.763,10.974 -25.447,13.737 -7.868,3.816 -21.421,14.11 -45.16,21.474 l -55.632,0 0,-43.895 c 32.13,-1 55.29,-2 69.68,-8.03 14.368,-6.03 41.474,-20.08 41.474,-20.08 z"
       transform="scale(0.14844,0.14844)" />
    <path
       id="path10"
       style="stroke-width:5.2579999"
       d="m 132.53,142.18 c 20.842,-20.895 14.789,-27.16 35.947,-28.974 21.16,-1.816 56.816,14.08 56.816,14.08 l 0,90.32 -55.816,0 z"
       transform="scale(0.14844,0.14844)" />
    <path
       id="path12"
       style="stroke-width:5.2579999"
       d="m 224.61,184.11 c 0,0 -4.974,-2.632 -11.447,-5.368 -6.368,-2.658 -11.5,-3.974 -23.08,-0.658 -7.842,2.237 -14.368,7.211 -27.737,17.263 l -17.11,-43.03 c 13.289,-11.974 23.763,-20.421 37.13,-21.421 13.395,-1 24.421,1.342 31.13,4.684 6.684,3.342 10.447,5.684 10.447,5.684 z"
       transform="scale(0.14844,0.14844)" />
  </g>
  <g
     id="g14"
     style="stroke:#a57855;stroke-width:1.58299994;stroke-miterlimit:4;stroke-dasharray:none"
     transform="matrix(1.0626378,0,0,1.06263,3.8267635,3.7915994)">
    <path
       id="path16"
       style="fill:none;stroke-width:10.66399956;stroke-linecap:round"
       d="m 34.395,32.03 187.21,0 c 1.316,0 2.368,1.053 2.368,2.368 l 0,187.21 c 0,1.316 -1.053,2.368 -2.368,2.368 l -187.21,0 c -1.316,0 -2.368,-1.053 -2.368,-2.368 l 0,-187.21 c 0,-1.316 1.053,-2.368 2.368,-2.368 z"
       transform="scale(0.14844,0.14844)" />
  </g>
</svg>
