<?xml version="1.0" encoding="UTF-8" standalone="no"?>
<svg
   xmlns:dc="http://purl.org/dc/elements/1.1/"
   xmlns:cc="http://creativecommons.org/ns#"
   xmlns:rdf="http://www.w3.org/1999/02/22-rdf-syntax-ns#"
   xmlns:svg="http://www.w3.org/2000/svg"
   xmlns="http://www.w3.org/2000/svg"
   viewBox="0 0 48 48"
   id="svg2"
   version="1.1">
  <metadata
     id="metadata14">
    <rdf:RDF>
      <cc:Work
         rdf:about="">
        <dc:format>image/svg+xml</dc:format>
        <dc:type
           rdf:resource="http://purl.org/dc/dcmitype/StillImage" />
        <dc:title></dc:title>
      </cc:Work>
    </rdf:RDF>
  </metadata>
  <defs
     id="defs12" />
  <g
     style="stroke:#ec86ab;stroke-opacity:1"
     id="layer1">
    <path
       style="display:inline;fill:none;fill-opacity:1;fill-rule:evenodd;stroke:#ec86ab;stroke-width:0.99939507;stroke-linecap:butt;stroke-linejoin:miter;stroke-miterlimit:4;stroke-dasharray:none;stroke-opacity:1"
       d="m 7.7228748,2.889958 c 9.6081412,-3.17819241 22.7894572,-3.17819241 32.4984792,0 2.296868,0.7518749 4.413016,2.7960636 5.13134,5.08502 2.809253,8.951742 2.876079,23.915426 0,32.205059 -0.786478,2.266852 -2.818699,4.382219 -5.13134,5.085 -9.709022,2.950479 -22.890338,2.993893 -32.4984792,0 -2.3075499,-0.719022 -4.3806221,-2.806273 -5.1313396,-5.085 -2.73098039,-8.289633 -2.80759188,-23.253318 0,-32.205059 0.717939,-2.2890738 2.8368542,-4.3260284 5.1313396,-5.08502 z"
       id="path4152" />
  </g>
  <g
     id="g4"
     transform="matrix(1.1729197,0,0,1.1729197,2.1353594,2.4263909)" />
  <path
     id="path4"
     style="fill:#ec86ab"
     d="m 11.361285,8.2542372 0,21.2533448 1.700267,0 0,-21.2533448" />
  <path
     id="path6"
     style="fill:#ec86ab"
     d="m 14.76182,30.359841 c 0,1.404846 -1.14343,2.548276 -2.552527,2.548276 -1.404846,0 -2.548276,-1.14343 -2.548276,-2.548276 0,-1.409097 1.14343,-2.552527 2.548276,-2.552527 1.409097,0 2.552527,1.14343 2.552527,2.552527" />
  <path
     id="path8"
     style="fill:#ec86ab"
     d="m 21.56289,40.559321 0,-26.354148 -1.700267,0 0,26.354148 z" />
  <path
     id="path10"
     style="fill:#ec86ab"
     d="m 18.162355,13.357165 c 0,-1.409097 1.14343,-2.552527 2.548276,-2.552527 1.409097,0 2.552527,1.14343 2.552527,2.552527 0,1.404846 -1.14343,2.548276 -2.552527,2.548276 -1.404846,0 -2.548276,-1.14343 -2.548276,-2.548276" />
  <path
     id="path12"
     style="fill:#ec86ab"
     d="m 28.363961,8.2542372 0,19.5530768 1.700267,0 0,-19.5530768 z" />
  <path
     id="path14"
     style="fill:#ec86ab"
     d="m 31.764496,28.657448 c 0,1.409096 -1.14343,2.552526 -2.548276,2.552526 -1.409097,0 -2.552527,-1.14343 -2.552527,-2.552526 0,-1.404846 1.14343,-2.548276 2.552527,-2.548276 1.404846,0 2.548276,1.14343 2.548276,2.548276" />
  <path
     id="path16"
     style="fill:#ec86ab"
     d="m 38.565566,40.559321 0,-14.027208 -1.700267,0 0,14.027208 z" />
  <path
     id="path18"
     style="fill:#ec86ab"
     d="m 35.165031,25.254787 c 0,-1.409097 1.14343,-2.548276 2.552527,-2.548276 1.404846,0 2.548276,1.139179 2.548276,2.548276 0,1.409097 -1.14343,2.552527 -2.548276,2.552527 -1.409097,0 -2.552527,-1.14343 -2.552527,-2.552527" />
</svg>
