<?xml version="1.0" encoding="UTF-8" standalone="no"?>
<svg
   xmlns:dc="http://purl.org/dc/elements/1.1/"
   xmlns:cc="http://creativecommons.org/ns#"
   xmlns:rdf="http://www.w3.org/1999/02/22-rdf-syntax-ns#"
   xmlns:svg="http://www.w3.org/2000/svg"
   xmlns="http://www.w3.org/2000/svg"
   viewBox="0 0 48 48"
   id="svg2"
   version="1.1">
  <metadata
     id="metadata14">
    <rdf:RDF>
      <cc:Work
         rdf:about="">
        <dc:format>image/svg+xml</dc:format>
        <dc:type
           rdf:resource="http://purl.org/dc/dcmitype/StillImage" />
        <dc:title></dc:title>
      </cc:Work>
    </rdf:RDF>
  </metadata>
  <defs
     id="defs12" />
  <g
     style="fill:none;fill-opacity:1;stroke:#4471c5;stroke-opacity:1"
     id="layer1">
    <path
       style="display:inline;fill:none;fill-opacity:1;fill-rule:evenodd;stroke:#4471c5;stroke-width:0.99939507;stroke-linecap:butt;stroke-linejoin:miter;stroke-miterlimit:4;stroke-dasharray:none;stroke-opacity:1"
       d="m 7.7228748,2.889958 c 9.6081412,-3.17819241 22.7894572,-3.17819241 32.4984792,0 2.296868,0.7518749 4.413016,2.7960636 5.13134,5.08502 2.809253,8.951742 2.876079,23.915426 0,32.205059 -0.786478,2.266852 -2.818699,4.382219 -5.13134,5.085 -9.709022,2.950479 -22.890338,2.993893 -32.4984792,0 -2.3075499,-0.719022 -4.3806221,-2.806273 -5.1313396,-5.085 -2.73098039,-8.289633 -2.80759188,-23.253318 0,-32.205059 0.717939,-2.2890738 2.8368542,-4.3260284 5.1313396,-5.08502 z"
       id="path4152" />
  </g>
  <g
     id="g4"
     style="fill:#4471c5;fill-opacity:1"
     transform="matrix(1.0718823,0,0,1.0718823,3.7043994,3.43031)">
    <path
       style="fill:#4471c5;fill-opacity:1"
       id="path6"
       d="m 28.605,4.156 c -6.227,0 -7.395,8.797 -3.891,8.797 3.5,0 10.113,-8.797 3.891,-8.797 z" />
    <path
       style="fill:#4471c5;fill-opacity:1"
       id="path8"
       d="m 18.27,11.863 c 1.863,0.113 3.91,-7.06 0.406,-6.609 -3.504,0.453 -2.273,6.496 -0.406,6.609 z" />
    <path
       style="fill:#4471c5;fill-opacity:1"
       id="path10"
       d="m 9.723,16.32 c 1.328,-0.578 0.172,-6.246 -2.082,-4.699 -2.254,1.543 0.758,5.277 2.082,4.699 z" />
    <path
       style="fill:#4471c5;fill-opacity:1"
       id="path12"
       d="m 13.461,13.355 c 1.578,-0.32 1.664,-6.746 -1.148,-5.594 -2.816,1.156 -0.43,5.914 1.148,5.594 z" />
    <path
       style="fill:#4471c5;fill-opacity:1"
       id="path14"
       d="m 21.703,27.73 c 0.281,2.125 -1.57,3.172 -3.379,1.805 -5.766,-4.355 9.547,-6.527 8.535,-12.48 -0.836,-4.938 -16.11,-3.418 -17.848,4.313 -1.18,5.227 4.844,12.477 11.129,12.477 3.094,0 6.66,-2.77 7.324,-6.277 0.512,-2.676 -5.996,-1.605 -5.762,0.164 z" />
  </g>
</svg>
