<?xml version="1.0" encoding="UTF-8" standalone="no"?>
<svg
   xmlns:dc="http://purl.org/dc/elements/1.1/"
   xmlns:cc="http://creativecommons.org/ns#"
   xmlns:rdf="http://www.w3.org/1999/02/22-rdf-syntax-ns#"
   xmlns:svg="http://www.w3.org/2000/svg"
   xmlns="http://www.w3.org/2000/svg"
   viewBox="0 0 48 48"
   id="svg2"
   version="1.1">
  <metadata
     id="metadata14">
    <rdf:RDF>
      <cc:Work
         rdf:about="">
        <dc:format>image/svg+xml</dc:format>
        <dc:type
           rdf:resource="http://purl.org/dc/dcmitype/StillImage" />
        <dc:title></dc:title>
      </cc:Work>
    </rdf:RDF>
  </metadata>
  <defs
     id="defs12" />
  <g
     style="stroke:#c65a4a;stroke-opacity:1"
     id="layer1">
    <path
       style="display:inline;fill:none;fill-opacity:1;fill-rule:evenodd;stroke:#c65a4a;stroke-width:0.99939507;stroke-linecap:butt;stroke-linejoin:miter;stroke-miterlimit:4;stroke-dasharray:none;stroke-opacity:1"
       d="m 7.7228748,2.889958 c 9.6081412,-3.17819241 22.7894572,-3.17819241 32.4984792,0 2.296868,0.7518749 4.413016,2.7960636 5.13134,5.08502 2.809253,8.951742 2.876079,23.915426 0,32.205059 -0.786478,2.266852 -2.818699,4.382219 -5.13134,5.085 -9.709022,2.950479 -22.890338,2.993893 -32.4984792,0 -2.3075499,-0.719022 -4.3806221,-2.806273 -5.1313396,-5.085 -2.73098039,-8.289633 -2.80759188,-23.253318 0,-32.205059 0.717939,-2.2890738 2.8368542,-4.3260284 5.1313396,-5.08502 z"
       id="path4152" />
  </g>
  <g
     id="g4"
     transform="matrix(1.1729197,0,0,1.1729197,2.1353594,2.4263909)" />
  <path
     id="path4"
     style="fill:#c65a4a"
     d="m 27.90678,24.406779 c 0,1.93125 -1.5725,3.49625 -3.5025,3.49625 -1.93,0 -3.4975,-1.56625 -3.4975,-3.49625 0,-1.93125 1.56625,-3.50375 3.4975,-3.50375 1.93,0 3.5025,1.5725 3.5025,3.50375" />
  <circle
     id="circle6"
     style="opacity:1;fill:none;fill-opacity:1;fill-rule:nonzero;stroke:#c65a4a;stroke-width:3;stroke-linecap:butt;stroke-linejoin:miter;stroke-miterlimit:4;stroke-dasharray:none;stroke-dashoffset:0;stroke-opacity:1"
     r="15.5"
     cy="24.40678"
     cx="24.406782" />
  <g
     id="g8"
     transform="matrix(1.5,0,0,1.4615385,0.40678019,1.0221637)">
    <rect
       id="rect10"
       style="opacity:1;fill:#c65a4a;fill-opacity:1;fill-rule:nonzero;stroke:none"
       width="4"
       height="3"
       x="14"
       y="3"
       rx="0.5" />
    <rect
       id="rect12"
       style="opacity:1;fill:#c65a4a;fill-opacity:1;fill-rule:nonzero;stroke:none"
       width="4"
       height="3"
       x="14"
       y="26"
       rx="0.5" />
  </g>
  <g
     id="g14"
     transform="matrix(0,1.5,-1.4615385,0,47.791395,0.40677975)">
    <rect
       id="rect16"
       style="opacity:1;fill:#c65a4a;fill-opacity:1;fill-rule:nonzero;stroke:none"
       width="4"
       height="3"
       x="14"
       y="3"
       rx="0.5" />
    <rect
       id="rect18"
       style="opacity:1;fill:#c65a4a;fill-opacity:1;fill-rule:nonzero;stroke:none"
       width="4"
       height="3"
       x="14"
       y="26"
       rx="0.5" />
  </g>
  <g
     id="g20"
     transform="matrix(1.0606602,1.0606602,-1.0334638,1.0334638,23.971638,-9.0992039)">
    <rect
       id="rect22"
       style="opacity:1;fill:#c65a4a;fill-opacity:1;fill-rule:nonzero;stroke:none"
       width="4"
       height="3"
       x="14"
       y="3"
       rx="0.5" />
    <rect
       id="rect24"
       style="opacity:1;fill:#c65a4a;fill-opacity:1;fill-rule:nonzero;stroke:none"
       width="4"
       height="3"
       x="14"
       y="26"
       rx="0.5" />
  </g>
  <g
     id="g26"
     transform="matrix(1.0606602,-1.0606602,1.0334638,1.0334638,-9.0992038,24.841922)">
    <rect
       id="rect28"
       style="opacity:1;fill:#c65a4a;fill-opacity:1;fill-rule:nonzero;stroke:none"
       width="4"
       height="3"
       x="14"
       y="3"
       rx="0.5" />
    <rect
       id="rect30"
       style="opacity:1;fill:#c65a4a;fill-opacity:1;fill-rule:nonzero;stroke:none"
       width="4"
       height="3"
       x="14"
       y="26"
       rx="0.5" />
  </g>
</svg>
