<?xml version="1.0" encoding="UTF-8" standalone="no"?>
<svg
   xmlns:dc="http://purl.org/dc/elements/1.1/"
   xmlns:cc="http://creativecommons.org/ns#"
   xmlns:rdf="http://www.w3.org/1999/02/22-rdf-syntax-ns#"
   xmlns:svg="http://www.w3.org/2000/svg"
   xmlns="http://www.w3.org/2000/svg"
   version="1.1"
   id="svg2"
   viewBox="0 0 48 48">
  <metadata
     id="metadata14">
    <rdf:RDF>
      <cc:Work
         rdf:about="">
        <dc:format>image/svg+xml</dc:format>
        <dc:type
           rdf:resource="http://purl.org/dc/dcmitype/StillImage" />
        <dc:title></dc:title>
      </cc:Work>
    </rdf:RDF>
  </metadata>
  <defs
     id="defs12" />
  <g
     id="layer1"
     style="stroke:#555555;stroke-opacity:1">
    <path
       id="path4152"
       d="m 7.7228748,2.889958 c 9.6081412,-3.17819241 22.7894572,-3.17819241 32.4984792,0 2.296868,0.7518749 4.413016,2.7960636 5.13134,5.08502 2.809253,8.951742 2.876079,23.915426 0,32.205059 -0.786478,2.266852 -2.818699,4.382219 -5.13134,5.085 -9.709022,2.950479 -22.890338,2.993893 -32.4984792,0 -2.3075499,-0.719022 -4.3806221,-2.806273 -5.1313396,-5.085 -2.73098039,-8.289633 -2.80759188,-23.253318 0,-32.205059 0.717939,-2.2890738 2.8368542,-4.3260284 5.1313396,-5.08502 z"
       style="display:inline;fill:none;fill-opacity:1;fill-rule:evenodd;stroke:#555555;stroke-width:0.99939507;stroke-linecap:butt;stroke-linejoin:miter;stroke-miterlimit:4;stroke-dasharray:none;stroke-opacity:1" />
  </g>
  <g
     transform="matrix(1.1729197,0,0,1.1729197,2.1353594,2.4263909)"
     id="g4" />
  <path
     id="path4"
     style="fill:#555555"
     d="m 28.641836,19.261184 2.971187,0 c 4.45732,0 4.36525,4.550476 4.36525,4.550476 l 0,3.899479 c 0,1.485052 -2.59857,4.550475 -2.59857,4.550475 l 0,1.94974 5.850302,3.248483 0,2.600735 -18.197568,0 0,-2.600735 5.850301,-3.248483 0,-1.94974 c 0,0 -2.608318,-3.065423 -2.59857,-4.550475 l 0,-3.899479 c 0,0 -0.09532,-4.550476 4.365251,-4.550476 z" />
  <path
     id="path6"
     style="fill:#555555"
     d="m 15.643573,7.9960228 c -4.456671,0 -4.358751,4.5493922 -4.358751,4.5493922 l 0,3.899479 c -0.0095,1.484402 2.599653,4.549392 2.599653,4.549392 l 0,1.949739 -5.8509512,3.249566 0,2.599653 15.1343102,0 C 23.056049,28.460489 22.98066,28.106936 22.983259,27.70139 l 0,-3.311957 -2.599653,-1.445408 0,-1.949739 c 0,0 2.599653,-3.06499 2.599653,-4.549392 l 0,-3.899479 c 0,0 0.09532,-4.5493922 -4.358751,-4.5493922 l -2.97227,0 z m 9.936739,17.8370842 0,1.876948 a 1.2998263,1.2998263 0 0 1 0,0.0086 c 0,-0.01213 0.06846,0.347487 0.269497,0.756499 0.04853,0.09965 0.116984,0.212305 0.17591,0.318024 l 0.202773,0 0,-2.599653 -0.64818,-0.360485 z" />
</svg>
