<?xml version="1.0" encoding="UTF-8" standalone="no"?>
<svg
   xmlns:dc="http://purl.org/dc/elements/1.1/"
   xmlns:cc="http://creativecommons.org/ns#"
   xmlns:rdf="http://www.w3.org/1999/02/22-rdf-syntax-ns#"
   xmlns:svg="http://www.w3.org/2000/svg"
   xmlns="http://www.w3.org/2000/svg"
   version="1.1"
   id="svg2"
   viewBox="0 0 48 48">
  <metadata
     id="metadata14">
    <rdf:RDF>
      <cc:Work
         rdf:about="">
        <dc:format>image/svg+xml</dc:format>
        <dc:type
           rdf:resource="http://purl.org/dc/dcmitype/StillImage" />
        <dc:title></dc:title>
      </cc:Work>
    </rdf:RDF>
  </metadata>
  <defs
     id="defs12" />
  <g
     id="layer1"
     style="stroke:#fd4651;stroke-opacity:1">
    <path
       id="path4152"
       d="m 7.7228748,2.889958 c 9.6081412,-3.17819241 22.7894572,-3.17819241 32.4984792,0 2.296868,0.7518749 4.413016,2.7960636 5.13134,5.08502 2.809253,8.951742 2.876079,23.915426 0,32.205059 -0.786478,2.266852 -2.818699,4.382219 -5.13134,5.085 -9.709022,2.950479 -22.890338,2.993893 -32.4984792,0 -2.3075499,-0.719022 -4.3806221,-2.806273 -5.1313396,-5.085 -2.73098039,-8.289633 -2.80759188,-23.253318 0,-32.205059 0.717939,-2.2890738 2.8368542,-4.3260284 5.1313396,-5.08502 z"
       style="display:inline;fill:none;fill-opacity:1;fill-rule:evenodd;stroke:#fd4651;stroke-width:0.99939507;stroke-linecap:butt;stroke-linejoin:miter;stroke-miterlimit:4;stroke-dasharray:none;stroke-opacity:1" />
  </g>
  <g
     transform="matrix(1.1729197,0,0,1.1729197,2.1353594,2.4263909)"
     id="g4" />
  <path
     id="path4"
     style="color:#000000;opacity:0.8;fill:#c0956e"
     d="m 14.203473,29.835687 c 0,0 0,0 0,0 l 0,9.11e-4 c 0,0 0,0 0,0 l 0,0 0,0 0,0 0,0 0,0 c 0,0 0,0 0,0 l 0,-9.11e-4 c 0,0 0,0 0,0 l -9.11e-4,0 0,0 z m 0,0 9.11e-4,0 0,0 -9.11e-4,0 0,0 z m 0,9.11e-4 0,0 9.11e-4,0 0,0 -9.11e-4,0 z" />
  <path
     id="path4-2"
     style="fill:#fd4651;fill-opacity:1"
     d="m 24.519045,13.142372 0.378533,0 c 0.340982,0 0.622091,0.20804 0.622091,0.468852 l 0,1.498904 c 0,0.256753 -0.281109,0.468853 -0.622091,0.468853 l -0.378533,0 c -0.340982,0 -0.622091,-0.2121 -0.622091,-0.468853 l 0,-1.498904 c 0,-0.260812 0.281109,-0.468852 0.622091,-0.468852" />
  <path
     id="path6"
     style="fill:#fd4651;fill-opacity:1"
     d="m 24.519045,33.520168 0.378533,0 c 0.340982,0 0.622091,0.211085 0.622091,0.467838 l 0,1.49992 c 0,0.255736 -0.281109,0.467836 -0.622091,0.467836 l -0.378533,0 c -0.340982,0 -0.622091,-0.211085 -0.622091,-0.467836 l 0,-1.49992 c 0,-0.255738 0.281109,-0.467838 0.622091,-0.467838" />
  <path
     id="path8"
     style="fill:#fd4651;fill-opacity:1"
     d="m 13.345762,24.696217 0,-0.374472 c 0,-0.341998 0.211085,-0.62412 0.471896,-0.62412 l 1.49586,0 c 0.255737,0 0.467837,0.282122 0.467837,0.62412 l 0,0.374472 c 0,0.347073 -0.211085,0.624121 -0.467837,0.624121 l -1.49586,0 c -0.259796,0 -0.471896,-0.277048 -0.471896,-0.624121" />
  <path
     id="path10"
     style="fill:#fd4651;fill-opacity:1"
     d="m 33.642372,24.696217 0,-0.374472 c 0,-0.341998 0.2121,-0.62412 0.468852,-0.62412 l 1.498904,0 c 0.260812,0 0.468852,0.282122 0.468852,0.62412 l 0,0.374472 c 0,0.347073 -0.20804,0.624121 -0.468852,0.624121 l -1.498904,0 c -0.256752,0 -0.468852,-0.277048 -0.468852,-0.624121" />
  <circle
     id="circle12"
     style="opacity:1;fill:none;fill-opacity:1;fill-rule:nonzero;stroke:#fd4651;stroke-width:3.24745774;stroke-linecap:butt;stroke-linejoin:miter;stroke-miterlimit:4;stroke-dasharray:none;stroke-dashoffset:0;stroke-opacity:1"
     r="14.61356"
     cy="24.508474"
     cx="24.711864" />
  <path
     id="path14"
     style="fill:#fd4651;fill-opacity:1;fill-rule:nonzero;stroke:none"
     d="m 19.023942,18.00544 c -0.184294,0 -0.369399,0.07145 -0.509039,0.211085 l -0.03004,0.03491 c -0.282529,0.279281 -0.282529,0.73555 0,1.014831 l 4.230625,4.230625 c 0.0016,0.0016 0.004,0.0024 0.0065,0.0049 a 2.2326271,2.2326271 0 0 1 1.065979,-1.022949 c -0.009,-0.0097 -0.01299,-0.02192 -0.02192,-0.03166 l -4.230625,-4.230625 c -0.141265,-0.139641 -0.32637,-0.211085 -0.510663,-0.211085 z" />
  <path
     id="path16"
     style="fill:#fd4651;fill-opacity:1;fill-rule:nonzero;stroke:none"
     d="m 33.796627,18.389452 c -0.09255,0.01136 -0.184294,0.04221 -0.271163,0.09174 l -7.422876,4.284209 a 2.2326271,2.2326271 0 0 1 0.811864,1.407773 l 7.421252,-4.284208 c 0.345855,-0.199719 0.462763,-0.641374 0.264668,-0.984792 l -0.09174,-0.159937 C 34.359248,18.48444 34.073472,18.35373 33.795003,18.38864 Z" />
  <path
     id="path18"
     style="fill:#fd4651;fill-opacity:1;fill-rule:nonzero;stroke:none"
     d="m 23.266745,26.21339 -4.144568,7.63802 c -0.09499,0.174551 -0.03491,0.399437 0.136393,0.504167 l 0.0479,0.03166 c 0.171304,0.101482 0.384012,0.04465 0.479,-0.129899 l 4.155934,-7.655881 a 2.2326271,2.2326271 0 0 1 -0.673847,-0.388884 z" />
  <path
     id="path20"
     style="fill:#fd4651;fill-opacity:1;fill-rule:nonzero;stroke:none"
     d="m 24.711864,22.072881 c -1.346071,0 -2.435594,1.089522 -2.435594,2.435594 0,1.34607 1.089523,2.435592 2.435594,2.435592 1.346071,0 2.435593,-1.089522 2.435593,-2.435592 0,-1.346072 -1.089522,-2.435594 -2.435593,-2.435594 z m 0,0.811864 c 0.89711,0 1.623729,0.726618 1.623729,1.62373 0,0.89711 -0.726619,1.623728 -1.623729,1.623728 -0.897111,0 -1.623729,-0.726618 -1.623729,-1.623728 0,-0.897112 0.726618,-1.62373 1.623729,-1.62373 z" />
</svg>
