<?xml version="1.0" encoding="UTF-8" standalone="no"?>
<svg
   xmlns:dc="http://purl.org/dc/elements/1.1/"
   xmlns:cc="http://creativecommons.org/ns#"
   xmlns:rdf="http://www.w3.org/1999/02/22-rdf-syntax-ns#"
   xmlns:svg="http://www.w3.org/2000/svg"
   xmlns="http://www.w3.org/2000/svg"
   version="1.1"
   id="svg2"
   viewBox="0 0 48 48">
  <metadata
     id="metadata14">
    <rdf:RDF>
      <cc:Work
         rdf:about="">
        <dc:format>image/svg+xml</dc:format>
        <dc:type
           rdf:resource="http://purl.org/dc/dcmitype/StillImage" />
        <dc:title></dc:title>
      </cc:Work>
    </rdf:RDF>
  </metadata>
  <defs
     id="defs12" />
  <g
     id="layer1"
     style="stroke:#555555;stroke-opacity:1">
    <path
       id="path4152"
       d="m 7.7228748,2.889958 c 9.6081412,-3.17819241 22.7894572,-3.17819241 32.4984792,0 2.296868,0.7518749 4.413016,2.7960636 5.13134,5.08502 2.809253,8.951742 2.876079,23.915426 0,32.205059 -0.786478,2.266852 -2.818699,4.382219 -5.13134,5.085 -9.709022,2.950479 -22.890338,2.993893 -32.4984792,0 -2.3075499,-0.719022 -4.3806221,-2.806273 -5.1313396,-5.085 -2.73098039,-8.289633 -2.80759188,-23.253318 0,-32.205059 0.717939,-2.2890738 2.8368542,-4.3260284 5.1313396,-5.08502 z"
       style="display:inline;fill:none;fill-opacity:1;fill-rule:evenodd;stroke:#555555;stroke-width:0.99939507;stroke-linecap:butt;stroke-linejoin:miter;stroke-miterlimit:4;stroke-dasharray:none;stroke-opacity:1" />
  </g>
  <g
     transform="matrix(1.1729197,0,0,1.1729197,2.1353594,2.4263909)"
     id="g4" />
  <path
     id="path4"
     style="fill:#555555"
     d="m 19.406779,9.4646395 c 0,-0.55875 -0.45,-1.01125 -1.005,-1.01125 -0.55,0 -0.995,0.4525 -0.995,1.01125 l 0,3.7387495 2,0 z" />
  <path
     id="path6"
     style="fill:#555555"
     d="m 17.406779,38.937139 c 0,0.55875 0.445,1.01625 0.995,1.01625 0.555,0 1.005,-0.4575 1.005,-1.01625 l 0,-3.73375 -2,0" />
  <path
     id="path8"
     style="fill:#555555"
     d="m 25.406779,9.4646395 c 0,-0.55875 -0.45125,-1.01125 -1.0025,-1.01125 -0.55125,0 -0.9975,0.4525 -0.9975,1.01125 l 0,3.7387495 2,0 z" />
  <path
     id="path10"
     style="fill:#555555"
     d="m 23.406779,38.937139 c 0,0.55875 0.44625,1.01625 0.9975,1.01625 0.55125,0 1.0025,-0.4575 1.0025,-1.01625 l 0,-3.73375 -2,0" />
  <path
     id="path12"
     style="fill:#555555"
     d="m 31.406779,9.4646395 c 0,-0.55875 -0.44625,-1.01125 -1.0025,-1.01125 -0.55125,0 -0.9975,0.4525 -0.9975,1.01125 l 0,3.7387495 2,0 z" />
  <path
     id="path14"
     style="fill:#555555"
     d="m 29.406779,38.937139 c 0,0.55875 0.44625,1.01625 1.0025,1.01625 0.55125,0 0.9975,-0.4575 0.9975,-1.01625 l 0,-3.73375 -2,0" />
  <path
     id="path16"
     style="fill:#555555"
     d="m 9.6692797,29.203389 c -0.56,0 -1.0125,0.4475 -1.0125,1 0,0.5525 0.4525,1 1.0125,1 l 3.7374993,0 0,-2 z" />
  <path
     id="path18"
     style="fill:#555555"
     d="m 39.139279,31.203389 c 0.565,0 1.0175,-0.4475 1.0175,-1 0,-0.5525 -0.4525,-1 -1.0175,-1 l -3.7325,0 0,2 z" />
  <path
     id="path20"
     style="fill:#555555"
     d="m 9.6692797,23.205889 c -0.56,0 -1.0125,0.44625 -1.0125,0.9975 0,0.55125 0.4525,1.0025 1.0125,1.0025 l 3.7374993,0 0,-2 z" />
  <path
     id="path22"
     style="fill:#555555"
     d="m 39.139279,25.203389 c 0.565,0 1.0175,-0.45125 1.0175,-1.0025 0,-0.55125 -0.4525,-0.9975 -1.0175,-0.9975 l -3.7325,0 0,2 z" />
  <path
     id="path24"
     style="fill:#555555"
     d="m 9.6692797,17.203389 c -0.56,0 -1.0125,0.44625 -1.0125,0.9975 0,0.55125 0.4525,1.0025 1.0125,1.0025 l 3.7374993,0 0,-2 z" />
  <path
     id="path26"
     style="fill:#555555"
     d="m 39.139279,19.203389 c 0.565,0 1.0175,-0.45125 1.0175,-1.0025 0,-0.55125 -0.4525,-0.9975 -1.0175,-0.9975 l -3.7325,0 0,2 z" />
  <path
     id="path28"
     style="fill:#555555"
     d="m 30.241779,32.203389 c 1.19125,0 2.165,-0.97 2.165,-2.1675 l 0,-11.66625 c 0,-1.1975 -0.97375,-2.1675 -2.165,-2.1675 l -11.67,0 c -1.19125,0 -2.165,0.97 -2.165,2.1675 l 0,11.66625 c 0,1.1975 0.97375,2.1675 2.165,2.1675" />
</svg>
