<?xml version="1.0" encoding="UTF-8" standalone="no"?>
<svg
   xmlns:dc="http://purl.org/dc/elements/1.1/"
   xmlns:cc="http://creativecommons.org/ns#"
   xmlns:rdf="http://www.w3.org/1999/02/22-rdf-syntax-ns#"
   xmlns:svg="http://www.w3.org/2000/svg"
   xmlns="http://www.w3.org/2000/svg"
   version="1.1"
   id="svg2"
   viewBox="0 0 48 48">
  <metadata
     id="metadata14">
    <rdf:RDF>
      <cc:Work
         rdf:about="">
        <dc:format>image/svg+xml</dc:format>
        <dc:type
           rdf:resource="http://purl.org/dc/dcmitype/StillImage" />
        <dc:title></dc:title>
      </cc:Work>
    </rdf:RDF>
  </metadata>
  <defs
     id="defs12" />
  <g
     id="layer1"
     style="stroke:#e78684;stroke-opacity:1">
    <path
       id="path4152"
       d="m 7.7228748,2.889958 c 9.6081412,-3.17819241 22.7894572,-3.17819241 32.4984792,0 2.296868,0.7518749 4.413016,2.7960636 5.13134,5.08502 2.809253,8.951742 2.876079,23.915426 0,32.205059 -0.786478,2.266852 -2.818699,4.382219 -5.13134,5.085 -9.709022,2.950479 -22.890338,2.993893 -32.4984792,0 -2.3075499,-0.719022 -4.3806221,-2.806273 -5.1313396,-5.085 -2.73098039,-8.289633 -2.80759188,-23.253318 0,-32.205059 0.717939,-2.2890738 2.8368542,-4.3260284 5.1313396,-5.08502 z"
       style="display:inline;fill:none;fill-opacity:1;fill-rule:evenodd;stroke:#e78684;stroke-width:0.99939507;stroke-linecap:butt;stroke-linejoin:miter;stroke-miterlimit:4;stroke-dasharray:none;stroke-opacity:1" />
  </g>
  <g
     transform="matrix(1.1729197,0,0,1.1729197,2.1353594,2.4263909)"
     id="g4" />
  <path
     id="path4"
     style="color:#000000;opacity:0.8;fill:#c0956e"
     d="m 14.203473,29.835687 c 0,0 0,0 0,0 l 0,9.11e-4 c 0,0 0,0 0,0 l 0,0 0,0 0,0 0,0 0,0 c 0,0 0,0 0,0 l 0,-9.11e-4 c 0,0 0,0 0,0 l -9.11e-4,0 0,0 z m 0,0 9.11e-4,0 0,0 -9.11e-4,0 0,0 z m 0,9.11e-4 0,0 9.11e-4,0 0,0 -9.11e-4,0 z" />
  <path
     id="path4-3"
     style="fill:#e78684;fill-opacity:1"
     d="m 24.200903,7.8280081 c -2.539883,0 -4.938867,0.5893856 -7.091966,1.6134431 l -0.152872,-0.05618 c -0.01934,0.05157 -0.03499,0.104984 -0.05433,0.156556 -5.48681,2.7038058 -9.2736124,8.3434888 -9.2736124,14.8635658 0,6.528366 3.7960104,12.16805 9.2920314,14.872777 0.02118,0.05065 0.0396,0.102221 0.06078,0.152872 l 0.134454,-0.05894 c 2.153099,1.024057 4.551161,1.613443 7.090124,1.613443 2.540804,0 4.939788,-0.590306 7.093808,-1.615285 l 0.136295,0.05894 c 0.0221,-0.05065 0.0396,-0.104064 0.06078,-0.154714 5.491416,-2.702885 9.282823,-8.343489 9.282823,-14.863567 0,-6.520999 -3.787723,-12.155156 -9.273613,-14.8635668 -0.01934,-0.05249 -0.035,-0.105905 -0.05433,-0.158397 l -0.156556,0.05802 C 29.140691,8.4219983 26.741708,7.8316918 24.200903,7.8316918 Z m -0.920915,1.8887961 0,6.3994378 1.84183,0 0,-6.3994378 c 1.734083,0.106827 3.3816,0.5193958 4.899268,1.1723248 0.689765,2.004832 1.240472,4.063077 1.634624,6.148028 l -1.930238,0 0,1.84183 2.237823,0 c 0.222862,1.533323 0.360078,3.072172 0.415333,4.604575 l -2.653156,0 0,1.841829 2.678021,0 c -0.01289,1.552663 -0.11051,3.092433 -0.305744,4.604575 l -2.372277,0 0,1.84183 2.088635,0 c -0.388626,2.129155 -0.97617,4.184638 -1.757106,6.133294 -1.527798,0.662137 -3.187286,1.079312 -4.935183,1.187059 l 0,-6.399438 -1.84183,0 0,6.399438 c -1.745134,-0.107747 -3.40278,-0.52308 -4.928736,-1.183376 -0.782778,-1.950498 -1.372164,-4.006901 -1.76079,-6.136977 l 2.084952,0 0,-1.84183 -2.370435,0 c -0.195234,-1.512142 -0.292851,-3.051912 -0.305744,-4.604575 l 2.676179,0 0,-1.841829 -2.651315,0 c 0.05618,-1.533324 0.191551,-3.071252 0.415333,-4.604575 l 2.235982,0 0,-1.84183 -1.928396,0 c 0.395072,-2.084951 0.947621,-4.145038 1.638307,-6.14987 1.516747,-0.652007 3.161501,-1.0636558 4.893742,-1.1704828 z m -7.233787,2.4404248 c -0.477954,1.604234 -0.877632,3.234253 -1.17785,4.879928 l -3.413831,0 c 1.136409,-1.959707 2.713936,-3.627484 4.591681,-4.879928 z m 16.317692,0.0037 c 1.875904,1.252445 3.449748,2.919301 4.585236,4.876245 l -3.410148,0 c -0.300219,-1.643833 -0.698054,-3.272932 -1.174167,-4.876245 z m -21.826604,6.718075 4.030844,0 c -0.215494,1.532402 -0.341659,3.07033 -0.395993,4.604575 l -4.6607504,0 c 0.1003797,-1.61989 0.4448017,-3.170711 1.0249784,-4.604575 z m 23.300068,0 4.029003,0 c 0.580176,1.433864 0.920915,2.984685 1.024978,4.604575 l -4.658908,0 c -0.05433,-1.534245 -0.1805,-3.072173 -0.395994,-4.604575 z m -24.3250464,6.446404 4.6322014,0 c 0.01289,1.5499 0.108668,3.087828 0.296535,4.604575 l -3.874289,0 C 9.9856603,28.492418 9.6090063,26.948965 9.5095478,25.325391 Z m 24.7459044,0 4.632202,0 c -0.100379,1.623574 -0.476113,3.167027 -1.05721,4.604575 l -3.872447,0 c 0.187866,-1.516747 0.284562,-3.055596 0.296534,-4.604575 z m -22.803695,6.446405 3.264643,0 c 0.284563,1.634624 0.678714,3.235174 1.183376,4.787837 -1.816965,-1.241394 -3.342922,-2.876018 -4.448019,-4.787837 z m 22.230886,0 3.26096,0 c -1.104177,1.910899 -2.629212,3.54276 -4.444336,4.784153 0.503741,-1.551742 0.898813,-3.151371 1.183376,-4.784153 z" />
  <rect
     id="rect6"
     style="opacity:1;fill:none;fill-opacity:1;fill-rule:nonzero;stroke:#e78684;stroke-width:1.8418299;stroke-linecap:round;stroke-linejoin:miter;stroke-miterlimit:4;stroke-dasharray:none;stroke-dashoffset:0;stroke-opacity:1"
     ry="0.077356853"
     rx="0.081040516"
     y="16.116243"
     x="18.675415"
     height="16.576469"
     width="11.05098" />
  <circle
     id="circle8"
     style="opacity:1;fill:#e78684;fill-opacity:1;fill-rule:nonzero;stroke:none"
     r="1.3813725"
     cy="24.404478"
     cx="26.042734" />
</svg>
