<?xml version="1.0" encoding="UTF-8" standalone="no"?>
<svg
   xmlns:dc="http://purl.org/dc/elements/1.1/"
   xmlns:cc="http://creativecommons.org/ns#"
   xmlns:rdf="http://www.w3.org/1999/02/22-rdf-syntax-ns#"
   xmlns:svg="http://www.w3.org/2000/svg"
   xmlns="http://www.w3.org/2000/svg"
   version="1.1"
   id="svg2"
   viewBox="0 0 48 48">
  <metadata
     id="metadata14">
    <rdf:RDF>
      <cc:Work
         rdf:about="">
        <dc:format>image/svg+xml</dc:format>
        <dc:type
           rdf:resource="http://purl.org/dc/dcmitype/StillImage" />
        <dc:title></dc:title>
      </cc:Work>
    </rdf:RDF>
  </metadata>
  <defs
     id="defs12" />
  <g
     id="layer1"
     style="stroke:#ecb040;stroke-opacity:1">
    <path
       id="path4152"
       d="m 7.7228748,2.889958 c 9.6081412,-3.17819241 22.7894572,-3.17819241 32.4984792,0 2.296868,0.7518749 4.413016,2.7960636 5.13134,5.08502 2.809253,8.951742 2.876079,23.915426 0,32.205059 -0.786478,2.266852 -2.818699,4.382219 -5.13134,5.085 -9.709022,2.950479 -22.890338,2.993893 -32.4984792,0 -2.3075499,-0.719022 -4.3806221,-2.806273 -5.1313396,-5.085 -2.73098039,-8.289633 -2.80759188,-23.253318 0,-32.205059 0.717939,-2.2890738 2.8368542,-4.3260284 5.1313396,-5.08502 z"
       style="display:inline;fill:none;fill-opacity:1;fill-rule:evenodd;stroke:#ecb040;stroke-width:0.99939507;stroke-linecap:butt;stroke-linejoin:miter;stroke-miterlimit:4;stroke-dasharray:none;stroke-opacity:1" />
  </g>
  <g
     transform="matrix(1.1729197,0,0,1.1729197,2.1353594,2.4263909)"
     id="g4" />
  <path
     id="path4"
     style="color:#000000;opacity:0.8;fill:#c0956e"
     d="m 14.203473,29.835687 c 0,0 0,0 0,0 l 0,9.11e-4 c 0,0 0,0 0,0 l 0,0 0,0 0,0 0,0 0,0 c 0,0 0,0 0,0 l 0,-9.11e-4 c 0,0 0,0 0,0 l -9.11e-4,0 0,0 z m 0,0 9.11e-4,0 0,0 -9.11e-4,0 0,0 z m 0,9.11e-4 0,0 9.11e-4,0 0,0 -9.11e-4,0 z" />
  <path
     id="path4-5"
     style="fill:#ecb040;fill-opacity:1;fill-rule:nonzero;stroke:none"
     d="m 20.72111,9.3305089 c -0.486477,0 -0.882897,0.39642 -0.882897,0.8828961 -4.3e-4,0.572615 0,1.765794 0,1.765794 l -1.930895,0 c -1.379968,0 -2.483589,1.161892 -2.483589,2.538328 l 0,21.410247 c 0,1.376436 1.107153,2.538328 2.483589,2.538328 l 12.691641,0 c 1.376436,0 2.482705,-1.161892 2.482705,-2.538328 l 0,-21.410247 c 0,-1.376436 -1.102738,-2.538328 -2.482705,-2.538328 l -1.931779,0 0,-1.765794 c 0,-0.4864761 -0.39642,-0.8828961 -0.882896,-0.8828961 z m 9.877849,4.4144841 c 0.379645,0 0.716912,0.307248 0.716912,0.772534 l 0,21.410247 c 0,0.465286 -0.333735,0.772534 -0.716912,0.772534 l -12.691641,0 c -0.383178,0 -0.717795,-0.307248 -0.717795,-0.772534 l 0,-21.410247 c 0,-0.465286 0.338149,-0.772534 0.717795,-0.772534 z m -0.165985,7.063174 -12.360555,8.828967 0,6.180278 12.360555,0 z" />
</svg>
