<?xml version="1.0" encoding="UTF-8" standalone="no"?>
<svg
   xmlns:dc="http://purl.org/dc/elements/1.1/"
   xmlns:cc="http://creativecommons.org/ns#"
   xmlns:rdf="http://www.w3.org/1999/02/22-rdf-syntax-ns#"
   xmlns:svg="http://www.w3.org/2000/svg"
   xmlns="http://www.w3.org/2000/svg"
   version="1.1"
   id="svg2"
   viewBox="0 0 48 48">
  <metadata
     id="metadata14">
    <rdf:RDF>
      <cc:Work
         rdf:about="">
        <dc:format>image/svg+xml</dc:format>
        <dc:type
           rdf:resource="http://purl.org/dc/dcmitype/StillImage" />
        <dc:title></dc:title>
      </cc:Work>
    </rdf:RDF>
  </metadata>
  <defs
     id="defs12" />
  <g
     id="layer1"
     style="stroke:#dc6462;stroke-opacity:1">
    <path
       id="path4152"
       d="m 7.7228748,2.889958 c 9.6081412,-3.17819241 22.7894572,-3.17819241 32.4984792,0 2.296868,0.7518749 4.413016,2.7960636 5.13134,5.08502 2.809253,8.951742 2.876079,23.915426 0,32.205059 -0.786478,2.266852 -2.818699,4.382219 -5.13134,5.085 -9.709022,2.950479 -22.890338,2.993893 -32.4984792,0 -2.3075499,-0.719022 -4.3806221,-2.806273 -5.1313396,-5.085 -2.73098039,-8.289633 -2.80759188,-23.253318 0,-32.205059 0.717939,-2.2890738 2.8368542,-4.3260284 5.1313396,-5.08502 z"
       style="display:inline;fill:none;fill-opacity:1;fill-rule:evenodd;stroke:#dc6462;stroke-width:0.99939507;stroke-linecap:butt;stroke-linejoin:miter;stroke-miterlimit:4;stroke-dasharray:none;stroke-opacity:1" />
  </g>
  <g
     transform="matrix(1.1729197,0,0,1.1729197,2.1353594,2.4263909)"
     id="g4" />
  <path
     id="path4"
     style="fill:#dc6462;fill-opacity:1"
     d="m 23.953122,7.7486048 c -1.275711,0 -2.345151,0.7267114 -2.83703,1.7485497 -0.971064,-0.656896 -2.326111,-0.7838324 -3.424112,-0.1777107 -1.101173,0.5966017 -1.678734,1.7390302 -1.570839,2.8497242 -1.177335,-0.0095 -2.40862,0.450625 -3.036955,1.472464 -0.637855,1.034532 -0.507746,2.300724 0.199925,3.214666 -1.088481,0.456972 -1.856446,1.46929 -1.856446,2.662493 0,1.193204 0.767965,2.208695 1.856446,2.665666 -0.698151,0.913942 -0.83778,2.170614 -0.199925,3.214666 0.628335,1.021839 1.85962,1.570839 3.036955,1.472464 -0.107895,1.113867 0.469666,2.256295 1.570839,2.849723 0.285607,0.155498 0.590254,0.241181 0.898076,0.298301 l 0,11.757492 5.372587,-5.372587 5.372586,5.372587 0,-11.728931 c 0.310995,-0.03808 0.612468,-0.117416 0.898076,-0.326862 1.101173,-0.596601 1.678734,-1.739029 1.570839,-2.849723 1.177336,0.0095 2.40862,-0.450625 3.036955,-1.472464 0.637856,-1.034532 0.507746,-2.300724 -0.199926,-3.214666 1.088481,-0.456971 1.856447,-1.472462 1.856447,-2.665666 0,-1.193203 -0.767966,-2.205521 -1.856447,-2.662493 0.698152,-0.913942 0.837782,-2.170614 0.199926,-3.214666 C 34.212764,12.619793 32.98148,12.070793 31.804144,12.169168 31.912039,11.0553 31.334478,9.9128715 30.233305,9.3194438 29.13213,8.7228423 27.780256,8.8434319 26.809193,9.4971545 26.317314,8.4753162 25.247874,7.7486048 23.972163,7.7486048 l -0.02221,0 z m 0,4.3602692 c 4.319014,0 7.835154,3.294001 7.835154,7.35597 0,4.065139 -3.50662,7.349621 -7.835154,7.349621 -4.319014,0 -7.831981,-3.287654 -7.831981,-7.349621 0,-4.065142 3.503447,-7.35597 7.831981,-7.35597 z m 0,1.472462 c -3.455845,0 -6.261142,2.633933 -6.261142,5.883508 0,3.249573 2.805297,5.880332 6.261142,5.880332 3.455846,0 6.264315,-2.630759 6.264315,-5.880332 0,-3.249575 -2.808469,-5.883508 -6.264315,-5.883508 z" />
</svg>
