<?xml version="1.0" encoding="UTF-8" standalone="no"?>
<svg
   xmlns:dc="http://purl.org/dc/elements/1.1/"
   xmlns:cc="http://creativecommons.org/ns#"
   xmlns:rdf="http://www.w3.org/1999/02/22-rdf-syntax-ns#"
   xmlns:svg="http://www.w3.org/2000/svg"
   xmlns="http://www.w3.org/2000/svg"
   version="1.1"
   id="svg2"
   viewBox="0 0 48 48">
  <metadata
     id="metadata14">
    <rdf:RDF>
      <cc:Work
         rdf:about="">
        <dc:format>image/svg+xml</dc:format>
        <dc:type
           rdf:resource="http://purl.org/dc/dcmitype/StillImage" />
        <dc:title></dc:title>
      </cc:Work>
    </rdf:RDF>
  </metadata>
  <defs
     id="defs12" />
  <g
     id="layer1"
     style="stroke:#eb93b5;stroke-opacity:1">
    <path
       id="path4152"
       d="m 7.7228748,2.889958 c 9.6081412,-3.17819241 22.7894572,-3.17819241 32.4984792,0 2.296868,0.7518749 4.413016,2.7960636 5.13134,5.08502 2.809253,8.951742 2.876079,23.915426 0,32.205059 -0.786478,2.266852 -2.818699,4.382219 -5.13134,5.085 -9.709022,2.950479 -22.890338,2.993893 -32.4984792,0 -2.3075499,-0.719022 -4.3806221,-2.806273 -5.1313396,-5.085 -2.73098039,-8.289633 -2.80759188,-23.253318 0,-32.205059 0.717939,-2.2890738 2.8368542,-4.3260284 5.1313396,-5.08502 z"
       style="display:inline;fill:none;fill-opacity:1;fill-rule:evenodd;stroke:#eb93b5;stroke-width:0.99939507;stroke-linecap:butt;stroke-linejoin:miter;stroke-miterlimit:4;stroke-dasharray:none;stroke-opacity:1" />
  </g>
  <g
     transform="matrix(1.1729197,0,0,1.1729197,2.1353594,2.4263909)"
     id="g4" />
  <path
     id="path4"
     style="color:#000000;opacity:0.8;fill:#c0956e"
     d="m 14.203473,29.835687 c 0,0 0,0 0,0 l 0,9.11e-4 c 0,0 0,0 0,0 l 0,0 0,0 0,0 0,0 0,0 c 0,0 0,0 0,0 l 0,-9.11e-4 c 0,0 0,0 0,0 l -9.11e-4,0 0,0 z m 0,0 9.11e-4,0 0,0 -9.11e-4,0 0,0 z m 0,9.11e-4 0,0 9.11e-4,0 0,0 -9.11e-4,0 z" />
  <path
     id="path4-6"
     style="fill:#eb93b5;fill-opacity:1;fill-rule:nonzero;stroke:none"
     d="m 24.618078,13.918769 c -6.546857,0.0041 -11.803142,4.638379 -14.8673317,8.168451 -0.3808783,0.438908 -0.7895461,0.956282 -1.130375,1.435241 -0.2321232,0.319578 -0.3481849,0.670214 -0.3481849,1.021669 0,0.351455 0.1152443,0.702091 0.3481849,1.021669 0.3408289,0.478959 0.7494967,0.996333 1.130375,1.435241 3.0650077,3.53089 8.3253787,8.165181 14.8673317,8.168451 6.546856,-0.0033 11.803141,-4.638379 14.867332,-8.168451 0.380878,-0.438908 0.789546,-0.956282 1.130374,-1.435241 0.232124,-0.319578 0.348185,-0.670214 0.348185,-1.021669 0,-0.351455 -0.115244,-0.702091 -0.348185,-1.021669 C 40.274956,23.043502 39.866288,22.526128 39.48541,22.08722 36.420402,18.55633 31.160031,13.922039 24.618078,13.918769 m 0,2.452007 a 8.1733546,8.1733546 0 0 1 4.840261,1.597891 L 26.505306,20.9217 a 4.0866773,4.0866773 0 0 0 -1.887228,-0.464247 4.0866773,4.0866773 0 0 0 -4.086677,4.086677 4.0866773,4.0866773 0 0 0 0.464246,1.887228 l -2.953033,2.953033 a 8.1733546,8.1733546 0 0 1 -1.59789,-4.840261 8.1733546,8.1733546 0 0 1 8.173354,-8.173354 m 6.571377,3.333093 a 8.1733546,8.1733546 0 0 1 1.597891,4.840261 8.1733546,8.1733546 0 0 1 -8.173355,8.173355 8.1733546,8.1733546 0 0 1 -4.84026,-1.597891 l 2.953033,-2.953033 a 4.0866773,4.0866773 0 0 0 1.887227,0.464246 4.0866773,4.0866773 0 0 0 4.086678,-4.086677 4.0866773,4.0866773 0 0 0 -0.464247,-1.887228 l 2.953033,-2.953033 z m -5.349461,1.570919 a 2.0433386,2.0433386 0 0 1 0.286068,0.02207 l -2.306521,2.306521 a 2.0433386,2.0433386 0 0 1 -0.02207,-0.286067 2.0433386,2.0433386 0 0 1 2.043339,-2.043339 m 2.02127,1.757271 a 2.0433386,2.0433386 0 0 1 0.02207,0.286068 2.0433386,2.0433386 0 0 1 -2.043338,2.043339 2.0433386,2.0433386 0 0 1 -0.286068,-0.02207 l 2.306521,-2.30652 z" />
</svg>
