<?xml version="1.0" encoding="UTF-8" standalone="no"?>
<svg
   xmlns:dc="http://purl.org/dc/elements/1.1/"
   xmlns:cc="http://creativecommons.org/ns#"
   xmlns:rdf="http://www.w3.org/1999/02/22-rdf-syntax-ns#"
   xmlns:svg="http://www.w3.org/2000/svg"
   xmlns="http://www.w3.org/2000/svg"
   version="1.1"
   id="svg2"
   viewBox="0 0 48 48">
  <metadata
     id="metadata14">
    <rdf:RDF>
      <cc:Work
         rdf:about="">
        <dc:format>image/svg+xml</dc:format>
        <dc:type
           rdf:resource="http://purl.org/dc/dcmitype/StillImage" />
        <dc:title></dc:title>
      </cc:Work>
    </rdf:RDF>
  </metadata>
  <defs
     id="defs12" />
  <g
     id="layer1"
     style="stroke:#698ecc;stroke-opacity:1">
    <path
       id="path4152"
       d="m 7.7228748,2.889958 c 9.6081412,-3.17819241 22.7894572,-3.17819241 32.4984792,0 2.296868,0.7518749 4.413016,2.7960636 5.13134,5.08502 2.809253,8.951742 2.876079,23.915426 0,32.205059 -0.786478,2.266852 -2.818699,4.382219 -5.13134,5.085 -9.709022,2.950479 -22.890338,2.993893 -32.4984792,0 -2.3075499,-0.719022 -4.3806221,-2.806273 -5.1313396,-5.085 -2.73098039,-8.289633 -2.80759188,-23.253318 0,-32.205059 0.717939,-2.2890738 2.8368542,-4.3260284 5.1313396,-5.08502 z"
       style="display:inline;fill:none;fill-opacity:1;fill-rule:evenodd;stroke:#698ecc;stroke-width:0.99939507;stroke-linecap:butt;stroke-linejoin:miter;stroke-miterlimit:4;stroke-dasharray:none;stroke-opacity:1" />
  </g>
  <g
     transform="matrix(1.1729197,0,0,1.1729197,2.1353594,2.4263909)"
     id="g4" />
  <path
     id="path4"
     style="fill:#698ecc;fill-opacity:1;stroke:none"
     d="m 24.101695,7.4576266 c -9.412068,0 -17.0508474,7.6430424 -17.0508474,17.0508484 0,9.412067 7.6430414,17.050847 17.0508474,17.050847 9.412067,0 17.050847,-7.643042 17.050847,-17.050847 0,-9.412068 -7.643042,-17.0508484 -17.050847,-17.0508484 z m 0.118503,5.9677964 c 1.370036,0 2.480898,1.136439 2.480898,2.538019 0,1.400727 -1.110862,2.539724 -2.480898,2.539724 -1.370036,0 -2.482603,-1.138144 -2.482603,-2.539724 0,-1.400727 1.112567,-2.538019 2.482603,-2.538019 z m -8.941464,5.191984 c 0.127881,0.0051 0.259172,0.02984 0.393022,0.05371 l 8.430791,1.478308 8.465746,-1.416925 c 0.114241,-0.01961 0.21143,-0.05115 0.326524,-0.06991 0.328228,-0.03751 0.650489,0.143228 0.767288,0.450995 0.117651,0.307768 8.52e-4,0.664983 -0.269404,0.852543 l -6.612318,2.286518 0.0034,4.850114 2.288224,7.401773 c 0.199495,0.347837 0.07758,0.790307 -0.271109,0.988949 -0.349542,0.198642 -0.794569,0.07843 -0.994064,-0.269403 l -3.689804,-7.94058 -3.763122,7.955925 c -0.224218,0.335902 -0.702495,0.403253 -1.039249,0.179887 -0.336754,-0.223366 -0.404105,-0.654753 -0.179886,-0.990654 l 2.330851,-7.370229 0.04518,-4.921727 -6.605498,-2.143292 c -0.240417,-0.126176 -0.410925,-0.35892 -0.408368,-0.629176 0.0034,-0.271109 0.164541,-0.555858 0.408368,-0.676066 0.121914,-0.05968 0.246385,-0.07673 0.374266,-0.07161 z" />
</svg>
