<?xml version="1.0" encoding="UTF-8" standalone="no"?>
<svg
   xmlns:dc="http://purl.org/dc/elements/1.1/"
   xmlns:cc="http://creativecommons.org/ns#"
   xmlns:rdf="http://www.w3.org/1999/02/22-rdf-syntax-ns#"
   xmlns:svg="http://www.w3.org/2000/svg"
   xmlns="http://www.w3.org/2000/svg"
   version="1.1"
   id="svg2"
   viewBox="0 0 48 48">
  <metadata
     id="metadata14">
    <rdf:RDF>
      <cc:Work
         rdf:about="">
        <dc:format>image/svg+xml</dc:format>
        <dc:type
           rdf:resource="http://purl.org/dc/dcmitype/StillImage" />
        <dc:title></dc:title>
      </cc:Work>
    </rdf:RDF>
  </metadata>
  <defs
     id="defs12" />
  <g
     id="layer1"
     style="stroke:#c0956e;stroke-opacity:1">
    <path
       id="path4152"
       d="m 7.7228748,2.889958 c 9.6081412,-3.17819241 22.7894572,-3.17819241 32.4984792,0 2.296868,0.7518749 4.413016,2.7960636 5.13134,5.08502 2.809253,8.951742 2.876079,23.915426 0,32.205059 -0.786478,2.266852 -2.818699,4.382219 -5.13134,5.085 -9.709022,2.950479 -22.890338,2.993893 -32.4984792,0 -2.3075499,-0.719022 -4.3806221,-2.806273 -5.1313396,-5.085 -2.73098039,-8.289633 -2.80759188,-23.253318 0,-32.205059 0.717939,-2.2890738 2.8368542,-4.3260284 5.1313396,-5.08502 z"
       style="display:inline;fill:none;fill-opacity:1;fill-rule:evenodd;stroke:#c0956e;stroke-width:0.99939507;stroke-linecap:butt;stroke-linejoin:miter;stroke-miterlimit:4;stroke-dasharray:none;stroke-opacity:1" />
  </g>
  <g
     transform="matrix(1.1729197,0,0,1.1729197,2.1353594,2.4263909)"
     id="g4" />
  <path
     id="path4"
     style="color:#000000;opacity:0.8;fill:#c0956e"
     d="m 14.610253,29.835687 c 0,0 0,0 0,0 l 0,9.11e-4 c 0,0 0,0 0,0 l 0,0 0,0 0,0 0,0 0,0 c 0,0 0,0 0,0 l 0,-9.11e-4 c 0,0 0,0 0,0 l -9.11e-4,0 0,0 z m 0,0 9.11e-4,0 0,0 -9.11e-4,0 0,0 z m 0,9.11e-4 0,0 9.11e-4,0 0,0 -9.11e-4,0 z" />
  <path
     id="path6"
     style="color:#000000;fill:#c0956e"
     d="M 18.327191,8.0005 C 17.793336,8.05698 17.343295,8.561685 17.34694,9.101005 l 0,8.730249 c 0,0.576672 0.5211,1.100505 1.095039,1.100505 l 4.379245,0 3.508315,0 4.499499,0 c 0.573028,0 1.095039,-0.524745 1.095039,-1.100505 l 0,-8.730249 c 0,-0.576672 -0.5211,-1.100505 -1.095039,-1.100505 l -12.387059,0" />
  <path
     id="path8"
     style="color:#000000;fill:#c0956e"
     d="m 9.2170495,26.220783 c -0.5338543,0.05648 -0.9838953,0.561185 -0.9802512,1.100505 l 0,8.730249 c 0,0.576672 0.5211001,1.100505 1.095039,1.100505 l 4.3792447,0 3.508316,0 4.499499,0 c 0.573027,0 1.095039,-0.524744 1.095039,-1.100505 l 0,-8.730249 c 0,-0.576672 -0.521101,-1.100505 -1.095039,-1.100505 l -12.3870597,0" />
  <path
     id="path10"
     style="color:#000000;fill:#c0956e"
     d="m 27.437332,26.220783 c -0.533854,0.05648 -0.983895,0.561185 -0.980251,1.100505 l 0,8.730249 c 0,0.576672 0.5211,1.100505 1.095039,1.100505 l 4.379245,0 3.508316,0 4.499499,0 c 0.573028,0 1.095039,-0.524744 1.095039,-1.100505 l 0,-8.730249 c 0,-0.576672 -0.5211,-1.100505 -1.095039,-1.100505 l -12.38706,0 z" />
  <g
     id="g12"
     style="fill:#c0956e"
     transform="matrix(0.91101417,0,0,0.91101417,2.7670692,-914.27583)">
    <path
       id="path14"
       d="m 23,21 0,2 -10,0 0,4 2,0 0,-2 18,0 0,2 2,0 0,-4 -10,0 0,-2 z"
       transform="translate(0,1004.3622)" />
  </g>
</svg>
