<?xml version="1.0" encoding="UTF-8" standalone="no"?>
<svg
   xmlns:dc="http://purl.org/dc/elements/1.1/"
   xmlns:cc="http://creativecommons.org/ns#"
   xmlns:rdf="http://www.w3.org/1999/02/22-rdf-syntax-ns#"
   xmlns:svg="http://www.w3.org/2000/svg"
   xmlns="http://www.w3.org/2000/svg"
   version="1.1"
   id="svg2"
   viewBox="0 0 48 48">
  <metadata
     id="metadata14">
    <rdf:RDF>
      <cc:Work
         rdf:about="">
        <dc:format>image/svg+xml</dc:format>
        <dc:type
           rdf:resource="http://purl.org/dc/dcmitype/StillImage" />
        <dc:title></dc:title>
      </cc:Work>
    </rdf:RDF>
  </metadata>
  <defs
     id="defs12" />
  <g
     id="layer1"
     style="stroke:#9dc7cf;stroke-opacity:1">
    <path
       id="path4152"
       d="m 7.7228748,2.889958 c 9.6081412,-3.17819241 22.7894572,-3.17819241 32.4984792,0 2.296868,0.7518749 4.413016,2.7960636 5.13134,5.08502 2.809253,8.951742 2.876079,23.915426 0,32.205059 -0.786478,2.266852 -2.818699,4.382219 -5.13134,5.085 -9.709022,2.950479 -22.890338,2.993893 -32.4984792,0 -2.3075499,-0.719022 -4.3806221,-2.806273 -5.1313396,-5.085 -2.73098039,-8.289633 -2.80759188,-23.253318 0,-32.205059 0.717939,-2.2890738 2.8368542,-4.3260284 5.1313396,-5.08502 z"
       style="display:inline;fill:none;fill-opacity:1;fill-rule:evenodd;stroke:#9dc7cf;stroke-width:0.99939507;stroke-linecap:butt;stroke-linejoin:miter;stroke-miterlimit:4;stroke-dasharray:none;stroke-opacity:1" />
  </g>
  <g
     transform="matrix(1.1729197,0,0,1.1729197,2.1353594,2.4263909)"
     id="g4" />
  <path
     id="path4"
     style="fill:#9dc7cf"
     d="m 24.79089,30.802511 c -0.07924,-2.873404 0.567174,-5.6634 3.307126,-7.644339 2.890085,-2.235333 5.671741,-5.03367 5.379813,-8.328284 -0.06673,-3.182014 -3.799233,-5.6759118 -7.819496,-6.0345658 -4.524882,-0.6213892 -10.000614,0.917488 -11.520724,4.4247918 -0.767353,1.705693 -0.05421,4.766765 2.527261,4.766765 1.509684,0 2.20197,-0.967532 2.314571,-1.851657 0.08758,-0.671434 -0.191838,-1.267801 -0.354484,-1.822464 -0.187668,-0.62973 0.608878,-1.851657 1.476321,-2.352104 0.725649,-0.412869 1.484662,-0.554663 1.593092,-0.579685 2.602328,-0.62139 5.196316,0.750671 6.276449,2.41883 1.084303,1.66816 -0.108431,4.19125 -1.818294,6.660126 -1.714033,2.460534 -3.549008,5.254701 -3.544838,8.224024 0,1.130178 -0.10009,1.513855 -0.02919,1.968428 0.05839,0.366995 1.276142,0.321121 2.210311,0.150134 z m -1.188563,3.87013 c -2.485557,-0.133453 -4.212102,2.664884 -2.714929,4.449814 1.334527,1.968428 5.079544,1.480491 5.717615,-0.746501 0.667264,-1.734886 -0.934169,-3.732506 -3.002686,-3.703313 z" />
</svg>
