<?xml version="1.0" encoding="UTF-8" standalone="no"?>
<svg
   xmlns:dc="http://purl.org/dc/elements/1.1/"
   xmlns:cc="http://creativecommons.org/ns#"
   xmlns:rdf="http://www.w3.org/1999/02/22-rdf-syntax-ns#"
   xmlns:svg="http://www.w3.org/2000/svg"
   xmlns="http://www.w3.org/2000/svg"
   version="1.1"
   id="svg4172"
   viewBox="0 0 16 16"
   height="16"
   width="16">
  <defs
     id="defs4174" />
  <metadata
     id="metadata4177">
    <rdf:RDF>
      <cc:Work
         rdf:about="">
        <dc:format>image/svg+xml</dc:format>
        <dc:type
           rdf:resource="http://purl.org/dc/dcmitype/StillImage" />
        <dc:title></dc:title>
      </cc:Work>
    </rdf:RDF>
  </metadata>
  <g
     transform="matrix(0.27860314,0,0,0.27860314,-0.00799885,-276.96887)"
     id="layer1"
     style="fill:#ececec;fill-opacity:1">
    <path
       id="path4140"
       d="m 3.962791,1016.9707 0.036835,12.4881 c -0.036835,1.0315 0.4973125,1.6577 1.455101,1.6394 l 9.9462551,0.055 10.775107,9.3937 c 0.755177,0.7368 2.726011,0.5525 2.689174,-0.9577 l -0.01843,-32.7859 c -0.05526,-0.8841 -1.620873,-1.4551 -2.486565,-0.7367 l -10.859573,9.3478 -10.0936069,0 c -0.884111,0 -1.4627296,0.9483 -1.4443098,1.5561 z"
       style="fill:#ececec;fill-opacity:1;fill-rule:evenodd;stroke:none;stroke-width:1px;stroke-linecap:butt;stroke-linejoin:miter;stroke-opacity:1" />
    <path
       id="path4142"
       d="m 34.506478,1015.657 c -0.856317,-1.4929 1.053931,-3.4692 2.74461,-2.2835 4.215718,4.084 4.830509,14.9966 0.175654,19.871 -1.493065,1.3833 -3.798538,-0.6148 -2.986132,-2.1517 3.095916,-5.7309 3.249615,-9.683 0.06587,-15.4358 z"
       style="fill:#ececec;fill-opacity:1;fill-rule:evenodd;stroke:none;stroke-width:1px;stroke-linecap:butt;stroke-linejoin:miter;stroke-opacity:1;opacity:0.35" />
    <path
       id="path4168"
       d="m 39.993588,1010.2167 c -0.822869,-1.7234 1.459429,-3.2915 2.763601,-2.36 6.779011,7.6333 7.698681,21.8556 0.03105,31.1449 -1.427198,0.9442 -3.48818,-0.8357 -2.763604,-2.3288 6.58296,-8.8188 5.171858,-19.1777 -0.03105,-26.4561 z"
       style="fill:#ececec;fill-opacity:1;fill-rule:evenodd;stroke:none;stroke-width:1px;stroke-linecap:butt;stroke-linejoin:miter;stroke-opacity:1;opacity:0.35" />
    <path
       id="path4170"
       d="m 45.111644,1005.2494 c -1.020671,-1.2708 1.273498,-3.7765 2.678738,-2.5468 10.233194,11.2933 10.422716,29.4211 0.03547,41.3645 -1.273497,1.0978 -3.4532,-0.7293 -2.662751,-2.5736 8.989922,-10.9579 8.336923,-25.6518 -0.05145,-36.2441 z"
       style="fill:#ececec;fill-opacity:1;fill-rule:evenodd;stroke:none;stroke-width:1px;stroke-linecap:butt;stroke-linejoin:miter;stroke-opacity:1;opacity:0.35" />
  </g>
</svg>
