<?xml version="1.0" encoding="UTF-8" standalone="no"?>
<svg
   xmlns:dc="http://purl.org/dc/elements/1.1/"
   xmlns:cc="http://creativecommons.org/ns#"
   xmlns:rdf="http://www.w3.org/1999/02/22-rdf-syntax-ns#"
   xmlns:svg="http://www.w3.org/2000/svg"
   xmlns="http://www.w3.org/2000/svg"
   width="16"
   height="16"
   viewBox="0 0 16 16"
   id="svg4189"
   version="1.1">
  <defs
     id="defs4191" />
  <metadata
     id="metadata4194">
    <rdf:RDF>
      <cc:Work
         rdf:about="">
        <dc:format>image/svg+xml</dc:format>
        <dc:type
           rdf:resource="http://purl.org/dc/dcmitype/StillImage" />
        <dc:title></dc:title>
      </cc:Work>
    </rdf:RDF>
  </metadata>
  <g
     style="fill:#ececec;fill-opacity:1"
     id="layer1"
     transform="translate(0,-1036.3622)">
    <path
       style="fill:#ececec;fill-opacity:1;fill-rule:evenodd;stroke:none;stroke-width:1px;stroke-linecap:butt;stroke-linejoin:miter;stroke-opacity:1"
       d="m 14.578374,1042.1045 0.0049,3.5808 c 1.853531,-0.6137 1.925646,-2.9318 -0.0049,-3.5808 z"
       id="path4165" />
    <path
       style="fill:#ececec;fill-opacity:1;fill-rule:evenodd;stroke:none;stroke-width:1px;stroke-linecap:butt;stroke-linejoin:miter;stroke-opacity:1"
       d="m 1.0194326,1039.6698 c -0.74453242,0.01 -1.00315942,0.3059 -1.01099659,1.1107 l -0.007834727,6.3264 c -0.015674353,0.7163 0.274301357,1.0865 0.963973487,1.0704 l 0,0 11.84148923,0.041 c 0.807231,-0.016 1.073696,-0.2656 1.065857,-1.0786 l -0.01567,-6.3584 c -0.01568,-0.7646 -0.219444,-1.0764 -1.042346,-1.0785 l -11.7944668,-0.031 z m 0.681835,0.7928 10.3294074,0 c 0.730412,0 0.912833,0.2573 0.926747,0.8834 l 0.01371,5.2055 c 0.0069,0.6656 -0.229839,0.8689 -0.946339,0.8833 l -10.3725127,-0.01 0,0 c -0.6121535,0.013 -0.87012495,-0.2907 -0.85621233,-0.8773 l 0.007834,-5.1794 c 0.006953,-0.659 0.23651023,-0.8992 0.89735733,-0.9095 z"
       id="path4177" />
    <path
       style="fill:#ececec;fill-opacity:1;fill-rule:evenodd;stroke:none;stroke-width:1px;stroke-linecap:butt;stroke-linejoin:miter;stroke-opacity:1"
       d="m 2.2689,1046.7061 4.6021,0.01 0,-5.5139 -4.5592636,-2e-4 c -0.5811226,0.01 -0.7829862,0.198 -0.7891032,0.7194 l -0.00613,4.0985 c -0.012234,0.464 0.2140978,0.7042 0.7524011,0.694 z"
       id="path4177-3-6" />
  </g>
</svg>
