<?xml version="1.0" encoding="UTF-8" standalone="no"?>
<svg
   xmlns:dc="http://purl.org/dc/elements/1.1/"
   xmlns:cc="http://creativecommons.org/ns#"
   xmlns:rdf="http://www.w3.org/1999/02/22-rdf-syntax-ns#"
   xmlns:svg="http://www.w3.org/2000/svg"
   xmlns="http://www.w3.org/2000/svg"
   version="1.1"
   id="svg4189"
   viewBox="0 0 16 16"
   height="16"
   width="16">
  <defs
     id="defs4191" />
  <metadata
     id="metadata4194">
    <rdf:RDF>
      <cc:Work
         rdf:about="">
        <dc:format>image/svg+xml</dc:format>
        <dc:type
           rdf:resource="http://purl.org/dc/dcmitype/StillImage" />
        <dc:title></dc:title>
      </cc:Work>
    </rdf:RDF>
  </metadata>
  <g
     transform="translate(0,-1036.3622)"
     id="layer1"
     style="fill:#ececec;fill-opacity:1">
    <path
       id="path4165"
       d="m 14.578374,1042.1045 0.0049,3.5808 c 1.853531,-0.6137 1.925646,-2.9318 -0.0049,-3.5808 z"
       style="fill:#ececec;fill-opacity:1;fill-rule:evenodd;stroke:none;stroke-width:1px;stroke-linecap:butt;stroke-linejoin:miter;stroke-opacity:1" />
    <path
       id="path4177"
       d="m 1.0194326,1039.6698 c -0.74453242,0.01 -1.00315942,0.3059 -1.01099659,1.1107 l -0.007834727,6.3264 c -0.015674353,0.7163 0.274301357,1.0865 0.963973487,1.0704 l 0,0 11.84148923,0.041 c 0.807231,-0.016 1.073696,-0.2656 1.065857,-1.0786 l -0.01567,-6.3584 c -0.01568,-0.7646 -0.219444,-1.0764 -1.042346,-1.0785 l -11.7944668,-0.031 z m 0.681835,0.7928 10.3294074,0 c 0.730412,0 0.912833,0.2573 0.926747,0.8834 l 0.01371,5.2055 c 0.0069,0.6656 -0.229839,0.8689 -0.946339,0.8833 l -10.3725127,-0.01 0,0 c -0.6121535,0.013 -0.87012495,-0.2907 -0.85621233,-0.8773 l 0.007834,-5.1794 c 0.006953,-0.659 0.23651023,-0.8992 0.89735733,-0.9095 z"
       style="fill:#ececec;fill-opacity:1;fill-rule:evenodd;stroke:none;stroke-width:1px;stroke-linecap:butt;stroke-linejoin:miter;stroke-opacity:1" />
    <path
       style="fill:#ececec;fill-opacity:1;fill-rule:evenodd;stroke:none;stroke-width:1px;stroke-linecap:butt;stroke-linejoin:miter;stroke-opacity:1"
       d="M 2.3125 4.8378906 C 1.7313774 4.8478906 1.5295545 5.0352406 1.5234375 5.5566406 L 1.515625 9.6542969 C 1.503391 10.118297 1.731228 10.359809 2.2695312 10.349609 L 2.2695312 10.34375 L 3.4492188 10.345703 L 3.4511719 9.8964844 L 5.7441406 7.6015625 L 3.4472656 5.2988281 L 3.4511719 4.8378906 L 2.3125 4.8378906 z M 5.2753906 4.8378906 L 6.8867188 6.4511719 L 8.4921875 4.8378906 L 5.2753906 4.8378906 z M 10.339844 4.8378906 L 10.341797 5.3046875 L 8.0371094 7.5976562 L 10.341797 9.890625 L 10.339844 10.351562 L 11.388672 10.353516 C 12.018733 10.342516 12.226817 10.180897 12.220703 9.6542969 L 12.208984 5.5351562 C 12.196754 5.0398562 12.038778 4.8378906 11.396484 4.8378906 L 10.339844 4.8378906 z M 6.890625 8.7539062 L 5.2910156 10.347656 L 8.4921875 10.349609 L 6.890625 8.7539062 z "
       transform="translate(0,1036.3622)"
       id="path4177-3-6" />
  </g>
  <path
     style="fill:#ff2e2e;fill-opacity:1;fill-rule:evenodd;stroke:none;stroke-width:1px;stroke-linecap:butt;stroke-linejoin:miter;stroke-opacity:1"
     d="m 4.2687153,4.9699485 -0.00742,0.8768904 1.7649757,1.7687068 -1.7612443,1.7612424 -0.00375,0.8806239 0.884354,-0.0037 1.7612433,-1.7537839 1.7612433,1.7575149 0.8843547,0 L 9.556142,9.3730731 7.787498,7.6118472 9.5562057,5.850603 9.5525376,4.9699811 8.66072,4.9662463 6.9032082,6.7318044 5.1419648,4.9699776 Z"
     id="path4140-3" />
</svg>
