<?xml version="1.0" encoding="UTF-8" standalone="no"?>
<svg
   xmlns:dc="http://purl.org/dc/elements/1.1/"
   xmlns:cc="http://creativecommons.org/ns#"
   xmlns:rdf="http://www.w3.org/1999/02/22-rdf-syntax-ns#"
   xmlns:svg="http://www.w3.org/2000/svg"
   xmlns="http://www.w3.org/2000/svg"
   width="16"
   height="16"
   viewBox="0 0 16 16"
   id="svg4189"
   version="1.1">
  <defs
     id="defs4191" />
  <metadata
     id="metadata4194">
    <rdf:RDF>
      <cc:Work
         rdf:about="">
        <dc:format>image/svg+xml</dc:format>
        <dc:type
           rdf:resource="http://purl.org/dc/dcmitype/StillImage" />
        <dc:title></dc:title>
      </cc:Work>
    </rdf:RDF>
  </metadata>
  <g
     id="layer1"
     transform="translate(0,-1036.2183)"
     style="fill:#ececec;fill-opacity:1">
    <path
       style="fill:#ececec;fill-opacity:1;fill-rule:evenodd;stroke:none;stroke-width:1px;stroke-linecap:butt;stroke-linejoin:miter;stroke-opacity:1"
       d="m 14.578374,1042.1045 0.0049,3.5808 c 1.853531,-0.6137 1.925646,-2.9318 -0.0049,-3.5808 z"
       id="path4165" />
    <path
       style="fill:#ececec;fill-opacity:1;fill-rule:evenodd;stroke:none;stroke-width:1px;stroke-linecap:butt;stroke-linejoin:miter;stroke-opacity:1"
       d="M 1.0195312 3.4511719 C 0.27499883 3.4611719 0.01564967 3.7577 0.0078125 4.5625 L 0 10.888672 C -0.015674353 11.604972 0.27517162 11.975084 0.96484375 11.958984 L 4.1601562 11.970703 L 3.2089844 11.208984 L 1.6523438 11.207031 C 1.0401902 11.220031 0.78296238 10.916678 0.796875 10.330078 L 0.8046875 5.1503906 C 0.8116405 4.4913906 1.0403248 4.2505344 1.7011719 4.2402344 L 1.7011719 4.2441406 L 8.3652344 4.2441406 L 8.8925781 3.4746094 L 1.0195312 3.453125 L 1.0195312 3.4511719 z M 12.283203 3.4824219 L 12.505859 3.6601562 L 12.117188 4.2539062 C 12.763923 4.2774876 12.94378 4.530671 12.957031 5.1269531 L 12.970703 10.333984 C 12.977603 10.999584 12.741891 11.202397 12.025391 11.216797 L 7.5664062 11.212891 L 7.0644531 11.980469 L 12.806641 12 C 13.613872 11.984 13.878933 11.734875 13.871094 10.921875 L 13.855469 4.5625 C 13.839789 3.7979 13.637355 3.486475 12.814453 3.484375 L 12.283203 3.4824219 z "
       transform="translate(0,1036.2183)"
       id="path4177" />
    <path
       style="fill:#ececec;fill-opacity:1;fill-rule:evenodd;stroke:none;stroke-width:1px;stroke-linecap:butt;stroke-linejoin:miter;stroke-opacity:1"
       d="M 2.3125 4.9804688 C 1.7313774 4.9904687 1.5295545 5.1797719 1.5234375 5.7011719 L 1.515625 9.7988281 C 1.503391 10.262828 1.731228 10.502387 2.2695312 10.492188 L 2.2695312 10.488281 L 2.3085938 10.488281 L 1.5996094 9.9199219 L 3.5253906 7.2167969 L 5.3183594 8.703125 L 7.8632812 4.9804688 L 2.3125 4.9804688 z M 11.626953 5.0039062 L 8.0351562 10.494141 L 11.388672 10.498047 C 12.018733 10.487047 12.226817 10.325428 12.220703 9.7988281 L 12.208984 5.6796875 C 12.19854 5.2567041 12.061083 5.0562405 11.626953 5.0039062 z "
       transform="translate(0,1036.2183)"
       id="path4177-3-6" />
  </g>
  <g
     id="layer2"
     style="display:inline;fill:#ececec;fill-opacity:1" />
  <g
     style="fill:#ececec;fill-opacity:1"
     id="layer3" />
  <path
     style="fill:#ececec;fill-opacity:1;fill-rule:evenodd;stroke:none;stroke-width:1px;stroke-linecap:butt;stroke-linejoin:miter;stroke-opacity:1"
     d="M 3.6202603,8.3691516 2.6795873,9.6807958 5.9414953,12.343189 11.625498,3.8486425 10.341534,2.8589966 5.6056013,9.9332475 Z"
     id="path4776-3" />
</svg>
