<?xml version="1.0" encoding="UTF-8" standalone="no"?>
<svg
   xmlns:dc="http://purl.org/dc/elements/1.1/"
   xmlns:cc="http://creativecommons.org/ns#"
   xmlns:rdf="http://www.w3.org/1999/02/22-rdf-syntax-ns#"
   xmlns:svg="http://www.w3.org/2000/svg"
   xmlns="http://www.w3.org/2000/svg"
   width="16"
   height="16"
   viewBox="0 0 16 16"
   id="svg4189"
   version="1.1">
  <defs
     id="defs4191" />
  <metadata
     id="metadata4194">
    <rdf:RDF>
      <cc:Work
         rdf:about="">
        <dc:format>image/svg+xml</dc:format>
        <dc:type
           rdf:resource="http://purl.org/dc/dcmitype/StillImage" />
        <dc:title></dc:title>
      </cc:Work>
    </rdf:RDF>
  </metadata>
  <g
     style="fill:#ececec;fill-opacity:1"
     id="layer1"
     transform="translate(0,-1036.2183)">
    <path
       style="fill:#ff2e2e;fill-opacity:1;fill-rule:evenodd;stroke:none;stroke-width:1px;stroke-linecap:butt;stroke-linejoin:miter;stroke-opacity:1"
       d="m 14.578374,1042.1045 0.0049,3.5808 c 1.853531,-0.6137 1.925646,-2.9318 -0.0049,-3.5808 z"
       id="path4165" />
    <path
       style="fill:#ff2e2e;fill-opacity:1;fill-rule:evenodd;stroke:none;stroke-width:1px;stroke-linecap:butt;stroke-linejoin:miter;stroke-opacity:1"
       d="M 1.0195312 3.4511719 C 0.27499883 3.4611719 0.01564967 3.7577 0.0078125 4.5625 L 0 10.888672 C -0.015674353 11.604972 0.27517162 11.975084 0.96484375 11.958984 L 5.4921875 11.974609 L 5.7753906 11.210938 L 1.6523438 11.207031 C 1.0401902 11.220031 0.78296238 10.916678 0.796875 10.330078 L 0.8046875 5.1503906 C 0.8116405 4.4913906 1.0403248 4.2505344 1.7011719 4.2402344 L 1.7011719 4.2441406 L 7.1074219 4.2441406 L 7.7011719 3.4707031 L 1.0195312 3.453125 L 1.0195312 3.4511719 z M 9.1464844 3.4746094 L 8.8652344 4.2441406 L 12.03125 4.2441406 C 12.761662 4.2441406 12.943117 4.5008531 12.957031 5.1269531 L 12.970703 10.333984 C 12.977603 10.999584 12.741891 11.202397 12.025391 11.216797 L 7.8476562 11.212891 L 7.2597656 11.980469 L 12.806641 12 C 13.613872 11.984 13.878933 11.734875 13.871094 10.921875 L 13.855469 4.5625 C 13.839789 3.7979 13.637355 3.486475 12.814453 3.484375 L 9.1464844 3.4746094 z "
       transform="translate(0,1036.2183)"
       id="path4177" />
    <path
       style="fill:#ff2e2e;fill-opacity:1;fill-rule:evenodd;stroke:none;stroke-width:1px;stroke-linecap:butt;stroke-linejoin:miter;stroke-opacity:1"
       d="m 2.2689,1046.7061 0.3221,0.01 0,-5.5139 -0.2792636,-2e-4 c -0.5811226,0.01 -0.7829862,0.198 -0.7891032,0.7194 l -0.00613,4.0985 c -0.012234,0.464 0.2140978,0.7042 0.7524011,0.694 z"
       id="path4177-3-6" />
  </g>
  <path
     style="opacity:1;fill:#ececec;fill-opacity:1;fill-rule:evenodd;stroke:none;stroke-width:1.51914859;stroke-linecap:butt;stroke-linejoin:miter;stroke-miterlimit:4;stroke-dasharray:none;stroke-opacity:0"
     d="m 4.5791487,8.5796069 c 1.01398,0.046 2.015771,0.093 2.956871,0.1391 L 6.1091707,12.525607 10.06492,7.3578067 7.2074287,7.2140067 8.6908277,3.2032065 Z"
     id="path4140-3" />
</svg>
