<?xml version="1.0" encoding="UTF-8" standalone="no"?>
<svg
   xmlns:dc="http://purl.org/dc/elements/1.1/"
   xmlns:cc="http://creativecommons.org/ns#"
   xmlns:rdf="http://www.w3.org/1999/02/22-rdf-syntax-ns#"
   xmlns:svg="http://www.w3.org/2000/svg"
   xmlns="http://www.w3.org/2000/svg"
   version="1.1"
   id="svg4189"
   viewBox="0 0 16 16"
   height="16"
   width="16">
  <defs
     id="defs4191" />
  <metadata
     id="metadata4194">
    <rdf:RDF>
      <cc:Work
         rdf:about="">
        <dc:format>image/svg+xml</dc:format>
        <dc:type
           rdf:resource="http://purl.org/dc/dcmitype/StillImage" />
        <dc:title></dc:title>
      </cc:Work>
    </rdf:RDF>
  </metadata>
  <g
     transform="translate(0,-1036.3622)"
     id="layer1"
     style="fill:#ececec;fill-opacity:1">
    <path
       id="path4165"
       d="m 14.578374,1042.1045 0.0049,3.5808 c 1.853531,-0.6137 1.925646,-2.9318 -0.0049,-3.5808 z"
       style="fill:#ececec;fill-opacity:1;fill-rule:evenodd;stroke:none;stroke-width:1px;stroke-linecap:butt;stroke-linejoin:miter;stroke-opacity:1" />
    <path
       style="fill:#ececec;fill-opacity:1;fill-rule:evenodd;stroke:none;stroke-width:1px;stroke-linecap:butt;stroke-linejoin:miter;stroke-opacity:1"
       d="M 1.0195312 3.3066406 C 0.27499883 3.3166406 0.01564967 3.6131688 0.0078125 4.4179688 L 0 10.744141 C -0.015674353 11.460441 0.27517162 11.830553 0.96484375 11.814453 L 5.4960938 11.830078 L 5.7773438 11.066406 L 1.6523438 11.0625 C 1.0401902 11.0755 0.78296238 10.772147 0.796875 10.185547 L 0.8046875 5.0058594 C 0.8116405 4.3468594 1.0403248 4.1060031 1.7011719 4.0957031 L 1.7011719 4.0996094 L 7.1074219 4.0996094 L 7.703125 3.3261719 L 1.0195312 3.3105469 L 1.0195312 3.3066406 z M 9.1484375 3.3300781 L 8.8691406 4.0996094 L 12.03125 4.0996094 C 12.761662 4.0996094 12.943117 4.358275 12.957031 4.984375 L 12.970703 10.189453 C 12.977603 10.855053 12.741891 11.057866 12.025391 11.072266 L 7.8496094 11.068359 L 7.2617188 11.835938 L 12.806641 11.855469 C 13.613872 11.839469 13.878933 11.590344 13.871094 10.777344 L 13.855469 4.4199219 C 13.839789 3.6553219 13.637355 3.3419438 12.814453 3.3398438 L 9.1484375 3.3300781 z "
       transform="translate(0,1036.3622)"
       id="path4177" />
    <path
       style="fill:#ececec;fill-opacity:1;fill-rule:evenodd;stroke:none;stroke-width:1px;stroke-linecap:butt;stroke-linejoin:miter;stroke-opacity:1"
       d="M 2.3125 4.8398438 C 1.7313774 4.8498437 1.5295545 5.0371938 1.5234375 5.5585938 L 1.515625 9.6582031 C 1.503391 10.122203 1.731228 10.361762 2.2695312 10.351562 L 2.2695312 10.34375 L 5.8007812 10.353516 L 5.8007812 9.5175781 L 3.0371094 9.3925781 L 5.8007812 5.7988281 L 5.8007812 4.8398438 L 2.3125 4.8398438 z "
       transform="translate(0,1036.3622)"
       id="path4177-3-6" />
  </g>
  <path
     style="opacity:1;fill:#ececec;fill-opacity:1;fill-rule:evenodd;stroke:none;stroke-width:1.51914859;stroke-linecap:butt;stroke-linejoin:miter;stroke-miterlimit:4;stroke-dasharray:none;stroke-opacity:0"
     d="m 4.3757584,8.7152002 c 1.01398,0.046 2.015771,0.093 2.956871,0.1391 L 5.9057804,12.661201 9.8615294,7.4934 7.0040384,7.3496 8.4874374,3.3387998 Z"
     id="path4140-3" />
</svg>
