<?xml version="1.0" encoding="UTF-8" standalone="no"?>
<svg
   xmlns:dc="http://purl.org/dc/elements/1.1/"
   xmlns:cc="http://creativecommons.org/ns#"
   xmlns:rdf="http://www.w3.org/1999/02/22-rdf-syntax-ns#"
   xmlns:svg="http://www.w3.org/2000/svg"
   xmlns="http://www.w3.org/2000/svg"
   id="svg2"
   version="1.1"
   width="16"
   height="16"
   viewBox="0 0 16 16">
  <metadata
     id="metadata8">
    <rdf:RDF>
      <cc:Work
         rdf:about="">
        <dc:format>image/svg+xml</dc:format>
        <dc:type
           rdf:resource="http://purl.org/dc/dcmitype/StillImage" />
        <dc:title></dc:title>
      </cc:Work>
    </rdf:RDF>
  </metadata>
  <defs
     id="defs6" />
  <path
     id="path4138"
     d="M -0.00158062,5.7381685 1.2471147,6.8733473 c 3.9731218,-4.1434009 10.1882213,-3.7177092 13.6221373,0 l 1.135179,-1.248696 C 11.804271,1.2542147 4.3120978,0.88528116 -0.00158062,5.7381685 Z"
     style="fill:#ececec;fill-opacity:1;fill-rule:evenodd;stroke:none;stroke-width:1px;stroke-linecap:butt;stroke-linejoin:miter;stroke-opacity:1;opacity:0.35" />
  <path
     id="path4155"
     d="M 2.4256809,7.9885288 3.4213232,9.1309387 C 6.0474866,6.5751645 9.8091138,6.5165675 12.576887,9.0409322 L 13.615516,8.0071696 C 10.550536,4.7435318 5.3771452,4.8667885 2.4256809,7.9885288 Z"
     style="fill:#ececec;fill-opacity:1;fill-rule:evenodd;stroke:none;stroke-width:1px;stroke-linecap:butt;stroke-linejoin:miter;stroke-opacity:1" />
  <path
     id="path4157"
     d="m 6.9230064,12.634377 1.0500404,1.106799 1.1067974,-1.163558 C 8.6541518,11.839752 7.2919377,11.95327 6.9230064,12.634376 Z"
     style="fill:#ececec;fill-opacity:1;fill-rule:evenodd;stroke:none;stroke-width:1px;stroke-linecap:butt;stroke-linejoin:miter;stroke-opacity:1" />
  <path
     id="path4159"
     d="m 4.6052932,10.355045 1.0635714,1.083635 c 1.2843066,-1.324442 3.3713061,-1.264241 4.6154764,-0.100343 l 1.043502,-1.083634 C 9.4816526,8.3282463 6.4916194,8.4687177 4.6052932,10.355045 Z"
     style="fill:#ececec;fill-opacity:1;fill-rule:evenodd;stroke:none;stroke-width:1px;stroke-linecap:butt;stroke-linejoin:miter;stroke-opacity:1" />
</svg>
